<svg width="24" height="24" viewBox="0 0 24 24" fill="none" xmlns="http://www.w3.org/2000/svg">
<path fill-rule="evenodd" clip-rule="evenodd" d="M16.9502 8.46443C17.3407 8.07391 17.3407 7.44074 16.9502 7.05022C16.5597 6.65969 15.9265 6.65969 15.536 7.05022L12.0004 10.5858L8.465 7.05037C8.07448 6.65984 7.44131 6.65984 7.05079 7.05037C6.66026 7.44089 6.66026 8.07406 7.05079 8.46458L10.5862 12L7.05071 15.5355C6.66018 15.926 6.66018 16.5592 7.05071 16.9497C7.44123 17.3402 8.0744 17.3402 8.46492 16.9497L12.0004 13.4142L15.5361 16.9499C15.9266 17.3404 16.5598 17.3404 16.9503 16.9499C17.3408 16.5593 17.3408 15.9262 16.9503 15.5356L13.4146 12L16.9502 8.46443Z" fill="#9A9EA0"/>
</svg>
