<svg width="48" height="48" viewBox="0 0 48 48" fill="none" xmlns="http://www.w3.org/2000/svg">
<path fill-rule="evenodd" clip-rule="evenodd" d="M24 46C36.1503 46 46 36.1503 46 24C46 11.8497 36.1503 2 24 2C11.8497 2 2 11.8497 2 24C2 36.1503 11.8497 46 24 46ZM24 42C33.9411 42 42 33.9411 42 24C42 14.0589 33.9411 6 24 6C14.0589 6 6 14.0589 6 24C6 33.9411 14.0589 42 24 42ZM15.4144 21.2426C16.1954 20.4615 17.4618 20.4615 18.2428 21.2426L22.4855 25.4853L29.5567 18.4142C30.3377 17.6331 31.6041 17.6331 32.3851 18.4142C33.1662 19.1952 33.1662 20.4615 32.3851 21.2426L23.8998 29.7279C23.5215 30.1062 23.0292 30.3013 22.5334 30.3131C22.4995 30.3139 22.4655 30.3138 22.4315 30.3129C21.9378 30.2997 21.448 30.1047 21.0713 29.7279L15.4144 24.071C14.6334 23.29 14.6334 22.0236 15.4144 21.2426Z" fill="#32CD8C"/>
</svg>
