<svg width="32" height="32" viewBox="0 0 32 32" fill="none" xmlns="http://www.w3.org/2000/svg">
<path d="M27 1.125H5C2.24292 1.125 0 3.36792 0 6.125V23.625C0 26.3821 2.24292 28.625 5 28.625H16.875C17.3518 28.625 17.7871 28.3538 17.9973 27.9255C18.2073 27.4976 18.1555 26.9871 17.8635 26.6101L14.594 22.3845L23.656 10.8579L29.5 17.8296V19.9375C29.5 20.6279 30.0596 21.1875 30.75 21.1875C31.4404 21.1875 32 20.6279 32 19.9375V6.125C32 3.36792 29.7571 1.125 27 1.125V1.125ZM24.583 8.07202C24.3411 7.78345 23.9824 7.61865 23.6055 7.62524C23.2288 7.6311 22.875 7.8064 22.6423 8.10254L13.0164 20.3459L9.73853 16.1101C9.50171 15.804 9.13672 15.625 8.75 15.625C8.74951 15.625 8.74878 15.625 8.74829 15.625C8.36084 15.6255 7.99536 15.8057 7.75928 16.1128L5.0083 19.689C4.5874 20.2363 4.6897 21.021 5.23682 21.4419C5.78418 21.863 6.56885 21.7605 6.98975 21.2134L8.75293 18.9214L14.3271 26.125H5C3.62158 26.125 2.5 25.0034 2.5 23.625V6.125C2.5 4.74658 3.62158 3.625 5 3.625H27C28.3784 3.625 29.5 4.74658 29.5 6.125V13.938L24.583 8.07202ZM8.75 5.625C6.68213 5.625 5 7.30713 5 9.375C5 11.4429 6.68213 13.125 8.75 13.125C10.8179 13.125 12.5 11.4429 12.5 9.375C12.5 7.30713 10.8179 5.625 8.75 5.625ZM8.75 10.625C8.06079 10.625 7.5 10.0642 7.5 9.375C7.5 8.68579 8.06079 8.125 8.75 8.125C9.43921 8.125 10 8.68579 10 9.375C10 10.0642 9.43921 10.625 8.75 10.625ZM32 24.9375C32 25.6279 31.4404 26.1875 30.75 26.1875H27.3125V29.625C27.3125 30.3154 26.7529 30.875 26.0625 30.875C25.3721 30.875 24.8125 30.3154 24.8125 29.625V26.1875H21.375C20.6846 26.1875 20.125 25.6279 20.125 24.9375C20.125 24.2471 20.6846 23.6875 21.375 23.6875H24.8125V20.25C24.8125 19.5596 25.3721 19 26.0625 19C26.7529 19 27.3125 19.5596 27.3125 20.25V23.6875H30.75C31.4404 23.6875 32 24.2471 32 24.9375Z" fill="#ADADAD"/>
</svg>
