<svg width="24" height="24" viewBox="0 0 24 24" fill="none" xmlns="http://www.w3.org/2000/svg">
<path fill-rule="evenodd" clip-rule="evenodd" d="M13.414 12.0002L17.707 7.70725C18.098 7.31625 18.098 6.68425 17.707 6.29325C17.316 5.90225 16.684 5.90225 16.293 6.29325L12 10.5862L7.70701 6.29325C7.31601 5.90225 6.68401 5.90225 6.29301 6.29325C5.90201 6.68425 5.90201 7.31625 6.29301 7.70725L10.586 12.0002L6.29301 16.2933C5.90201 16.6842 5.90201 17.3162 6.29301 17.7072C6.48801 17.9022 6.74401 18.0002 7.00001 18.0002C7.25601 18.0002 7.51201 17.9022 7.70701 17.7072L12 13.4142L16.293 17.7072C16.488 17.9022 16.744 18.0002 17 18.0002C17.256 18.0002 17.512 17.9022 17.707 17.7072C18.098 17.3162 18.098 16.6842 17.707 16.2933L13.414 12.0002Z" fill="#696969"/>
<mask id="mask0" mask-type="alpha" maskUnits="userSpaceOnUse" x="5" y="6" width="14" height="13">
<path fill-rule="evenodd" clip-rule="evenodd" d="M13.414 12.0002L17.707 7.70725C18.098 7.31625 18.098 6.68425 17.707 6.29325C17.316 5.90225 16.684 5.90225 16.293 6.29325L12 10.5862L7.70701 6.29325C7.31601 5.90225 6.68401 5.90225 6.29301 6.29325C5.90201 6.68425 5.90201 7.31625 6.29301 7.70725L10.586 12.0002L6.29301 16.2933C5.90201 16.6842 5.90201 17.3162 6.29301 17.7072C6.48801 17.9022 6.74401 18.0002 7.00001 18.0002C7.25601 18.0002 7.51201 17.9022 7.70701 17.7072L12 13.4142L16.293 17.7072C16.488 17.9022 16.744 18.0002 17 18.0002C17.256 18.0002 17.512 17.9022 17.707 17.7072C18.098 17.3162 18.098 16.6842 17.707 16.2933L13.414 12.0002Z" fill="white"/>
</mask>
<g mask="url(#mask0)">
<rect width="24" height="24" fill="#696969"/>
</g>
</svg>
