<svg width="20" height="21" viewBox="0 0 20 21" fill="none" xmlns="http://www.w3.org/2000/svg">
<path fill-rule="evenodd" clip-rule="evenodd" d="M9.99984 3C12.1507 3 14.0457 4.38417 14.729 6.37083C16.7615 6.64667 18.3332 8.39333 18.3332 10.5C18.3332 11.5175 17.9632 12.4967 17.2915 13.2575C17.1265 13.4433 16.8973 13.5392 16.6665 13.5392C16.4707 13.5392 16.274 13.4708 16.1148 13.3308C15.7707 13.025 15.7373 12.4992 16.0423 12.1533C16.4448 11.6983 16.6665 11.11 16.6665 10.5C16.6665 9.12167 15.5448 8 14.1665 8H14.0832C13.6865 8 13.3448 7.72 13.2665 7.33083C12.9548 5.7875 11.5815 4.66667 9.99984 4.66667C8.419 4.66667 7.04484 5.7875 6.734 7.33083C6.65567 7.72 6.31317 8 5.9165 8H5.83317C4.45484 8 3.33317 9.12167 3.33317 10.5C3.33317 11.11 3.55484 11.6983 3.95817 12.1533C4.26234 12.4992 4.22984 13.025 3.88484 13.3308C3.53984 13.6358 3.01317 13.6017 2.709 13.2575C2.0365 12.4967 1.6665 11.5175 1.6665 10.5C1.6665 8.39333 3.23817 6.64667 5.27067 6.37083C5.95484 4.38417 7.84984 3 9.99984 3ZM9.42084 9.90008C9.74917 9.58675 10.2683 9.58925 10.5892 9.91092L13.0892 12.4109C13.415 12.7367 13.415 13.2634 13.0892 13.5892C12.9267 13.7517 12.7133 13.8334 12.5 13.8334C12.2867 13.8334 12.0733 13.7517 11.9108 13.5892L10.8333 12.5117V17.1667C10.8333 17.6276 10.46 18.0001 10 18.0001C9.54 18.0001 9.16667 17.6276 9.16667 17.1667V12.4634L8.07917 13.5134C7.74834 13.8342 7.22084 13.8234 6.90084 13.4926C6.58084 13.1609 6.59 12.6342 6.92084 12.3142L9.42084 9.90008Z" fill="#696969"/>
<mask id="mask0" mask-type="alpha" maskUnits="userSpaceOnUse" x="1" y="3" width="18" height="15">
<path fill-rule="evenodd" clip-rule="evenodd" d="M9.99984 3C12.1507 3 14.0457 4.38417 14.729 6.37083C16.7615 6.64667 18.3332 8.39333 18.3332 10.5C18.3332 11.5175 17.9632 12.4967 17.2915 13.2575C17.1265 13.4433 16.8973 13.5392 16.6665 13.5392C16.4707 13.5392 16.274 13.4708 16.1148 13.3308C15.7707 13.025 15.7373 12.4992 16.0423 12.1533C16.4448 11.6983 16.6665 11.11 16.6665 10.5C16.6665 9.12167 15.5448 8 14.1665 8H14.0832C13.6865 8 13.3448 7.72 13.2665 7.33083C12.9548 5.7875 11.5815 4.66667 9.99984 4.66667C8.419 4.66667 7.04484 5.7875 6.734 7.33083C6.65567 7.72 6.31317 8 5.9165 8H5.83317C4.45484 8 3.33317 9.12167 3.33317 10.5C3.33317 11.11 3.55484 11.6983 3.95817 12.1533C4.26234 12.4992 4.22984 13.025 3.88484 13.3308C3.53984 13.6358 3.01317 13.6017 2.709 13.2575C2.0365 12.4967 1.6665 11.5175 1.6665 10.5C1.6665 8.39333 3.23817 6.64667 5.27067 6.37083C5.95484 4.38417 7.84984 3 9.99984 3ZM9.42084 9.90008C9.74917 9.58675 10.2683 9.58925 10.5892 9.91092L13.0892 12.4109C13.415 12.7367 13.415 13.2634 13.0892 13.5892C12.9267 13.7517 12.7133 13.8334 12.5 13.8334C12.2867 13.8334 12.0733 13.7517 11.9108 13.5892L10.8333 12.5117V17.1667C10.8333 17.6276 10.46 18.0001 10 18.0001C9.54 18.0001 9.16667 17.6276 9.16667 17.1667V12.4634L8.07917 13.5134C7.74834 13.8342 7.22084 13.8234 6.90084 13.4926C6.58084 13.1609 6.59 12.6342 6.92084 12.3142L9.42084 9.90008Z" fill="white"/>
</mask>
<g mask="url(#mask0)">
<rect y="0.5" width="20" height="20" fill="#696969"/>
</g>
</svg>
