<svg width="24" height="24" viewBox="0 0 24 24" fill="none" xmlns="http://www.w3.org/2000/svg">
<path fill-rule="evenodd" clip-rule="evenodd" d="M12 6.00007C4.5 6.00007 1 11.5001 1 12.0001C1 12.3053 2.30401 14.4733 5.02573 16.1164L3.29517 17.847L4.70939 19.2612L18.8483 5.12222L17.4341 3.70801L14.8592 6.2829C13.9804 6.10336 13.0278 6.00007 12 6.00007ZM13.0916 8.05052C12.7416 8.01766 12.3778 8.00007 12 8.00007C6.54545 8.00007 4 11.6667 4 12.0001C4 12.1917 4.84113 13.4848 6.59246 14.5497L9.00316 12.139C9.00106 12.0929 9 12.0466 9 12.0001C9 10.3432 10.3431 9.00007 12 9.00007C12.0466 9.00007 12.0929 9.00113 12.1389 9.00323L13.0916 8.05052ZM12 18.0001C10.685 18.0001 9.49294 17.831 8.42117 17.5494L10.1232 15.8474C10.7054 15.9449 11.3308 16.0001 12 16.0001C17.4545 16.0001 20 12.3334 20 12.0001C20 11.7888 18.9773 10.2383 16.8394 9.1312L18.4089 7.5617C21.5157 9.22836 23 11.6745 23 12.0001C23 12.5001 19.5 18.0001 12 18.0001ZM12 15.0001C11.6886 15.0001 11.3884 14.9526 11.106 14.8646L14.8645 11.1061C14.9526 11.3884 15 11.6887 15 12.0001C15 13.6569 13.6569 15.0001 12 15.0001Z" fill="#9A9EA0"/>
</svg>
