<svg width="28" height="28" viewBox="0 0 28 28" fill="none" xmlns="http://www.w3.org/2000/svg">
<g clip-path="url(#clip0_201_717)">
<path d="M9.83329 21.952L5.65601 24.2305C5.41088 24.3642 5.19058 24.5285 4.9856 24.7076C7.42107 26.7611 10.565 28 14 28C17.4097 28 20.5335 26.7796 22.9621 24.7541C22.7381 24.5649 22.4951 24.3948 22.2257 24.2606L17.7525 22.0243C17.1746 21.7354 16.8095 21.1447 16.8095 20.4986V18.7436C16.9353 18.6004 17.079 18.4166 17.2327 18.1994C17.8424 17.3383 18.3036 16.3911 18.6232 15.3973C19.1969 15.2203 19.6196 14.6905 19.6196 14.0607V12.1874C19.6196 11.7753 19.4362 11.4071 19.1515 11.1492V8.44116C19.1515 8.44116 19.7078 4.2269 14.0005 4.2269C8.29329 4.2269 8.8496 8.44116 8.8496 8.44116V11.1492C8.56431 11.4071 8.38152 11.7753 8.38152 12.1874V14.0607C8.38152 14.5541 8.64092 14.9884 9.02922 15.2394C9.49729 17.277 10.723 18.7436 10.723 18.7436V20.4553C10.7224 21.0787 10.3811 21.6529 9.83329 21.952Z" fill="#F6F5FC"/>
<path d="M14.2393 0.00208476C6.50865 -0.129991 0.134162 6.03001 0.00208614 13.7607C-0.0729327 18.144 1.88073 22.0835 4.99137 24.7034C5.19477 24.5259 5.41295 24.3631 5.65545 24.2311L9.83273 21.9525C10.3806 21.6535 10.7219 21.0792 10.7219 20.4548V18.7431C10.7219 18.7431 9.49567 17.2765 9.02813 15.2388C8.64035 14.9879 8.38043 14.5542 8.38043 14.0602V12.1868C8.38043 11.7748 8.56375 11.4065 8.8485 11.1487V8.44065C8.8485 8.44065 8.2922 4.22639 13.9994 4.22639C19.7067 4.22639 19.1504 8.44065 19.1504 8.44065V11.1487C19.4357 11.4065 19.6185 11.7748 19.6185 12.1868V14.0602C19.6185 14.6899 19.1958 15.2198 18.6221 15.3968C18.3025 16.3905 17.8413 17.3378 17.2316 18.1989C17.0779 18.416 16.9342 18.5999 16.8084 18.7431V20.4981C16.8084 21.1442 17.1735 21.7354 17.7514 22.0238L22.2246 24.2601C22.493 24.3943 22.7354 24.5639 22.9589 24.7525C25.9755 22.2367 27.9244 18.4752 27.9968 14.2393C28.1299 6.50865 21.9705 0.13416 14.2393 0.00208476Z" fill="#B8B2EA"/>
</g>
<defs>
<clipPath id="clip0_201_717">
<rect width="28" height="28" fill="white"/>
</clipPath>
</defs>
</svg>
