<svg width="28" height="28" viewBox="0 0 28 28" fill="none" xmlns="http://www.w3.org/2000/svg">
<path d="M3.49998 0H18.3688L26.2499 7.85052V26.25C26.2499 27.2169 25.466 28 24.5 28H3.49998C2.53396 28 1.75 27.2169 1.75 26.25V1.74998C1.75 0.783142 2.53405 0 3.49998 0Z" fill="#BCB4ED"/>
<path d="M26.2247 7.87507H20.1251C19.1591 7.87507 18.3751 7.09112 18.3751 6.12509V0.0175781L26.2247 7.87507Z" fill="#ADD9F4"/>
<path d="M19.6858 13.2679C19.9789 13.2679 20.1224 13.0124 20.1224 12.7648C20.1224 12.5084 19.9728 12.2607 19.6858 12.2607H18.0163C17.6899 12.2607 17.5079 12.5311 17.5079 12.8295V16.9323C17.5079 17.2981 17.7162 17.5011 17.9979 17.5011C18.2779 17.5011 18.4871 17.2981 18.4871 16.9323V15.8062H19.4968C19.8101 15.8062 19.9667 15.5498 19.9667 15.2953C19.9667 15.0459 19.8101 14.7982 19.4968 14.7982H18.4871V13.2679H19.6858ZM14.0429 12.2607H12.8214C12.4898 12.2607 12.2544 12.4883 12.2544 12.826V16.9359C12.2544 17.355 12.593 17.4862 12.8353 17.4862H14.1172C15.6344 17.4862 16.6363 16.4879 16.6363 14.947C16.6355 13.3178 15.6923 12.2607 14.0429 12.2607ZM14.1016 16.4731H13.3569V13.274H14.0281C15.044 13.274 15.4858 13.9557 15.4858 14.8963C15.4858 15.7766 15.0518 16.4731 14.1016 16.4731ZM9.6268 12.2607H8.41669C8.07455 12.2607 7.88379 12.4864 7.88379 12.8295V16.9323C7.88379 17.2981 8.10253 17.5011 8.3965 17.5011C8.69047 17.5011 8.90921 17.2981 8.90921 16.9323V15.7345H9.66781C10.6041 15.7345 11.3767 15.0712 11.3767 14.0046C11.3768 12.9608 10.6313 12.2607 9.6268 12.2607ZM9.6067 14.772H8.9093V13.2241H9.6067C10.0372 13.2241 10.3111 13.5601 10.3111 13.9985C10.3102 14.4361 10.0372 14.772 9.6067 14.772Z" fill="white"/>
</svg>
