<svg width="40" height="40" viewBox="0 0 40 40" fill="none" xmlns="http://www.w3.org/2000/svg">
<path d="M35.7123 4.29721C34.879 3.44554 33.6456 3.13054 32.4956 3.46387L5.67895 11.2122C4.46562 11.5489 3.60562 12.5105 3.37395 13.7305C3.13729 14.9739 3.96395 16.5539 5.04395 17.2139L13.429 22.3339C14.289 22.8605 15.399 22.7289 16.1106 22.0155L25.7123 12.4139C26.1956 11.9122 26.9956 11.9122 27.479 12.4139C27.9623 12.8955 27.9623 13.6805 27.479 14.1805L17.8606 23.7822C17.1473 24.4955 17.014 25.6022 17.539 26.4639L22.6623 34.8805C23.2623 35.8789 24.2956 36.4472 25.429 36.4472C25.5623 36.4472 25.7123 36.4472 25.8456 36.4289C27.1456 36.2639 28.179 35.3789 28.5623 34.1289L36.5123 7.51387C36.8623 6.38054 36.5456 5.14721 35.7123 4.29721Z" fill="#94AE3F"/>
<path opacity="0.4" fill-rule="evenodd" clip-rule="evenodd" d="M5.01741 28.013C4.69741 28.013 4.37741 27.8914 4.13407 27.6464C3.64574 27.158 3.64574 26.368 4.13407 25.8797L6.40907 23.603C6.89741 23.1164 7.68907 23.1164 8.17741 23.603C8.66407 24.0914 8.66407 24.883 8.17741 25.3714L5.90074 27.6464C5.65741 27.8914 5.33741 28.013 5.01741 28.013ZM11.2861 30.0004C10.9661 30.0004 10.6461 29.8787 10.4027 29.6337C9.91441 29.1454 9.91441 28.3554 10.4027 27.867L12.6777 25.5904C13.1661 25.1037 13.9577 25.1037 14.4461 25.5904C14.9327 26.0787 14.9327 26.8704 14.4461 27.3587L12.1694 29.6337C11.9261 29.8787 11.6061 30.0004 11.2861 30.0004ZM11.7089 35.947C11.9522 36.192 12.2722 36.3137 12.5922 36.3137C12.9122 36.3137 13.2322 36.192 13.4756 35.947L15.7522 33.672C16.2389 33.1837 16.2389 32.392 15.7522 31.9037C15.2639 31.417 14.4722 31.417 13.9839 31.9037L11.7089 34.1804C11.2206 34.6687 11.2206 35.4587 11.7089 35.947Z" fill="#94AE3F"/>
</svg>
