<svg width="48" height="48" viewBox="0 0 48 48" fill="none" xmlns="http://www.w3.org/2000/svg">
<path fill-rule="evenodd" clip-rule="evenodd" d="M24 46C36.1503 46 46 36.1503 46 24C46 11.8497 36.1503 2 24 2C11.8497 2 2 11.8497 2 24C2 36.1503 11.8497 46 24 46ZM24 42C33.9411 42 42 33.9411 42 24C42 14.0589 33.9411 6 24 6C14.0589 6 6 14.0589 6 24C6 33.9411 14.0589 42 24 42ZM30.364 17.4142C31.145 18.1953 31.145 19.4616 30.364 20.2426L26.8284 23.7782L30.3639 27.3137C31.145 28.0947 31.145 29.3611 30.3639 30.1421C29.5829 30.9232 28.3165 30.9232 27.5355 30.1421L24 26.6066L20.4645 30.1421C19.6834 30.9232 18.4171 30.9232 17.6361 30.1421C16.855 29.3611 16.855 28.0948 17.6361 27.3137L21.1716 23.7782L17.636 20.2426C16.855 19.4616 16.855 18.1952 17.636 17.4142C18.417 16.6332 19.6834 16.6332 20.4644 17.4142L24 20.9498L27.5356 17.4142C28.3166 16.6332 29.5829 16.6332 30.364 17.4142Z" fill="#F04B5F"/>
</svg>
