<svg width="20" height="21" viewBox="0 0 20 21" fill="none" xmlns="http://www.w3.org/2000/svg">
<path fill-rule="evenodd" clip-rule="evenodd" d="M14.9998 16.3332C14.9998 16.7923 14.6265 17.1665 14.1665 17.1665H5.83317C5.37317 17.1665 4.99984 16.7923 4.99984 16.3332V7.1665H14.9998V16.3332ZM8.33317 4.1065C8.33317 3.97734 8.5115 3.83317 8.74984 3.83317H11.2498C11.4882 3.83317 11.6665 3.97734 11.6665 4.1065V5.49984H8.33317V4.1065ZM17.4998 5.49984H16.6665H13.3332V4.1065C13.3332 3.0365 12.399 2.1665 11.2498 2.1665H8.74984C7.60067 2.1665 6.6665 3.0365 6.6665 4.1065V5.49984H3.33317H2.49984C2.0415 5.49984 1.6665 5.87484 1.6665 6.33317C1.6665 6.7915 2.0415 7.1665 2.49984 7.1665H3.33317V16.3332C3.33317 17.7115 4.45484 18.8332 5.83317 18.8332H14.1665C15.5448 18.8332 16.6665 17.7115 16.6665 16.3332V7.1665H17.4998C17.9582 7.1665 18.3332 6.7915 18.3332 6.33317C18.3332 5.87484 17.9582 5.49984 17.4998 5.49984Z" fill="#696969"/>
<mask id="mask0" mask-type="alpha" maskUnits="userSpaceOnUse" x="1" y="2" width="18" height="17">
<path fill-rule="evenodd" clip-rule="evenodd" d="M14.9998 16.3332C14.9998 16.7923 14.6265 17.1665 14.1665 17.1665H5.83317C5.37317 17.1665 4.99984 16.7923 4.99984 16.3332V7.1665H14.9998V16.3332ZM8.33317 4.1065C8.33317 3.97734 8.5115 3.83317 8.74984 3.83317H11.2498C11.4882 3.83317 11.6665 3.97734 11.6665 4.1065V5.49984H8.33317V4.1065ZM17.4998 5.49984H16.6665H13.3332V4.1065C13.3332 3.0365 12.399 2.1665 11.2498 2.1665H8.74984C7.60067 2.1665 6.6665 3.0365 6.6665 4.1065V5.49984H3.33317H2.49984C2.0415 5.49984 1.6665 5.87484 1.6665 6.33317C1.6665 6.7915 2.0415 7.1665 2.49984 7.1665H3.33317V16.3332C3.33317 17.7115 4.45484 18.8332 5.83317 18.8332H14.1665C15.5448 18.8332 16.6665 17.7115 16.6665 16.3332V7.1665H17.4998C17.9582 7.1665 18.3332 6.7915 18.3332 6.33317C18.3332 5.87484 17.9582 5.49984 17.4998 5.49984Z" fill="white"/>
</mask>
<g mask="url(#mask0)">
<rect y="0.5" width="20" height="20" fill="#696969"/>
</g>
</svg>
