<svg width="16" height="17" viewBox="0 0 16 17" fill="none" xmlns="http://www.w3.org/2000/svg">
<path fill-rule="evenodd" clip-rule="evenodd" d="M2.56929 4.16408L5.9115 10.0129C5.96906 10.1137 5.99933 10.2277 5.99933 10.3437V13.8333C5.99933 14.5697 6.59629 15.1667 7.33267 15.1667H8.666C9.40238 15.1667 9.99933 14.5697 9.99933 13.8333V10.3437C9.99933 10.2277 10.0296 10.1137 10.0872 10.0129L13.4294 4.16408C13.6833 3.71964 13.3624 3.16666 12.8505 3.16666H3.14812C2.63624 3.16666 2.31533 3.71965 2.56929 4.16408ZM4.29691 4.49999L7.06915 9.35142C7.24183 9.65361 7.33267 9.99564 7.33267 10.3437V13.8333H8.666V10.3437C8.666 9.99564 8.75683 9.65361 8.92951 9.35142L11.7018 4.49999H4.29691Z" fill="#FF9859"/>
</svg>
