<svg width="16" height="17" viewBox="0 0 16 17" fill="none" xmlns="http://www.w3.org/2000/svg">
<path fill-rule="evenodd" clip-rule="evenodd" d="M7.60615 6.38234C7.37015 6.66501 6.95015 6.70368 6.66748 6.46768L5.21414 5.25668L5.21414 13.1667C5.21414 13.5347 4.91547 13.8333 4.54748 13.8333C4.17948 13.8333 3.88081 13.5347 3.88081 13.1667L3.88081 5.25668L2.42747 6.46768C2.14414 6.70368 1.72414 6.66501 1.48881 6.38234C1.25281 6.09968 1.29081 5.67901 1.57414 5.44368L4.12081 3.32134C4.15214 3.29468 4.18947 3.28201 4.22414 3.26201C4.25147 3.24601 4.27547 3.22734 4.30547 3.21534C4.38347 3.18468 4.46481 3.16668 4.54748 3.16668C4.63014 3.16668 4.71147 3.18468 4.78947 3.21534C4.81947 3.22734 4.84347 3.24601 4.87081 3.26201C4.90547 3.28201 4.94281 3.29468 4.97414 3.32134L7.52081 5.44368C7.80348 5.67901 7.84215 6.09968 7.60615 6.38234Z" fill="#8E8E93"/>
<path fill-rule="evenodd" clip-rule="evenodd" d="M8.39581 10.6177C8.63181 10.335 9.05181 10.2963 9.33447 10.5323L10.7878 11.7433L10.7878 3.83334C10.7878 3.46534 11.0865 3.16667 11.4545 3.16667C11.8225 3.16667 12.1211 3.46534 12.1211 3.83334L12.1211 11.7433L13.5745 10.5323C13.8578 10.2963 14.2778 10.335 14.5131 10.6177C14.7491 10.9003 14.7111 11.321 14.4278 11.5563L11.8811 13.6787C11.8498 13.7053 11.8125 13.718 11.7778 13.738C11.7505 13.754 11.7265 13.7727 11.6965 13.7847C11.6185 13.8153 11.5371 13.8333 11.4545 13.8333C11.3718 13.8333 11.2905 13.8153 11.2125 13.7847C11.1825 13.7727 11.1585 13.754 11.1311 13.738C11.0965 13.718 11.0591 13.7053 11.0278 13.6787L8.48114 11.5563C8.19847 11.321 8.15981 10.9003 8.39581 10.6177Z" fill="#FF9859"/>
</svg>
