<svg width="16" height="17" viewBox="0 0 16 17" fill="none" xmlns="http://www.w3.org/2000/svg">
<path fill-rule="evenodd" clip-rule="evenodd" d="M6.66748 6.46768C6.95015 6.70368 7.37015 6.66501 7.60615 6.38234C7.84215 6.09968 7.80348 5.67901 7.52081 5.44368L4.97414 3.32134C4.95339 3.30368 4.93001 3.29216 4.90651 3.28059C4.89453 3.27468 4.88252 3.26877 4.87081 3.26201C4.86224 3.25699 4.85399 3.25171 4.84579 3.24646C4.82783 3.23496 4.81007 3.22358 4.78947 3.21534C4.71147 3.18468 4.63014 3.16668 4.54748 3.16668C4.46481 3.16668 4.38347 3.18468 4.30547 3.21534C4.28488 3.22358 4.26712 3.23496 4.24916 3.24646C4.24096 3.25171 4.23271 3.25699 4.22414 3.26201C4.21243 3.26877 4.20042 3.27468 4.18844 3.28059C4.16494 3.29216 4.14156 3.30368 4.12081 3.32134L1.57414 5.44368C1.29081 5.67901 1.25281 6.09968 1.48881 6.38234C1.72414 6.66501 2.14414 6.70368 2.42747 6.46768L3.88081 5.25668L3.88081 13.1667C3.88081 13.5347 4.17948 13.8333 4.54748 13.8333C4.91547 13.8333 5.21414 13.5347 5.21414 13.1667L5.21414 5.25668L6.66748 6.46768ZM9.33382 10.5323C9.05116 10.2963 8.63116 10.335 8.39516 10.6177C8.15916 10.9003 8.19782 11.321 8.48049 11.5563L11.0272 13.6787C11.0479 13.6963 11.0713 13.7079 11.0948 13.7194C11.1068 13.7253 11.1188 13.7313 11.1305 13.738C11.1391 13.743 11.1473 13.7483 11.1555 13.7536C11.1735 13.7651 11.1912 13.7764 11.2118 13.7847C11.2898 13.8153 11.3712 13.8333 11.4538 13.8333C11.5365 13.8333 11.6178 13.8153 11.6958 13.7847C11.7164 13.7764 11.7342 13.7651 11.7521 13.7536C11.7603 13.7483 11.7686 13.743 11.7772 13.738C11.7889 13.7313 11.8009 13.7253 11.8129 13.7194C11.8364 13.7079 11.8597 13.6963 11.8805 13.6787L14.4272 11.5563C14.7105 11.321 14.7485 10.9003 14.5125 10.6177C14.2772 10.335 13.8572 10.2963 13.5738 10.5323L12.1205 11.7433L12.1205 3.83334C12.1205 3.46534 11.8218 3.16668 11.4538 3.16668C11.0858 3.16668 10.7872 3.46534 10.7872 3.83334L10.7872 11.7433L9.33382 10.5323Z" fill="#FF9859"/>
<mask id="mask0_706_1406" style="mask-type:alpha" maskUnits="userSpaceOnUse" x="1" y="3" width="14" height="11">
<path fill-rule="evenodd" clip-rule="evenodd" d="M9.33447 10.5323C9.05181 10.2963 8.63181 10.335 8.39581 10.6177C8.15981 10.9003 8.19847 11.321 8.48114 11.5563L11.0278 13.6787C11.0486 13.6963 11.0719 13.7078 11.0954 13.7194C11.1074 13.7253 11.1194 13.7312 11.1311 13.738C11.1397 13.743 11.148 13.7483 11.1562 13.7535C11.1741 13.765 11.1919 13.7764 11.2125 13.7847C11.2905 13.8153 11.3718 13.8333 11.4545 13.8333C11.5371 13.8333 11.6185 13.8153 11.6965 13.7847C11.7171 13.7764 11.7348 13.765 11.7528 13.7535C11.761 13.7483 11.7692 13.743 11.7778 13.738C11.7895 13.7312 11.8015 13.7253 11.8135 13.7194C11.837 13.7078 11.8604 13.6963 11.8811 13.6787L14.4278 11.5563C14.7111 11.321 14.7491 10.9003 14.5131 10.6177C14.2778 10.335 13.8578 10.2963 13.5745 10.5323L12.1211 11.7433V3.83332C12.1211 3.46532 11.8225 3.16666 11.4545 3.16666C11.0865 3.16666 10.7878 3.46532 10.7878 3.83332V11.7433L9.33447 10.5323ZM6.66813 6.46766C6.9508 6.70366 7.3708 6.66499 7.6068 6.38232C7.8428 6.09966 7.80413 5.67899 7.52146 5.44366L4.97479 3.32132C4.95404 3.30366 4.93066 3.29214 4.90716 3.28057C4.89518 3.27466 4.88317 3.26874 4.87146 3.26199C4.86289 3.25697 4.85465 3.25169 4.84644 3.24644C4.82849 3.23494 4.81072 3.22356 4.79013 3.21532C4.71213 3.18466 4.63079 3.16666 4.54813 3.16666C4.46546 3.16666 4.38413 3.18466 4.30613 3.21532C4.28553 3.22356 4.26777 3.23494 4.24981 3.24644C4.2416 3.25169 4.23336 3.25697 4.22479 3.26199C4.21309 3.26874 4.20107 3.27466 4.18909 3.28057C4.1656 3.29214 4.14221 3.30366 4.12146 3.32132L1.57479 5.44366C1.29146 5.67899 1.25346 6.09966 1.48946 6.38232C1.72479 6.66499 2.14479 6.70366 2.42813 6.46766L3.88146 5.25666V13.1667C3.88146 13.5347 4.18013 13.8333 4.54813 13.8333C4.91613 13.8333 5.21479 13.5347 5.21479 13.1667V5.25666L6.66813 6.46766Z" fill="#231F20"/>
</mask>
<g mask="url(#mask0_706_1406)">
<rect y="0.499985" width="16" height="16" fill="#FF9859"/>
</g>
</svg>
