<svg width="56" height="35" viewBox="0 0 56 35" fill="none" xmlns="http://www.w3.org/2000/svg">
<g clip-path="url(#clip0_6180_38883)">
<path d="M52.2318 35.9985H3.73085C2.74136 35.9985 1.79241 35.6086 1.09274 34.9147C0.39307 34.2208 0 33.2796 0 32.2983L0 16.733H2.68776L3.29403 15.2776H4.65112L5.25583 16.7268H10.5443V15.6245L11.0169 16.7345H13.7622L14.2347 15.606V16.7314H27.3751V14.351H27.6238C27.801 14.3572 27.8523 14.3726 27.8523 14.6655V16.7345H34.6502V16.1811C35.3451 16.531 36.1643 16.7361 37.0333 16.7361L37.181 16.7345H37.1732H40.0335L40.646 15.2853H42.0031L42.6016 16.7345H48.1139V15.3562L48.9471 16.7345H53.3558V7.63215H48.9922V8.70674L48.3813 7.63215H43.895V8.70674L43.3338 7.63215H37.2758C36.358 7.58615 35.4435 7.77349 34.6191 8.17638L34.6518 8.16251V7.63215H30.4732V8.16251C29.9675 7.76714 29.3287 7.57801 28.6871 7.63369H28.6964H13.4264L12.402 9.98483L11.3495 7.63369H6.53986V8.70828L6.00977 7.63369H1.90584L0.00466356 11.9505V2.70015C0.00466356 1.71881 0.397734 0.777664 1.0974 0.0837501C1.79707 -0.610163 2.74603 -1 3.73551 -1H52.2365C53.226 -1 54.1749 -0.610163 54.8746 0.0837501C55.5743 0.777664 55.9674 1.71881 55.9674 2.70015V18.8575H53.0557C53.0091 18.8544 52.9531 18.8544 52.8987 18.8544C52.2241 18.8544 51.5976 19.0548 51.0753 19.3986L51.0877 19.3909V18.8575H46.7817C46.109 18.8206 45.4434 19.0102 44.893 19.3956L44.9023 19.3894V18.856H37.2136V19.3894C36.5842 19.0374 35.8734 18.8535 35.1508 18.856H35.0902H35.0933H30.0209V19.3894C29.3582 18.9684 28.5718 18.781 27.7886 18.8575L27.8026 18.856H22.127L20.8274 20.2497L19.6118 18.856H11.1335V27.9645H19.4533L20.7917 26.5492L22.0524 27.9645H27.1808V25.8323H27.8958C28.5834 25.8589 29.2692 25.7451 29.9105 25.4977L29.8763 25.5101V27.9676H34.1046V25.5949H34.3082C34.5663 25.5949 34.5927 25.6041 34.5927 25.8631V27.9691H47.4424L47.5994 27.9722C48.3362 27.9722 49.0233 27.7533 49.5954 27.3786L49.5814 27.3863V27.9691H53.6573L53.8517 27.9722C54.6149 27.9722 55.3409 27.8165 56 27.5344L55.9642 27.5482V32.2998C55.9642 33.2812 55.5712 34.2223 54.8715 34.9162C54.1718 35.6102 53.2229 36 52.2334 36L52.2318 35.9985ZM32.8081 26.6879H31.2256V20.1587H34.857C35.5128 20.0984 36.1732 20.2079 36.7737 20.4763L36.7488 20.4671C37.2354 20.7322 37.5603 21.2379 37.5603 21.8176L37.5572 21.9209V21.9163L37.5587 21.9749C37.5587 22.7242 37.1033 23.3686 36.4504 23.6492L36.4379 23.6538C36.7504 23.7648 37.0116 23.9545 37.2059 24.1996L37.209 24.2027C37.4285 24.563 37.5204 24.9857 37.4701 25.4037L37.4717 25.3944V26.6864H35.8923V25.8693C35.9671 25.4244 35.8771 24.9677 35.6389 24.5835L35.6436 24.5912C35.4795 24.4677 35.2918 24.3784 35.092 24.3289C34.8921 24.2793 34.6842 24.2705 34.4808 24.3029L34.4901 24.3013H32.8081V26.6864V26.6879ZM32.8081 21.5077V22.9739H34.7202C34.9902 22.9986 35.2619 22.9507 35.5068 22.8352L35.4974 22.8398C35.5975 22.7757 35.6798 22.6878 35.7368 22.5842C35.7938 22.4805 35.8237 22.3643 35.8239 22.2462L35.8223 22.2108V22.2123C35.8301 22.0945 35.8039 21.9769 35.747 21.8732C35.69 21.7695 35.6046 21.6839 35.5006 21.6264L35.4974 21.6249C35.2615 21.5203 35.0024 21.4778 34.7451 21.5016H34.7513L32.8081 21.5077ZM18.7786 26.6864H12.5496V20.1587H18.8765L20.8119 22.2986L22.8126 20.1587H27.8383C29.6229 20.1587 30.4903 20.8633 30.4903 22.3094C30.4903 23.7818 29.5934 24.4971 27.7544 24.4971H25.7879V26.6849H22.7302L20.7933 24.528L18.7801 26.6864H18.7786ZM24.221 20.8587L21.8052 23.4334L24.221 26.0913V20.8587ZM14.1181 24.0269V25.3251H17.9858L19.7735 23.4102L18.0542 21.5077H14.1166V22.6949H17.5707V24.0254L14.1181 24.0269ZM25.7879 21.5093V23.1713H27.8197C28.4415 23.1713 28.799 22.8567 28.799 22.3079C28.799 21.7837 28.4664 21.5077 27.8368 21.5077L25.7879 21.5093ZM53.8283 26.6895H50.7908V25.2865H53.8159C54.0423 25.3175 54.2718 25.2588 54.4548 25.1231L54.4533 25.1246C54.5117 25.0709 54.5582 25.0058 54.5901 24.9333C54.6219 24.8609 54.6383 24.7827 54.6382 24.7037V24.6791C54.6384 24.601 54.6213 24.5239 54.5883 24.4531C54.5553 24.3823 54.5071 24.3194 54.447 24.269C54.2862 24.1537 54.0877 24.102 53.8905 24.124H53.8936L53.6029 24.1148C52.1821 24.0778 50.5732 24.0346 50.5732 22.1028C50.5732 21.1624 51.167 20.1587 52.8288 20.1587H55.9642V21.5494H53.0962C52.8746 21.5248 52.6509 21.5689 52.4557 21.6758L52.4619 21.6727C52.3852 21.7228 52.3234 21.7925 52.2832 21.8744C52.243 21.9563 52.2258 22.0475 52.2334 22.1383V22.1368V22.1537C52.2334 22.2576 52.2664 22.3588 52.3279 22.443C52.3893 22.5272 52.4759 22.5899 52.5754 22.6224L52.5785 22.6239C52.7756 22.6842 52.9819 22.7093 53.1879 22.6979H53.1832L54.0366 22.7195C54.68 22.6559 55.3227 22.8458 55.8259 23.2483L55.8212 23.2453C55.8679 23.2823 55.9083 23.3223 55.944 23.3671L55.9456 23.3686L55.9642 25.8539C55.7028 26.1568 55.3703 26.3914 54.9959 26.5368C54.6215 26.6823 54.2168 26.7342 53.8175 26.6879L53.8283 26.6895ZM47.6895 26.6895H44.624V25.2865H47.674C47.9022 25.3161 48.1332 25.2576 48.3191 25.1231L48.316 25.1246C48.3741 25.0707 48.4203 25.0055 48.4519 24.9331C48.4834 24.8607 48.4996 24.7826 48.4994 24.7037V24.6883C48.4994 24.609 48.4823 24.5305 48.4493 24.4582C48.4164 24.386 48.3683 24.3214 48.3082 24.269C48.1445 24.1536 47.9436 24.102 47.7439 24.124H47.7471L47.4579 24.1148C46.0418 24.0778 44.4344 24.0346 44.4344 22.1028C44.4344 21.1624 45.0251 20.1587 46.6838 20.1587H49.8363V21.5494H46.9511C46.7311 21.525 46.5089 21.5692 46.3153 21.6758L46.3216 21.6727C46.2399 21.7284 46.1749 21.805 46.1335 21.8943C46.0921 21.9836 46.0758 22.0824 46.0863 22.1802C46.0968 22.2779 46.1338 22.371 46.1932 22.4497C46.2527 22.5284 46.3325 22.5896 46.4242 22.627L46.4273 22.6286C46.6269 22.6893 46.8359 22.7144 47.0444 22.7026H47.0398L47.887 22.7242C48.5337 22.6624 49.1793 22.8526 49.6871 23.2545L49.6824 23.2499C49.8533 23.4367 49.9832 23.6565 50.064 23.8956C50.1448 24.1347 50.1747 24.3878 50.1519 24.639V24.6313C50.1566 25.9926 49.3249 26.6864 47.6849 26.6864L47.6895 26.6895ZM43.682 26.6895H38.4277V20.1572H43.6773V21.5062H39.9978V22.6933H43.5918V24.0238H39.9978V25.322L43.682 25.3281V26.6849V26.6895ZM46.7444 15.4564H43.5405L42.9281 14.001H39.6604L39.0666 15.4564H37.2261C36.3995 15.4997 35.5856 15.2414 34.9378 14.7303L34.9456 14.7349C34.6379 14.3981 34.4043 14.0013 34.2598 13.57C34.1152 13.1386 34.0629 12.6821 34.1062 12.2296L34.1046 12.2419C34.0646 11.7811 34.1194 11.317 34.2659 10.8778C34.4123 10.4386 34.6473 10.0336 34.9565 9.68728L34.9534 9.69036C35.2798 9.40728 35.6615 9.19384 36.0747 9.06335C36.4879 8.93285 36.9237 8.88809 37.3551 8.93183L37.3427 8.93029H38.8661V10.3225H37.3738C37.1554 10.2946 36.9335 10.3148 36.7239 10.3817C36.5143 10.4486 36.3222 10.5605 36.1612 10.7094L36.1628 10.7079C35.8304 11.13 35.6691 11.6601 35.7104 12.1941V12.1864C35.6609 12.7351 35.8163 13.2827 36.1472 13.7251L36.1426 13.7189C36.4516 13.9694 36.8472 14.09 37.2447 14.055H37.2385H37.9443L40.1688 8.92104H42.5317L45.1945 15.088V8.92104H47.5901L50.354 13.4661V8.92104H51.9707V15.4456H49.726L46.7413 10.546V15.4456L46.7444 15.4564ZM41.3051 10.0326L40.2216 12.6351H42.3933L41.3051 10.0326ZM26.0724 15.4534H24.4992V8.92566H28.1181C28.7788 8.85768 29.4456 8.96906 30.0473 9.24789L30.024 9.23864C30.2659 9.37133 30.4676 9.56585 30.6081 9.80199C30.7486 10.0381 30.8228 10.3073 30.823 10.5815L30.8199 10.6894V10.6848V10.7326C30.82 11.0886 30.7165 11.4372 30.5219 11.7364C30.3272 12.0355 30.0496 12.2726 29.7224 12.4192L29.71 12.4239C30.0224 12.541 30.2851 12.7291 30.4857 12.9696L30.4888 12.9727C30.7106 13.3344 30.8021 13.7599 30.7484 14.1799L30.7499 14.1706V15.4518H29.1628L29.1566 14.6285V14.5052C29.213 14.1026 29.1232 13.6933 28.9032 13.3504L28.9078 13.3581C28.7432 13.2382 28.5562 13.1518 28.3577 13.1039C28.1592 13.056 27.9531 13.0475 27.7513 13.0791L27.7606 13.0775H26.074V15.4518L26.0724 15.4534ZM26.0724 10.2839V11.7332H27.9813C28.251 11.7622 28.5234 11.714 28.7664 11.5944L28.7586 11.5975C28.8582 11.5374 28.9405 11.453 28.9977 11.3523C29.0549 11.2516 29.0849 11.138 29.0851 11.0224L29.0835 10.9792V10.9808C29.0914 10.8636 29.0646 10.7468 29.0063 10.6446C28.948 10.5424 28.8608 10.4594 28.7555 10.4057L28.7524 10.4042C28.5158 10.3035 28.2582 10.2612 28.0016 10.2808H28.0062L26.0724 10.2839ZM9.41417 15.4534H6.21808L5.61337 13.998H2.33644L1.72707 15.4534H0.0170997L2.83544 8.92566H5.17189L7.84721 15.1034V8.92566H10.4137L12.4719 13.352L14.3638 8.92566H16.9831V15.4503H15.3664L15.3633 10.3441L13.0828 15.4518H11.7024L9.41572 10.3363V15.4518L9.41417 15.4534ZM3.96713 10.0326L2.89607 12.6351H5.04441L3.96713 10.0326ZM33.3289 15.4518H31.7246V8.92566H33.3304V15.4503L33.3289 15.4518ZM23.4017 15.4518H18.1568V8.92566H23.4111V10.2824H19.73V11.4587H23.3225V12.7985H19.7268V14.1028H23.408V15.4503L23.4017 15.4518Z" fill="#026FD1"/>
</g>
<defs>
<clipPath id="clip0_6180_38883">
<rect width="56" height="35" rx="3" fill="white"/>
</clipPath>
</defs>
</svg>
