<svg width="56" height="35" viewBox="0 0 56 35" fill="none" xmlns="http://www.w3.org/2000/svg">
<g clip-path="url(#clip0_6180_38888)">
<path d="M10.9466 0H24.8981C26.8456 0 28.0568 1.58747 27.6027 3.54156L21.1071 31.4289C20.6488 33.3762 18.6987 34.965 16.7501 34.965H2.79972C0.855029 34.965 -0.359033 33.3762 0.0953105 31.4289L6.5935 3.54156C7.04784 1.58747 8.99669 0 10.9466 0Z" fill="#E21836"/>
<path d="M23.7385 0H39.7825C41.7296 0 40.8518 1.58747 40.3937 3.54156L33.899 31.4289C33.4436 33.3762 33.5856 34.965 31.6343 34.965H15.5905C13.6393 34.965 12.4318 33.3762 12.8901 31.4289L19.3841 3.54156C19.8452 1.58747 21.7901 0 23.7385 0Z" fill="#00447C"/>
<path d="M39.1442 0H53.0957C55.046 0 56.2573 1.58747 55.7994 3.54156L49.3047 31.4289C48.8465 33.3762 46.8952 34.965 44.945 34.965H31.0002C29.0489 34.965 27.8386 33.3762 28.2958 31.4289L34.7911 3.54156C35.2455 1.58747 37.193 0 39.1442 0Z" fill="#007B84"/>
<path d="M14.5911 8.93691C13.1566 8.95157 12.7328 8.93691 12.5974 8.90498C12.5454 9.15216 11.5772 13.6182 11.5746 13.6219C11.3661 14.5253 11.2145 15.1695 10.6991 15.5854C10.4069 15.8271 10.0654 15.9439 9.66947 15.9439C9.03334 15.9439 8.66256 15.6278 8.60044 15.0287L8.58841 14.823C8.58841 14.823 8.78222 13.6127 8.78222 13.6059C8.78222 13.6059 9.79831 9.53607 9.98031 8.99816C9.98994 8.96754 9.99256 8.95157 9.99497 8.93691C8.01725 8.95441 7.66659 8.93691 7.64253 8.90498C7.62919 8.94873 7.58019 9.20116 7.58019 9.20116L6.54266 13.7884L6.45363 14.1773L6.28125 15.4498C6.28125 15.8271 6.35541 16.1353 6.50284 16.3959C6.97556 17.2219 8.32394 17.3457 9.08672 17.3457C10.0693 17.3457 10.9914 17.1368 11.6144 16.7555C12.6957 16.1167 12.9787 15.1179 13.2309 14.2302L13.348 13.775C13.348 13.775 14.3947 9.5481 14.5725 8.99816C14.5791 8.96754 14.5819 8.95157 14.5911 8.93691ZM18.1524 12.3468C17.9002 12.3468 17.4392 12.408 17.0249 12.611C16.8747 12.6883 16.7325 12.7773 16.5824 12.8661L16.7178 12.3774L16.6437 12.2952C15.7654 12.473 15.5687 12.4969 14.7574 12.611L14.6896 12.6563C14.5953 13.4373 14.5115 14.0246 14.1624 15.56C14.0286 16.128 13.8921 16.6953 13.7529 17.2619L13.7901 17.3334C14.6217 17.2897 14.874 17.2897 15.5967 17.3015L15.6551 17.238C15.747 16.7677 15.7588 16.6575 15.9623 15.7048C16.0578 15.2533 16.2571 14.2611 16.3553 13.9078C16.5358 13.824 16.7141 13.7418 16.8841 13.7418C17.2892 13.7418 17.2397 14.095 17.2242 14.2359C17.2067 14.4722 17.0593 15.2441 16.9079 15.9069L16.8068 16.3346C16.7366 16.6507 16.6594 16.9576 16.589 17.2709L16.6196 17.3334C17.439 17.2897 17.6891 17.2897 18.3888 17.3015L18.4711 17.238C18.5977 16.5035 18.6347 16.3068 18.8592 15.2374L18.972 14.746C19.1914 13.7842 19.3017 13.2966 19.1357 12.8994C18.9602 12.4542 18.5391 12.3468 18.1526 12.3468H18.1524ZM22.131 13.3537C21.6953 13.4375 21.4174 13.493 21.1414 13.5291C20.8677 13.5729 20.6006 13.6129 20.1798 13.6713L20.1463 13.7015L20.1157 13.7256C20.0719 14.0393 20.0413 14.3103 19.9831 14.629C19.9339 14.9584 19.858 15.3329 19.7346 15.8709C19.639 16.2825 19.5898 16.426 19.5353 16.5709C19.4822 16.7159 19.4238 16.8568 19.3163 17.2617L19.3415 17.2991L19.3625 17.3334C19.756 17.3148 20.0135 17.3015 20.278 17.2991C20.5422 17.2897 20.8161 17.2991 21.2396 17.3013L21.2768 17.2713L21.3166 17.2378C21.3778 16.8725 21.3868 16.7743 21.4242 16.5962C21.4614 16.405 21.5253 16.1406 21.6821 15.4338C21.7563 15.1019 21.8387 14.771 21.9158 14.4324C21.9956 14.095 22.0792 13.763 22.1588 13.4309L22.147 13.3909L22.131 13.3537ZM22.1402 11.9961C21.7443 11.7625 21.0497 11.8367 20.582 12.1593C20.1159 12.4756 20.0627 12.9245 20.4573 13.1612C20.8463 13.3883 21.5437 13.3207 22.0072 12.9952C22.4725 12.6721 22.5307 12.2274 22.1402 11.9961ZM24.534 17.4067C25.3348 17.4067 26.1558 17.1858 26.7738 16.531C27.2491 15.9999 27.4672 15.2096 27.5427 14.8841C27.7883 13.8054 27.5969 13.3019 27.3567 12.9952C26.9914 12.5275 26.3459 12.3774 25.6763 12.3774C25.2738 12.3774 24.3148 12.4172 23.5656 13.108C23.0274 13.6061 22.7789 14.2823 22.6291 14.9302C22.4777 15.5909 22.3036 16.7795 23.3969 17.2221C23.7342 17.3669 24.2205 17.4067 24.534 17.4067ZM24.4714 14.9797C24.656 14.1629 24.8741 13.4773 25.4304 13.4773C25.8664 13.4773 25.8981 13.9874 25.7043 14.8069C25.6695 14.9889 25.5105 15.6652 25.2952 15.9531C25.1447 16.1657 24.9671 16.2946 24.7702 16.2946C24.7118 16.2946 24.364 16.2946 24.3585 15.7781C24.3559 15.523 24.408 15.2625 24.4714 14.9797ZM29.5444 17.3017L29.607 17.238C29.6958 16.7677 29.7105 16.6573 29.9069 15.705C30.0053 15.2533 30.2088 14.2613 30.3042 13.9078C30.4851 13.8238 30.6603 13.7415 30.8357 13.7415C31.238 13.7415 31.189 14.0948 31.173 14.2357C31.1584 14.4724 31.0107 15.2439 30.8567 15.9067L30.7611 16.3344C30.6881 16.6507 30.6084 16.9574 30.538 17.2711L30.5686 17.3336C31.3911 17.2899 31.6313 17.2899 32.3352 17.3017L32.4203 17.238C32.5437 16.503 32.5772 16.3066 32.8084 15.2374L32.9184 14.7458C33.1389 13.784 33.2505 13.2968 33.0871 12.8996C32.9066 12.4544 32.4829 12.347 32.1016 12.347C31.849 12.347 31.3857 12.4078 30.9737 12.6113C30.8265 12.6883 30.6789 12.7771 30.5341 12.8663L30.6603 12.3776L30.5925 12.2949C29.7144 12.473 29.514 12.4969 28.7036 12.6113L28.6412 12.6563C28.543 13.4375 28.4632 14.0244 28.114 15.5602C27.9802 16.1281 27.8437 16.6953 27.7048 17.2619L27.7419 17.3336C28.5747 17.2899 28.8232 17.2899 29.5444 17.3017ZM35.5859 17.3334C35.6375 17.081 35.9446 15.5856 35.9473 15.5856C35.9473 15.5856 36.2087 14.4881 36.2248 14.4483C36.2248 14.4483 36.3071 14.3341 36.3893 14.2889H36.5103C37.6526 14.2889 38.9426 14.2889 39.9534 13.5451C40.6414 13.035 41.1117 12.2818 41.3215 11.3664C41.376 11.1419 41.416 10.875 41.416 10.6082C41.416 10.2575 41.3458 9.91057 41.1423 9.63954C40.6267 8.91832 39.6002 8.90498 38.415 8.89951L37.8309 8.90498C36.3139 8.92379 35.7055 8.91832 35.4555 8.8877C35.4345 8.99816 35.3947 9.19482 35.3947 9.19482C35.3947 9.19482 34.8513 11.7133 34.8513 11.7172L33.4896 17.3242C34.8141 17.3083 35.3573 17.3083 35.5859 17.3334ZM36.5928 12.8595C36.5928 12.8595 37.1703 10.3461 37.1677 10.3557L37.1865 10.2267L37.1946 10.1287L37.4256 10.1523C37.4256 10.1523 38.6171 10.2547 38.6449 10.2573C39.1152 10.4393 39.309 10.9083 39.1738 11.5204C39.0502 12.0799 38.6875 12.5502 38.2212 12.7773C37.8372 12.9698 37.3669 12.9858 36.8824 12.9858H36.5689L36.5928 12.8595ZM40.1899 15.0263C40.0372 15.677 39.8618 16.8659 40.9496 17.2897C41.2966 17.4371 41.6074 17.4811 41.9231 17.4651C42.2569 17.4472 42.566 17.2798 42.8523 17.039L42.7747 17.3363L42.8241 17.3997C43.6066 17.3669 43.8494 17.3669 44.697 17.3734L44.774 17.3148C44.8976 16.587 45.0144 15.8805 45.3362 14.4881C45.4928 13.8214 45.6493 13.161 45.81 12.4969L45.7849 12.4238C44.9097 12.5859 44.6758 12.6207 43.8336 12.7399L43.7698 12.7919C43.7612 12.8598 43.7523 12.9247 43.7442 12.9897C43.6133 12.7782 43.4235 12.5975 43.1308 12.485C42.7563 12.3376 41.8769 12.5275 41.1211 13.2157C40.5898 13.7072 40.3347 14.3805 40.1899 15.0263ZM42.0283 15.0661C42.2158 14.2637 42.4308 13.5851 42.9886 13.5851C43.3412 13.5851 43.5269 13.9104 43.4891 14.4654C43.4568 14.6154 43.4232 14.7652 43.3885 14.9147C43.3327 15.1531 43.2723 15.3894 43.2135 15.6261C43.1535 15.7879 43.0837 15.9406 43.0074 16.0424C42.8639 16.2458 42.5224 16.3718 42.3258 16.3718C42.27 16.3718 41.9259 16.3718 41.9141 15.8643C41.9113 15.6119 41.9633 15.3515 42.0283 15.0659V15.0661ZM51.6283 12.4172L51.5605 12.34C50.6945 12.5154 50.5377 12.5434 49.7421 12.6509L49.6834 12.7093C49.6808 12.7189 49.6784 12.7333 49.6743 12.7467L49.6716 12.7335C49.0792 14.1003 49.0965 13.8054 48.6144 14.8812C48.6116 14.8322 48.6116 14.8018 48.6089 14.7498L48.4882 12.4172L48.4125 12.34C47.5051 12.5154 47.4837 12.5434 46.6459 12.6509L46.5805 12.7093C46.5713 12.7373 46.5713 12.7679 46.5658 12.8011L46.5713 12.8132C46.6761 13.3482 46.6509 13.2288 46.7559 14.0736C46.8049 14.4881 46.8703 14.9051 46.9191 15.3146C47.0018 15.9997 47.0482 16.337 47.149 17.3829C46.5833 18.3165 46.4492 18.67 45.9043 19.4894L45.9083 19.4975L45.5246 20.1043C45.4808 20.1682 45.441 20.2119 45.3852 20.2308C45.324 20.2609 45.2443 20.2664 45.1339 20.2664H44.9213L44.6054 21.3173L45.6893 21.3359C46.3254 21.3333 46.7253 21.0358 46.9405 20.6359L47.6222 19.468H47.6112L47.683 19.3857C48.1415 18.3989 51.6283 12.4172 51.6283 12.4172ZM40.1899 26.2177H39.7301L41.432 20.5893H41.9963L42.1757 20.0096L42.1928 20.6543C42.1718 21.0528 42.4853 21.4061 43.3088 21.3477H44.2615L44.5892 20.264H44.2309C44.0248 20.264 43.929 20.2119 43.941 20.1004L43.9237 19.4444H42.16V19.4479C41.5897 19.4597 39.8865 19.5025 39.5418 19.5944C39.1246 19.7016 38.6849 20.0181 38.6849 20.0181L38.8577 19.4376H37.2077L36.8638 20.5893L35.1394 26.3037H34.8047L34.4766 27.3797H37.7629L37.6528 27.7385H39.272L39.3797 27.3797H39.8338L40.1899 26.2177ZM38.8415 21.7329C38.5773 21.806 38.0858 22.0278 38.0858 22.0278L38.523 20.5893H39.8338L39.5177 21.6373C39.5177 21.6373 39.1126 21.6614 38.8417 21.7329H38.8415ZM38.8667 23.7879C38.8667 23.7879 38.455 23.8397 38.184 23.9007C37.9171 23.9817 37.4164 24.2367 37.4164 24.2367L37.8681 22.7398H39.1856L38.8667 23.7879ZM38.1321 26.2309H36.8172L37.1985 24.9676H38.5093L38.1321 26.2309ZM41.299 22.7398H43.1944L42.9221 23.622H41.0015L40.7132 24.5863H42.3938L41.1211 26.3781C41.0321 26.5098 40.9522 26.5564 40.8634 26.5933C40.7744 26.6386 40.6574 26.6918 40.5222 26.6918H40.0558L39.7356 27.7479H40.9549C41.5888 27.7479 41.9633 27.4596 42.2396 27.0811L43.1124 25.8868L43.2997 27.0995C43.3395 27.3266 43.5027 27.4596 43.6131 27.5112C43.7352 27.5724 43.8614 27.6774 44.0397 27.6932C44.2307 27.7013 44.3687 27.7079 44.4606 27.7079H45.0599L45.4196 26.5257H45.1833C45.0477 26.5257 44.8138 26.503 44.7742 26.4605C44.7342 26.4087 44.7342 26.3293 44.713 26.2081L44.5227 24.9927H43.7444L44.0858 24.5863H46.0028L46.2976 23.622H44.5229L44.7992 22.7398H46.5687L46.8968 21.652H41.6218L41.299 22.7398ZM25.2898 26.4765L25.7321 25.0048H27.5505L27.8826 23.9101H26.0626L26.3404 23.0043H28.1188L28.4485 21.9442H23.9985L23.6758 23.0043H24.6869L24.4172 23.9099H23.4035L23.0675 25.0234H24.0781L23.4883 26.9707C23.4089 27.2283 23.5257 27.3266 23.5999 27.4464C23.6758 27.563 23.7526 27.6403 23.9254 27.684C24.1037 27.7238 24.2257 27.7477 24.3916 27.7477H26.4415L26.8068 26.5349L25.8981 26.6598C25.7227 26.6598 25.2366 26.6388 25.2898 26.4765ZM25.4982 19.431L25.0375 20.2638C24.9391 20.4456 24.8501 20.5587 24.7702 20.6105C24.6998 20.6543 24.5602 20.6729 24.3583 20.6729H24.1179L23.7966 21.7382H24.595C24.9791 21.7382 25.2738 21.5975 25.4147 21.5271C25.566 21.4461 25.6058 21.4923 25.7227 21.3794L25.9924 21.1458H28.4857L28.8167 20.0367H26.9914L27.3101 19.4308H25.4982V19.431ZM29.1791 26.4979C29.1367 26.4367 29.1673 26.3289 29.2323 26.1044L29.9137 23.8489H32.3381C32.6914 23.8439 32.9462 23.8397 33.1125 23.8279C33.2905 23.8091 33.4843 23.7454 33.6954 23.6312C33.9135 23.5116 34.0251 23.3854 34.1192 23.2405C34.2242 23.0962 34.393 22.7796 34.5378 22.292L35.3945 19.4376L32.8788 19.4522C32.8788 19.4522 32.104 19.5664 31.763 19.6929C31.4189 19.8335 30.9272 20.2266 30.9272 20.2266L31.1542 19.4441H29.6002L27.4245 26.6598C27.3473 26.9398 27.2955 27.1433 27.2837 27.2655C27.2797 27.397 27.4497 27.5274 27.5599 27.6256C27.6901 27.7238 27.8826 27.7079 28.0672 27.7238C28.2615 27.7385 28.5375 27.7477 28.9188 27.7477H30.1132L30.4796 26.5098L29.4106 26.6108C29.2962 26.6108 29.2137 26.5496 29.1791 26.4979ZM30.3534 22.3255H32.8996L32.7378 22.8328C32.7152 22.8446 32.6608 22.8076 32.4015 22.8383H30.1965L30.3534 22.3255ZM30.8635 20.6236H33.4314L33.2466 21.2348C33.2466 21.2348 32.0364 21.223 31.8426 21.2587C30.9895 21.4063 30.4914 21.862 30.4914 21.862L30.8635 20.6239V20.6236ZM32.7951 24.5318C32.7738 24.6077 32.7404 24.6539 32.694 24.6887C32.6422 24.7219 32.5584 24.7337 32.4337 24.7337H32.071L32.0924 24.116H30.5831L30.5218 27.1367C30.5196 27.3546 30.5406 27.4808 30.7001 27.5819C30.8598 27.7079 31.3511 27.724 32.0126 27.724H32.9583L33.2995 26.5931L32.4763 26.6384L32.2025 26.6544C32.1653 26.6384 32.1294 26.6237 32.0896 26.5841C32.055 26.5498 31.9964 26.5708 32.006 26.3529L32.0126 25.5785L32.8758 25.5429C33.3422 25.5429 33.5414 25.3911 33.7114 25.2467C33.8735 25.1082 33.9267 24.9492 33.9879 24.7337L34.1327 24.0482H32.9462L32.7948 24.5316L32.7951 24.5318Z" fill="#FEFEFE"/>
</g>
<defs>
<clipPath id="clip0_6180_38888">
<rect width="56" height="35" rx="3" fill="white"/>
</clipPath>
</defs>
</svg>
