<svg width="661" height="546" viewBox="0 0 661 546" fill="none" xmlns="http://www.w3.org/2000/svg">
<g clip-path="url(#clip0_9729_38409)">
<path d="M475.858 188.487C471.896 189.537 465.666 190.587 455.181 188.893C448.741 187.829 439.782 186.402 429.912 180.634C429.478 180.382 428.722 179.948 427.771 179.318L427.617 179.22L427.337 179.066C427.015 178.856 426.665 178.632 426.287 178.422C419.189 173.69 405.008 162.589 404.182 147.386C404.182 146.518 403.608 135.445 408.97 133.121C415.703 130.321 426.847 142.92 429.366 140.834C430.64 139.728 428.219 136.313 426.861 131.427C423.725 120.493 426.511 105.01 435.722 100.937C438.089 99.957 440.668 99.601 443.212 99.9024C445.756 100.204 448.181 101.153 450.253 102.658C457.253 107.684 454.901 120.017 455.951 120.101C457.463 120.101 454.901 95.8829 466.856 88.8133C471.056 86.3495 477.412 85.8035 480.659 88.5613C485.405 92.6211 481.373 102.197 484.131 103.358C486.889 104.52 491.019 93.811 502.75 88.7993C505.732 87.5534 512.732 84.5996 518.569 87.8334C520.645 88.9713 522.393 90.6228 523.648 92.6297C524.902 94.6367 525.621 96.932 525.734 99.2961C525.848 101.66 525.353 104.014 524.297 106.132C523.241 108.25 521.66 110.062 519.703 111.394C512.788 116.63 506.586 112.794 493.105 117.344C488.401 118.898 483.417 121.263 483.683 122.943C483.963 124.147 486.959 123.853 490.767 126.177C490.896 126.238 491.018 126.313 491.131 126.401C492.279 127.129 496.367 129.733 497.374 134.143C497.374 134.325 498.424 139.126 495.653 141.576C494.498 142.482 493.074 142.975 491.607 142.976C483.599 143.564 473.856 146.714 473.926 148.016C473.996 149.318 486.847 148.45 488.653 153.14C490.137 157.031 483.151 162.687 482.241 163.401C474.668 169.421 465.19 169.771 465.316 170.485C465.442 171.198 472.806 168.917 479.889 172.22C483.193 173.732 488.205 177.218 487.883 180.83C487.533 185.296 479.274 187.55 475.858 188.487Z" fill="#ADD9F4"/>
<path d="M471.467 160.629C470.809 158.977 468.849 158.585 467.267 158.669C465.254 158.815 463.286 159.327 461.457 160.181C457.594 161.861 454.066 164.507 449.866 165.305C447.749 165.772 445.539 165.557 443.552 164.689C447.45 159.328 450.99 153.716 454.15 147.89C455.368 145.734 456.586 143.564 457.818 141.408C463.697 138.258 470.711 141.016 476.87 138.902C478.491 138.352 479.939 137.387 481.07 136.103C481.266 135.879 480.902 135.599 480.706 135.823C478.508 138.328 475.106 139.112 471.929 139.308C468.751 139.504 465.587 139.126 462.437 139.504C460.999 139.686 459.596 140.088 458.279 140.694C461.52 134.812 465.327 129.261 469.647 124.119C475.008 117.988 481.672 112.71 489.526 110.218C490.506 109.91 491.514 109.644 492.507 109.434C492.787 109.434 492.731 108.916 492.507 108.972C484.791 110.889 477.78 114.963 472.293 120.717C471.341 121.669 470.431 122.649 469.493 123.657C469.512 123.608 469.512 123.553 469.493 123.503C467.155 120.213 468.751 116.07 470.375 112.864C471.338 111.147 472.157 109.354 472.825 107.502C473.454 105.949 473.479 104.216 472.895 102.644C472.769 102.378 472.349 102.546 472.475 102.812C473.329 104.618 472.685 106.76 471.985 108.496C471.285 110.232 470.165 112.15 469.311 114.012C467.911 117.05 467.015 120.829 469.115 123.811C469.15 123.841 469.195 123.857 469.241 123.857C469.287 123.857 469.332 123.841 469.367 123.811C464.549 129.616 460.328 135.892 456.768 142.542C454.71 146.168 452.68 149.836 450.552 153.434C446.516 150.4 443.784 145.946 442.908 140.974C442.504 138.353 442.662 135.676 443.37 133.121C444.279 130.328 444.857 127.439 445.092 124.511C445.18 123.027 444.881 121.546 444.226 120.211C443.571 118.877 442.582 117.734 441.354 116.896C441.102 116.742 440.822 117.106 441.074 117.26C442.273 118.12 443.222 119.284 443.822 120.633C444.422 121.981 444.653 123.464 444.49 124.931C444.142 127.904 443.519 130.837 442.628 133.695C442.013 136.158 441.917 138.724 442.348 141.226C442.794 143.586 443.646 145.85 444.868 147.918C446.215 150.245 448.025 152.27 450.188 153.867C447.641 158.266 444.783 162.476 441.634 166.467C439.418 169.242 436.959 171.814 434.285 174.152C433.991 166.803 427.285 161.987 424.485 155.687C423.609 153.86 423.186 151.848 423.254 149.822C423.254 149.528 422.82 149.472 422.806 149.822C422.414 157.311 429.105 162.421 432.241 168.483C433.228 170.308 433.793 172.332 433.893 174.404C433.878 174.445 433.878 174.49 433.893 174.53C431.858 176.279 429.665 177.835 427.341 179.178L427.621 179.332L427.775 179.43C431.745 177.09 435.357 174.191 438.499 170.82C440.189 169.04 441.782 167.171 443.272 165.221C446.59 166.831 450.412 166.117 453.66 164.717C457.44 163.107 460.841 160.517 464.859 159.621C466.721 159.173 470.109 158.697 471.019 161.021C471.071 161.08 471.144 161.117 471.223 161.122C471.302 161.127 471.379 161.101 471.439 161.049C471.498 160.997 471.534 160.924 471.54 160.845C471.545 160.766 471.519 160.688 471.467 160.629Z" fill="white"/>
<path d="M438.155 248.179C438.723 247.585 439.496 247.228 440.317 247.181C441.138 247.135 441.946 247.401 442.579 247.927C443.81 249.044 444.604 250.562 444.818 252.211C445.258 254.758 445.338 257.355 445.056 259.924C446.251 257.75 447.516 255.622 448.85 253.541C449.727 252.169 450.661 250.811 451.65 249.467C448.694 247.181 446.486 244.067 445.308 240.521C445.013 239.882 444.875 239.182 444.904 238.478C444.933 237.775 445.129 237.088 445.476 236.476C446.047 235.884 446.819 235.53 447.639 235.483C448.459 235.437 449.267 235.701 449.9 236.224C451.12 237.317 451.917 238.803 452.154 240.423C452.608 243.054 452.684 245.737 452.378 248.389C455.336 244.287 458.612 240.426 462.177 236.84C459.683 234.134 458.038 230.756 457.446 227.124C457.258 226.447 457.233 225.734 457.374 225.045C457.515 224.357 457.818 223.711 458.258 223.162C458.914 222.668 459.733 222.439 460.55 222.522C461.368 222.605 462.124 222.994 462.667 223.61C463.704 224.902 464.25 226.519 464.207 228.174C464.242 230.751 463.912 233.319 463.227 235.804C466.947 231.931 471.358 228.788 476.233 226.536L476.541 226.41C474.415 223.352 473.246 219.732 473.181 216.009C473.095 215.309 473.177 214.598 473.42 213.936C473.664 213.273 474.061 212.679 474.581 212.201C475.301 211.807 476.144 211.698 476.941 211.898C477.737 212.098 478.429 212.591 478.878 213.279C479.721 214.708 480.029 216.39 479.746 218.025C479.369 220.805 478.591 223.517 477.437 226.074C483.176 223.848 489.35 222.672 495.019 220.265C492.824 217.177 491.614 213.497 491.548 209.709C491.462 209.009 491.544 208.298 491.787 207.636C492.031 206.974 492.428 206.379 492.948 205.901C493.668 205.507 494.511 205.399 495.308 205.599C496.104 205.799 496.796 206.292 497.245 206.979C498.088 208.408 498.396 210.09 498.113 211.725C497.715 214.58 496.904 217.363 495.705 219.985C497.118 219.359 498.484 218.634 499.793 217.815C502.458 216.097 504.772 213.888 506.611 211.305C503.589 208.875 501.394 205.569 500.325 201.842C500.058 201.191 499.949 200.486 500.007 199.785C500.065 199.084 500.29 198.407 500.661 197.81C501.264 197.25 502.057 196.939 502.88 196.939C503.703 196.939 504.496 197.25 505.099 197.81C506.283 198.97 507.018 200.513 507.171 202.164C507.525 205.066 507.454 208.004 506.961 210.885C509.793 206.628 511.586 201.766 512.196 196.69C509.745 194.174 508.048 191.022 507.297 187.591C507.07 186.924 507.006 186.214 507.108 185.518C507.21 184.822 507.476 184.16 507.885 183.587C508.513 183.059 509.318 182.787 510.138 182.826C510.958 182.865 511.733 183.212 512.308 183.797C513.413 185.032 514.043 186.62 514.086 188.277C514.259 190.805 514.075 193.345 513.54 195.822C513.565 195.923 513.565 196.029 513.54 196.13C513.061 200.386 511.784 204.513 509.775 208.295C509.336 209.126 508.869 209.947 508.375 210.759C511.143 208.757 514.405 207.547 517.81 207.259C518.5 207.122 519.213 207.151 519.889 207.343C520.566 207.535 521.187 207.886 521.702 208.365C522.145 209.06 522.309 209.896 522.161 210.706C522.013 211.516 521.564 212.24 520.904 212.733C519.534 213.666 517.877 214.083 516.228 213.909C513.265 213.685 510.351 213.029 507.577 211.963C506.466 213.609 505.164 215.117 503.699 216.457C501.481 218.405 498.973 219.997 496.265 221.175C499.74 220.584 503.31 220.982 506.569 222.323C507.249 222.52 507.872 222.877 508.386 223.364C508.899 223.851 509.289 224.454 509.523 225.122C509.598 225.941 509.361 226.757 508.86 227.409C508.359 228.06 507.631 228.499 506.821 228.636C505.175 228.846 503.508 228.464 502.117 227.558C499.51 225.955 497.152 223.979 495.117 221.693C490.638 223.554 485.808 224.73 481.244 226.2C479.844 226.662 478.444 227.166 477.045 227.74C480.787 226.907 484.695 227.239 488.244 228.692C488.924 228.889 489.547 229.246 490.061 229.733C490.575 230.221 490.964 230.823 491.198 231.492C491.277 232.311 491.044 233.129 490.546 233.783C490.047 234.437 489.32 234.879 488.51 235.02C486.864 235.229 485.197 234.847 483.806 233.942C481.141 232.3 478.731 230.277 476.653 227.936C475.196 228.561 473.792 229.3 472.453 230.148C469.965 231.751 467.623 233.568 465.453 235.58C464.875 236.112 464.305 236.648 463.745 237.19C467.044 236.115 470.577 235.975 473.951 236.784C474.649 236.871 475.317 237.124 475.899 237.521C476.481 237.917 476.96 238.447 477.297 239.066C477.498 239.863 477.39 240.707 476.996 241.429C476.601 242.15 475.949 242.696 475.169 242.957C473.573 243.416 471.866 243.291 470.353 242.607C467.632 241.48 465.09 239.961 462.807 238.1C459.349 241.613 456.175 245.395 453.316 249.411C456.381 247.478 459.94 246.471 463.563 246.513C464.264 246.444 464.97 246.543 465.625 246.801C466.28 247.059 466.864 247.469 467.329 247.997C467.683 248.722 467.757 249.553 467.534 250.328C467.312 251.104 466.81 251.77 466.125 252.197C464.675 252.995 462.988 253.253 461.365 252.925C458.384 252.415 455.493 251.471 452.784 250.125L451.664 251.735C449.645 254.695 447.776 257.756 446.064 260.904C449.071 259.049 452.54 258.079 456.074 258.104C456.774 258.035 457.481 258.134 458.136 258.392C458.79 258.65 459.374 259.06 459.84 259.588C460.194 260.313 460.267 261.144 460.045 261.92C459.822 262.695 459.32 263.361 458.636 263.788C457.185 264.586 455.499 264.844 453.876 264.516C450.958 264.026 448.128 263.111 445.476 261.8C443.557 265.407 441.905 269.15 440.535 273C440.255 273.797 439.023 273.308 439.303 272.51C440.688 268.621 442.358 264.84 444.3 261.198C441.327 258.895 439.109 255.755 437.931 252.183C437.656 251.544 437.533 250.849 437.571 250.155C437.61 249.46 437.81 248.783 438.155 248.179Z" fill="#B8B2EA"/>
<path d="M207.351 230.457C215.751 228.834 227.762 215.52 236.133 217.578C236.133 227.588 221.784 225.124 215.289 229.757C209.689 234.755 230.044 242.217 240.333 238.017C248.873 234.937 247.837 223.346 259.288 208.619C268.905 195.908 274.085 196.467 276.325 188.166C280.427 172.963 267.254 155.786 265.35 156.444C264.58 156.71 266.008 159.748 265.462 166.831C265.952 167.517 260.464 194.83 255.186 184.414C252.498 172.109 267.058 166.215 260.996 151.712C256.446 140.793 239.717 137.797 239.129 138.931C247.193 142.571 248.271 165.319 242.895 173.313C239.283 177.849 238.023 173.187 238.289 167.937C236.889 150.55 237.351 141.339 226.53 132.309C213.273 121.292 198.812 133.149 179.409 132.673C179.409 132.673 170.519 154.75 177.267 169.239C183.762 183.238 198.42 174.069 207.659 178.884C211.859 180.578 211.859 186.388 208.639 188.586C203.767 193.388 194.822 192.17 188.368 191.232C177.701 189.664 174.369 186.682 172.787 188.432C168.461 192.884 182.237 210.103 191.798 208.605C202.997 211.657 219.194 194.97 229.596 202.067C228.196 211.111 203.753 216.808 193.982 215.618C188.9 214.4 185.876 211.419 185.232 212.133C186.772 217.578 199.736 231.409 207.351 230.457Z" fill="#ADD9F4"/>
<path d="M226.69 232.388C229.35 232.554 232.011 232.074 234.446 230.988C236.779 229.928 238.849 228.364 240.507 226.411C242.278 224.227 243.892 221.92 245.337 219.509C246.987 216.95 248.787 214.492 250.727 212.146C251.602 211.063 252.537 210.03 253.527 209.052C253.904 208.612 254.373 208.259 254.899 208.018C255.426 207.776 255.999 207.651 256.578 207.652L257.068 208.072C257.6 208.548 258.118 209.038 258.622 209.556L258.804 209.318C257.893 208.391 256.93 207.517 255.921 206.7C255.6 206.235 255.35 205.726 255.179 205.188C254.963 204.681 254.886 204.125 254.955 203.578C255.181 202.792 255.546 202.052 256.032 201.394C256.466 200.736 256.928 200.064 257.432 199.42C260.75 194.871 264.698 190.755 267.414 185.799C269.835 181.763 270.821 177.027 270.214 172.36C270.214 172.178 269.892 172.234 269.92 172.43C270.344 175.154 270.124 177.94 269.276 180.563C267.694 185.715 264.39 190.027 261.072 194.185C259.238 196.48 257.362 198.776 255.739 201.184C255.003 202.046 254.605 203.145 254.619 204.278C254.723 204.934 254.936 205.568 255.249 206.154C252.292 204.022 249.175 202.122 245.925 200.47L245.477 200.232C244.112 197.94 243.382 195.326 243.363 192.659C243.209 187.255 245.435 182.299 247.787 177.568C248.431 176.266 249.089 174.964 249.705 173.662C250.32 172.441 250.849 171.178 251.287 169.882C251.707 168.781 251.877 167.6 251.782 166.425C251.688 165.251 251.332 164.112 250.741 163.092C250.629 162.938 250.363 163.092 250.475 163.232C252.183 165.752 251.455 168.916 250.349 171.534C248.151 176.714 244.973 181.529 243.643 187.059C242.445 191.377 242.909 195.988 244.945 199.98C241.904 198.418 239.008 196.586 236.294 194.507C234.852 193.329 233.517 192.027 232.304 190.615C231.198 189.341 230.176 187.997 229.196 186.625C227.572 184.329 226.046 181.963 224.45 179.625C223.894 176.718 223.804 173.741 224.184 170.806C224.702 165.556 226.158 160.293 225.472 155.001C224.856 150.283 222.028 145.285 217.073 144.124C216.877 144.124 216.807 144.362 216.989 144.404C218.325 144.769 219.574 145.401 220.659 146.262C221.744 147.124 222.644 148.196 223.302 149.415C226.004 154.049 225.458 159.621 224.702 164.716C224.002 169.406 223.12 174.292 224.002 179.023L223.386 178.128C221.288 175.212 218.875 172.536 216.191 170.148C210.52 165.447 204.39 161.329 197.894 157.857C197.862 157.848 197.828 157.85 197.797 157.863C197.766 157.875 197.74 157.897 197.723 157.925C197.706 157.954 197.698 157.987 197.701 158.02C197.704 158.053 197.718 158.084 197.74 158.109L200.078 159.509C206.325 162.89 212.152 166.997 217.437 171.744C215.602 171.138 213.662 170.919 211.739 171.1C209.387 171.1 206.643 171.1 204.921 169.224C204.796 169.084 204.572 169.224 204.712 169.434C206.321 171.198 208.911 171.45 211.109 171.422C213.307 171.394 216.051 171.156 218.109 172.444C220.585 174.992 222.816 177.766 224.772 180.731C226.69 183.531 228.524 186.429 230.624 189.131L231.24 189.887C228.792 188.575 225.946 188.211 223.246 188.865C220.218 189.653 217.336 190.92 214.707 192.617C212.07 194.174 209.285 195.463 206.391 196.466C200.736 198.32 194.732 198.861 188.836 198.048C188.64 198.048 188.64 198.328 188.836 198.342C194.957 199.193 201.192 198.589 207.035 196.578C209.829 195.558 212.524 194.283 215.085 192.771C217.721 191.066 220.628 189.822 223.68 189.089C225.123 188.748 226.623 188.727 228.075 189.03C229.526 189.332 230.893 189.95 232.08 190.839C233.864 192.895 235.89 194.728 238.114 196.298C241.278 198.338 244.549 200.208 247.913 201.898L248.753 202.36C246.674 202.318 244.613 202.759 242.733 203.648C240.74 204.626 238.862 205.824 237.134 207.218C235.335 208.615 233.466 209.919 231.534 211.124C227.735 213.423 223.649 215.212 219.383 216.443C219.201 216.443 219.271 216.793 219.383 216.737C221.722 216.061 224.009 215.219 226.228 214.217C228.215 213.321 230.141 212.296 231.996 211.152C233.9 209.976 235.678 208.646 237.456 207.302C239.199 205.894 241.107 204.705 243.139 203.76C245.058 202.901 247.161 202.535 249.257 202.696C251.724 204.043 254.067 205.608 256.256 207.372C255.182 207.477 254.185 207.975 253.457 208.772C252.342 209.851 251.304 211.007 250.349 212.23C248.457 214.529 246.699 216.937 245.085 219.439C243.611 221.897 241.949 224.237 240.115 226.439C238.408 228.404 236.272 229.951 233.872 230.96C231.593 231.893 229.133 232.295 226.676 232.136C226.508 232.08 226.508 232.374 226.69 232.388Z" fill="white"/>
<path d="M648.594 521.71C645.011 519.176 632.985 517.37 627.806 515.984C638.039 512.148 660.004 512.134 660.004 499.185C660.004 489.791 636.387 490.253 636.387 490.253L102.878 489.147C93.695 489.623 78.5899 489.343 77.19 494.467C75.93 499.087 83.1116 500.165 79.9898 502.027C75.1741 504.827 32.8406 506.73 10.1619 511C6.14413 511.756 1.6644 512.82 0.362474 515.088C-1.96139 519.078 7.36206 522.088 14.8236 522.172C22.2852 522.256 31.1187 521.668 35.8224 524.971C38.3142 526.693 38.8462 529.171 41.2121 530.879C45.0479 533.651 52.3694 534.071 58.767 534.071L178.894 536.297C175.884 537.053 175.87 539.671 178.082 541.042C180.294 542.414 183.766 542.848 187.014 543.17C210.49 545.466 234.471 545.48 258.311 545.48H471.211C486.75 545.48 504.725 544.822 513.824 537.739C515.784 536.213 517.31 534.393 520.194 533.427C523.395 532.625 526.709 532.379 529.993 532.699C564.991 534.015 600.143 534.225 635.211 533.357C640.475 533.231 646.411 532.895 649.728 530.557C653.354 528.149 652.164 524.271 648.594 521.71Z" fill="#E6E2F8"/>
<path d="M418.772 128.094H271.326C256.762 128.094 244.955 139.936 244.955 154.544V479.621C244.955 494.229 256.762 506.072 271.326 506.072H418.772C433.337 506.072 445.143 494.229 445.143 479.621V154.544C445.143 139.936 433.337 128.094 418.772 128.094Z" fill="#2B478B"/>
<path d="M435.337 157.493V475.274C435.337 486.054 426.601 494.873 415.926 494.873H274.156C263.484 494.873 254.748 486.054 254.748 475.274V157.493C254.748 146.713 263.481 137.894 274.156 137.894H415.943C426.601 137.894 435.337 146.713 435.337 157.493Z" fill="#CBE1FD"/>
<path d="M435.347 475.274V157.493C435.347 146.713 426.611 137.894 415.953 137.894H415.748L275.893 494.873H415.936C426.611 494.873 435.347 486.054 435.347 475.274Z" fill="#C0D8FB"/>
<path d="M374.747 130.893H315.35C310.49 130.893 306.551 134.671 306.551 139.331V140.654C306.551 145.314 310.49 149.092 315.35 149.092H374.747C379.607 149.092 383.546 145.314 383.546 140.654V139.331C383.546 134.671 379.607 130.893 374.747 130.893Z" fill="#2B478B"/>
<rect x="263" y="379" width="156.791" height="32.1981" rx="16.0991" fill="#FF776F"/>
<path d="M271.545 261.085C271.545 257.219 274.679 254.085 278.545 254.085H410.137C414.003 254.085 417.136 257.219 417.136 261.085V340.88C417.136 344.746 414.003 347.88 410.137 347.88H278.545C274.679 347.88 271.545 344.746 271.545 340.88V261.085Z" fill="#3C64C6"/>
<path d="M279.951 312.881C279.951 311.335 281.205 310.082 282.751 310.082H306.55C308.096 310.082 309.349 311.335 309.349 312.881V314.281C309.349 315.828 308.096 317.081 306.55 317.081H282.751C281.205 317.081 279.951 315.828 279.951 314.281V312.881Z" fill="#ADD9F4"/>
<path d="M313.549 312.881C313.549 311.335 314.803 310.082 316.349 310.082H340.148C341.694 310.082 342.947 311.335 342.947 312.881V314.281C342.947 315.828 341.694 317.081 340.148 317.081H316.349C314.803 317.081 313.549 315.828 313.549 314.281V312.881Z" fill="#ADD9F4"/>
<path d="M349.947 310.082C348.401 310.082 347.147 311.335 347.147 312.881V314.281C347.147 315.828 348.401 317.081 349.947 317.081H373.746C375.292 317.081 376.545 315.828 376.545 314.281V312.881C376.545 311.335 375.292 310.082 373.746 310.082H349.947Z" fill="#ADD9F4"/>
<path d="M380.745 312.881C380.745 311.335 381.999 310.082 383.545 310.082H407.344C408.89 310.082 410.144 311.335 410.144 312.881V314.281C410.144 315.828 408.89 317.081 407.344 317.081H383.545C381.999 317.081 380.745 315.828 380.745 314.281V312.881Z" fill="#ADD9F4"/>
<path d="M369.546 322.681C368 322.681 366.746 323.934 366.746 325.481V326.881C366.746 328.427 368 329.68 369.546 329.68H407.344C408.89 329.68 410.144 328.427 410.144 326.881V325.481C410.144 323.934 408.89 322.681 407.344 322.681H369.546Z" fill="#ADD9F4"/>
<rect x="279.951" y="280.683" width="25.1985" height="18.1989" rx="3" fill="#E2D34E"/>
<path fill-rule="evenodd" clip-rule="evenodd" d="M279.951 287.685H285.551L285.551 291.884H279.951V293.284H305.15V291.884H299.55V287.685H305.15V286.285H279.951V287.685ZM298.15 287.685H286.951V291.884H298.15V287.685Z" fill="white"/>
<circle cx="345.748" cy="301.683" r="39.1977" fill="white"/>
<path fill-rule="evenodd" clip-rule="evenodd" d="M356.36 306.75C357.893 308.283 357.893 310.76 356.36 312.292C355.596 313.057 354.592 313.441 353.589 313.441C352.586 313.441 351.582 313.057 350.818 312.292L345.749 307.224L340.681 312.292C339.917 313.057 338.913 313.441 337.91 313.441C336.906 313.441 335.903 313.057 335.139 312.292C333.606 310.76 333.606 308.283 335.139 306.75L340.207 301.682L335.139 296.613C333.606 295.081 333.606 292.603 335.139 291.071C336.671 289.538 339.149 289.538 340.681 291.071L345.749 296.139L350.818 291.071C352.35 289.538 354.828 289.538 356.36 291.071C357.893 292.603 357.893 295.081 356.36 296.613L351.292 301.682L356.36 306.75ZM345.748 262.485C324.135 262.485 306.551 280.069 306.551 301.683C306.551 323.296 324.135 340.88 345.748 340.88C367.362 340.88 384.946 323.296 384.946 301.683C384.946 280.069 367.362 262.485 345.748 262.485Z" fill="#FF776F"/>
<path d="M235.445 117.443C235.104 116.696 235.058 115.847 235.318 115.068C235.578 114.289 236.123 113.637 236.844 113.244C238.342 112.518 240.049 112.349 241.66 112.768C244.198 113.331 246.644 114.25 248.926 115.498C247.358 113.575 245.86 111.606 244.432 109.59C243.499 108.255 242.565 106.902 241.632 105.53C238.407 107.416 234.693 108.298 230.965 108.064C230.263 108.098 229.563 107.964 228.923 107.674C228.283 107.385 227.721 106.947 227.283 106.398C226.945 105.65 226.902 104.803 227.161 104.024C227.421 103.246 227.964 102.594 228.683 102.198C230.175 101.471 231.877 101.297 233.485 101.708C236.097 102.28 238.615 103.223 240.96 104.508C238.281 100.247 235.94 95.7812 233.961 91.153C230.518 92.4497 226.77 92.7077 223.181 91.8949C222.482 91.816 221.811 91.5717 221.224 91.1823C220.637 90.7928 220.152 90.2693 219.807 89.6551C219.595 88.8608 219.691 88.0158 220.075 87.289C220.459 86.5623 221.104 86.0073 221.879 85.7353C223.467 85.2551 225.174 85.3543 226.695 86.0153C229.096 86.9485 231.354 88.2163 233.401 89.781C231.203 84.8833 229.94 79.6178 229.677 74.256C229.677 74.144 229.677 74.032 229.677 73.92C226.029 74.7282 222.222 74.4309 218.744 73.066C218.063 72.8897 217.433 72.5541 216.908 72.0867C216.382 71.6194 215.975 71.0338 215.72 70.3782C215.623 69.5627 215.837 68.7408 216.32 68.0765C216.803 67.4121 217.518 66.9543 218.324 66.7944C219.961 66.5483 221.632 66.8905 223.041 67.7603C225.477 69.1551 227.698 70.8951 229.635 72.926C229.733 66.7664 230.951 60.6068 230.839 54.4471C227.154 55.3279 223.289 55.0742 219.751 53.7192C219.071 53.5429 218.441 53.2072 217.915 52.7399C217.39 52.2725 216.983 51.6869 216.728 51.0313C216.631 50.2159 216.845 49.3939 217.328 48.7296C217.811 48.0653 218.526 47.6074 219.332 47.4475C220.969 47.2014 222.64 47.5436 224.049 48.4135C226.549 49.8495 228.827 51.6415 230.811 53.7332C230.762 52.1886 230.603 50.6494 230.335 49.1274C229.744 46.0126 228.566 43.0386 226.863 40.3639C223.5 42.2629 219.633 43.0793 215.79 42.7018C215.087 42.7063 214.392 42.5436 213.764 42.2272C213.137 41.9108 212.593 41.4497 212.178 40.8819C211.855 40.1107 211.841 39.245 212.138 38.4635C212.435 37.6819 213.02 37.0443 213.774 36.6822C215.295 36.0212 217.002 35.9219 218.59 36.4022C221.41 37.1739 224.103 38.3529 226.583 39.902C223.721 35.6084 219.884 32.0536 215.384 29.5286C212.132 30.8586 208.572 31.2514 205.108 30.6625C204.407 30.622 203.725 30.4157 203.119 30.0603C202.513 29.705 202 29.2109 201.623 28.6186C201.343 27.8232 201.382 26.9502 201.731 26.1828C202.081 25.4154 202.714 24.8133 203.498 24.5029C205.053 23.9333 206.759 23.9333 208.314 24.5029C210.722 25.2903 213.008 26.4119 215.104 27.8347C215.207 27.8392 215.308 27.868 215.398 27.9187C219.139 29.9647 222.463 32.6952 225.197 35.9682C225.804 36.6868 226.387 37.4288 226.947 38.1941C226.131 34.8791 226.232 31.4043 227.241 28.1427C227.373 27.4511 227.668 26.801 228.102 26.246C228.535 25.691 229.094 25.247 229.733 24.9508C230.541 24.7995 231.377 24.9592 232.073 25.3979C232.769 25.8366 233.273 26.522 233.485 27.3167C233.837 28.9357 233.604 30.6272 232.827 32.0904C231.511 34.7539 229.813 37.2109 227.787 39.384C228.897 41.0301 229.809 42.8016 230.503 44.6617C231.476 47.4507 232.01 50.3741 232.085 53.3272C232.839 49.8828 234.547 46.7199 237.012 44.1997C237.445 43.6447 238.003 43.2004 238.64 42.9035C239.278 42.6065 239.977 42.4654 240.68 42.4918C241.469 42.7271 242.139 43.2517 242.557 43.9605C242.975 44.6692 243.11 45.5097 242.934 46.3136C242.5 47.9206 241.507 49.3202 240.134 50.2614C237.674 52.0744 234.963 53.5176 232.085 54.5451C232.085 59.3888 231.413 64.3445 231.063 69.0903C230.951 70.6022 230.881 72.1001 230.895 73.584C231.588 69.8377 233.405 66.3908 236.103 63.7006C236.528 63.1418 237.079 62.6918 237.712 62.3876C238.345 62.0834 239.04 61.9336 239.742 61.9507C240.531 62.186 241.201 62.7106 241.619 63.4193C242.037 64.1281 242.172 64.9686 241.996 65.7724C241.562 67.3794 240.569 68.7791 239.196 69.7202C236.677 71.5759 233.899 73.0522 230.951 74.102C230.976 75.703 231.131 77.2995 231.413 78.8757C231.97 81.778 232.781 84.626 233.835 87.3872C234.105 88.1245 234.39 88.8571 234.689 89.5851C234.931 86.1215 236.128 82.7926 238.146 79.9676C238.488 79.3525 238.97 78.8274 239.555 78.4355C240.139 78.0437 240.808 77.7963 241.506 77.7138C242.319 77.8284 243.058 78.2452 243.577 78.8809C244.096 79.5166 244.356 80.3245 244.306 81.1436C244.131 82.7919 243.377 84.3248 242.178 85.4693C240.115 87.5686 237.757 89.356 235.179 90.775C237.162 95.3029 239.503 99.6657 242.178 103.822C241.533 100.258 241.932 96.5824 243.326 93.2388C243.525 92.5614 243.883 91.9413 244.37 91.43C244.857 90.9187 245.459 90.531 246.126 90.299C246.944 90.228 247.759 90.4682 248.408 90.9717C249.056 91.4751 249.491 92.2047 249.626 93.0149C249.824 94.6597 249.432 96.3215 248.52 97.7046C246.92 100.273 244.953 102.593 242.682 104.592L243.746 106.23C245.732 109.215 247.868 112.098 250.144 114.868C249.571 111.388 249.988 107.818 251.348 104.564C251.547 103.887 251.905 103.267 252.392 102.755C252.879 102.244 253.481 101.856 254.147 101.624C254.966 101.553 255.78 101.794 256.429 102.297C257.078 102.8 257.513 103.53 257.647 104.34C257.845 105.985 257.453 107.647 256.541 109.03C255.01 111.529 253.124 113.793 250.942 115.75C253.569 118.881 256.423 121.814 259.481 124.527C260.125 125.087 259.201 126.039 258.571 125.479C255.487 122.736 252.609 119.77 249.962 116.603C246.713 118.493 242.974 119.37 239.224 119.123C238.506 119.167 237.787 119.036 237.13 118.744C236.472 118.452 235.894 118.006 235.445 117.443Z" fill="#B8B2EA"/>
<path d="M469.925 442.894C470.255 461.235 467.307 479.487 461.217 496.791C460.088 500.029 458.837 503.272 457.465 506.52L459.033 516.949H428.879L448.338 505.344C448.786 502.544 449.15 499.745 449.472 496.791C451.516 477.08 450.648 455.297 450.06 445.47C449.859 441.918 450.412 438.363 451.684 435.04C456.919 421.391 471.002 383.509 475.482 360.075H508.674C514.274 397.579 499.029 413.678 469.925 442.894Z" fill="#F1CCCD"/>
<path d="M493.971 417.009C487.643 425.044 479.538 433.262 469.92 442.893C470.13 462.142 468.801 483.995 462.739 501.242L447.676 500.472C449.72 480.761 446.276 447.821 449.342 435.362C452.855 421.166 470.998 383.565 475.534 360.102H508.67C512.422 385.189 506.822 400.742 493.971 417.009Z" fill="#3C3768"/>
<path d="M493.997 416.954C487.669 424.99 479.564 433.207 469.946 442.838C470.156 462.087 468.826 483.94 462.765 501.187L458.299 500.949C464.584 484.696 466.334 463.403 465.62 441.705C498.476 414.938 476.666 405.307 486.885 385.904L493.997 416.954Z" fill="#332F5B"/>
<path d="M448.354 505.345C441.102 509.055 428.461 508.033 427.705 516.951H459.035C459.5 513.049 459.132 509.094 457.957 505.345C454.778 505.878 451.533 505.878 448.354 505.345Z" fill="#3C3768"/>
<path d="M536.998 503.987C538.3 506.787 539.532 509.433 540.792 512.191L515.593 518.224C520.689 514.024 525.813 509.825 530.88 505.625C528.934 501.691 526.583 496.147 524.469 492.578C516.069 478.313 506.494 465.671 496.848 452.358C494.534 449.321 492.996 445.765 492.369 441.999C487.875 415.764 488.435 388.704 483.703 362.427C491.165 361.265 498.626 360.145 506.102 358.998C526.905 391.49 522.495 408.807 513.773 443.679C524.119 457.678 529.83 473.511 533.988 490.45C534.786 493.852 536.242 500.095 536.998 503.987Z" fill="#F1CCCD"/>
<path d="M492.337 441.956C492.947 445.763 494.507 449.355 496.873 452.4C507.82 467.715 516.387 485.144 526.019 501.397C530.219 500.445 534.264 499.465 538.408 498.499C533.62 479.544 525.599 459.483 513.727 443.622C522.435 408.736 526.845 391.447 506.056 358.955L480.605 362.847L480.955 364.779C485.463 390.411 487.829 416.366 492.337 441.956Z" fill="#3C3768"/>
<path d="M485.74 365.8C488.47 369.636 485.894 377.308 488.89 381.493C496.632 392.315 507.089 384.293 513.725 388.647C525.12 396.067 512.465 429.861 509.959 439.044C509.889 439.324 508.125 445.414 506.963 445.288C512.213 445.918 510.351 442.208 517.071 453.603C520.094 458.741 535.773 488.741 536.361 498.261C537.761 499.562 537.621 498.261 538.391 498.527C533.59 479.544 525.582 459.511 513.711 443.636C522.418 408.75 526.828 391.461 506.039 358.969C497.766 360.859 487.434 359.599 479.371 361.461C478.419 361.671 483.962 363.28 485.74 365.8Z" fill="#332F5B"/>
<path d="M529.521 503.02C522.438 507.976 512.624 509.46 511.98 519.077L541.281 512.077C540.396 508.242 538.774 504.614 536.507 501.396C535.586 502.254 534.457 502.855 533.231 503.14C532.005 503.425 530.726 503.384 529.521 503.02Z" fill="#3C3768"/>
<path d="M412.541 303.505C412.541 303.505 414.739 304.653 415.425 305.115C416.685 302.904 416.825 300.79 418.057 298.704C418.057 298.704 414.963 297.878 414.669 297.304C413.689 295.288 412.807 291.55 410.764 291.046C408.72 290.542 410.372 295.54 410.372 295.54C407.543 294.706 404.908 293.321 402.616 291.466C394.944 284.299 397.436 299.488 412.541 303.505Z" fill="#F1CCCD"/>
<path d="M413.34 304.791C418.338 308.137 439.84 321.506 447.862 322.136C457.003 322.85 480.718 313.219 480.718 313.219L479.724 287.432C475.328 286.774 448.142 308.739 448.142 308.739L417.05 296.896C415.874 298.982 414.6 302.58 413.34 304.791Z" fill="#FFA56F"/>
<path d="M414.597 302.216C420.113 306.332 440.426 318.861 448.195 319.911C456.315 321.017 476.516 314.522 480.73 313.122V313.22C480.73 313.22 457.015 322.851 447.874 322.137C439.838 321.507 418.335 308.138 413.352 304.792C413.813 303.957 414.229 303.097 414.597 302.216Z" fill="#FF8133"/>
<path d="M466.361 319.646L475.531 360.117H508.667C508.667 360.117 514.141 321.199 505.741 300.817C501.961 291.633 489.558 287.671 488.774 287.419L479.549 287.951L466.361 319.646Z" fill="#F1CCCD"/>
<path d="M466.761 321.283L474.489 355.413C474.781 356.74 475.514 357.928 476.57 358.782C477.626 359.637 478.94 360.108 480.298 360.117C485.1 362.329 491.918 361.517 499.211 360.117C501.865 360.099 504.413 359.079 506.347 357.262C508.281 355.445 509.457 352.965 509.641 350.318C510.691 337.438 511.446 314.746 505.693 300.775C502.739 293.593 494.493 289.575 490.672 288.077C489.473 287.603 488.195 287.361 486.906 287.363H479.766C478.674 287.363 466.523 317.882 466.523 317.882C466.421 319.021 466.502 320.169 466.761 321.283Z" fill="white"/>
<path d="M467.767 362.245H502.863V357.037H467.767V362.245Z" fill="#3C3768"/>
<path d="M481.603 380.193C481.375 381 480.942 381.736 480.346 382.327C479.75 382.918 479.011 383.345 478.201 383.566C476.109 384.14 473.917 384.255 471.776 383.902H471.51C469.766 383.598 468.055 383.13 466.4 382.503V332.007C466.4 332.007 466.19 322.726 466.4 319.646C467.352 306.039 465.994 290.038 478.999 287.448C479.296 287.397 479.599 287.397 479.895 287.448C469.928 329.194 486.279 362.848 481.603 380.193Z" fill="#FFA56F"/>
<path d="M518.476 385.176C511.477 386.688 503.763 386.002 497.799 385.176C495.368 384.808 493.168 383.531 491.642 381.603C490.117 379.675 489.38 377.239 489.582 374.789C491.654 346.076 483.394 317.938 488.756 287.448C489.54 287.686 501.999 291.647 505.723 300.845C512.722 318.162 515.522 356.506 520.786 381.424C520.968 382.227 520.828 383.07 520.396 383.771C519.964 384.472 519.275 384.977 518.476 385.176Z" fill="#FFA56F"/>
<path d="M513.033 361.502C507.853 362.496 502.533 362.496 497.354 361.502V359.081C502.555 359.799 507.831 359.799 513.033 359.081V361.502Z" fill="#FF8133"/>
<path d="M485.17 280.98C485.17 280.98 493.066 280.98 494.97 271.768C496.873 262.557 489.37 259.309 484.386 259.379C482.39 259.407 480.414 258.976 478.61 258.119C476.807 257.263 475.224 256.003 473.985 254.438C473.985 254.438 469.589 260.415 472.123 265.637C474.293 270.215 485.17 280.98 485.17 280.98Z" fill="#3C3768"/>
<path d="M479.061 276.64L479.271 279.286L479.732 286.398L479.803 287.476C479.942 293.075 488.286 290.779 488.72 287.406L487.32 281.806L486.312 277.69L485.962 276.29L485.36 273.84L479.061 276.64Z" fill="#F1CCCD"/>
<path d="M479.273 279.286L479.735 286.398C481.835 285.964 485.027 284.998 486.637 282.8C486.889 282.464 487.127 282.128 487.351 281.792L486.343 277.676L485.993 276.276L479.273 279.286Z" fill="#F0B4B4"/>
<path d="M476.051 264.575C475.734 264.387 475.374 264.285 475.005 264.279C474.637 264.273 474.273 264.364 473.95 264.543C473.628 264.721 473.357 264.98 473.166 265.295C472.975 265.61 472.869 265.97 472.86 266.339C472.58 272.134 472.86 281.542 477.367 283.138C484.003 285.377 488.735 276.614 488.735 276.614C488.735 276.614 491.534 272.554 489.575 271.168C487.615 269.782 485.683 273.198 485.683 273.198C485.361 266.689 480.013 267.025 476.051 264.575Z" fill="#F1CCCD"/>
<path d="M422.567 353.384C424.207 353.24 425.855 353.24 427.495 353.384L427.271 345.223C427.271 345.223 423.533 346.161 422.553 345.503C420.943 344.425 418.353 341.611 415.652 341.219C412.95 340.827 417.121 345.685 417.121 345.685C413.556 346.505 409.851 346.505 406.286 345.685C401.4 344.243 402.436 356.282 422.567 353.384Z" fill="#F1CCCD"/>
<path d="M425.209 344.845V354.882C435.092 355.806 461.271 356.408 470.202 353.37C481.5 349.534 504.934 315.068 504.934 315.068L492.503 293.496C482.858 304.779 462.559 338.503 462.559 338.503L425.209 344.845Z" fill="#FFA56F"/>
<path d="M468.76 348.485C479.022 345.363 504.934 315.097 504.934 315.097C504.934 315.097 481.5 349.563 470.202 353.399C461.271 356.423 435.078 355.835 425.209 354.911V351.299C435.484 352.503 459.913 351.173 468.76 348.485Z" fill="#FF8133"/>
<path d="M214.129 316.132C213.583 313.962 212.659 311.932 212.015 309.748C210.615 304.918 210.615 299.795 209.761 294.839C208.907 289.883 206.961 284.732 202.664 282.016L205.813 274.568C209.089 271.88 208.767 266.239 205.687 263.369C202.608 260.499 197.652 260.191 193.788 261.969C192 262.695 190.517 264.015 189.588 265.707C188.986 266.925 188.818 268.296 188.342 269.556C187.39 272.006 185.347 273.826 183.541 275.744C181.735 277.662 180.027 279.944 180.069 282.604C180.069 284.382 180.965 286.803 181.161 288.609C181.637 293.089 176.961 294.069 173.783 297.219C170.605 300.369 168.184 306.374 168.981 310.798C169.543 312.743 170.402 314.59 171.529 316.272C172.595 318.232 173.391 320.328 173.895 322.501C174.287 325.198 174.9 327.857 175.729 330.453C176.779 332.973 178.991 335.269 181.721 335.325C185.193 335.325 187.754 331.979 191.128 331.209C195.048 330.313 198.842 333.141 202.846 333.435C204.861 333.499 206.857 333.011 208.616 332.024C210.375 331.037 211.831 329.589 212.827 327.835C214.772 324.253 215.239 320.053 214.129 316.132Z" fill="#3C3768"/>
<path d="M184.135 359.418C189.735 344.341 190.967 336.039 184.695 322.824C176.296 305.185 186.249 294.28 186.249 294.28L195.488 290.332C197.952 294.336 200.528 295.442 203.328 290.332C214.317 292.95 223.571 297.542 216.585 322.418C211.895 339.105 217.985 347.617 224.145 359.418H184.135Z" fill="white"/>
<path d="M213.049 432.242C213.049 433.474 213.049 434.594 213.049 435.616C213.012 439.252 212.206 442.84 210.683 446.143C207.464 453.143 201.486 468.948 197.37 497.73C197.37 497.73 189.181 500.39 188.635 497.646C181.887 463.684 187.823 454.249 192.246 438.723C192.191 436.553 192 434.388 191.673 432.242C188.355 409.759 172.41 393.254 184.155 358.746C184.155 358.578 184.253 358.396 184.323 358.242L192.302 358.522H206.596V358.746C210.683 377.575 212.195 399.274 212.741 415.765C213.007 422.218 213.049 427.86 213.049 432.242Z" fill="#F1CCCD"/>
<path d="M231.932 497.673C227.158 471.172 227.732 463.221 231.75 442.152C229.244 438.568 226.808 435.293 224.456 432.199C220.27 426.916 216.373 421.411 212.781 415.708C205.18 402.982 200.658 387.793 202.604 358.689C202.596 358.615 202.596 358.54 202.604 358.465V358.381L223.952 358.185C224.064 358.353 224.204 358.507 224.316 358.689C241.647 382.852 247.345 412.236 250.187 432.185C250.649 435.391 251.027 438.344 251.363 441.018C251.544 442.492 251.454 443.987 251.097 445.428C246.533 463.221 240.709 480.426 240.765 497.659L231.932 497.673Z" fill="#F1CCCD"/>
<path d="M250.213 432.242C229.872 431.346 220.423 434.384 200.054 433.334C194.174 421.939 187.763 405.336 187.189 399.064C185.495 380.865 201.062 389.041 205.038 377.393C206.438 373.404 206.746 366.558 206.354 358.229H224.343C241.674 382.559 247.357 412.167 250.213 432.242Z" fill="#3C3768"/>
<path d="M205.018 377.407C201.043 389.054 185.42 380.865 187.169 399.077C187.743 405.335 194.169 421.952 200.035 433.347C197.211 433.198 194.403 432.833 191.635 432.255C188.317 409.605 172.372 393.058 184.104 358.256H206.334C206.726 366.571 206.376 373.403 205.018 377.407Z" fill="#332F5B"/>
<path d="M206.341 358.242H184.139L195.058 292.054C200.322 310.253 205.403 338.447 206.341 358.242Z" fill="#E6E2F8"/>
<path d="M256.947 302.946C256.947 302.946 256.597 304.178 255.981 306.152C253.433 314.341 246.069 335.55 237.894 338.658C231.692 340.982 215.957 322.265 215.859 320.165L213.367 294.336C222.341 304.542 230.474 314.691 235.178 324.533C238.65 316.637 245.229 310.827 249.177 303.534C249.701 302.63 250.168 301.695 250.577 300.734C250.577 300.734 247.581 294.784 249.317 292.95C250.857 291.327 252.901 295.75 253.517 295.134C254.133 294.518 256.849 283.361 258.781 286.161C263.008 292.447 256.947 302.946 256.947 302.946Z" fill="#F1CCCD"/>
<path d="M203.485 283.64L203.345 287.084V290.318C203.513 296.183 196.066 296.029 195.506 290.318L196.906 283.962L197.606 280.784L197.858 279.678L199.93 281.078L203.485 283.64Z" fill="#F1CCCD"/>
<path d="M200.752 374.887C200.533 376.347 199.849 377.697 198.803 378.739C197.757 379.78 196.403 380.457 194.942 380.669C192.207 381.061 189.438 381.16 186.683 380.963C183.844 380.768 181.031 380.299 178.283 379.563C186.767 352.278 181.559 339.525 181.167 323.188C180.982 313.292 182.742 303.456 186.347 294.238L195.586 290.332C194.858 322.25 205.582 342.563 200.752 374.887Z" fill="#AFEBAB"/>
<path d="M255.987 306.151C253.439 314.341 246.075 335.55 237.9 338.657C236.108 339.329 233.518 338.251 230.732 336.292C227.546 333.96 224.613 331.299 221.983 328.354C218.497 324.56 215.921 321.004 215.865 320.165L212.449 293.37C222.151 300.118 228.954 312.605 235.072 323.006C238.544 315.111 245.263 310.827 249.169 303.576L255.987 306.151Z" fill="#AFEBAB"/>
<path d="M203.344 290.317C206.236 290.322 209.075 291.095 211.571 292.556C214.067 294.017 216.132 296.114 217.553 298.632C226.176 312.632 218.799 322.949 224.161 347.14C226.092 355.833 231.328 364.821 237.208 378.526C231.524 380.108 225.84 381.662 220.045 380.836C218.675 380.643 217.394 380.043 216.369 379.115C215.343 378.187 214.619 376.972 214.291 375.628C206.41 343.178 212.093 324.559 203.344 290.317Z" fill="#AFEBAB"/>
<path d="M192.146 314.704C180.302 335.703 196.429 358.522 186.546 380.962C183.708 380.767 180.895 380.298 178.146 379.562C186.63 352.278 181.422 339.525 181.03 323.188L192.146 314.704Z" fill="#8ED08A"/>
<path d="M183.856 357.276C184.204 357.832 184.388 358.475 184.388 359.131C184.388 359.786 184.204 360.429 183.856 360.985C182.89 362.565 182.172 364.283 181.729 366.081C181.729 367.551 183.646 371.247 183.128 372.325C180.623 377.35 172.139 368.629 176.339 359.18C176.339 359.18 173.777 357.276 170.333 354.35C163.558 348.582 153.408 338.839 152.932 331.951C152.12 319.996 186.264 294.237 186.264 294.237L184.22 319.282C177.305 325.595 174.239 327.681 165.293 332.931C170.431 336.907 174.309 342.548 177.893 348.036C179.881 351.298 181.841 354.504 183.856 357.276Z" fill="#F1CCCD"/>
<path d="M185.228 319.647C178.312 325.96 174.21 327.654 165.265 332.918C170.403 336.894 174.28 342.535 177.864 348.023L170.361 354.309C163.585 348.541 153.436 338.798 152.96 331.91C152.148 319.955 186.292 294.196 186.292 294.196L185.228 319.647Z" fill="#AFEBAB"/>
<path d="M230.733 336.291C227.547 333.959 224.614 331.298 221.984 328.353C221.984 328.353 221.718 320.696 221.424 313.906C228.269 318.218 223.566 328.283 230.733 336.291Z" fill="#8ED08A"/>
<path d="M231.735 496.597L229.943 502.449L231.063 511.548L232.869 511.632L234.507 503.666L237.419 508.958C237.747 509.676 238.242 510.305 238.864 510.792C239.485 511.279 240.213 511.61 240.989 511.758C245.188 512.304 253.588 512.458 253.896 509.658C254.204 506.858 246.196 506.662 243.845 503.512C242.365 501.353 241.328 498.922 240.793 496.359L231.735 496.597Z" fill="#3C3768"/>
<path d="M188.798 496.597L187.006 502.449L188.126 511.548L189.932 511.632L191.57 503.666L194.481 508.958C194.811 509.675 195.306 510.304 195.927 510.791C196.548 511.278 197.276 511.609 198.051 511.758C202.251 512.304 210.65 512.458 210.958 509.658C211.266 506.858 203.259 506.662 200.907 503.512C199.427 501.353 198.39 498.922 197.855 496.359L188.798 496.597Z" fill="#3C3768"/>
<path d="M203.492 283.64L203.352 287.084C202.011 287.181 200.667 286.956 199.432 286.426C198.85 286.22 198.317 285.895 197.868 285.47C197.42 285.046 197.065 284.532 196.828 283.962L197.528 280.784L199.852 281.134L203.492 283.64Z" fill="#F0B4B4"/>
<path d="M205.097 268.746C205.097 268.746 201.948 274.751 196.866 275.087C196.866 275.087 193.044 273.897 192.484 275.017C191.252 277.481 195.284 279.637 195.284 279.637C195.956 282.703 200.688 286.637 203.977 285.629C209.941 283.739 205.097 268.746 205.097 268.746Z" fill="#F1CCCD"/>
<path d="M183.181 104.534C182.573 104.532 181.966 104.499 181.361 104.436C181.146 104.414 180.948 104.307 180.812 104.139C180.675 103.971 180.611 103.756 180.633 103.541C180.655 103.325 180.762 103.128 180.93 102.991C181.098 102.854 181.314 102.79 181.529 102.813C182.669 102.93 183.819 102.93 184.959 102.813C185.067 102.794 185.179 102.797 185.286 102.823C185.393 102.848 185.494 102.895 185.582 102.961C185.67 103.026 185.745 103.109 185.8 103.204C185.855 103.3 185.891 103.405 185.904 103.514C185.917 103.624 185.908 103.735 185.877 103.84C185.846 103.946 185.794 104.044 185.724 104.129C185.654 104.214 185.568 104.284 185.47 104.334C185.372 104.385 185.265 104.415 185.155 104.422C184.499 104.496 183.841 104.533 183.181 104.534ZM177.917 103.709H177.665C176.467 103.322 175.313 102.811 174.222 102.183C174.054 102.066 173.937 101.891 173.893 101.692C173.849 101.493 173.881 101.285 173.983 101.109C174.085 100.933 174.25 100.801 174.445 100.741C174.639 100.681 174.849 100.695 175.033 100.783C176.027 101.358 177.078 101.828 178.169 102.183C178.364 102.234 178.533 102.355 178.643 102.524C178.753 102.692 178.796 102.896 178.765 103.094C178.733 103.293 178.629 103.473 178.473 103.6C178.316 103.726 178.118 103.79 177.917 103.779V103.709ZM188.543 103.709C188.342 103.72 188.144 103.656 187.987 103.53C187.831 103.403 187.727 103.223 187.695 103.024C187.664 102.826 187.707 102.622 187.817 102.454C187.927 102.285 188.096 102.164 188.291 102.113C189.377 101.757 190.424 101.287 191.413 100.713C191.598 100.603 191.82 100.572 192.028 100.626C192.237 100.68 192.416 100.814 192.525 101C192.635 101.185 192.666 101.407 192.612 101.616C192.559 101.824 192.424 102.003 192.238 102.113C191.152 102.744 190.003 103.26 188.809 103.653C188.727 103.675 188.642 103.684 188.557 103.681L188.543 103.709ZM171.716 100.097C171.514 100.097 171.319 100.022 171.17 99.8868C170.23 99.0439 169.381 98.1055 168.636 97.0869C168.572 97.0005 168.527 96.9025 168.501 96.7984C168.476 96.6943 168.471 96.5862 168.487 96.4802C168.503 96.3743 168.54 96.2726 168.596 96.1809C168.651 96.0892 168.724 96.0094 168.811 95.946C168.897 95.8826 168.995 95.8368 169.099 95.8112C169.204 95.7857 169.312 95.7809 169.418 95.7972C169.523 95.8134 169.625 95.8504 169.717 95.9059C169.809 95.9615 169.888 96.0346 169.952 96.121C170.629 97.0582 171.404 97.9216 172.262 98.6968C172.378 98.8079 172.459 98.9512 172.494 99.1084C172.529 99.2657 172.517 99.4298 172.458 99.5799C172.4 99.73 172.298 99.8593 172.166 99.9513C172.033 100.043 171.877 100.094 171.716 100.097ZM194.73 100.097C194.569 100.094 194.413 100.043 194.28 99.9513C194.148 99.8593 194.046 99.73 193.988 99.5799C193.929 99.4298 193.917 99.2657 193.952 99.1084C193.987 98.9512 194.068 98.8079 194.184 98.6968C195.031 97.9289 195.796 97.075 196.466 96.149C196.594 95.9726 196.787 95.8544 197.002 95.8202C197.218 95.7861 197.438 95.8389 197.614 95.967C197.791 96.0951 197.909 96.288 197.943 96.5033C197.977 96.7185 197.924 96.9386 197.796 97.1149C197.055 98.1328 196.211 99.0711 195.276 99.9148C195.123 100.04 194.928 100.105 194.73 100.097ZM167.488 94.3851C167.332 94.3856 167.178 94.341 167.047 94.2565C166.915 94.1721 166.811 94.0515 166.746 93.9091C166.223 92.7507 165.824 91.54 165.556 90.2973C165.533 90.1925 165.531 90.0842 165.55 89.9786C165.569 89.873 165.608 89.7722 165.666 89.6818C165.724 89.5915 165.799 89.5134 165.887 89.4521C165.975 89.3907 166.074 89.3474 166.179 89.3244C166.284 89.3014 166.392 89.2993 166.498 89.3181C166.603 89.337 166.704 89.3765 166.794 89.4343C166.885 89.4922 166.963 89.5673 167.024 89.6553C167.086 89.7433 167.129 89.8425 167.152 89.9473C167.392 91.0642 167.748 92.1528 168.216 93.1951C168.272 93.319 168.296 93.4551 168.286 93.5908C168.276 93.7266 168.232 93.8576 168.159 93.9719C168.085 94.0862 167.983 94.1801 167.864 94.2449C167.744 94.3098 167.61 94.3435 167.474 94.3431L167.488 94.3851ZM198.93 94.2871C198.787 94.2937 198.645 94.2625 198.518 94.1965C198.391 94.1306 198.284 94.0322 198.207 93.9114C198.13 93.7906 198.087 93.6517 198.081 93.5087C198.075 93.3657 198.107 93.2237 198.174 93.0972C198.638 92.0498 198.99 90.9565 199.224 89.8353C199.246 89.7306 199.289 89.6311 199.349 89.5428C199.41 89.4544 199.487 89.3788 199.577 89.3203C199.666 89.2618 199.767 89.2216 199.872 89.2018C199.977 89.1821 200.085 89.1833 200.19 89.2054C200.295 89.2274 200.394 89.2699 200.483 89.3304C200.571 89.3909 200.647 89.4682 200.705 89.5579C200.764 89.6476 200.804 89.7479 200.824 89.8532C200.843 89.9584 200.842 90.0665 200.82 90.1713C200.559 91.4034 200.17 92.6046 199.658 93.7551C199.603 93.9058 199.504 94.0367 199.375 94.1314C199.245 94.2261 199.09 94.2803 198.93 94.2871ZM165.976 87.3855C165.761 87.3855 165.554 87.2999 165.402 87.1477C165.25 86.9954 165.164 86.7889 165.164 86.5735V86.5035C165.164 85.2427 165.296 83.9854 165.556 82.7518C165.601 82.5401 165.727 82.3549 165.909 82.2367C166.09 82.1186 166.31 82.0772 166.522 82.1218C166.734 82.1663 166.919 82.2931 167.037 82.4743C167.155 82.6554 167.196 82.8761 167.152 83.0877C166.918 84.2065 166.801 85.3465 166.802 86.4895V86.5595C166.804 86.6685 166.784 86.7768 166.743 86.8778C166.702 86.9789 166.641 87.0707 166.564 87.1478C166.487 87.2249 166.395 87.2856 166.294 87.3265C166.193 87.3673 166.085 87.3874 165.976 87.3855ZM200.386 87.2735C200.171 87.2735 199.964 87.1879 199.812 87.0357C199.66 86.8834 199.574 86.6769 199.574 86.4615C199.553 85.3161 199.412 84.176 199.154 83.0597C199.11 82.8481 199.151 82.6274 199.269 82.4463C199.387 82.2652 199.572 82.1383 199.784 82.0938C199.996 82.0492 200.216 82.0906 200.397 82.2087C200.579 82.3269 200.705 82.5121 200.75 82.7238C201.009 83.9528 201.141 85.2054 201.142 86.4615C201.144 86.5693 201.124 86.6764 201.084 86.7766C201.044 86.8767 200.985 86.9679 200.909 87.0448C200.834 87.1216 200.743 87.1827 200.644 87.2244C200.545 87.2661 200.438 87.2875 200.33 87.2875L200.386 87.2735ZM167.446 80.2739C167.31 80.2744 167.176 80.2406 167.056 80.1758C166.937 80.1109 166.835 80.017 166.761 79.9027C166.687 79.7884 166.643 79.6574 166.633 79.5217C166.623 79.3859 166.648 79.2499 166.704 79.126C167.218 77.9757 167.852 76.8825 168.594 75.8642C168.657 75.7768 168.737 75.7029 168.829 75.6465C168.921 75.5901 169.024 75.5523 169.13 75.5354C169.237 75.5185 169.346 75.5228 169.451 75.548C169.556 75.5731 169.654 75.6187 169.742 75.6822C169.829 75.7456 169.903 75.8256 169.96 75.9176C170.016 76.0096 170.054 76.1119 170.071 76.2184C170.087 76.325 170.083 76.4339 170.058 76.5389C170.033 76.6438 169.987 76.7428 169.924 76.8301C169.253 77.7572 168.68 78.7518 168.216 79.7979C168.159 79.953 168.056 80.0869 167.921 80.182C167.786 80.277 167.625 80.3286 167.46 80.3299L167.446 80.2739ZM198.888 80.2739C198.73 80.2732 198.576 80.2265 198.444 80.1395C198.312 80.0525 198.209 79.9289 198.146 79.7839C197.677 78.7372 197.1 77.7425 196.424 76.8161C196.363 76.7288 196.319 76.6302 196.295 76.5259C196.272 76.4217 196.269 76.3138 196.287 76.2085C196.306 76.1033 196.344 76.0026 196.401 75.9123C196.459 75.8219 196.533 75.7438 196.62 75.6822C196.708 75.6206 196.806 75.5768 196.91 75.5533C197.015 75.5298 197.122 75.5271 197.228 75.5453C197.333 75.5635 197.434 75.6023 197.524 75.6594C197.614 75.7165 197.693 75.7908 197.754 75.8782C198.494 76.8831 199.127 77.9622 199.644 79.098C199.7 79.2219 199.725 79.3579 199.715 79.4937C199.705 79.6294 199.661 79.7604 199.587 79.8747C199.513 79.989 199.411 80.0829 199.292 80.1478C199.172 80.2126 199.038 80.2464 198.902 80.2459L198.888 80.2739ZM171.66 74.5342C171.499 74.5315 171.342 74.4809 171.21 74.3888C171.077 74.2968 170.976 74.1675 170.917 74.0174C170.859 73.8673 170.846 73.7032 170.881 73.546C170.916 73.3887 170.997 73.2454 171.114 73.1343C172.047 72.2937 173.065 71.5524 174.152 70.9225C174.243 70.8682 174.345 70.8326 174.451 70.8177C174.557 70.8028 174.664 70.8088 174.767 70.8354C174.871 70.8621 174.968 70.9088 175.053 70.973C175.138 71.0372 175.21 71.1175 175.264 71.2094C175.319 71.3014 175.354 71.4031 175.369 71.5087C175.384 71.6144 175.378 71.722 175.351 71.8253C175.325 71.9287 175.278 72.0258 175.214 72.111C175.15 72.1963 175.069 72.2681 174.977 72.3224C173.976 72.8944 173.038 73.5701 172.178 74.3382C172.033 74.4623 171.85 74.5316 171.66 74.5342ZM194.674 74.5342C194.473 74.5345 194.278 74.4596 194.128 74.3243C193.268 73.5562 192.33 72.8805 191.329 72.3084C191.161 72.1919 191.044 72.0169 191 71.818C190.956 71.6192 190.988 71.4109 191.09 71.2347C191.192 71.0585 191.357 70.9271 191.552 70.8667C191.746 70.8063 191.956 70.8212 192.14 70.9085C193.232 71.5375 194.255 72.2788 195.192 73.1203C195.309 73.2314 195.39 73.3747 195.425 73.5319C195.46 73.6892 195.447 73.8533 195.389 74.0034C195.33 74.1535 195.229 74.2828 195.096 74.3748C194.964 74.4669 194.807 74.5175 194.646 74.5202L194.674 74.5342ZM177.875 70.9784C177.653 71.0156 177.424 70.9627 177.24 70.8314C177.057 70.7002 176.932 70.5013 176.895 70.2785C176.858 70.0557 176.911 69.8273 177.042 69.6436C177.174 69.4598 177.373 69.3357 177.595 69.2985C178.792 68.9091 180.026 68.6463 181.277 68.5146C181.492 68.4923 181.708 68.5565 181.876 68.693C182.044 68.8295 182.151 69.0272 182.173 69.2425C182.195 69.4579 182.131 69.6733 181.995 69.8413C181.858 70.0093 181.66 70.1162 181.445 70.1385C180.308 70.2586 179.186 70.4979 178.099 70.8525C178.021 70.899 177.936 70.9321 177.847 70.9504L177.875 70.9784ZM188.501 70.9784H188.249C187.161 70.6289 186.04 70.3943 184.903 70.2785C184.796 70.2675 184.693 70.2355 184.599 70.1845C184.504 70.1335 184.421 70.0645 184.353 69.9813C184.286 69.8981 184.235 69.8024 184.205 69.6997C184.174 69.5969 184.164 69.4892 184.175 69.3825C184.186 69.2759 184.218 69.1725 184.269 69.0782C184.32 68.9839 184.389 68.9006 184.472 68.833C184.555 68.7654 184.651 68.7149 184.754 68.6842C184.857 68.6536 184.964 68.6436 185.071 68.6546C186.322 68.782 187.556 69.04 188.753 69.4245C188.947 69.4757 189.116 69.5974 189.226 69.7659C189.336 69.9343 189.379 70.1376 189.348 70.3364C189.317 70.5351 189.213 70.7152 189.056 70.8415C188.9 70.9679 188.702 71.0317 188.501 71.0204V70.9784Z" fill="#B8B2EA"/>
<path d="M190.422 78.1875L182.345 89.4848L176.745 84.2072L173.357 88.5189L182.905 94.8325C186.965 90.4648 191.85 87.6089 195.91 83.2412C194.314 82.0513 191.962 79.3634 190.422 78.1875Z" fill="#B8B2EA"/>
<path d="M557.192 191.931C556.576 191.931 555.974 191.931 555.372 191.833C555.157 191.81 554.959 191.703 554.823 191.535C554.686 191.367 554.622 191.152 554.644 190.937C554.666 190.721 554.773 190.524 554.941 190.387C555.109 190.251 555.325 190.186 555.54 190.209C556.68 190.326 557.83 190.326 558.97 190.209C559.077 190.198 559.184 190.208 559.287 190.238C559.39 190.269 559.486 190.32 559.569 190.387C559.652 190.455 559.721 190.538 559.772 190.632C559.823 190.727 559.855 190.83 559.866 190.937C559.877 191.043 559.867 191.151 559.836 191.254C559.806 191.357 559.755 191.452 559.687 191.535C559.62 191.619 559.537 191.688 559.442 191.739C559.348 191.79 559.245 191.822 559.138 191.833C558.492 191.9 557.842 191.933 557.192 191.931ZM551.928 191.105H551.676C550.478 190.718 549.324 190.207 548.233 189.579C548.065 189.462 547.948 189.287 547.904 189.088C547.86 188.89 547.892 188.681 547.994 188.505C548.096 188.329 548.261 188.198 548.456 188.137C548.65 188.077 548.86 188.092 549.045 188.179C550.038 188.755 551.089 189.224 552.18 189.579C552.375 189.63 552.544 189.752 552.654 189.92C552.764 190.089 552.807 190.292 552.776 190.491C552.744 190.689 552.64 190.869 552.484 190.996C552.327 191.122 552.129 191.186 551.928 191.175V191.105ZM562.554 191.105C562.353 191.116 562.155 191.052 561.998 190.926C561.842 190.799 561.738 190.619 561.706 190.421C561.675 190.222 561.719 190.019 561.829 189.85C561.939 189.682 562.107 189.56 562.302 189.509C563.389 189.153 564.435 188.683 565.424 188.109C565.516 188.055 565.617 188.019 565.723 188.004C565.829 187.989 565.936 187.995 566.039 188.022C566.143 188.048 566.24 188.095 566.325 188.159C566.41 188.224 566.482 188.304 566.537 188.396C566.591 188.488 566.626 188.589 566.641 188.695C566.656 188.801 566.65 188.908 566.624 189.012C566.597 189.115 566.55 189.212 566.486 189.297C566.422 189.383 566.341 189.455 566.25 189.509C565.163 190.14 564.014 190.657 562.82 191.049C562.734 191.077 562.644 191.092 562.554 191.091V191.105ZM545.755 187.577C545.553 187.577 545.358 187.502 545.209 187.367C544.269 186.524 543.42 185.586 542.675 184.567C542.612 184.481 542.566 184.383 542.54 184.278C542.515 184.174 542.51 184.066 542.526 183.96C542.542 183.854 542.579 183.753 542.635 183.661C542.69 183.569 542.764 183.49 542.85 183.426C542.936 183.363 543.034 183.317 543.138 183.291C543.243 183.266 543.351 183.261 543.457 183.277C543.563 183.294 543.664 183.331 543.756 183.386C543.848 183.442 543.927 183.515 543.991 183.601C544.666 184.523 545.436 185.372 546.287 186.135C546.403 186.246 546.484 186.389 546.519 186.547C546.554 186.704 546.542 186.868 546.483 187.018C546.425 187.168 546.323 187.297 546.191 187.389C546.058 187.482 545.902 187.532 545.741 187.535L545.755 187.577ZM568.769 187.577C568.608 187.574 568.452 187.524 568.319 187.431C568.187 187.339 568.085 187.21 568.027 187.06C567.968 186.91 567.956 186.746 567.991 186.589C568.026 186.431 568.107 186.288 568.223 186.177C569.07 185.409 569.835 184.555 570.505 183.629C570.633 183.453 570.826 183.334 571.042 183.3C571.257 183.266 571.477 183.319 571.653 183.447C571.83 183.575 571.948 183.768 571.982 183.983C572.016 184.199 571.963 184.419 571.835 184.595C571.094 185.613 570.25 186.551 569.315 187.395C569.137 187.496 568.927 187.526 568.727 187.479L568.769 187.577ZM541.527 181.879C541.371 181.88 541.217 181.835 541.086 181.751C540.954 181.666 540.85 181.546 540.785 181.403C540.268 180.253 539.874 179.052 539.609 177.819C539.586 177.715 539.584 177.606 539.603 177.501C539.622 177.395 539.661 177.294 539.719 177.204C539.777 177.114 539.852 177.036 539.94 176.974C540.028 176.913 540.127 176.869 540.232 176.846C540.337 176.824 540.445 176.821 540.551 176.84C540.656 176.859 540.757 176.899 540.848 176.956C540.938 177.014 541.016 177.089 541.077 177.177C541.139 177.265 541.182 177.365 541.205 177.469C541.445 178.586 541.802 179.675 542.269 180.717C542.325 180.841 542.35 180.977 542.34 181.113C542.33 181.249 542.286 181.38 542.212 181.494C542.138 181.608 542.036 181.702 541.917 181.767C541.797 181.832 541.663 181.866 541.527 181.865V181.879ZM572.969 181.781C572.833 181.782 572.699 181.748 572.579 181.683C572.46 181.618 572.358 181.524 572.284 181.41C572.211 181.296 572.167 181.165 572.157 181.029C572.147 180.893 572.171 180.757 572.227 180.633C572.691 179.586 573.043 178.493 573.277 177.371C573.299 177.267 573.342 177.167 573.402 177.079C573.463 176.991 573.54 176.915 573.63 176.856C573.719 176.798 573.82 176.758 573.925 176.738C574.03 176.718 574.138 176.719 574.243 176.742C574.348 176.764 574.447 176.806 574.536 176.867C574.624 176.927 574.7 177.004 574.758 177.094C574.817 177.184 574.857 177.284 574.877 177.389C574.896 177.495 574.895 177.603 574.873 177.707C574.613 178.94 574.223 180.141 573.711 181.291C573.632 181.425 573.516 181.533 573.377 181.602C573.238 181.672 573.082 181.7 572.927 181.683L572.969 181.781ZM540.015 174.894C539.8 174.894 539.593 174.808 539.441 174.656C539.289 174.504 539.203 174.297 539.203 174.082V174.012C539.203 172.751 539.335 171.494 539.595 170.26C539.64 170.048 539.766 169.863 539.948 169.745C540.129 169.627 540.349 169.585 540.561 169.63C540.773 169.674 540.958 169.801 541.076 169.982C541.194 170.164 541.236 170.384 541.191 170.596C540.957 171.715 540.84 172.855 540.841 173.998V174.068C540.82 174.278 540.717 174.472 540.555 174.608C540.393 174.744 540.184 174.811 539.973 174.796L540.015 174.894ZM574.425 174.782C574.21 174.782 574.003 174.696 573.851 174.544C573.699 174.392 573.613 174.185 573.613 173.97C573.61 172.826 573.488 171.686 573.249 170.568C573.227 170.463 573.226 170.355 573.246 170.25C573.265 170.144 573.306 170.044 573.364 169.954C573.423 169.865 573.498 169.787 573.587 169.727C573.675 169.666 573.774 169.624 573.879 169.602C573.984 169.58 574.092 169.579 574.197 169.598C574.302 169.618 574.403 169.658 574.493 169.717C574.582 169.775 574.66 169.851 574.72 169.939C574.78 170.028 574.823 170.127 574.845 170.232C575.104 171.461 575.236 172.714 575.237 173.97C575.239 174.077 575.219 174.185 575.179 174.285C575.139 174.385 575.08 174.476 575.004 174.553C574.929 174.63 574.839 174.691 574.739 174.732C574.64 174.774 574.533 174.796 574.425 174.796V174.782ZM541.485 167.782C541.349 167.782 541.215 167.749 541.095 167.684C540.976 167.619 540.874 167.525 540.8 167.411C540.726 167.297 540.682 167.165 540.672 167.03C540.662 166.894 540.687 166.758 540.743 166.634C541.257 165.484 541.891 164.391 542.633 163.372C542.761 163.196 542.954 163.078 543.169 163.044C543.384 163.009 543.604 163.062 543.781 163.19C543.957 163.318 544.075 163.511 544.11 163.727C544.144 163.942 544.091 164.162 543.963 164.338C543.297 165.261 542.73 166.251 542.269 167.292C542.193 167.438 542.075 167.558 541.93 167.635C541.785 167.713 541.62 167.744 541.457 167.726L541.485 167.782ZM572.927 167.782C572.769 167.781 572.615 167.735 572.483 167.648C572.351 167.561 572.248 167.437 572.185 167.292C571.716 166.25 571.139 165.26 570.463 164.338C570.4 164.252 570.354 164.154 570.329 164.05C570.303 163.946 570.298 163.837 570.315 163.732C570.331 163.626 570.368 163.524 570.423 163.432C570.479 163.341 570.552 163.261 570.638 163.197C570.725 163.134 570.823 163.088 570.927 163.063C571.031 163.037 571.139 163.032 571.245 163.048C571.351 163.065 571.453 163.102 571.544 163.157C571.636 163.213 571.716 163.286 571.779 163.372C572.521 164.391 573.155 165.484 573.669 166.634C573.725 166.758 573.75 166.894 573.74 167.03C573.73 167.165 573.686 167.297 573.612 167.411C573.538 167.525 573.437 167.619 573.317 167.684C573.197 167.749 573.063 167.782 572.927 167.782ZM545.699 162.028C545.538 162.026 545.381 161.975 545.249 161.883C545.117 161.791 545.015 161.662 544.956 161.512C544.898 161.361 544.885 161.197 544.92 161.04C544.955 160.883 545.036 160.74 545.153 160.628C546.086 159.788 547.104 159.047 548.191 158.417C548.376 158.307 548.598 158.276 548.806 158.33C549.015 158.383 549.194 158.518 549.304 158.704C549.413 158.889 549.444 159.111 549.391 159.319C549.337 159.528 549.202 159.707 549.017 159.817C548.015 160.389 547.077 161.064 546.217 161.832C546.052 161.928 545.859 161.963 545.671 161.93L545.699 162.028ZM568.713 162.028C568.512 162.029 568.317 161.954 568.167 161.818C567.307 161.05 566.369 160.375 565.368 159.802C565.266 159.754 565.176 159.686 565.102 159.601C565.029 159.516 564.973 159.417 564.94 159.31C564.907 159.203 564.896 159.09 564.909 158.978C564.921 158.866 564.957 158.759 565.013 158.661C565.069 158.564 565.145 158.48 565.236 158.414C565.327 158.347 565.43 158.301 565.54 158.276C565.649 158.252 565.763 158.251 565.873 158.272C565.983 158.294 566.087 158.338 566.18 158.403C567.271 159.032 568.294 159.773 569.231 160.614C569.348 160.726 569.429 160.869 569.464 161.026C569.499 161.183 569.487 161.347 569.428 161.498C569.369 161.648 569.268 161.777 569.135 161.869C569.003 161.961 568.846 162.012 568.685 162.014L568.713 162.028ZM551.914 158.473C551.714 158.484 551.516 158.42 551.359 158.294C551.202 158.167 551.098 157.987 551.067 157.789C551.036 157.59 551.079 157.386 551.189 157.218C551.299 157.05 551.468 156.928 551.662 156.877C552.859 156.487 554.093 156.225 555.344 156.093C555.56 156.07 555.775 156.135 555.943 156.271C556.111 156.408 556.218 156.605 556.24 156.821C556.262 157.036 556.198 157.251 556.062 157.419C555.925 157.587 555.728 157.694 555.512 157.717C554.375 157.837 553.254 158.076 552.166 158.431C552.06 158.428 551.955 158.404 551.858 158.361L551.914 158.473ZM562.54 158.473H562.288C561.2 158.123 560.079 157.888 558.942 157.773C558.835 157.762 558.732 157.73 558.638 157.679C558.543 157.628 558.46 157.559 558.392 157.475C558.325 157.392 558.274 157.297 558.244 157.194C558.213 157.091 558.203 156.983 558.214 156.877C558.225 156.77 558.257 156.667 558.308 156.572C558.359 156.478 558.428 156.395 558.511 156.327C558.594 156.26 558.69 156.209 558.793 156.178C558.896 156.148 559.003 156.138 559.11 156.149C560.361 156.276 561.595 156.534 562.792 156.919C562.986 156.97 563.155 157.092 563.265 157.26C563.375 157.428 563.419 157.632 563.387 157.831C563.356 158.029 563.252 158.209 563.095 158.336C562.939 158.462 562.741 158.526 562.54 158.515V158.473Z" fill="#B8B2EA"/>
<path d="M564.427 165.585L556.335 176.883L550.735 171.591L547.348 175.903L556.895 182.216C560.955 177.849 565.841 174.993 569.9 170.625C568.318 169.449 565.967 166.761 564.427 165.585Z" fill="#B8B2EA"/>
<path d="M161.547 256.972C161.141 256.992 160.735 256.992 160.329 256.972C160.257 256.964 160.188 256.943 160.124 256.909C160.061 256.874 160.005 256.828 159.96 256.772C159.914 256.716 159.88 256.652 159.859 256.583C159.839 256.514 159.832 256.441 159.839 256.37C159.847 256.298 159.868 256.228 159.902 256.165C159.936 256.101 159.983 256.045 160.039 256C160.095 255.954 160.159 255.92 160.228 255.9C160.297 255.879 160.369 255.872 160.441 255.88C161.2 255.957 161.964 255.957 162.723 255.88C162.795 255.872 162.867 255.879 162.936 255.9C163.005 255.92 163.07 255.954 163.125 256C163.181 256.045 163.228 256.101 163.262 256.165C163.296 256.228 163.318 256.298 163.325 256.37C163.332 256.441 163.326 256.514 163.305 256.583C163.284 256.652 163.25 256.716 163.205 256.772C163.159 256.828 163.103 256.874 163.04 256.909C162.976 256.943 162.907 256.964 162.835 256.972C162.406 256.994 161.976 256.994 161.547 256.972ZM158.033 256.426H157.865C157.066 256.166 156.297 255.824 155.569 255.404C155.443 255.331 155.351 255.212 155.313 255.071C155.275 254.931 155.294 254.781 155.366 254.655C155.439 254.528 155.558 254.436 155.699 254.398C155.839 254.36 155.989 254.379 156.115 254.452C156.776 254.832 157.476 255.142 158.201 255.376C158.324 255.417 158.428 255.5 158.495 255.61C158.562 255.72 158.588 255.851 158.568 255.979C158.548 256.106 158.483 256.223 158.385 256.307C158.287 256.392 158.163 256.439 158.033 256.44V256.426ZM165.131 256.426C165.002 256.425 164.877 256.378 164.779 256.293C164.681 256.209 164.616 256.092 164.596 255.965C164.576 255.837 164.602 255.706 164.669 255.596C164.736 255.486 164.84 255.403 164.963 255.362C165.689 255.123 166.388 254.809 167.049 254.424C167.11 254.378 167.181 254.346 167.256 254.329C167.331 254.313 167.409 254.312 167.484 254.328C167.559 254.343 167.63 254.374 167.692 254.419C167.755 254.464 167.807 254.521 167.846 254.588C167.884 254.654 167.908 254.728 167.917 254.804C167.925 254.881 167.917 254.958 167.893 255.031C167.869 255.104 167.831 255.171 167.779 255.228C167.728 255.285 167.665 255.331 167.595 255.362C166.868 255.786 166.098 256.134 165.299 256.398L165.131 256.426ZM153.932 254.074C153.797 254.073 153.668 254.024 153.568 253.934C152.94 253.374 152.372 252.75 151.874 252.072C151.831 252.014 151.801 251.948 151.784 251.879C151.767 251.809 151.764 251.737 151.775 251.666C151.786 251.595 151.811 251.527 151.848 251.466C151.886 251.404 151.935 251.351 151.993 251.309C152.051 251.267 152.116 251.236 152.186 251.219C152.256 251.202 152.328 251.199 152.399 251.21C152.47 251.221 152.538 251.246 152.599 251.284C152.66 251.321 152.713 251.37 152.756 251.428C153.209 252.044 153.725 252.612 154.296 253.122C154.378 253.196 154.435 253.292 154.461 253.4C154.487 253.507 154.48 253.62 154.44 253.723C154.401 253.826 154.331 253.915 154.24 253.977C154.15 254.04 154.042 254.074 153.932 254.074ZM169.331 254.074C169.22 254.074 169.113 254.04 169.022 253.977C168.931 253.915 168.861 253.826 168.822 253.723C168.782 253.62 168.775 253.507 168.801 253.4C168.827 253.292 168.885 253.196 168.967 253.122C169.511 252.563 169.994 251.948 170.409 251.288C170.451 251.23 170.504 251.181 170.565 251.144C170.627 251.106 170.695 251.081 170.765 251.07C170.836 251.059 170.909 251.062 170.978 251.079C171.048 251.096 171.114 251.127 171.172 251.169C171.229 251.211 171.278 251.264 171.316 251.326C171.353 251.387 171.378 251.455 171.389 251.526C171.4 251.597 171.397 251.669 171.38 251.739C171.363 251.808 171.333 251.874 171.291 251.932C170.797 252.614 170.234 253.243 169.611 253.808C169.523 253.915 169.398 253.985 169.261 254.004L169.331 254.074ZM151.132 250.266C151.025 250.267 150.921 250.237 150.832 250.18C150.742 250.123 150.671 250.041 150.628 249.944C150.283 249.176 150.02 248.373 149.844 247.55C149.828 247.415 149.864 247.279 149.943 247.168C150.023 247.058 150.141 246.981 150.274 246.953C150.407 246.925 150.546 246.948 150.663 247.017C150.78 247.086 150.868 247.196 150.908 247.326C151.069 248.072 151.308 248.8 151.622 249.496C151.659 249.58 151.675 249.671 151.668 249.763C151.661 249.854 151.631 249.942 151.581 250.019C151.53 250.096 151.462 250.159 151.381 250.202C151.3 250.245 151.209 250.267 151.118 250.266H151.132ZM172.13 250.266C172.039 250.267 171.948 250.245 171.867 250.202C171.787 250.159 171.718 250.096 171.668 250.019C171.617 249.942 171.587 249.854 171.58 249.763C171.573 249.671 171.589 249.58 171.627 249.496C171.935 248.799 172.17 248.072 172.326 247.326C172.367 247.196 172.454 247.086 172.571 247.017C172.689 246.948 172.827 246.925 172.961 246.953C173.094 246.981 173.212 247.058 173.291 247.168C173.371 247.279 173.406 247.415 173.39 247.55C173.219 248.373 172.96 249.175 172.62 249.944C172.555 250.03 172.465 250.094 172.363 250.129C172.261 250.164 172.151 250.168 172.046 250.14L172.13 250.266ZM150.138 245.66C149.993 245.66 149.854 245.603 149.752 245.5C149.649 245.398 149.592 245.259 149.592 245.114C149.593 244.272 149.682 243.432 149.858 242.608C149.866 242.533 149.891 242.46 149.929 242.395C149.968 242.329 150.019 242.272 150.081 242.228C150.143 242.184 150.213 242.153 150.287 242.137C150.362 242.121 150.438 242.121 150.513 242.137C150.587 242.152 150.657 242.183 150.719 242.228C150.781 242.272 150.832 242.329 150.871 242.394C150.909 242.46 150.934 242.532 150.942 242.608C150.951 242.683 150.944 242.76 150.922 242.832C150.764 243.578 150.684 244.338 150.684 245.1C150.656 245.238 150.577 245.36 150.463 245.441C150.348 245.521 150.207 245.555 150.068 245.534L150.138 245.66ZM173.11 245.59C172.966 245.59 172.827 245.533 172.724 245.43C172.622 245.328 172.564 245.189 172.564 245.044C172.564 244.282 172.484 243.522 172.326 242.776C172.304 242.704 172.297 242.627 172.306 242.552C172.314 242.477 172.339 242.404 172.377 242.338C172.416 242.273 172.468 242.216 172.529 242.172C172.591 242.127 172.661 242.096 172.736 242.081C172.81 242.065 172.887 242.065 172.961 242.081C173.035 242.097 173.105 242.128 173.167 242.172C173.229 242.216 173.28 242.273 173.319 242.339C173.357 242.404 173.382 242.477 173.39 242.552C173.565 243.372 173.654 244.207 173.656 245.044C173.656 245.189 173.599 245.328 173.496 245.43C173.394 245.533 173.255 245.59 173.11 245.59ZM151.132 240.943C151.04 240.944 150.95 240.921 150.869 240.878C150.788 240.835 150.719 240.772 150.669 240.696C150.619 240.619 150.589 240.531 150.581 240.439C150.574 240.348 150.59 240.256 150.628 240.173C150.97 239.402 151.392 238.671 151.888 237.989C151.973 237.872 152.101 237.793 152.244 237.771C152.388 237.749 152.534 237.784 152.651 237.87C152.768 237.955 152.846 238.083 152.868 238.227C152.89 238.37 152.855 238.516 152.77 238.633C152.319 239.249 151.935 239.91 151.622 240.607C151.56 240.697 151.472 240.767 151.369 240.807C151.267 240.847 151.155 240.855 151.048 240.831L151.132 240.943ZM172.13 240.943C172.024 240.944 171.92 240.914 171.83 240.857C171.741 240.799 171.67 240.717 171.627 240.621C171.314 239.924 170.929 239.263 170.479 238.647C170.436 238.589 170.406 238.523 170.389 238.453C170.372 238.384 170.369 238.311 170.38 238.241C170.391 238.17 170.416 238.102 170.453 238.04C170.491 237.979 170.54 237.926 170.598 237.884C170.655 237.841 170.721 237.811 170.791 237.794C170.861 237.777 170.933 237.774 171.004 237.785C171.075 237.796 171.143 237.821 171.204 237.858C171.265 237.896 171.318 237.945 171.361 238.003C171.826 238.657 172.224 239.355 172.55 240.089C172.588 240.172 172.604 240.264 172.597 240.355C172.59 240.447 172.56 240.535 172.509 240.612C172.459 240.688 172.39 240.751 172.31 240.794C172.229 240.837 172.138 240.86 172.046 240.859L172.13 240.943ZM153.932 237.107C153.821 237.107 153.713 237.073 153.623 237.01C153.532 236.948 153.462 236.859 153.423 236.756C153.383 236.653 153.376 236.54 153.402 236.433C153.428 236.325 153.486 236.229 153.568 236.155C154.16 235.531 154.817 234.973 155.527 234.489C155.59 234.453 155.659 234.43 155.73 234.421C155.802 234.411 155.874 234.416 155.944 234.435C156.014 234.454 156.079 234.486 156.136 234.53C156.193 234.575 156.241 234.629 156.276 234.692C156.312 234.754 156.335 234.823 156.345 234.895C156.354 234.966 156.349 235.039 156.33 235.108C156.311 235.178 156.279 235.243 156.235 235.3C156.191 235.357 156.136 235.405 156.073 235.441C155.41 235.841 154.79 236.31 154.226 236.841C154.124 236.926 153.994 236.97 153.862 236.967L153.932 237.107ZM169.331 237.107C169.196 237.106 169.067 237.057 168.967 236.967C168.402 236.436 167.782 235.967 167.119 235.567C167.056 235.531 167.001 235.483 166.957 235.426C166.913 235.369 166.881 235.304 166.862 235.234C166.843 235.165 166.838 235.092 166.848 235.021C166.857 234.949 166.88 234.88 166.916 234.818C166.952 234.755 166.999 234.701 167.056 234.657C167.114 234.612 167.179 234.58 167.248 234.561C167.318 234.542 167.39 234.537 167.462 234.547C167.533 234.556 167.602 234.579 167.665 234.615C168.39 235.033 169.071 235.526 169.695 236.085C169.777 236.159 169.834 236.255 169.86 236.363C169.886 236.47 169.879 236.583 169.84 236.686C169.8 236.789 169.73 236.878 169.64 236.94C169.549 237.003 169.441 237.037 169.331 237.037V237.107ZM158.131 234.727C158.002 234.726 157.877 234.679 157.779 234.595C157.682 234.51 157.617 234.394 157.597 234.266C157.576 234.138 157.602 234.008 157.669 233.897C157.737 233.787 157.841 233.704 157.963 233.663C158.764 233.404 159.59 233.231 160.427 233.145C160.499 233.138 160.571 233.144 160.64 233.165C160.709 233.186 160.774 233.22 160.83 233.265C160.886 233.311 160.932 233.367 160.966 233.43C161 233.494 161.022 233.563 161.029 233.635C161.036 233.707 161.03 233.779 161.009 233.848C160.988 233.917 160.954 233.981 160.909 234.037C160.863 234.093 160.807 234.14 160.744 234.174C160.68 234.208 160.611 234.23 160.539 234.237C159.778 234.316 159.027 234.476 158.299 234.713L158.131 234.727ZM165.229 234.727H165.061C164.333 234.49 163.582 234.331 162.821 234.251C162.676 234.236 162.543 234.164 162.451 234.051C162.359 233.938 162.316 233.794 162.331 233.649C162.346 233.504 162.418 233.371 162.531 233.279C162.643 233.187 162.788 233.144 162.933 233.159C163.77 233.245 164.596 233.418 165.397 233.677C165.52 233.718 165.624 233.801 165.691 233.911C165.758 234.022 165.784 234.152 165.764 234.28C165.743 234.408 165.679 234.524 165.581 234.609C165.483 234.693 165.358 234.74 165.229 234.741V234.727Z" fill="#B8B2EA"/>
<path d="M166.367 239.387L160.963 246.932L157.211 243.404L154.943 246.288L161.313 250.488C164.029 247.576 167.277 245.672 169.992 242.747C168.971 241.977 167.403 240.185 166.367 239.387Z" fill="#B8B2EA"/>
<path d="M483.154 53.1288C482.749 53.1288 482.343 53.1288 481.937 53.1288C481.865 53.1214 481.795 53.1 481.732 53.0658C481.668 53.0316 481.612 52.9852 481.567 52.9293C481.521 52.8734 481.487 52.8091 481.467 52.74C481.446 52.671 481.439 52.5985 481.447 52.5268C481.454 52.4551 481.475 52.3856 481.51 52.3222C481.544 52.2587 481.59 52.2027 481.646 52.1572C481.702 52.1117 481.766 52.0776 481.835 52.057C481.904 52.0363 481.977 52.0295 482.049 52.0369C482.807 52.1145 483.572 52.1145 484.33 52.0369C484.475 52.022 484.62 52.0653 484.733 52.1572C484.846 52.2491 484.918 52.382 484.932 52.5268C484.947 52.6716 484.904 52.8164 484.812 52.9293C484.72 53.0422 484.587 53.1139 484.442 53.1288C484.013 53.1515 483.583 53.1515 483.154 53.1288ZM479.641 52.5828H479.473C478.674 52.3236 477.904 51.9811 477.177 51.5609C477.114 51.525 477.06 51.4772 477.015 51.4202C476.971 51.3632 476.939 51.298 476.92 51.2285C476.901 51.1589 476.896 51.0863 476.906 51.0149C476.915 50.9434 476.938 50.8744 476.974 50.8119C477.01 50.7494 477.058 50.6946 477.115 50.6506C477.172 50.6065 477.237 50.5742 477.306 50.5553C477.376 50.5365 477.448 50.5315 477.52 50.5407C477.591 50.5499 477.66 50.5731 477.723 50.6089C478.384 50.9891 479.083 51.2988 479.809 51.5329C479.931 51.5737 480.036 51.6568 480.103 51.7672C480.17 51.8777 480.196 52.0083 480.175 52.136C480.155 52.2637 480.09 52.3801 479.993 52.4645C479.895 52.5488 479.77 52.5958 479.641 52.5968V52.5828ZM486.738 52.5828C486.609 52.5818 486.484 52.5349 486.386 52.4505C486.289 52.3661 486.224 52.2497 486.204 52.122C486.183 51.9944 486.209 51.8637 486.276 51.7532C486.344 51.6428 486.448 51.5597 486.57 51.5189C487.297 51.2802 487.996 50.9658 488.656 50.5809C488.779 50.5266 488.918 50.5194 489.045 50.5609C489.173 50.6023 489.281 50.6894 489.349 50.8055C489.417 50.9217 489.439 51.0587 489.412 51.1903C489.385 51.3219 489.31 51.4389 489.202 51.5189C488.475 51.9437 487.706 52.2909 486.906 52.5548L486.738 52.5828ZM475.539 50.231C475.405 50.2307 475.275 50.1809 475.175 50.091C474.547 49.5309 473.979 48.9069 473.481 48.2291C473.396 48.1121 473.36 47.966 473.383 47.823C473.405 47.6799 473.483 47.5515 473.6 47.4661C473.717 47.3807 473.863 47.3453 474.006 47.3676C474.149 47.3899 474.278 47.4682 474.363 47.5851C474.816 48.2017 475.332 48.7694 475.903 49.279C475.985 49.3528 476.043 49.4497 476.069 49.557C476.095 49.6643 476.087 49.7769 476.048 49.88C476.008 49.9831 475.939 50.0718 475.848 50.1344C475.757 50.1971 475.649 50.2308 475.539 50.231ZM490.938 50.231C490.828 50.2308 490.72 50.1971 490.629 50.1344C490.538 50.0718 490.469 49.9831 490.429 49.88C490.39 49.7769 490.382 49.6643 490.408 49.557C490.434 49.4497 490.492 49.3528 490.574 49.279C491.141 48.7642 491.652 48.1918 492.1 47.5711C492.142 47.5132 492.196 47.4642 492.257 47.4269C492.318 47.3896 492.386 47.3647 492.457 47.3536C492.528 47.3426 492.6 47.3456 492.67 47.3625C492.739 47.3794 492.805 47.4098 492.863 47.4521C492.921 47.4944 492.97 47.5477 493.007 47.6089C493.045 47.6701 493.069 47.7381 493.08 47.809C493.092 47.8798 493.088 47.9521 493.072 48.0218C493.055 48.0915 493.024 48.1572 492.982 48.2151C492.489 48.897 491.926 49.5257 491.302 50.091C491.237 50.1341 491.163 50.1626 491.086 50.1747C491.008 50.1868 490.929 50.1821 490.854 50.161L490.938 50.231ZM472.739 46.4232C472.633 46.4244 472.529 46.3945 472.439 46.3373C472.35 46.2802 472.279 46.1981 472.235 46.1012C471.89 45.333 471.628 44.5306 471.451 43.7074C471.436 43.5722 471.471 43.4361 471.551 43.3257C471.63 43.2153 471.748 43.1385 471.881 43.1105C472.014 43.0825 472.153 43.1052 472.27 43.1741C472.388 43.2431 472.475 43.3534 472.515 43.4834C472.676 44.2297 472.916 44.957 473.229 45.6532C473.267 45.7369 473.283 45.8286 473.275 45.92C473.268 46.0114 473.238 46.0995 473.188 46.1763C473.138 46.253 473.069 46.3158 472.988 46.359C472.907 46.4021 472.817 46.4242 472.725 46.4232H472.739ZM493.738 46.4232C493.646 46.4242 493.556 46.4021 493.475 46.359C493.394 46.3158 493.325 46.253 493.275 46.1763C493.225 46.0995 493.195 46.0114 493.188 45.92C493.18 45.8286 493.196 45.7369 493.234 45.6532C493.543 44.9565 493.777 44.2292 493.934 43.4834C493.974 43.3534 494.061 43.2431 494.179 43.1741C494.296 43.1052 494.435 43.0825 494.568 43.1105C494.701 43.1385 494.819 43.2153 494.898 43.3257C494.978 43.4361 495.013 43.5722 494.998 43.7074C494.826 44.5301 494.568 45.3325 494.228 46.1012C494.161 46.1845 494.07 46.2461 493.968 46.2785C493.866 46.3108 493.757 46.3125 493.654 46.2832L493.738 46.4232ZM471.745 41.8175C471.6 41.8175 471.462 41.7599 471.359 41.6576C471.257 41.5552 471.199 41.4163 471.199 41.2715C471.2 40.4292 471.29 39.5894 471.465 38.7656C471.505 38.6357 471.593 38.5254 471.71 38.4564C471.827 38.3874 471.966 38.3647 472.099 38.3928C472.232 38.4208 472.35 38.4975 472.43 38.6079C472.509 38.7183 472.545 38.8545 472.529 38.9896C472.372 39.7353 472.292 40.4953 472.291 41.2575C472.264 41.3979 472.183 41.5221 472.065 41.6033C471.947 41.6844 471.802 41.7161 471.661 41.6915L471.745 41.8175ZM494.676 41.6215C494.531 41.6215 494.392 41.564 494.29 41.4616C494.187 41.3592 494.13 41.2203 494.13 41.0755C494.129 40.3133 494.05 39.5533 493.892 38.8076C493.876 38.6725 493.912 38.5364 493.991 38.426C494.071 38.3155 494.189 38.2388 494.322 38.2108C494.455 38.1828 494.594 38.2054 494.711 38.2744C494.828 38.3434 494.916 38.4537 494.956 38.5837C495.131 39.4074 495.221 40.2472 495.222 41.0895C495.222 41.2343 495.164 41.3732 495.062 41.4756C494.959 41.578 494.821 41.6355 494.676 41.6355V41.6215ZM472.697 36.9737C472.605 36.9748 472.515 36.9527 472.434 36.9095C472.353 36.8664 472.284 36.8035 472.234 36.7268C472.184 36.6501 472.154 36.562 472.147 36.4706C472.14 36.3792 472.156 36.2874 472.193 36.2038C472.536 35.4386 472.959 34.7114 473.453 34.0339C473.538 33.917 473.667 33.8387 473.81 33.8164C473.953 33.7941 474.099 33.8295 474.216 33.9149C474.333 34.0003 474.411 34.1287 474.434 34.2718C474.456 34.4148 474.42 34.5609 474.335 34.6779C473.885 35.2941 473.5 35.9556 473.187 36.6518C473.142 36.7532 473.066 36.8384 472.971 36.8959C472.876 36.9534 472.766 36.9806 472.655 36.9737H472.697ZM493.696 36.9737C493.59 36.9749 493.485 36.9451 493.396 36.8879C493.306 36.8307 493.235 36.7486 493.192 36.6518C492.879 35.9556 492.494 35.2941 492.044 34.6779C491.959 34.5609 491.923 34.4148 491.945 34.2718C491.968 34.1287 492.046 34.0003 492.163 33.9149C492.28 33.8295 492.426 33.7941 492.569 33.8164C492.712 33.8387 492.841 33.917 492.926 34.0339C493.42 34.7113 493.843 35.4385 494.186 36.2038C494.223 36.2874 494.239 36.3792 494.232 36.4706C494.225 36.562 494.195 36.6501 494.145 36.7268C494.095 36.8035 494.026 36.8664 493.945 36.9095C493.864 36.9527 493.774 36.9748 493.682 36.9737H493.696ZM475.497 33.138C475.387 33.1378 475.279 33.1041 475.188 33.0414C475.097 32.9788 475.027 32.8901 474.988 32.787C474.949 32.6839 474.941 32.5713 474.967 32.464C474.993 32.3567 475.051 32.2598 475.133 32.186C475.756 31.6221 476.436 31.1248 477.163 30.7021C477.225 30.6663 477.294 30.6431 477.366 30.6339C477.437 30.6247 477.51 30.6296 477.579 30.6485C477.649 30.6673 477.714 30.6997 477.771 30.7437C477.828 30.7878 477.876 30.8426 477.912 30.9051C477.948 30.9676 477.971 31.0366 477.98 31.108C477.989 31.1795 477.984 31.2521 477.965 31.3216C477.947 31.3912 477.914 31.4563 477.87 31.5134C477.826 31.5704 477.771 31.6182 477.709 31.6541C477.045 32.0543 476.426 32.5236 475.861 33.054C475.742 33.121 475.602 33.141 475.469 33.11L475.497 33.138ZM490.896 33.138C490.812 33.1332 490.731 33.1092 490.658 33.0679C490.586 33.0267 490.523 32.9692 490.476 32.9C489.911 32.3696 489.292 31.9003 488.628 31.5001C488.502 31.4277 488.41 31.3081 488.372 31.1676C488.334 31.0272 488.353 30.8773 488.425 30.7511C488.498 30.6249 488.617 30.5326 488.758 30.4945C488.898 30.4564 489.048 30.4757 489.174 30.5481C489.9 30.9664 490.58 31.459 491.204 32.018C491.286 32.0918 491.344 32.1888 491.37 32.296C491.396 32.4033 491.388 32.5159 491.349 32.619C491.31 32.7221 491.24 32.8108 491.149 32.8735C491.058 32.9361 490.95 32.9698 490.84 32.97L490.896 33.138ZM479.697 30.7581C479.567 30.757 479.443 30.7101 479.345 30.6258C479.247 30.5414 479.182 30.425 479.162 30.2973C479.142 30.1696 479.168 30.0389 479.235 29.9285C479.302 29.8181 479.406 29.735 479.529 29.6942C480.33 29.4356 481.155 29.262 481.993 29.1762C482.137 29.1614 482.282 29.2046 482.395 29.2965C482.508 29.3884 482.58 29.5214 482.595 29.6662C482.609 29.811 482.566 29.9557 482.474 30.0686C482.382 30.1815 482.249 30.2533 482.105 30.2681C481.343 30.3477 480.593 30.5072 479.865 30.7441L479.697 30.7581ZM486.794 30.7581H486.626C485.898 30.5213 485.148 30.3618 484.386 30.2821C484.315 30.2748 484.245 30.2534 484.182 30.2192C484.118 30.1849 484.062 30.1385 484.017 30.0826C483.925 29.9697 483.882 29.825 483.896 29.6802C483.911 29.5354 483.983 29.4024 484.096 29.3105C484.209 29.2186 484.354 29.1754 484.498 29.1902C485.336 29.2761 486.161 29.4497 486.962 29.7082C487.085 29.749 487.189 29.8321 487.256 29.9425C487.323 30.0529 487.349 30.1836 487.329 30.3113C487.309 30.439 487.244 30.5554 487.146 30.6398C487.048 30.7241 486.924 30.771 486.794 30.7721V30.7581Z" fill="#B8B2EA"/>
<path d="M487.982 35.5464L482.578 43.0919L478.826 39.5642L476.559 42.448L482.928 46.6477C485.644 43.7359 488.892 41.832 491.608 38.9062C490.586 38.1222 489.074 36.3303 487.982 35.5464Z" fill="#B8B2EA"/>
<path d="M148.001 179.781C150.746 179.781 152.971 177.556 152.971 174.812C152.971 172.067 150.746 169.842 148.001 169.842C145.256 169.842 143.031 172.067 143.031 174.812C143.031 177.556 145.256 179.781 148.001 179.781Z" fill="#F9EF9A"/>
<path d="M297.361 50.9023C301.56 50.9023 304.963 47.499 304.963 43.3008C304.963 39.1026 301.56 35.6992 297.361 35.6992C293.163 35.6992 289.76 39.1026 289.76 43.3008C289.76 47.499 293.163 50.9023 297.361 50.9023Z" fill="#F7C8D0"/>
<path d="M526.099 156.107C528.843 156.107 531.068 153.882 531.068 151.137C531.068 148.392 528.843 146.167 526.099 146.167C523.354 146.167 521.129 148.392 521.129 151.137C521.129 153.882 523.354 156.107 526.099 156.107Z" fill="#F9EF9A"/>
<path d="M512.952 262.501C515.697 262.501 517.922 260.276 517.922 257.531C517.922 254.787 515.697 252.562 512.952 252.562C510.207 252.562 507.982 254.787 507.982 257.531C507.982 260.276 510.207 262.501 512.952 262.501Z" fill="#F7C8D0"/>
<path d="M382.921 94.6377C385.666 94.6377 387.891 92.4126 387.891 89.6679C387.891 86.9233 385.666 84.6982 382.921 84.6982C380.176 84.6982 377.951 86.9233 377.951 89.6679C377.951 92.4126 380.176 94.6377 382.921 94.6377Z" fill="#F7C8D0"/>
<path d="M324.925 69.6064C327.669 69.6064 329.894 67.3814 329.894 64.6367C329.894 61.892 327.669 59.667 324.925 59.667C322.18 59.667 319.955 61.892 319.955 64.6367C319.955 67.3814 322.18 69.6064 324.925 69.6064Z" fill="#F9EF9A"/>
<path d="M444.517 45.6386C447.261 45.6386 449.486 43.4136 449.486 40.6689C449.486 37.9242 447.261 35.6992 444.517 35.6992C441.772 35.6992 439.547 37.9242 439.547 40.6689C439.547 43.4136 441.772 45.6386 444.517 45.6386Z" fill="#F9EF9A"/>
<path d="M373.116 21.8403C375.861 21.8403 378.086 19.6153 378.086 16.8706C378.086 14.1259 375.861 11.9009 373.116 11.9009C370.371 11.9009 368.146 14.1259 368.146 16.8706C368.146 19.6153 370.371 21.8403 373.116 21.8403Z" fill="#B8B2EA"/>
<path d="M145.961 126.881C148.869 123.973 148.869 119.257 145.961 116.349C143.052 113.441 138.337 113.441 135.428 116.349C132.52 119.257 132.52 123.973 135.428 126.881C138.337 129.79 143.052 129.79 145.961 126.881Z" fill="#F7C8D0"/>
<path d="M436.666 15.7985C439.574 12.89 439.574 8.17447 436.666 5.26602C433.757 2.35757 429.042 2.35757 426.133 5.26603C423.225 8.17448 423.225 12.89 426.133 15.7984C429.042 18.7069 433.757 18.7069 436.666 15.7985Z" fill="#F7C8D0"/>
<path d="M281.706 390.789H284.545L279.042 401.89H276.188L278.249 397.703L274.316 390.789H277.298L279.661 395.166L281.706 390.789Z" fill="white"/>
<path d="M294.097 394.801C294.097 395.605 293.912 396.324 293.542 396.958C293.172 397.582 292.664 398.052 292.019 398.369L293.97 401.89H291.052L289.307 398.813H287.959V401.89H285.39V390.789H290.116C291.269 390.789 292.22 391.17 292.971 391.931C293.721 392.681 294.097 393.638 294.097 394.801ZM287.959 392.882V396.72H289.72C290.238 396.72 290.661 396.54 290.988 396.181C291.327 395.821 291.496 395.361 291.496 394.801C291.496 394.241 291.327 393.781 290.988 393.421C290.661 393.062 290.238 392.882 289.72 392.882H287.959Z" fill="white"/>
<path d="M295.784 401.89V390.789H298.353V401.89H295.784Z" fill="white"/>
<path d="M302.632 401.89V393.073H299.587V390.789H308.246V393.073H305.186V401.89H302.632Z" fill="white"/>
<path d="M310.506 390.266C310.147 390.266 309.84 390.139 309.586 389.885C309.333 389.631 309.206 389.335 309.206 388.997C309.206 388.637 309.333 388.336 309.586 388.093C309.84 387.839 310.147 387.712 310.506 387.712C310.876 387.712 311.183 387.839 311.426 388.093C311.68 388.336 311.807 388.637 311.807 388.997C311.807 389.346 311.68 389.647 311.426 389.901C311.183 390.144 310.876 390.266 310.506 390.266ZM315.169 389.885C314.915 390.139 314.608 390.266 314.249 390.266C313.889 390.266 313.583 390.144 313.329 389.901C313.086 389.647 312.964 389.346 312.964 388.997C312.964 388.637 313.086 388.336 313.329 388.093C313.583 387.839 313.889 387.712 314.249 387.712C314.619 387.712 314.931 387.839 315.184 388.093C315.438 388.336 315.565 388.637 315.565 388.997C315.565 389.335 315.433 389.631 315.169 389.885ZM314.74 401.89L314.36 400.542H310.427L310.046 401.89H307.335L311.093 390.789H313.678L317.452 401.89H314.74ZM310.998 398.528H313.789L312.393 393.596L310.998 398.528Z" fill="white"/>
<path d="M330.208 401.113C329.405 401.821 328.31 402.175 326.926 402.175C325.541 402.175 324.446 401.821 323.643 401.113C322.85 400.404 322.453 399.411 322.453 398.131V390.789H325.007V397.973C325.007 398.597 325.176 399.083 325.514 399.432C325.863 399.781 326.333 399.955 326.926 399.955C327.518 399.955 327.983 399.781 328.321 399.432C328.67 399.083 328.844 398.597 328.844 397.973V390.789H331.413V398.131C331.413 399.411 331.012 400.404 330.208 401.113Z" fill="white"/>
<path d="M340.896 401.113C340.092 401.821 338.998 402.175 337.613 402.175C336.228 402.175 335.134 401.821 334.331 401.113C333.538 400.404 333.141 399.411 333.141 398.131V390.789H335.694V397.973C335.694 398.597 335.863 399.083 336.202 399.432C336.551 399.781 337.021 399.955 337.613 399.955C338.205 399.955 338.67 399.781 339.009 399.432C339.358 399.083 339.532 398.597 339.532 397.973V390.789H342.101V398.131C342.101 399.411 341.699 400.404 340.896 401.113Z" fill="white"/>
<path d="M344.083 401.89V390.789H348.269C349.992 390.789 351.367 391.323 352.392 392.391C353.418 393.458 353.931 394.775 353.931 396.339C353.931 397.904 353.418 399.22 352.392 400.288C351.377 401.356 350.003 401.89 348.269 401.89H344.083ZM346.652 399.733H348.031C349.067 399.733 349.866 399.405 350.426 398.75C350.997 398.084 351.282 397.28 351.282 396.339C351.282 395.398 350.997 394.6 350.426 393.945C349.866 393.279 349.067 392.946 348.031 392.946H346.652V399.733Z" fill="white"/>
<path d="M355.467 401.89V390.789H362.255V392.851H358.036V395.372H362.255V397.386H358.036V399.828H362.255V401.89H355.467Z" fill="white"/>
<path d="M364.358 401.89V390.789H366.927V399.606H371.051V401.89H364.358Z" fill="white"/>
<path d="M372.816 401.89V390.789H375.385V399.606H379.508V401.89H372.816Z" fill="white"/>
<path d="M381.274 401.89V390.789H388.061V392.851H383.843V395.372H388.061V397.386H383.843V399.828H388.061V401.89H381.274Z" fill="white"/>
<path d="M390.165 401.89V390.789H396.952V392.851H392.734V395.372H396.952V397.386H392.734V399.828H396.952V401.89H390.165Z" fill="white"/>
<path d="M399.056 401.89V390.789H401.689L405.542 397.973V390.789H408V401.89H405.368L401.514 394.706V401.89H399.056Z" fill="white"/>
</g>
<defs>
<clipPath id="clip0_9729_38409">
<rect width="660.004" height="545.48" fill="white"/>
</clipPath>
</defs>
</svg>
