<svg width="56" height="35" viewBox="0 0 56 35" fill="none" xmlns="http://www.w3.org/2000/svg">
<path d="M0 3C0 1.34315 1.34315 0 3 0H53C54.6569 0 56 1.34315 56 3V32C56 33.6569 54.6569 35 53 35H3C1.34314 35 0 33.6569 0 32V3Z" fill="#003473"/>
<g clip-path="url(#clip0_6180_39017)">
<path d="M16.5436 31.8456V29.9934C16.5436 29.2833 16.1113 28.8203 15.3704 28.8203C15 28.8203 14.5986 28.9438 14.3208 29.3452C14.1048 29.0055 13.7961 28.8203 13.333 28.8203C13.0242 28.8203 12.7157 28.9129 12.4686 29.2525V28.8821H11.8203V31.8456H12.4686V30.2094C12.4686 29.6848 12.7465 29.4377 13.1788 29.4377C13.6107 29.4377 13.827 29.7156 13.827 30.2094V31.8456H14.4753V30.2094C14.4753 29.6848 14.7838 29.4377 15.1852 29.4377C15.6175 29.4377 15.8335 29.7156 15.8335 30.2094V31.8456H16.5436ZM26.1442 28.8821H25.0947V27.9869H24.4465V28.8821H23.8599V29.4685H24.4463V30.8269C24.4463 31.5061 24.7242 31.9073 25.4652 31.9073C25.743 31.9073 26.0516 31.8148 26.2678 31.6913L26.0825 31.1356C25.8973 31.2591 25.6813 31.29 25.5269 31.29C25.2182 31.29 25.0947 31.1048 25.0947 30.796V29.4685H26.1442V28.8821ZM31.6393 28.8202C31.2689 28.8202 31.022 29.0055 30.8675 29.2525V28.8821H30.2193V31.8456H30.8675V30.1786C30.8675 29.6848 31.0835 29.4069 31.4849 29.4069C31.6084 29.4069 31.7628 29.4378 31.8862 29.4686L32.0714 28.8513C31.948 28.8203 31.7628 28.8203 31.6393 28.8203V28.8202ZM23.3351 29.129C23.0263 28.9129 22.5942 28.8203 22.1311 28.8203C21.3903 28.8203 20.8964 29.1907 20.8964 29.7773C20.8964 30.2713 21.2668 30.549 21.9151 30.6417L22.2237 30.6727C22.5634 30.7342 22.7486 30.8269 22.7486 30.9813C22.7486 31.1973 22.5016 31.3517 22.0693 31.3517C21.6372 31.3517 21.2976 31.1973 21.0815 31.0431L20.7728 31.5369C21.1124 31.7839 21.5755 31.9073 22.0384 31.9073C22.9028 31.9073 23.3968 31.5061 23.3968 30.9504C23.3968 30.4256 22.9955 30.1477 22.378 30.0552L22.0693 30.0242C21.7915 29.9933 21.5755 29.9317 21.5755 29.7465C21.5755 29.5304 21.7915 29.4069 22.1311 29.4069C22.5016 29.4069 22.872 29.5612 23.0572 29.6538L23.3351 29.129ZM40.561 28.8203C40.1904 28.8203 39.9435 29.0055 39.7891 29.2525V28.8821H39.1408V31.8456H39.7891V30.1786C39.7891 29.6848 40.0052 29.4069 40.4064 29.4069C40.53 29.4069 40.6844 29.4378 40.8079 29.4686L40.9931 28.8513C40.8696 28.8203 40.6844 28.8203 40.561 28.8203ZM32.2876 30.3638C32.2876 31.2591 32.9049 31.9073 33.862 31.9073C34.2942 31.9073 34.6028 31.8148 34.9115 31.5679L34.6028 31.0431C34.3559 31.2283 34.109 31.3208 33.8311 31.3208C33.3063 31.3208 32.9359 30.9504 32.9359 30.3638C32.9359 29.8082 33.3063 29.4377 33.8311 29.4069C34.109 29.4069 34.3559 29.4994 34.6028 29.6848L34.9115 29.16C34.6028 28.9129 34.2942 28.8203 33.862 28.8203C32.9049 28.8203 32.2876 29.4686 32.2876 30.3638ZM38.2765 30.3638V28.8821H37.6282V29.2525C37.4121 28.9747 37.1034 28.8203 36.7021 28.8203C35.8686 28.8203 35.2203 29.4686 35.2203 30.3638C35.2203 31.2591 35.8686 31.9073 36.7021 31.9073C37.1342 31.9073 37.443 31.7531 37.6282 31.4752V31.8456H38.2765V30.3638ZM35.8994 30.3638C35.8994 29.839 36.239 29.4069 36.7946 29.4069C37.3194 29.4069 37.69 29.8082 37.69 30.3638C37.69 30.8887 37.3194 31.3208 36.7946 31.3208C36.239 31.2899 35.8994 30.8887 35.8994 30.3638ZM28.151 28.8203C27.2865 28.8203 26.669 29.4377 26.669 30.3638C26.669 31.29 27.2864 31.9073 28.1818 31.9073C28.6139 31.9073 29.0462 31.7839 29.3858 31.5061L29.077 31.0431C28.83 31.2283 28.5214 31.3517 28.2127 31.3517C27.8113 31.3517 27.41 31.1665 27.3173 30.6416H29.5093V30.3948C29.5402 29.4377 28.9844 28.8203 28.1508 28.8203H28.151ZM28.151 29.376C28.5522 29.376 28.8302 29.623 28.8918 30.0861H27.3483C27.41 29.6848 27.6879 29.376 28.151 29.376ZM44.2345 30.3638V27.709H43.5862V29.2525C43.3701 28.9747 43.0614 28.8203 42.6601 28.8203C41.8266 28.8203 41.1783 29.4686 41.1783 30.3638C41.1783 31.2591 41.8266 31.9073 42.6601 31.9073C43.0924 31.9073 43.401 31.7531 43.5862 31.4752V31.8456H44.2345V30.3638ZM41.8575 30.3638C41.8575 29.839 42.197 29.4069 42.7528 29.4069C43.2776 29.4069 43.648 29.8082 43.648 30.3638C43.648 30.8887 43.2776 31.3208 42.7528 31.3208C42.197 31.2899 41.8575 30.8887 41.8575 30.3638ZM20.1862 30.3638V28.8821H19.538V29.2525C19.3218 28.9747 19.0131 28.8203 18.6118 28.8203C17.7783 28.8203 17.13 29.4686 17.13 30.3638C17.13 31.2591 17.7783 31.9073 18.6118 31.9073C19.0441 31.9073 19.3528 31.7531 19.538 31.4752V31.8456H20.1862V30.3638ZM17.7783 30.3638C17.7783 29.839 18.1179 29.4069 18.6735 29.4069C19.1983 29.4069 19.5689 29.8082 19.5689 30.3638C19.5689 30.8887 19.1983 31.3208 18.6735 31.3208C18.1179 31.2899 17.7783 30.8887 17.7783 30.3638Z" fill="white"/>
<path d="M23.1211 6.37695H32.8453V23.8498H23.1211V6.37695Z" fill="#FF5F00"/>
<path d="M23.7375 15.1135C23.7375 11.5634 25.4045 8.4145 27.9667 6.37698C26.0837 4.89522 23.7067 4 21.1136 4C14.9701 4 10 8.97011 10 15.1135C10 21.2567 14.9701 26.2269 21.1135 26.2269C23.7066 26.2269 26.0836 25.3317 27.9667 23.8498C25.4045 21.8432 23.7375 18.6635 23.7375 15.1135Z" fill="#EB001B"/>
<path d="M45.9628 15.1135C45.9628 21.2567 40.9927 26.2269 34.8493 26.2269C32.2562 26.2269 29.8792 25.3317 27.9961 23.8498C30.5892 21.8124 32.2254 18.6635 32.2254 15.1135C32.2254 11.5634 30.5583 8.4145 27.9961 6.37698C29.8791 4.89522 32.2562 4 34.8493 4C40.9927 4 45.9629 9.00105 45.9629 15.1135H45.9628Z" fill="#F79E1B"/>
</g>
<defs>
<clipPath id="clip0_6180_39017">
<rect width="36" height="27.9844" fill="white" transform="translate(10 4)"/>
</clipPath>
</defs>
</svg>
