<svg width="56" height="35" viewBox="0 0 56 35" fill="none" xmlns="http://www.w3.org/2000/svg">
<path d="M0 3C0 1.34315 1.34315 0 3 0H53C54.6569 0 56 1.34315 56 3V32C56 33.6569 54.6569 35 53 35H3C1.34314 35 0 33.6569 0 32V3Z" fill="#003473"/>
<path d="M22.705 11.2484L16.9445 24.7882H13.1862L10.3514 13.9821C10.1793 13.3165 10.0306 13.0726 9.50623 12.7922C8.65167 12.3355 7.24047 11.9069 6 11.6408L6.08319 11.2484H12.1332C12.9043 11.2484 13.5975 11.7541 13.7726 12.629L15.2697 20.4635L18.9696 11.2484H22.705ZM37.4307 20.3682C37.4459 16.7943 32.4148 16.5977 32.4494 15.001C32.4601 14.5151 32.9306 13.9985 33.9575 13.8667C34.4669 13.801 35.8706 13.7509 37.4626 14.4727L38.0871 11.6012C37.2316 11.2935 36.1309 11 34.7614 11C31.2472 11 28.774 12.8405 28.7532 15.476C28.7302 17.4254 30.5177 18.5132 31.8654 19.1609C33.2512 19.8243 33.7162 20.2505 33.7109 20.8439C33.7011 21.7522 32.6056 22.1534 31.582 22.169C29.7945 22.1961 28.758 21.6926 27.9314 21.314L27.287 24.2804C28.1177 24.6559 29.651 24.9835 31.2407 25C34.9761 25 37.4193 23.1823 37.4307 20.3673M46.7106 24.7882H49.9986L47.1286 11.2484H44.0935C43.7694 11.2456 43.4519 11.3388 43.1822 11.516C42.9125 11.6931 42.7031 11.946 42.581 12.2418L37.2453 24.7882H40.9787L41.7198 22.7657H46.2813L46.7106 24.7882ZM42.7435 19.9905L44.6148 14.9059L45.6919 19.99L42.7435 19.9905ZM27.7849 11.2484L24.845 24.7882H21.2897L24.2308 11.2484H27.7849Z" fill="white"/>
</svg>
