<svg width="20" height="20" viewBox="0 0 20 20" fill="none" xmlns="http://www.w3.org/2000/svg">
<path fill-rule="evenodd" clip-rule="evenodd" d="M9.99967 13.3332C9.53967 13.3332 9.16634 12.9598 9.16634 12.4998C9.16634 12.0398 9.53967 11.6665 9.99967 11.6665C10.4597 11.6665 10.833 12.0398 10.833 12.4998C10.833 12.9598 10.4597 13.3332 9.99967 13.3332ZM9.99967 9.99984C8.62134 9.99984 7.49967 11.1215 7.49967 12.4998C7.49967 13.8782 8.62134 14.9998 9.99967 14.9998C11.378 14.9998 12.4997 13.8782 12.4997 12.4998C12.4997 11.1215 11.378 9.99984 9.99967 9.99984ZM14.9997 15.8332C14.9997 16.2932 14.6263 16.6665 14.1663 16.6665H5.83301C5.37301 16.6665 4.99967 16.2932 4.99967 15.8332V9.1665C4.99967 8.7065 5.37301 8.33317 5.83301 8.33317H6.66634H8.33301H11.6663H13.333H14.1663C14.6263 8.33317 14.9997 8.7065 14.9997 9.1665V15.8332ZM8.33301 5.09234C8.33301 4.12234 9.08051 3.33317 9.99967 3.33317C10.9188 3.33317 11.6663 4.12234 11.6663 5.09234V6.6665H8.33301V5.09234ZM14.1663 6.6665H13.333V5.09234C13.333 3.204 11.838 1.6665 9.99967 1.6665C8.16134 1.6665 6.66634 3.204 6.66634 5.09234V6.6665H5.83301C4.45467 6.6665 3.33301 7.78817 3.33301 9.1665V15.8332C3.33301 17.2115 4.45467 18.3332 5.83301 18.3332H14.1663C15.5447 18.3332 16.6663 17.2115 16.6663 15.8332V9.1665C16.6663 7.78817 15.5447 6.6665 14.1663 6.6665Z" fill="#8E8E93"/>
</svg>
