<svg width="155" height="117" viewBox="0 0 155 117" fill="none" xmlns="http://www.w3.org/2000/svg">
<g clip-path="url(#clip0_2436_25964)">
<path d="M17 10C13.6863 10 11 12.6863 11 16V83C11 86.3137 13.6863 89 17 89H59.2601L52.5401 110H50C48.8954 110 48 110.895 48 112C48 113.105 48.8954 114 50 114H53.9548C53.9853 114.001 54.0158 114.001 54.0462 114H83.9538C83.9842 114.001 84.0147 114.001 84.0452 114H87.5C88.6046 114 89.5 113.105 89.5 112C89.5 110.895 88.6046 110 87.5 110H85.4599L78.7399 89H114V110C114 112.209 115.791 114 118 114H148C150.209 114 152 112.209 152 110V57C152 54.7909 150.209 53 148 53H127V16C127 12.6863 124.314 10 121 10H17Z" fill="#E6E2F8"/>
<path d="M62.4142 27.4142C63.1953 26.6332 63.1953 25.3668 62.4142 24.5858C61.6332 23.8047 60.3668 23.8047 59.5858 24.5858L44.0858 40.0858C43.3047 40.8668 43.3047 42.1332 44.0858 42.9142C44.8668 43.6953 46.1332 43.6953 46.9142 42.9142L62.4142 27.4142Z" fill="black"/>
<path d="M72.4142 34.4142C73.1953 33.6332 73.1953 32.3668 72.4142 31.5858C71.6332 30.8047 70.3668 30.8047 69.5858 31.5858L61.0858 40.0858C60.3047 40.8668 60.3047 42.1332 61.0858 42.9142C61.8668 43.6953 63.1332 43.6953 63.9142 42.9142L72.4142 34.4142Z" fill="black"/>
<path d="M113.086 60.5858C113.867 59.8047 115.133 59.8047 115.914 60.5858L122.75 67.4216L129.586 60.5858C130.367 59.8047 131.633 59.8047 132.414 60.5858C133.195 61.3668 133.195 62.6332 132.414 63.4142L125.578 70.25L132.414 77.0858C133.195 77.8668 133.195 79.1332 132.414 79.9142C131.633 80.6953 130.367 80.6953 129.586 79.9142L122.75 73.0784L115.914 79.9142C115.133 80.6953 113.867 80.6953 113.086 79.9142C112.305 79.1332 112.305 77.8668 113.086 77.0858L119.922 70.25L113.086 63.4142C112.305 62.6332 112.305 61.3668 113.086 60.5858Z" fill="black"/>
<path d="M122.5 96C123.605 96 124.5 95.1046 124.5 94C124.5 92.8954 123.605 92 122.5 92C121.395 92 120.5 92.8954 120.5 94C120.5 95.1046 121.395 96 122.5 96Z" fill="black"/>
<path fill-rule="evenodd" clip-rule="evenodd" d="M0.5 6C0.5 2.68629 3.18629 0 6.5 0H110.5C113.814 0 116.5 2.68629 116.5 6V43H137.5C139.709 43 141.5 44.7909 141.5 47V100C141.5 102.209 139.709 104 137.5 104H107.5C105.291 104 103.5 102.209 103.5 100V79H68.2399L74.9599 100H77C78.1046 100 79 100.895 79 102C79 103.105 78.1046 104 77 104H73.5452C73.5147 104.001 73.4842 104.001 73.4538 104H43.5462C43.5158 104.001 43.4853 104.001 43.4548 104H39.5C38.3954 104 37.5 103.105 37.5 102C37.5 100.895 38.3954 100 39.5 100H42.0401L48.7601 79H6.5C3.18629 79 0.5 76.3137 0.5 73V6ZM112.5 6V43H107.5C105.291 43 103.5 44.7909 103.5 47V63L4.5 63V6C4.5 4.89543 5.39543 4 6.5 4H110.5C111.605 4 112.5 4.89543 112.5 6ZM4.5 67L103.5 67V75H65.5473C65.5162 74.9993 65.485 74.9993 65.4537 75H51.5463C51.515 74.9993 51.4838 74.9993 51.4527 75H6.5C5.39543 75 4.5 74.1046 4.5 73V67ZM46.2399 100L52.9599 79H64.0401L70.7601 100H46.2399ZM137.5 47H107.5V100H137.5V47Z" fill="black"/>
</g>
<defs>
<clipPath id="clip0_2436_25964">
<rect width="154" height="117.001" fill="white" transform="translate(0.5)"/>
</clipPath>
</defs>
</svg>
