<svg width="20" height="20" viewBox="0 0 20 20" fill="none" xmlns="http://www.w3.org/2000/svg">
<path fill-rule="evenodd" clip-rule="evenodd" d="M9.98567 6.08387L5.30484 10.7647L5.08484 13.228L7.56567 13.0022L12.2323 8.33054L9.98567 6.08387ZM14.9715 5.58887L12.7257 3.34387L11.1023 4.9672L13.3482 7.21387L14.9715 5.58887ZM4.24234 14.978C4.21651 14.9805 4.19151 14.9814 4.16651 14.9814C3.94651 14.9814 3.73401 14.8947 3.57734 14.7372C3.40234 14.5622 3.31401 14.3189 3.33651 14.073L3.65234 10.5972C3.68734 10.2164 3.85567 9.85721 4.12651 9.58637L11.6232 2.08887C12.2082 1.5022 13.2698 1.53137 13.8865 2.1472L16.1682 4.42887H16.169C16.8073 5.06804 16.8323 6.08221 16.2257 6.69054L8.72817 14.188C8.45734 14.4597 8.09901 14.6272 7.71734 14.6622L4.24234 14.978ZM4.16634 16.6481H15.833C16.2913 16.6481 16.6663 17.0231 16.6663 17.4815C16.6663 17.9398 16.2913 18.3148 15.833 18.3148H4.16634C3.70801 18.3148 3.33301 17.9398 3.33301 17.4815C3.33301 17.0231 3.70801 16.6481 4.16634 16.6481Z" fill="#8E8E93"/>
</svg>
