<svg width="13" height="14" viewBox="0 0 13 14" fill="none" xmlns="http://www.w3.org/2000/svg">
<path fill-rule="evenodd" clip-rule="evenodd" d="M9.16667 12.3333H11.16L11.1667 6.74932L6.49867 1.95466L1.83733 6.72199L1.83333 12.3333H3.83333V7.66666C3.83333 7.29799 4.13133 6.99999 4.5 6.99999H8.5C8.868 6.99999 9.16667 7.29799 9.16667 7.66666V12.3333ZM7.83333 8.33332V12.3333C7.83324 13.0697 8.43015 13.6667 9.1665 13.6667L11.2407 13.6667C11.9347 13.6667 12.5 13.0687 12.5 12.3333V6.74932C12.5 6.38999 12.36 6.04066 12.116 5.78999L6.97667 0.533992C6.72533 0.277325 6.27467 0.277325 6.02333 0.533992L0.883333 5.79066C0.64 6.04066 0.5 6.38999 0.5 6.74932V12.3333C0.5 13.0687 1.06467 13.6667 1.75867 13.6667H3.83333C4.56971 13.6667 5.16667 13.0697 5.16667 12.3333V8.33332H7.83333Z" fill="black"/>
</svg>
