<?xml version="1.0" encoding="UTF-8"?>
<svg width="20px" height="20px" viewBox="0 0 20 20" version="1.1" xmlns="http://www.w3.org/2000/svg" xmlns:xlink="http://www.w3.org/1999/xlink">
    <title>F0897460-9142-4FDD-A1C9-5BB028643F57</title>
    <g id="Sketches-TOOL" stroke="none" stroke-width="1" fill="none" fill-rule="evenodd">
        <g id="Tool-start-1" transform="translate(-40.000000, -626.000000)" fill="#B8B2EA">
            <path d="M51.1276806,626.292743 C50.7370078,625.902419 50.1045374,625.902419 49.7148638,626.292743 C49.324191,626.683067 49.324191,627.314973 49.7148638,627.704299 L56.1494748,634.142154 C56.4642112,634.456609 56.2413978,635.001666 55.7967702,635.001666 L41.016149,635.001666 C40.4646109,635.001666 40,635.440905 40,635.991951 L40,635.995944 C40,636.54699 40.4646109,636.998209 41.016149,636.998209 L55.7967702,636.998209 C56.2413978,636.998209 56.4642112,637.528292 56.1494748,637.842747 L49.6838897,644.299569 C49.2932169,644.688895 49.2932169,645.318804 49.6838897,645.709128 L49.6838897,645.70813 C50.0735634,646.097456 50.7060337,646.097456 51.0967065,645.707132 L59.4147402,637.39652 L59.4147402,637.39652 C60.1950866,636.616869 60.1950866,635.352059 59.4147402,634.572409 C59.2338916,634.39272 50.946832,626.112056 51.1276806,626.292743" id="arrow_right"></path>
        </g>
    </g>
</svg>