<?xml version="1.0" encoding="UTF-8"?>
<svg width="20px" height="20px" viewBox="0 0 20 20" version="1.1" xmlns="http://www.w3.org/2000/svg" xmlns:xlink="http://www.w3.org/1999/xlink">
    <title>372104EF-1784-4E7B-A202-F575B1A1DA93</title>
    <g id="Sketches-TOOL" stroke="none" stroke-width="1" fill="none" fill-rule="evenodd">
        <g id="Tool-step-1.1" transform="translate(-815.000000, -465.000000)" fill="#000000">
            <g id="Group-3" transform="translate(799.500000, 449.000000)">
                <path d="M26.6276806,16.2927432 C26.2370078,15.9024189 25.6045374,15.9024189 25.2148638,16.2927432 C24.824191,16.6830674 24.824191,17.3149734 25.2148638,17.7042994 L31.6494748,24.1421538 C31.9642112,24.4566094 31.7413978,25.0016658 31.2967702,25.0016658 L16.516149,25.0016658 C15.9646109,25.0016658 15.5,25.4409054 15.5,25.9919514 L15.5,25.9959445 C15.5,26.5469905 15.9646109,26.9982093 16.516149,26.9982093 L31.2967702,26.9982093 C31.7413978,26.9982093 31.9642112,27.5282916 31.6494748,27.8427472 L25.1838897,34.2995688 C24.7932169,34.6888947 24.7932169,35.3188042 25.1838897,35.7091285 L25.1838897,35.7081302 C25.5735634,36.0974562 26.2060337,36.0974562 26.5967065,35.7071319 L34.9147402,27.3965197 L34.9147402,27.3965197 C35.6950866,26.6168695 35.6950866,25.3520592 34.9147402,24.572409 C34.7338916,24.3927201 26.446832,16.112056 26.6276806,16.2927432" id="arrow_right-[#363]" transform="translate(25.500000, 26.000000) rotate(90.000000) translate(-25.500000, -26.000000) "></path>
            </g>
        </g>
    </g>
</svg>