<svg width="20" height="20" viewBox="0 0 20 20" fill="none" xmlns="http://www.w3.org/2000/svg">
<path fill-rule="evenodd" clip-rule="evenodd" d="M11.1277 0.292743C10.737 -0.0975811 10.1045 -0.0975811 9.71487 0.292743C9.32419 0.683067 9.32419 1.31497 9.71487 1.7043L16.1495 8.14215C16.4642 8.45661 16.2414 9.00167 15.7968 9.00167H1.01615C0.464613 9.00167 0 9.4409 0 9.99195V9.99594C0 10.547 0.464613 10.9982 1.01615 10.9982H15.7968C16.2414 10.9982 16.4642 11.5283 16.1495 11.8427L9.68389 18.2996C9.29322 18.6889 9.29322 19.3188 9.68389 19.7091V19.7081C10.0736 20.0975 10.706 20.0975 11.0967 19.7071L19.4147 11.3965C20.1951 10.6169 20.1951 9.35206 19.4147 8.57241C19.2339 8.39272 10.9468 0.112056 11.1277 0.292743Z" fill="black"/>
</svg>
