<?xml version="1.0" encoding="UTF-8"?>
<svg width="20px" height="20px" viewBox="0 0 20 20" version="1.1" xmlns="http://www.w3.org/2000/svg" xmlns:xlink="http://www.w3.org/1999/xlink">
    <title>809FCCD3-64AA-4D75-B9CA-9ADAFAC30F32</title>
    <g id="Sketches-TOOL" stroke="none" stroke-width="1" fill="none" fill-rule="evenodd">
        <g id="Tool-step-2-layer" transform="translate(-1132.000000, -104.000000)" fill="#000000">
            <path d="M1143.4489,113.9997 L1151.29561,121.846413 C1151.68624,122.237037 1151.68176,122.874614 1151.29636,123.259756 L1151.26244,123.293644 C1150.87223,123.683588 1150.24135,123.685114 1149.8487,123.292413 L1142.0029,115.4457 L1134.15619,123.292413 C1133.76556,123.683037 1133.12799,123.678786 1132.74284,123.293644 L1132.70896,123.259756 C1132.31901,122.869812 1132.31745,122.239114 1132.7101,121.846413 L1140.5559,113.9997 L1132.7101,106.152987 C1132.31953,105.762363 1132.32381,105.124786 1132.70896,104.739644 L1132.74284,104.705756 C1133.13279,104.315812 1133.76349,104.314286 1134.15619,104.706987 L1142.0029,112.5537 L1149.8487,104.706987 C1150.23927,104.316363 1150.87704,104.320614 1151.26244,104.705756 L1151.29636,104.739644 C1151.68657,105.129588 1151.68831,105.760286 1151.29561,106.152987 L1143.4489,113.9997 Z" id="close-[#1511]"></path>
        </g>
    </g>
</svg>