<svg width="24" height="24" viewBox="0 0 24 24" fill="none" xmlns="http://www.w3.org/2000/svg">
<path fill-rule="evenodd" clip-rule="evenodd" d="M16 12C16 14.2091 14.2091 16 12 16C9.79086 16 8 14.2091 8 12C8 9.79086 9.79086 8 12 8C14.2091 8 16 9.79086 16 12ZM14 12C14 13.1046 13.1046 14 12 14C10.8954 14 10 13.1046 10 12C10 10.8954 10.8954 10 12 10C13.1046 10 14 10.8954 14 12Z" fill="white"/>
<path fill-rule="evenodd" clip-rule="evenodd" d="M9.61803 3C8.86049 3 8.16796 3.428 7.82918 4.10557L6.88197 6L4 6C2.89543 6 2 6.89543 2 8V18C2 19.1046 2.89543 20 4 20H20C21.1046 20 22 19.1046 22 18V8C22 6.89543 21.1046 6 20 6H17.118L16.1708 4.10557C15.832 3.428 15.1395 3 14.382 3H9.61803ZM9.61803 5H14.382L15.3292 6.89443C15.668 7.57199 16.3605 8 17.118 8H20V18H4V8H6.88197C7.63951 8 8.33204 7.572 8.67082 6.89443L9.61803 5Z" fill="white"/>
</svg>
