<?xml version="1.0" encoding="UTF-8"?>
<svg width="20px" height="20px" viewBox="0 0 20 20" version="1.1" xmlns="http://www.w3.org/2000/svg" xmlns:xlink="http://www.w3.org/1999/xlink">
    <title>BC5D3496-7AED-4C6E-ABDC-13E069FEFF1C</title>
    <g id="Sketches-TOOL" stroke="none" stroke-width="1" fill="none" fill-rule="evenodd">
        <g id="Tool-step-4" transform="translate(-1380.000000, -133.000000)" fill="#000000">
            <path d="M1391.4489,142.9997 L1399.29561,150.846413 C1399.68624,151.237037 1399.68176,151.874614 1399.29636,152.259756 L1399.26244,152.293644 C1398.87223,152.683588 1398.24135,152.685114 1397.8487,152.292413 L1390.0029,144.4457 L1382.15619,152.292413 C1381.76556,152.683037 1381.12799,152.678786 1380.74284,152.293644 L1380.70896,152.259756 C1380.31901,151.869812 1380.31745,151.239114 1380.7101,150.846413 L1388.5559,142.9997 L1380.7101,135.152987 C1380.31953,134.762363 1380.32381,134.124786 1380.70896,133.739644 L1380.74284,133.705756 C1381.13279,133.315812 1381.76349,133.314286 1382.15619,133.706987 L1390.0029,141.5537 L1397.8487,133.706987 C1398.23927,133.316363 1398.87704,133.320614 1399.26244,133.705756 L1399.29636,133.739644 C1399.68657,134.129588 1399.68831,134.760286 1399.29561,135.152987 L1391.4489,142.9997 Z" id="close-[#1511]"></path>
        </g>
    </g>
</svg>