<?xml version="1.0" encoding="UTF-8"?>
<svg width="20px" height="20px" viewBox="0 0 20 20" version="1.1" xmlns="http://www.w3.org/2000/svg" xmlns:xlink="http://www.w3.org/1999/xlink">
    <title>22BAC6C6-22CA-417A-BBC5-7A1B0BE81CFF</title>
    <g id="Sketches-TOOL" stroke="none" stroke-width="1" fill="none" fill-rule="evenodd">
        <g id="Elements" transform="translate(-521.000000, -142.000000)" fill="#000000">
            <g id="ICONS---interface" transform="translate(58.000000, 142.000000)">
                <path d="M470,16 L472,16 L472,8 L470,8 L470,16 Z M474,16 L476,16 L476,8 L474,8 L474,16 Z M468,18 L478,18 L478,6 L468,6 L468,18 Z M470,4 L476,4 L476,2 L470,2 L470,4 Z M478,4 L478,0 L468,0 L468,4 L463,4 L463,6 L466,6 L466,20 L480,20 L480,6 L483,6 L483,4 L478,4 Z" id="delete"></path>
            </g>
        </g>
    </g>
</svg>