<?xml version="1.0" encoding="UTF-8"?>
<svg width="40px" height="41px" viewBox="0 0 40 41" version="1.1" xmlns="http://www.w3.org/2000/svg" xmlns:xlink="http://www.w3.org/1999/xlink">
    <title>1E033CD7-4640-4758-8C8A-B4F0ED969F44</title>
    <defs>
        <linearGradient x1="0.0772171429%" y1="2.83106871e-13%" x2="73.5323571%" y2="78.3246058%" id="linearGradient-1">
            <stop stop-color="#B5B0DC" offset="0%"></stop>
            <stop stop-color="#7F78B7" offset="100%"></stop>
        </linearGradient>
    </defs>
    <g id="Sketches-TOOL" stroke="none" stroke-width="1" fill="none" fill-rule="evenodd">
        <g id="Tool-step-1.5-2" transform="translate(-806.000000, -479.000000)">
            <g id="Group-3" transform="translate(624.000000, 458.000000)">
                <g id="drag" transform="translate(182.000000, 21.000000)">
                    <path d="M25.9989948,0 L0.829062825,0 C0.370798349,0 0,0.370810784 0,0.829062825 L0,26.0035555 C0,26.2237753 0.0874412562,26.4342951 0.242890536,26.5897444 C0.398339816,26.7451937 0.608843012,26.8326349 0.829079406,26.8326349 L10.6078746,26.8326349 C11.0645224,26.8326349 11.4369374,26.4618241 11.4369374,26.0035721 C11.4369374,25.54532 11.0645058,25.1745093 10.6078746,25.1745093 L1.66643286,25.1745093 L1.66643286,1.68218505 L25.1537819,1.68218505 L25.1537819,10.6236276 C25.1537819,11.0818921 25.5245926,11.4526904 25.9828447,11.4526904 C26.4394925,11.4526904 26.8119075,11.0818797 26.8119075,10.6236276 L26.8119075,0.833639252 C26.8119075,0.613419439 26.7244663,0.401282989 26.569017,0.245833709 C26.4135677,0.0903844292 26.2014437,0.00456399085 25.9828281,0.00456399085" id="Fill-1" fill="url(#linearGradient-1)"></path>
                    <path d="M39.21094,36.8592225 C38.998816,36.8592225 38.7980294,36.9434221 38.6490427,37.0940172 C38.5000684,37.2429915 38.4174896,37.4453989 38.4191063,37.6559145 L38.4191063,38.442861 L37.6305431,38.442861 C37.2176326,38.4736267 36.8970298,38.8185301 36.8970298,39.2330408 C36.8970298,39.6475514 37.217645,39.9924623 37.6305431,40.0232205 L39.2109442,40.0232205 C39.6449171,40.0199818 39.9962739,39.6686013 39.9978906,39.2346574 L39.9978906,37.6558731 C39.9962698,37.2219002 39.6448922,36.8705433 39.2109442,36.8689267" id="Fill-2" fill="#7F78B7"></path>
                    <path d="M31.8318663,38.4348543 L29.2119035,38.4348543 C28.797372,38.4656204 28.4767734,38.8105234 28.4767734,39.2250341 C28.4767734,39.6395448 28.7973886,39.9844556 29.2119035,40.0152139 L31.8318663,40.0152139 C32.0504653,40.0297871 32.2674559,39.9536808 32.4277552,39.8047107 C32.5896795,39.6541197 32.6803624,39.4452332 32.6803624,39.2250299 C32.6803624,39.0048267 32.5896836,38.7942903 32.4277552,38.6453492 C32.2674477,38.4947582 32.0504653,38.4186503 31.8318663,38.434846" id="Fill-3" fill="#7F78B7"></path>
                    <path d="M23.4114898,38.4348543 L20.7931435,38.4348543 C20.5729237,38.4186619 20.3575539,38.4947665 20.195638,38.6453575 C20.0353304,38.7943318 19.9430308,39.004835 19.9430308,39.2250382 C19.9430308,39.4452415 20.0353304,39.6541611 20.195638,39.804719 C20.3575622,39.9536933 20.5729279,40.0297971 20.7931435,40.0152222 L23.4131064,40.0152222 L23.4114856,40.0152222 C23.826017,39.9844565 24.1466156,39.6395531 24.1466156,39.2250424 C24.1466156,38.8105317 23.8260004,38.4656208 23.4114856,38.4348626" id="Fill-4" fill="#7F78B7"></path>
                    <path d="M15.5159099,38.4348543 L14.724072,38.4348543 L14.724072,37.6559912 C14.724072,37.2204016 14.3710737,36.8690448 13.9355089,36.8690448 C13.501536,36.8690448 13.1485625,37.2204265 13.1485625,37.6559912 L13.1485625,39.2347756 C13.1501833,39.6687485 13.5015609,40.0201053 13.9355089,40.0233387 L15.5159099,40.0233387 C15.9288205,39.9925726 16.2494233,39.6476696 16.2494233,39.2331589 C16.2494233,38.8186482 15.9288081,38.4737373 15.5159099,38.4429791" id="Fill-5" fill="#7F78B7"></path>
                    <path d="M13.9357162,24.2160132 C14.3696891,24.2143923 14.721046,23.8630148 14.7242793,23.4290667 L14.7242793,20.8091038 C14.7242793,20.3751309 14.3712809,20.0221574 13.9357162,20.0221574 C13.5017433,20.0221574 13.1487698,20.3751558 13.1487698,20.8091038 L13.1487698,23.4290667 C13.1471489,23.6379532 13.2297319,23.8387398 13.3787062,23.9877307 C13.5260597,24.1350842 13.7268463,24.2176671 13.9357535,24.2160697" id="Fill-6" fill="#7F78B7"></path>
                    <path d="M13.148521,31.8525108 C13.148521,32.2881004 13.5015194,32.6394573 13.9354675,32.6394573 C14.3710571,32.6394573 14.7240306,32.2880756 14.7240306,31.8525108 L14.7240306,29.2293146 C14.7240306,28.793725 14.3710322,28.4407515 13.9354675,28.4407515 C13.5014945,28.4407515 13.148521,28.7937499 13.148521,29.2293146 L13.148521,31.8525108 Z" id="Fill-7" fill="#7F78B7"></path>
                    <path d="M15.5159099,13.1662487 L13.9355089,13.1662487 C13.501536,13.1662487 13.1485625,13.5176455 13.1485625,13.9532103 L13.1485625,15.5287612 C13.1485625,15.9627342 13.5015609,16.3157077 13.9355089,16.3157077 C14.3710985,16.3157077 14.724072,15.9627093 14.724072,15.5287612 L14.724072,14.7418148 L15.5159099,14.7418148 L15.5159099,14.740194 C15.9498829,14.7385773 16.3012397,14.3871956 16.3028798,13.9532517 C16.3044772,13.7443652 16.2218942,13.5435786 16.0729199,13.3945877 C15.9255665,13.2472342 15.7247799,13.1646513 15.5158726,13.1662487" id="Fill-8" fill="#7F78B7"></path>
                    <path d="M23.4114898,13.1662638 L20.7931435,13.1662638 C20.3575539,13.1662638 20.0045804,13.5176455 20.0045804,13.9532103 C20.0045804,14.3887999 20.3575788,14.7401567 20.7931435,14.7401567 L23.4131064,14.7401567 L23.4114856,14.7401567 C23.8454585,14.7385359 24.1968154,14.3871583 24.2000721,13.9532103 C24.2016695,13.7443237 24.1190866,13.5435371 23.9701123,13.3945463 C23.8227588,13.2471928 23.6219722,13.1646098 23.4114483,13.1662307" id="Fill-9" fill="#7F78B7"></path>
                    <path d="M31.8318663,13.1662638 L29.2119035,13.1662638 C28.7763138,13.1662638 28.4233403,13.5176455 28.4233403,13.9532103 C28.4233403,14.3887999 28.7763387,14.7401567 29.2119035,14.7401567 L31.8318663,14.7401567 C32.2658393,14.7401567 32.6188128,14.388775 32.6188128,13.9532103 C32.6188128,13.5176206 32.2658144,13.1662638 31.8318663,13.1662638" id="Fill-10" fill="#7F78B7"></path>
                    <path d="M39.21094,13.1662638 L37.630539,13.1662638 C37.1965661,13.1662638 36.8435926,13.5176455 36.8435926,13.9532103 C36.8435926,14.3887999 37.1965909,14.7401567 37.630539,14.7401567 L38.4174854,14.7401567 L38.4174854,15.5271031 L38.4191021,15.5287239 C38.4029105,15.7473229 38.4790143,15.9643135 38.6279886,16.1246128 C38.7785796,16.2865371 38.9874661,16.37722 39.2076694,16.37722 C39.4278726,16.37722 39.638409,16.2865412 39.7873501,16.1246128 C39.9379411,15.9643053 40.0140449,15.7473229 39.9978533,15.5287239 L39.9978533,13.9531729 C39.9962366,13.5192 39.6448549,13.1678432 39.2109069,13.1662265" id="Fill-11" fill="#7F78B7"></path>
                    <path d="M39.21094,28.4276523 C39.0004368,28.4276523 38.7996461,28.5102352 38.6506594,28.6575887 C38.5016726,28.8049422 38.4191063,29.0057288 38.4191063,29.2162527 L38.4191063,31.8524238 C38.4029147,32.0710228 38.4790185,32.2880134 38.6279928,32.4483127 C38.7785837,32.6102369 38.9874703,32.7009198 39.2076735,32.7009198 C39.4278767,32.7009198 39.6384131,32.6102411 39.7873542,32.4483127 C39.9379452,32.2880051 40.014049,32.0710228 39.9978574,31.8524238 L39.9978574,29.2292275 C39.9978574,28.7920213 39.6464757,28.435773 39.210911,28.4276523" id="Fill-12" fill="#7F78B7"></path>
                    <path d="M39.21094,20.0060321 C38.7737337,20.0060321 38.4191021,20.3590305 38.4191021,20.7962119 L38.4191021,23.4291496 C38.4482478,23.843681 38.7931504,24.1642796 39.2076652,24.1642796 C39.6238133,24.1642796 39.9670868,23.8436645 39.9978505,23.4291496 L39.9978505,20.8091867 C39.9994617,20.3703638 39.6480841,20.0124988 39.2108986,20.0060321" id="Fill-13" fill="#7F78B7"></path>
                    <path d="M33.4315431,25.9698956 C33.4250681,26.1965945 33.2777146,26.394127 33.0623531,26.4637683 L28.7810727,27.9761447 C28.3924495,28.1121607 28.0880176,28.418201 27.9520098,28.8052075 L26.4509501,33.0964367 C26.3780838,33.3166565 26.1724389,33.4656267 25.9408692,33.4656267 C25.7060745,33.4656267 25.4971963,33.3166524 25.417855,33.0964367 L21.0118006,21.7581735 C20.9259801,21.5541453 20.9777966,21.3177339 21.1413416,21.1655179 C21.241737,21.0635059 21.377753,21.0052104 21.521869,21.0035937 C21.5931146,21.0052145 21.6627434,21.0165478 21.7291347,21.0375977 L33.0835647,25.4486265 C33.3086428,25.5182553 33.4543754,25.7352376 33.4317047,25.9700241" id="Fill-14" fill="#B8B2EA"></path>
                </g>
            </g>
        </g>
    </g>
</svg>