<svg width="20" height="22" viewBox="0 0 20 22" fill="none" xmlns="http://www.w3.org/2000/svg">
<path fill-rule="evenodd" clip-rule="evenodd" d="M9.30631 21.078C8.73065 20.598 7.43499 19.7823 6.3802 19.3501C-2.15898 15.8475 -2.11029 3.65874 6.42803 0.635241C11.5602 -1.18825 16.8846 1.01872 19.1394 5.91354C21.442 10.9049 18.9481 17.1432 13.815 19.3023C12.8559 19.6867 11.7046 20.4545 11.2246 20.9823C10.3133 21.9902 10.2654 21.9902 9.30631 21.078ZM11 13V6C11 5.448 10.552 5 10 5C9.448 5 9 5.448 9 6V13C9 13.552 9.448 14 10 14C10.552 14 11 13.552 11 13ZM10 17C10.552 17 11 16.552 11 16C11 15.448 10.552 15 10 15C9.448 15 9 15.448 9 16C9 16.552 9.448 17 10 17Z" fill="#FF776F"/>
</svg>
