<?xml version="1.0" encoding="UTF-8"?>
<svg width="20px" height="20px" viewBox="0 0 20 20" version="1.1" xmlns="http://www.w3.org/2000/svg" xmlns:xlink="http://www.w3.org/1999/xlink">
    <title>E8387612-E004-4751-87F4-BEDCA63C3841</title>
    <g id="Sketches-TOOL" stroke="none" stroke-width="1" fill="none" fill-rule="evenodd">
        <g id="Tool-step-6" transform="translate(-749.000000, -606.000000)" fill="#000000">
            <g id="Group-3" transform="translate(565.000000, 594.000000)">
                <path d="M197.979,12 L184,12 L184,22 L186,22 L186,14 L196,14 L196,20 L202,20 L202,22 L204,22 L204,18.438 L197.979,12 Z M188,27.105 C188,26.552 187.552,26.105 187,26.105 L186,26.105 L186,28.105 L187,28.105 C187.552,28.105 188,27.657 188,27.105 L188,27.105 Z M190,27 C190,28.657 188.657,30 187,30 L186,30 L186,32 L184,32 L184,24 L187,24 C188.657,24 190,25.343 190,27 L190,27 Z M195,27.105 C195,26.552 194.552,26 194,26 L193,26 L193,30 L194,30 C194.552,30 195,29.657 195,29.105 L195,27.105 Z M197,27 L197,29 C197,30.657 195.657,32 194,32 L191,32 L191,30.105 L191,26.105 L191,24 L194,24 C195.65,24 197,25.35 197,27 L197,27 Z M204,24 L204,26 L200,26 L200,28 L204,28 L204,30 L200,30 L200,32 L198,32 L198,24 L204,24 Z" id="file_pdf"></path>
            </g>
        </g>
    </g>
</svg>