<?xml version="1.0" encoding="UTF-8"?>
<svg width="40px" height="44px" viewBox="0 0 40 44" version="1.1" xmlns="http://www.w3.org/2000/svg" xmlns:xlink="http://www.w3.org/1999/xlink">
    <title>7DA973CD-C2C3-4D6D-953E-E5E21EA9EDA0</title>
    <defs>
        <linearGradient x1="33.0788388%" y1="10.5728618%" x2="70.2434626%" y2="88.5364714%" id="linearGradient-1">
            <stop stop-color="#B8B2EA" offset="0%"></stop>
            <stop stop-color="#9890D4" offset="100%"></stop>
        </linearGradient>
    </defs>
    <g id="Sketches-TOOL" stroke="none" stroke-width="1" fill="none" fill-rule="evenodd">
        <g id="Tool-step-4" transform="translate(-61.000000, -141.000000)" fill="url(#linearGradient-1)">
            <g id="hend" transform="translate(61.000000, 141.000000)">
                <path d="M36.4673887,23.962108 C37.518443,22.6107524 37.4677521,20.6081035 36.2177639,19.3581297 C35.8179884,18.9583543 35.2661693,18.6580674 34.7162577,18.5079168 C34.9170847,18.057465 35.0165589,17.5563223 35.0165589,17.0571015 C35.0165589,16.1055069 34.6655812,15.2552941 34.0161954,14.6040007 C32.7642996,13.3521049 30.8630324,13.2526452 29.5116769,14.2530231 C29.3615263,13.8532476 29.1606992,13.4515791 28.8603835,13.102509 C28.2090902,12.4024467 27.3081865,11.9519949 26.3585139,11.9519949 C25.4576102,11.9013184 24.5567065,12.2522961 23.9054131,12.9035894 C23.8059389,12.7534388 23.7045861,12.5526117 23.5544355,12.4531376 C22.9031421,11.7530753 22.0022384,11.3026235 21.0525658,11.3026235 C20.0522023,11.251947 19.1512986,11.6536011 18.5,12.3029869 L13.494344,17.2562757 C12.9444324,15.154167 10.9417835,13.7033517 8.74021506,13.9529621 C8.13961259,14.0036385 7.58970096,14.3039397 7.18801803,14.7037152 C6.28711431,13.7033517 4.8850679,13.1027492 3.43425256,13.2528998 C2.08289699,13.4030504 1.03184266,14.5535645 1.03184266,15.955611 L1.08251909,23.2132913 C1.08251909,25.1145585 0.832894291,27.0665165 0.382456849,28.7686239 L0.382456849,28.8193003 C-0.617906633,32.3234554 0.382456849,36.0769806 2.93501737,38.6297814 C5.58703765,41.2818017 9.14188358,42.734539 12.8449582,42.734539 C13.1452594,42.734539 13.4962515,42.734539 13.7965528,42.6838625 C15.1985992,43.1343144 16.7001054,43.3839248 18.1509207,43.3839248 C21.7545356,43.3839248 25.3581504,42.0325692 28.0608615,39.2791672 L37.7209517,29.5700678 C38.3722451,28.9187745 38.7213152,28.0178708 38.7213152,27.1169671 C38.7213152,26.1653725 38.3703375,25.3151597 37.7209517,24.6638664 C37.3680954,24.3635651 36.9176339,24.1120808 36.4671821,23.9619302 L36.4673887,23.962108 Z M19.9508206,13.7518659 C20.2511219,13.4515647 20.6508829,13.3520905 21.0018749,13.3520905 C21.4016504,13.3520905 21.752628,13.5529176 22.0022384,13.8025424 C22.152389,14.0033694 22.2518632,14.2529942 22.2518632,14.5026046 L13.9952609,22.9614899 L13.7456361,19.9077866 L19.9508206,13.7518659 Z M4.38560688,37.2258131 C2.33418907,35.1743952 1.58343597,32.2201518 2.33418907,29.4684315 C2.88410069,27.4657826 3.13563301,25.3636739 3.13563301,23.2615653 L3.08495657,16.003885 C3.08495657,15.7035837 3.33458138,15.4032825 3.6348682,15.4032825 C4.93553292,15.2531319 6.08796895,16.2047264 6.23811957,17.4547003 L6.33759375,18.6559053 L6.38827018,23.9114172 C6.38827018,25.8126844 6.13864538,27.7158735 5.73697686,29.4162992 C5.73697686,29.4669756 5.68630043,29.4669756 5.68630043,29.5157734 C4.68593694,33.0199285 5.68630043,36.7734537 8.23886094,39.3262544 C8.48848575,39.5758793 8.78877257,39.8273972 9.04030489,40.0770075 C7.28731443,39.4782789 5.68630043,38.5266844 4.38563571,37.2260197 L4.38560688,37.2258131 Z M36.2665472,28.1663253 L26.6078984,37.8773466 C21.9532293,42.5320163 14.3459983,42.5320163 9.69156938,37.8773466 C7.68892049,35.8746977 6.88939847,32.9226164 7.64015157,30.1689742 L7.64015157,30.1182978 C8.19006319,28.06688 8.44159551,26.0135402 8.44159551,23.9114316 L8.43971683,18.6578416 L8.43971683,16.6551927 C8.43971683,16.3548915 8.68934163,16.0545902 8.98962845,16.0545902 C10.2902932,15.9044396 11.4427292,16.8560342 11.5928798,18.1060081 L11.9419788,23.1621199 C12.041453,23.912873 12.5425813,24.5641663 13.2426435,24.8137767 C13.9933966,25.0634015 14.7441497,24.8644532 15.2940613,24.3633249 L25.2040022,14.453384 C25.5043034,14.1530828 25.7539138,14.0029322 26.2550565,14.0536086 C26.6548319,14.0536086 27.0058096,14.2544357 27.25542,14.5040605 C27.7058718,15.0052032 27.6551954,16.0055667 27.1052694,16.5554783 L19.7495707,23.9616275 C19.3497953,24.3614029 19.3497953,25.0126819 19.7495707,25.4124429 C19.9503978,25.6132699 20.2000226,25.7127441 20.5003238,25.7127441 C20.7499486,25.7127441 21.0502355,25.6132699 21.2510769,25.4124429 L30.6108659,16.0526539 C31.1607775,15.5027423 32.0616812,15.5027423 32.6135148,16.0526539 C32.8631396,16.3022787 33.0132902,16.6532564 33.0132902,17.0530174 C33.0132902,17.4527784 32.8631396,17.8037705 32.6135148,18.0533809 L23.2027947,27.4150918 C22.8030193,27.8148672 22.8030193,28.4661461 23.2027947,28.8659071 C23.4036218,29.0667341 23.6532466,29.1662083 23.9535478,29.1662083 C24.2538491,29.1662083 24.5034594,29.0667341 24.7043009,28.8659071 L32.7619837,20.8082243 C33.3118953,20.2583127 34.2127991,20.2583127 34.7646326,20.8082243 C35.3145442,21.3581359 35.3145442,22.2590396 34.7646326,22.8108732 L32.8633654,24.7121404 L31.461319,26.0634959 L26.6564992,30.8683157 C26.2567238,31.2680912 26.2567238,31.9193701 26.6564992,32.3191311 C26.8573262,32.5199581 27.1069511,32.6194323 27.4072523,32.6194323 C27.7075535,32.6194323 27.9571639,32.5199581 28.1580054,32.3191311 L34.3139405,26.163196 C34.8638521,25.6132843 35.7647558,25.6132843 36.3165894,26.163196 C36.5662142,26.4128208 36.7163648,26.7637984 36.7163648,27.1635594 C36.7163648,27.5652135 36.5662142,27.9161864 36.265913,28.1657968 L36.2665472,28.1663253 Z M29.8098304,6.84493748 L32.3623909,1.3890646 C32.6120157,0.887921893 33.2126037,0.638311504 33.7137464,0.887921893 C34.2148891,1.1375467 34.4644995,1.73813476 34.2148891,2.23927746 L31.7130195,7.74608143 C31.5121924,8.14585685 31.1631079,8.34668391 30.7614249,8.34668391 C30.6112743,8.34668391 30.4611237,8.29600747 30.3109731,8.24720972 C29.8098304,7.99758492 29.6109108,7.34630601 29.8098304,6.8451633 L29.8098304,6.84493748 Z M24.4548587,1.28960483 C24.3047081,0.739693202 24.6556857,0.187859648 25.2056118,0.0377090294 C25.7555234,-0.110562905 26.307357,0.189738333 26.4575076,0.739645154 L28.0097046,6.54482843 C28.1598552,7.09474006 27.8088776,7.64657361 27.2589515,7.79672423 C27.1594773,7.79672423 27.0581245,7.84740067 27.0093267,7.84740067 C26.5588749,7.84740067 26.1591139,7.54709943 26.0089632,7.09664757 L24.4548587,1.28960483 Z M39.41947,8.29791498 L33.9650385,10.8504755 C33.8148879,10.9011519 33.6647373,10.9499497 33.5145867,10.9499497 C33.1148112,10.9499497 32.7638336,10.7491226 32.5629921,10.3493472 C32.3133673,9.84820451 32.5629921,9.19883311 33.0641348,8.99799164 L38.5200077,6.44543113 C39.0211504,6.19580632 39.6705218,6.44543113 39.8713633,6.94657383 C40.1697858,7.44584266 39.920161,8.04644513 39.4190327,8.2979294 L39.41947,8.29791498 Z" id="Fill-1"></path>
            </g>
        </g>
    </g>
</svg>