<?xml version="1.0" encoding="UTF-8"?>
<svg width="17px" height="16px" viewBox="0 0 17 16" version="1.1" xmlns="http://www.w3.org/2000/svg" xmlns:xlink="http://www.w3.org/1999/xlink">
    <title>F05DAE55-FA06-4213-83C9-07E224061127</title>
    <g id="Sketches-TOOL" stroke="none" stroke-width="1" fill="none" fill-rule="evenodd">
        <g id="Tool-step-1.5" transform="translate(-751.000000, -333.000000)" fill-rule="nonzero">
            <g id="Content" transform="translate(231.000000, 113.000000)">
                <g id="Group-8" transform="translate(431.000000, 120.000000)">
                    <g id="image-icon" transform="translate(89.173913, 100.173913)">
                        <path d="M1.43478261,-0.434782609 L15.0869565,-0.434782609 C15.6392413,-0.434782609 16.0869565,0.0129326415 16.0869565,0.565217391 L16.0869565,15.0869565 C16.0869565,15.6392413 15.6392413,16.0869565 15.0869565,16.0869565 L1.43478261,16.0869565 C0.882497859,16.0869565 0.434782609,15.6392413 0.434782609,15.0869565 L0.434782609,0.565217391 C0.434782609,0.0129326415 0.882497859,-0.434782609 1.43478261,-0.434782609 Z" id="Rectangle" fill="#E3E0FF" opacity="0.502511161" transform="translate(8.260870, 7.826087) rotate(90.000000) translate(-8.260870, -7.826087) "></path>
                        <path d="M2.75965127,-0.434782609 L15.0869565,-0.434782609 C15.6392413,-0.434782609 16.0869565,0.0129326415 16.0869565,0.565217391 L16.0869565,13.5773729 C16.0869565,14.1296577 15.6392413,14.5773729 15.0869565,14.5773729 C14.8123641,14.5773729 14.5498533,14.4644587 14.3610038,14.2651176 L2.03369859,1.25296204 C1.65386771,0.852029443 1.67097403,0.219095588 2.07190663,-0.160735293 C2.25765304,-0.336705579 2.50378554,-0.434782609 2.75965127,-0.434782609 Z" id="Rectangle" fill="#B8B2EA" opacity="0.449939546" transform="translate(8.260870, 7.826087) rotate(90.000000) translate(-8.260870, -7.826087) "></path>
                        <path d="M4.83524457,9.26086957 L4.83524457,6.11086957 L4.31774457,6.11086957 L4.31774457,9.26086957 L4.83524457,9.26086957 Z M5.98649457,9.26086957 L5.98649457,7.15486957 L6.79649457,9.26086957 L7.18799457,9.26086957 L7.99799457,7.17736957 L7.99799457,9.26086957 L8.49299457,9.26086957 L8.49299457,6.11086957 L7.99799457,6.11086957 L6.99449457,8.52286957 L5.98649457,6.11086957 L5.49149457,6.11086957 L5.49149457,9.26086957 L5.98649457,9.26086957 Z M10.5892446,9.33736957 C11.0002446,9.33736957 11.3384946,9.23161957 11.6039946,9.02011957 C11.8694946,8.80861957 12.0427446,8.51686957 12.1237446,8.14486957 L12.1237446,8.14486957 L12.4702446,8.14486957 L12.4702446,7.68136957 L10.9717446,7.68136957 L10.9717446,8.14486957 L11.5792446,8.14486957 C11.4562446,8.63086957 11.1262446,8.87386957 10.5892446,8.87386957 C10.2622446,8.87386957 10.0004946,8.76286957 9.80399457,8.54086957 C9.60749457,8.31886957 9.51074457,8.04136957 9.51374457,7.70836957 C9.51074457,7.36036957 9.60524457,7.07161957 9.79724457,6.84211957 C9.98924457,6.61261957 10.2682446,6.49786957 10.6342446,6.49786957 C10.8502446,6.49786957 11.0287446,6.54961957 11.1697446,6.65311957 C11.3107446,6.75661957 11.3992446,6.89086957 11.4352446,7.05586957 L11.4352446,7.05586957 L12.0022446,7.05586957 C11.9752446,6.76486957 11.8349946,6.52186957 11.5814946,6.32686957 C11.3279946,6.13186957 11.0122446,6.03436957 10.6342446,6.03436957 C10.1122446,6.03436957 9.70499457,6.19636957 9.41249457,6.52036957 C9.11999457,6.84436957 8.97224457,7.24036957 8.96924457,7.70836957 C8.96624457,8.17936957 9.11324457,8.56861957 9.41024457,8.87611957 C9.70724457,9.18361957 10.1002446,9.33736957 10.5892446,9.33736957 Z" id="IMG" fill="#332F5B"></path>
                    </g>
                </g>
            </g>
        </g>
    </g>
</svg>