<?xml version="1.0" encoding="UTF-8"?>
<svg width="19px" height="20px" viewBox="0 0 19 20" version="1.1" xmlns="http://www.w3.org/2000/svg" xmlns:xlink="http://www.w3.org/1999/xlink">
    <title>67CAED2A-5EA2-4D45-B670-5FEAA975338F</title>
    <g id="Sketches-TOOL" stroke="none" stroke-width="1" fill="none" fill-rule="evenodd">
        <g id="Elements" transform="translate(-654.000000, -143.000000)" fill="#000000">
            <g id="ICONS---interface" transform="translate(58.000000, 142.000000)">
                <path d="M600.632506,6.726 L600.636506,6.729 C601.039506,7.104 601.061506,7.735 600.685506,8.137 L599.728506,9.158 C599.429506,9.478 599.656506,10 600.093506,10 L606.305506,10 C606.858506,10 607.305506,10.448 607.305506,11 C607.305506,11.552 606.858506,12 606.305506,12 L600.108506,12 C599.668506,12 599.443506,12.527 599.747506,12.845 L600.675506,13.819 C601.057506,14.218 601.039506,14.852 600.636506,15.229 C600.237506,15.603 599.610506,15.584 599.234506,15.186 L596.545506,12.338 C595.815506,11.564 595.818506,10.354 596.552506,9.585 L599.238506,6.769 C599.613506,6.376 600.234506,6.357 600.632506,6.726 M613.222,1 L606.777,1 C605.8,1 605,1.68 605,3.111 L605,4.007 C605,4.555 605.444,5 605.993,5 L606.006,5 C606.555,5 607,4.555 607,4.007 L607,3.993 C607,3.445 607.444,3 607.993,3 L612.006,3 C612.555,3 613,3.445 613,3.993 L613,18.007 C613,18.555 612.555,19 612.006,19 L607.993,19 C607.444,19 607,18.555 607,18.007 L607,17.993 C607,17.445 606.555,17 606.006,17 L605.993,17 C605.444,17 605,17.445 605,17.993 L605,19.111 C605,20.293 605.847,21 606.777,21 L613.222,21 C614.204,21 615,20.204 615,19.222 L615,19.111 L615,2.778 C615,1.796 614.204,1 613.222,1" id="logout" transform="translate(605.500000, 11.000000) scale(-1, 1) translate(-605.500000, -11.000000) "></path>
            </g>
        </g>
    </g>
</svg>