<svg width="4" height="15" viewBox="0 0 4 15" fill="none" xmlns="http://www.w3.org/2000/svg">
<path fill-rule="evenodd" clip-rule="evenodd" d="M2 0.5C1.172 0.5 0.5 1.19901 0.5 2.06201C0.5 2.92499 1.172 3.625 2 3.625C2.828 3.625 3.5 2.92499 3.5 2.06201C3.5 1.19901 2.828 0.5 2 0.5ZM0.5 7.5C0.5 6.63702 1.172 5.93701 2 5.93701C2.828 5.93701 3.5 6.63702 3.5 7.5C3.5 8.36301 2.828 9.06201 2 9.06201C1.172 9.06201 0.5 8.36301 0.5 7.5ZM0.5 12.937C0.5 12.074 1.172 11.375 2 11.375C2.828 11.375 3.5 12.074 3.5 12.937C3.5 13.8 2.828 14.5 2 14.5C1.172 14.5 0.5 13.8 0.5 12.937Z" fill="black"/>
</svg>
