<svg width="16" height="15" viewBox="0 0 16 15" fill="none" xmlns="http://www.w3.org/2000/svg">
<path fill-rule="evenodd" clip-rule="evenodd" d="M14.9192 8.68833C14.4808 8.54917 14.0125 8.79167 13.8725 9.23C13.0917 11.685 10.7933 13.3333 8.15333 13.3333C4.85167 13.3333 2.16667 10.7167 2.16667 7.5C2.16667 4.28417 4.85167 1.66667 8.15333 1.66667C9.59333 1.66667 10.9517 2.16833 12.0242 3.05833L10.2192 2.76083C9.76083 2.6775 9.33583 2.99333 9.26083 3.44667C9.18583 3.90083 9.49333 4.33 9.9475 4.40417L13.4858 4.98917C13.5317 4.99667 13.5783 5 13.6225 5C13.7217 5 13.8183 4.9825 13.9083 4.94917C13.9392 4.9375 13.9642 4.91583 13.9942 4.9C14.0492 4.87167 14.1067 4.84667 14.1542 4.80667C14.1842 4.7825 14.2033 4.7475 14.2292 4.71917C14.2683 4.67833 14.31 4.63917 14.3392 4.58917C14.36 4.55333 14.3683 4.51083 14.3842 4.47083C14.4042 4.42167 14.4308 4.37583 14.4408 4.32167L15.0692 0.988333C15.1542 0.535833 14.8567 0.0991667 14.4042 0.015C13.9533 -0.0666667 13.5158 0.2275 13.4308 0.679167L13.2042 1.88C11.8175 0.679167 10.04 0 8.15333 0C3.93333 0 0.5 3.36417 0.5 7.5C0.5 11.6358 3.93333 15 8.15333 15C11.5217 15 14.4583 12.8842 15.4608 9.735C15.6 9.29667 15.3575 8.82833 14.9192 8.68833Z" fill="black"/>
</svg>
