<svg width="20" height="19" viewBox="0 0 20 19" fill="none" xmlns="http://www.w3.org/2000/svg">
<path d="M10.6819 12.2407C10.2097 11.9508 10.062 11.333 10.3517 10.8608C10.5553 10.5942 11.1164 10.1548 11.7314 10.5305C12.118 10.7678 12.5298 10.9781 12.9553 11.1551C13.3773 11.3306 13.8555 11.2366 14.1758 10.9177L16.9703 8.13567C17.2806 7.82667 17.3777 7.36406 17.2178 6.9568C16.8993 6.14554 16.3245 4.99366 15.3905 4.06381C14.4626 3.13992 13.3287 2.58414 12.5329 2.2799C12.1233 2.12336 11.6575 2.22214 11.3471 2.53118L8.58606 5.27999C8.26536 5.59929 8.17348 6.08996 8.35442 6.49699C8.54719 6.93074 8.7652 7.34875 9.00205 7.73924C9.2417 8.13441 9.18049 8.64221 8.85371 8.96907L2.70644 15.1179V16.7936H3.79393V15.8276C3.79393 15.2736 4.24296 14.8243 4.79705 14.8243L5.76267 14.8243V13.8584C5.76267 13.3043 6.2117 12.8551 6.7658 12.8551H8.73454C9.28863 12.8551 9.73766 13.3043 9.73766 13.8584C9.73766 14.4124 9.28863 14.8617 8.73454 14.8617H7.76892V15.8276C7.76892 16.3817 7.31989 16.8309 6.7658 16.8309L5.80018 16.8309V17.7969C5.80018 18.3509 5.35115 18.8002 4.79705 18.8002H1.70332C1.14922 18.8002 0.700195 18.3509 0.700195 17.7969V14.7024C0.700195 14.4363 0.805853 14.1811 0.993981 13.9929L6.89663 8.08876C6.76391 7.83562 6.63843 7.57616 6.52111 7.3122C6.00301 6.1467 6.26448 4.76001 7.17063 3.85789L9.93172 1.10903C10.8012 0.243437 12.103 -0.0326062 13.2491 0.405551C14.2143 0.774547 15.6213 1.4624 16.8058 2.64167C17.9942 3.82474 18.7016 5.24641 19.0852 6.22343C19.5376 7.37554 19.2629 8.68449 18.3856 9.55789L15.5912 12.3399C14.6939 13.2332 13.356 13.4951 12.1848 13.0078C11.6633 12.7908 11.1578 12.5328 10.6819 12.2407Z" fill="black"/>
<path d="M13.7971 6.54846C14.4184 6.54846 14.9221 6.04465 14.9221 5.42317C14.9221 4.80169 14.4184 4.29787 13.7971 4.29787C13.1758 4.29787 12.6721 4.80169 12.6721 5.42317C12.6721 6.04465 13.1758 6.54846 13.7971 6.54846Z" fill="black"/>
</svg>
