<?xml version="1.0" encoding="UTF-8"?>
<svg width="11px" height="7px" viewBox="0 0 11 7" version="1.1" xmlns="http://www.w3.org/2000/svg" xmlns:xlink="http://www.w3.org/1999/xlink">
    <title>B729A6B6-59D2-4BD9-8FB6-62FF38822186</title>
    <g id="Sketches-TOOL" stroke="none" stroke-width="1" fill="none" fill-rule="evenodd">
        <g id="Elements" transform="translate(-316.000000, -150.000000)" fill="#000000">
            <g id="ICONS---interface" transform="translate(58.000000, 142.000000)">
                <path d="M261.916657,6.13931844 C261.518878,5.74153992 260.855717,5.74153992 260.457939,6.13931844 C260.06016,6.53709697 260.06016,7.20025767 260.457939,7.59803619 L263.006981,10.1625523 L264.066197,11.1941946 L263.006981,12.2257189 L260.457349,14.7753508 C260.059571,15.1731293 260.059571,15.83629 260.457349,16.2340685 C260.66343,16.4401494 260.928812,16.5437793 261.194195,16.5437793 C261.459577,16.5437793 261.724959,16.4407359 261.93104,16.2340685 L266.234069,11.9310398 C266.425766,11.7393421 266.543779,11.47396 266.543779,11.1941946 C266.543779,10.9144292 266.440736,10.649047 266.234069,10.4573493 L261.916657,6.13931844 Z" id="small_chevron" transform="translate(263.351397, 11.192382) rotate(90.000000) translate(-263.351397, -11.192382) "></path>
            </g>
        </g>
    </g>
</svg>