<svg width="472" height="295" viewBox="0 0 472 295" fill="none" xmlns="http://www.w3.org/2000/svg">
<path d="M391.709 192.819C391.709 102.765 318.655 29.7729 228.558 29.7729C138.461 29.7729 65.4069 102.78 65.4069 192.819C65.3521 229.155 77.4965 264.459 99.8963 293.081H357.227C379.625 264.458 391.766 229.154 391.709 192.819Z" fill="#F8E9F6"/>
<path d="M134.234 14.3403H75.4316C74.3629 14.3403 73.4966 15.2061 73.4966 16.2741V32.7608C73.4966 33.8288 74.3629 34.6946 75.4316 34.6946H134.234C135.303 34.6946 136.169 33.8288 136.169 32.7608V16.2741C136.169 15.2061 135.303 14.3403 134.234 14.3403Z" fill="#DD4C88"/>
<path d="M82.7998 21.3247H122.996" stroke="#FDFCFF" stroke-width="1.94" stroke-linecap="round" stroke-linejoin="round"/>
<path d="M82.7998 26.7773H97.6655" stroke="#FDFCFF" stroke-width="1.94" stroke-linecap="round" stroke-linejoin="round"/>
<path d="M126.221 32.4805V39.5938C126.222 39.6416 126.209 39.6887 126.184 39.7294C126.158 39.7701 126.122 39.8027 126.079 39.8235C126.036 39.8442 125.988 39.8522 125.94 39.8464C125.893 39.8407 125.848 39.8214 125.811 39.791L116.583 32.4805H126.221Z" fill="#DD4C88"/>
<path d="M41.2987 173.231H83.1564C84.5753 173.231 85.936 173.794 86.9393 174.797C87.9426 175.8 88.5062 177.159 88.5062 178.577V217.587C88.5062 219.005 87.9426 220.365 86.9393 221.368C85.936 222.37 84.5753 222.934 83.1564 222.934H43.0061C42.0776 222.937 41.1578 222.757 40.299 222.404C39.4402 222.052 38.6594 221.533 38.0011 220.879C37.3429 220.225 36.8201 219.447 36.4628 218.591C36.1054 217.735 35.9205 216.816 35.9185 215.889V178.585C35.9175 177.88 36.0561 177.181 36.3264 176.53C36.5967 175.878 36.9933 175.287 37.4934 174.789C37.9935 174.291 38.5872 173.897 39.2403 173.63C39.8934 173.363 40.5929 173.227 41.2987 173.231Z" fill="#6F59A0"/>
<path d="M70.2943 192.288C69.8235 191.828 69.2665 191.464 68.6551 191.219C68.0437 190.973 67.3899 190.85 66.731 190.857C66.0721 190.864 65.421 191.001 64.815 191.26C64.209 191.518 63.6599 191.894 63.1991 192.364L61.9243 193.669L60.6115 192.372C60.1421 191.91 59.5863 191.545 58.9757 191.297C58.3651 191.05 57.7117 190.925 57.0529 190.93C56.394 190.935 55.7426 191.069 55.1358 191.326C54.529 191.582 53.9787 191.956 53.5163 192.425C53.0539 192.894 52.6885 193.449 52.4409 194.06C52.1933 194.67 52.0685 195.323 52.0734 195.981C52.0783 196.64 52.213 197.291 52.4697 197.897C52.7263 198.503 53.1 199.053 53.5694 199.516L58.4488 204.323C58.9195 204.784 59.4765 205.148 60.0879 205.393C60.6993 205.639 61.3532 205.762 62.0121 205.755C62.671 205.748 63.322 205.611 63.928 205.352C64.534 205.094 65.0831 204.718 65.5439 204.248L70.3474 199.349C71.2723 198.403 71.7857 197.13 71.7757 195.808C71.7658 194.485 71.2333 193.22 70.2943 192.288Z" fill="white"/>
<path d="M368.208 135.882H415.044C416.632 135.882 418.155 136.512 419.277 137.634C420.4 138.756 421.031 140.278 421.031 141.865V185.516C421.031 187.103 420.4 188.625 419.277 189.747C418.155 190.869 416.632 191.5 415.044 191.5H370.12C369.083 191.5 368.056 191.295 367.097 190.899C366.139 190.502 365.268 189.92 364.534 189.187C363.801 188.454 363.219 187.584 362.822 186.626C362.425 185.668 362.221 184.642 362.221 183.605V141.896C362.217 141.107 362.369 140.326 362.668 139.597C362.967 138.867 363.407 138.204 363.964 137.645C364.52 137.086 365.181 136.643 365.91 136.34C366.638 136.038 367.419 135.882 368.208 135.882Z" fill="#867BDB"/>
<path d="M388.348 172.146C392.498 172.215 396.695 172.275 400.489 172.01C401.696 171.926 402.766 170.008 401.248 169.401C401.903 169.173 402.446 168.704 402.766 168.089C402.832 167.927 402.866 167.753 402.863 167.578C402.861 167.403 402.823 167.23 402.753 167.07C402.682 166.91 402.579 166.766 402.451 166.646C402.323 166.527 402.172 166.435 402.007 166.375C403.449 166.732 404.018 164.449 402.895 163.713C403.514 163.228 403.944 162.541 404.109 161.772C404.182 161.388 404.137 160.991 403.982 160.633C403.826 160.275 403.566 159.971 403.236 159.762C402.759 159.552 402.238 159.464 401.718 159.505L396.535 159.467C397.006 156.767 397.143 153.824 395.777 151.451C395.367 150.738 394.259 149.881 393.371 150.427C392.483 150.973 392.772 152.224 392.817 153.028C392.886 154.718 392.482 156.394 391.651 157.868C390.82 159.341 389.595 160.554 388.112 161.37C388.112 161.37 388.393 168.468 388.348 172.146Z" fill="#FAFAFA"/>
<path d="M386.845 161.317H380.569V172.109H386.845V161.317Z" fill="#FAFAFA"/>
<path d="M372.291 22.394C375.245 22.394 377.641 20.0003 377.641 17.0476C377.641 14.0948 375.245 11.7012 372.291 11.7012C369.336 11.7012 366.941 14.0948 366.941 17.0476C366.941 20.0003 369.336 22.394 372.291 22.394Z" stroke="#FDFCFF" stroke-width="1.78" stroke-miterlimit="10"/>
<path d="M7.15843 251.766C10.1131 251.766 12.5083 249.372 12.5083 246.42C12.5083 243.467 10.1131 241.073 7.15843 241.073C4.2038 241.073 1.80859 243.467 1.80859 246.42C1.80859 249.372 4.2038 251.766 7.15843 251.766Z" stroke="#FDFCFF" stroke-width="1.78" stroke-miterlimit="10"/>
<path d="M467.465 149.836C469.451 149.836 471.061 148.226 471.061 146.241C471.061 144.256 469.451 142.646 467.465 142.646C465.478 142.646 463.868 144.256 463.868 146.241C463.868 148.226 465.478 149.836 467.465 149.836Z" stroke="#FDFCFF" stroke-width="1.78" stroke-miterlimit="10"/>
<path d="M21.9331 44.834C21.9331 44.834 20.127 47.8674 22.6009 49.6647C25.0747 51.462 27.2374 48.0949 29.9844 50.1804C32.7314 52.2659 30.4473 54.8064 30.4473 54.8064" stroke="#FDFCFF" stroke-width="1.78" stroke-miterlimit="10"/>
<path d="M447.31 210.542C447.31 210.542 445.929 214.713 449.434 216.237C452.94 217.762 454.64 213.082 458.541 214.865C462.441 216.647 460.354 220.363 460.354 220.363" stroke="#FDFCFF" stroke-width="1.78" stroke-miterlimit="10"/>
<path d="M26.0916 144.633C28.6523 144.633 30.7281 142.559 30.7281 140C30.7281 137.441 28.6523 135.366 26.0916 135.366C23.5309 135.366 21.4551 137.441 21.4551 140C21.4551 142.559 23.5309 144.633 26.0916 144.633Z" fill="#AB8BDB"/>
<path d="M421.714 72.2031C424.275 72.2031 426.351 70.1286 426.351 67.5696C426.351 65.0105 424.275 62.936 421.714 62.936C419.154 62.936 417.078 65.0105 417.078 67.5696C417.078 70.1286 419.154 72.2031 421.714 72.2031Z" fill="#DD4C88"/>
<path d="M414.497 253.662C416.455 253.662 418.041 252.077 418.041 250.121C418.041 248.165 416.455 246.579 414.497 246.579C412.54 246.579 410.954 248.165 410.954 250.121C410.954 252.077 412.54 253.662 414.497 253.662Z" fill="#AB8BDB"/>
<path d="M196.861 7.08303C198.818 7.08303 200.405 5.49744 200.405 3.54152C200.405 1.58559 198.818 0 196.861 0C194.904 0 193.317 1.58559 193.317 3.54152C193.317 5.49744 194.904 7.08303 196.861 7.08303Z" fill="#867BDB"/>
<path d="M415.544 113.108H446.278" stroke="#FDFCFF" stroke-width="1.94" stroke-linecap="round" stroke-linejoin="round"/>
<path d="M0.25293 104.706H54.5026" stroke="#FDFCFF" stroke-width="1.94" stroke-miterlimit="10"/>
<path d="M227.23 3.5415H259.853" stroke="#FDFCFF" stroke-width="1.94" stroke-linecap="round" stroke-linejoin="round"/>
<path d="M162.767 61.7682C162.767 61.7682 160.619 77.2917 142.278 86.9835C122.707 97.3199 136.617 128.405 170.666 129.451C207.645 130.597 227.845 97.3047 200.17 55.5952L162.767 61.7682Z" fill="black"/>
<path d="M174.218 110.128L174.415 83.3354H190.791L191.14 110.439L174.218 110.128Z" fill="#D6906E"/>
<path d="M172.336 91.1843C171.47 88.8107 178.012 102.173 184.803 101.301C190.631 100.542 191.633 90.0771 191.633 90.0771C191.633 90.0771 188.939 94.0661 182.785 94.0737C175.91 94.0813 172.336 91.1843 172.336 91.1843Z" fill="#B06642"/>
<path d="M162.577 68.5553C164.664 80.4994 171.607 90.5476 182.755 90.5476C193.902 90.5476 201.559 80.6132 202.932 68.5553C204.488 54.9049 193.902 46.7905 182.755 46.7905C171.607 46.7905 160.437 56.2851 162.577 68.5553Z" fill="black"/>
<path d="M165.316 74.7814C164.83 74.0961 164.119 73.6031 163.306 73.3883C162.493 73.1735 161.631 73.2505 160.869 73.606C157.872 74.7435 159.23 82.0161 163.723 82.9413C164.228 83.0297 164.747 83.0077 165.244 82.8768C165.74 82.7459 166.202 82.5092 166.599 82.183C166.599 82.183 165.483 76.8214 165.316 74.7814Z" fill="#D6906E"/>
<path d="M161.461 76.177C161.461 76.177 163.973 75.3428 165.749 79.036" stroke="#161311" stroke-width="1.02" stroke-linecap="round" stroke-linejoin="round"/>
<path d="M199.722 74.7814C200.209 74.0961 200.92 73.6031 201.733 73.3883C202.545 73.1735 203.408 73.2505 204.169 73.606C207.167 74.7435 205.808 82.0161 201.316 82.9413C200.81 83.0297 200.291 83.0077 199.795 82.8768C199.298 82.7459 198.836 82.5092 198.44 82.183C198.44 82.183 199.548 76.8214 199.722 74.7814Z" fill="#D6906E"/>
<path d="M203.577 76.177C203.577 76.177 201.065 75.3428 199.29 79.036" stroke="#161311" stroke-width="1.02" stroke-linecap="round" stroke-linejoin="round"/>
<path d="M165.028 68.5174C165.028 73.1737 165.506 81.9403 168.534 87.7265C171.372 93.1563 176.426 95.9167 182.58 95.9243C188.734 95.9319 194.198 91.7989 196.634 87.135C200.307 80.0823 200.132 68.6008 200.132 68.6008C200.132 68.6008 200.132 51.917 182.77 51.917C164.489 51.9549 165.028 68.5174 165.028 68.5174Z" fill="#D6906E"/>
<path d="M178.672 67.7137L169.148 70.1708C169.148 70.1708 169.581 67.5014 173.474 66.5307C177.367 65.56 178.672 67.7137 178.672 67.7137Z" fill="#1A1A1A"/>
<path d="M184.728 67.7137L194.251 70.1708C194.251 70.1708 193.818 67.5014 189.926 66.5307C186.033 65.56 184.728 67.7137 184.728 67.7137Z" fill="#1A1A1A"/>
<path d="M181.153 75.5928L180.721 78.9902H183.187" stroke="#161311" stroke-width="1.02" stroke-linecap="round" stroke-linejoin="round"/>
<path d="M189.273 81.9023H175.401C175.401 81.9023 175.796 86.9985 182.299 87.0137C188.294 86.9985 189.273 81.9023 189.273 81.9023Z" fill="white"/>
<path d="M176.699 73.1737C176.699 73.1737 174.066 71.8314 171.842 73.1737" stroke="#161311" stroke-width="1.02" stroke-linecap="round" stroke-linejoin="round"/>
<path d="M191.845 73.1737C191.845 73.1737 189.212 71.8314 186.989 73.1737" stroke="#161311" stroke-width="1.02" stroke-linecap="round" stroke-linejoin="round"/>
<path d="M199.722 74.7815C199.722 74.7815 195.093 65.6281 198.311 57.4834C198.311 57.4834 201.528 57.5289 201.414 70.2389L199.722 74.7815Z" fill="black"/>
<path d="M165.316 74.7815C165.316 74.7815 169.922 65.0518 166.713 57.4834C166.713 57.4834 163.495 57.5289 163.609 70.2389L165.316 74.7815Z" fill="black"/>
<path d="M203.076 64.5587C203.076 64.5587 178.034 63.042 170.78 52.9331C170.78 52.9331 173.147 46.6236 184.302 48.383C195.457 50.1424 203.076 64.5587 203.076 64.5587Z" fill="black"/>
<path d="M181.047 50.332C181.047 50.332 173.967 65.0365 163.836 64.5436C163.829 64.5436 169.391 50.4761 181.047 50.332Z" fill="black"/>
<path d="M166.553 278.013C166.553 278.013 173.982 241.179 178.346 231.139C178.435 230.941 178.585 230.775 178.772 230.665C178.96 230.555 179.178 230.505 179.395 230.524C179.612 230.542 179.818 230.627 179.985 230.767C180.151 230.907 180.271 231.095 180.326 231.306C181.381 235.097 182.762 246.412 182.147 279.605V293.172H211.31L215.863 260.517C216.098 258.015 225.462 217.086 201.93 185.531H156.309C156.309 185.531 137.854 217.261 135.304 256.058C134.735 264.696 134.545 277.884 133.361 293.165H163.313L166.553 278.013Z" fill="#6F59A0"/>
<path d="M165.749 225.186L180.736 231.306" stroke="#533D85" stroke-width="1.99" stroke-miterlimit="10"/>
<path d="M144.259 114.845C144.259 114.845 134.697 116.203 127.701 140.136L146.535 150.913L157.652 135.632L144.259 114.845Z" fill="#DD4C88"/>
<path d="M146.535 150.913C146.535 150.913 134.022 170.516 131.054 174.043C128.019 177.69 123.337 179.495 119.292 176.97C117.535 175.872 116.244 174.165 115.666 172.176C115.087 170.187 115.263 168.054 116.158 166.186L129.15 140.842L146.535 150.913Z" fill="#D6906E"/>
<path d="M116.326 114.875L131.305 163.592L115.332 170.539L105.725 115.604L116.326 114.875Z" fill="#D6906E"/>
<path d="M115.294 117.302L117.631 115.027C119.344 113.375 120.405 111.163 120.621 108.794L121.22 102.188C121.22 102.188 121.6 98.7076 114.671 99.5797C107.743 100.452 107.341 100.497 107.417 102.552C107.417 102.552 108.684 105.404 113.146 105.98L115.294 117.302Z" fill="#D6906E"/>
<path d="M106.529 118.303C106.529 118.303 99.6992 114.511 99.3729 102.545C99.3557 101.865 99.5118 101.193 99.8264 100.591C100.141 99.9883 100.604 99.4759 101.171 99.1017C102.947 97.9338 108.062 94.999 110.801 96.8797L115.604 103.075L115.293 117.295L106.529 118.303Z" fill="#D6906E"/>
<path d="M116.606 100.99L120.4 81.7051C120.508 81.1536 120.396 80.5817 120.086 80.1123C119.777 79.643 119.296 79.3136 118.746 79.195C118.196 79.0793 117.623 79.1836 117.149 79.4856C116.675 79.7876 116.339 80.2632 116.212 80.8103L112.842 95.3934L111.226 95.7044L105.633 80.9468C105.54 80.7015 105.398 80.4777 105.216 80.2886C105.034 80.0995 104.815 79.9491 104.574 79.8464C104.332 79.7437 104.072 79.6909 103.81 79.691C103.547 79.6911 103.287 79.7442 103.046 79.8472C102.619 80.0313 102.272 80.3617 102.068 80.7789C101.863 81.196 101.814 81.6724 101.93 82.1222L107.424 102.552L116.606 100.99Z" fill="#D6906E"/>
<path d="M116.91 99.4658C116.91 99.4658 107.508 98.5709 107.432 102.575C107.432 102.575 107.227 105.608 113.161 106.003C112.061 106.358 111.099 107.047 110.408 107.974C109.717 108.901 109.332 110.019 109.306 111.175" stroke="#BF704F" stroke-miterlimit="10"/>
<path d="M126.13 146.757L130.106 159.694" stroke="#BF704F" stroke-miterlimit="10"/>
<path d="M208.479 142.798C208.479 142.798 223.36 195.125 229.059 238.935L238.651 237.115C238.651 237.115 237.179 172.905 227.511 133.16L208.479 142.798Z" fill="#D6906E"/>
<path d="M238.567 234.923C238.567 234.923 252.985 256.218 235.676 265.788C235.121 266.094 234.478 266.199 233.854 266.086C233.231 265.972 232.666 265.648 232.254 265.167L232.14 265.038C231.698 264.507 231.471 263.83 231.504 263.14C231.538 262.451 231.83 261.799 232.322 261.314C234.781 258.819 238.089 253.655 232.815 246.905C232.815 246.905 230.046 247.611 230.539 253.101C230.569 253.433 230.526 253.767 230.413 254.08C230.3 254.393 230.119 254.677 229.884 254.913C229.649 255.149 229.365 255.33 229.052 255.444C228.739 255.558 228.404 255.602 228.073 255.573C227.604 255.527 227.161 255.337 226.805 255.029C226.448 254.72 226.197 254.309 226.084 253.852C225.174 250.235 223.671 241.256 229.469 236.41L238.567 234.923Z" fill="#D6906E"/>
<path d="M217.646 119.206C217.646 119.206 231.305 123.695 233.741 145.255L211.492 153.688L206.483 140.038L217.646 119.206Z" fill="#DD4C88"/>
<path d="M204.503 114.216L217.866 119.259L201.968 179.351H156.309L144.258 114.845L160.088 111.175L204.503 114.216Z" fill="#DD4C88"/>
<path d="M201.961 179.351H156.309V185.532H201.961V179.351Z" fill="#1A1A1A"/>
<path d="M150.087 146.052L146.535 129.99" stroke="#C12D71" stroke-width="1.99" stroke-miterlimit="10"/>
<path d="M209.906 149.35L214.702 131.453" stroke="#C12D71" stroke-width="1.99" stroke-miterlimit="10"/>
<path d="M186.928 107.216L204.503 114.216C204.503 114.216 202.461 121.132 181.836 121.132C163.867 121.132 160.08 111.175 160.08 111.175L177.146 107.216H186.928Z" fill="#D6906E"/>
<path d="M302.067 195.914L321.175 293.59H284.136L269.93 229.039L266.66 228.841L266.614 293.59H229.674L231.563 195.914H302.067Z" fill="#DD4C88"/>
<path d="M260.407 228.386H281.495" stroke="#C12D71" stroke-width="1.99" stroke-miterlimit="10"/>
<path d="M319.088 127.358L353.949 118.447C357.288 117.51 360.125 115.302 361.851 112.298C363.578 109.293 364.057 105.731 363.185 102.378C362.741 100.671 361.961 99.0703 360.89 97.6692C359.819 96.2681 358.478 95.0951 356.947 94.219C355.415 93.343 353.724 92.7816 351.973 92.5678C350.222 92.3541 348.445 92.4922 346.748 92.9742L311.841 102.878L319.088 127.358Z" fill="#F1CCCD"/>
<path d="M322.928 96.5386L288.886 101.013L298.622 135.738L331.139 128.973L322.928 96.5386Z" fill="#DDB1F8"/>
<path d="M339.19 53.2971C340.063 47.837 337.945 40.8601 337.945 40.8601L338.704 28.6051C338.782 28.0445 338.647 27.4752 338.328 27.0082C338.008 26.5413 337.525 26.2103 336.974 26.0798C336.682 26.005 336.378 25.989 336.08 26.0326C335.781 26.0762 335.495 26.1786 335.236 26.3338C334.978 26.489 334.753 26.694 334.575 26.9367C334.396 27.1795 334.268 27.4553 334.197 27.7482L333.18 35.6426H332.095L330.623 22.925C330.596 22.563 330.494 22.2106 330.323 21.8902C330.152 21.5699 329.917 21.2887 329.631 21.0645C329.345 20.8404 329.016 20.6783 328.664 20.5887C328.312 20.499 327.945 20.4837 327.587 20.5438C326.972 20.6542 326.418 20.9812 326.024 21.4654C325.63 21.9496 325.423 22.559 325.44 23.1829L326.411 36.947L325.265 37.1593L321.365 23.4407C321.265 23.0636 321.089 22.7107 320.849 22.4031C320.609 22.0956 320.309 21.8399 319.967 21.6514C319.625 21.4629 319.249 21.3455 318.86 21.3064C318.472 21.2672 318.08 21.307 317.707 21.4235C317.01 21.6417 316.421 22.1158 316.059 22.7503C315.697 23.3849 315.589 24.1328 315.757 24.8437L319.786 40.5492L318.375 40.9359L313.063 29.9019C312.918 29.6004 312.711 29.3327 312.456 29.1158C312.201 28.899 311.904 28.7379 311.583 28.6429C311.262 28.5479 310.925 28.5211 310.593 28.5642C310.261 28.6073 309.942 28.7194 309.656 28.8933C309.184 29.1791 308.825 29.6188 308.64 30.1382C308.455 30.6576 308.454 31.225 308.639 31.7447L314.004 46.4188L309.565 46.3051C309.074 46.3069 308.589 46.4112 308.141 46.6113C307.693 46.8114 307.292 47.1029 306.963 47.4671C306.634 47.8312 306.385 48.26 306.232 48.726C306.079 49.1919 306.025 49.6847 306.074 50.1727C306.149 50.8825 306.438 51.5527 306.903 52.0945C307.368 52.6362 307.986 53.0239 308.677 53.2061L314.52 54.6167C317.25 58.1417 320.885 60.862 325.037 62.4884C325.037 62.4884 338.522 57.4605 339.19 53.2971Z" fill="#F1CCCD"/>
<path d="M314.019 46.4188C314.019 46.4188 322.495 45.9183 327.526 50.6959" stroke="#A56872" stroke-miterlimit="10"/>
<path d="M362.722 100.937L339.183 53.2974L324.332 59.5386L339.296 111.956L362.722 100.937Z" fill="#F1CCCD"/>
<path d="M334.842 96.3491L337.149 104.426" stroke="#A56872" stroke-miterlimit="10"/>
<path d="M258.457 99.1245L230.584 104.888L231.563 195.913H302.067L304.276 102.393L277.754 100.103L258.457 99.1245Z" fill="#DDB1F8"/>
<path d="M303.494 134.752V122.998" stroke="#9970B1" stroke-width="1.99" stroke-miterlimit="10"/>
<path d="M241.306 126.796H257.57V134.926C257.57 137.083 256.713 139.15 255.187 140.675C253.661 142.2 251.592 143.056 249.435 143.057C247.278 143.055 245.211 142.197 243.686 140.673C242.162 139.148 241.306 137.081 241.306 134.926V126.796Z" fill="#9970B1" stroke="#9970B1"/>
<path d="M210.376 128.018L190.275 164.419C188.587 167.476 188.166 171.073 189.101 174.437C190.036 177.801 192.252 180.665 195.275 182.415C198.271 184.144 201.822 184.644 205.179 183.81C208.537 182.975 211.439 180.871 213.275 177.941L234.143 144.664L210.376 128.018Z" fill="#F1CCCD"/>
<path d="M204.146 133.084L232.982 151.58L237.611 129.489C242.491 121.617 248.698 112.115 240.89 107.11C239.011 105.905 236.912 105.083 234.715 104.69C232.517 104.297 230.264 104.341 228.083 104.82C225.903 105.299 223.838 106.204 222.008 107.482C220.178 108.759 218.619 110.385 217.419 112.267L204.146 133.084Z" fill="#DDB1F8"/>
<path d="M231.085 150.359V125.614" stroke="#9970B1" stroke-width="1.99" stroke-miterlimit="10"/>
<path d="M200.162 184.083L252.932 182.634L256.567 165.594L196.915 158.056L200.162 184.083Z" fill="#F1CCCD"/>
<path d="M223.648 161.416L209.906 159.694" stroke="#A56872" stroke-miterlimit="10"/>
<path d="M253.061 166.292C253.061 166.292 259.815 157.192 267.76 166.292L264.603 172.564L253.061 166.292Z" fill="#F1CCCD"/>
<path d="M261.006 156.623L258.919 169.386L275.022 171.176L277.579 158.913C277.65 158.6 277.653 158.276 277.589 157.962C277.525 157.647 277.395 157.35 277.208 157.089C277.021 156.829 276.781 156.61 276.504 156.449C276.226 156.288 275.918 156.187 275.599 156.153L263.571 154.704C262.977 154.622 262.374 154.777 261.894 155.136C261.414 155.496 261.095 156.03 261.006 156.623Z" fill="#1A1A1A"/>
<path d="M256.461 165.2L275.516 165.67C276.577 165.696 277.587 166.136 278.328 166.895C279.07 167.655 279.485 168.674 279.484 169.735C279.487 170.498 279.275 171.245 278.872 171.893C278.47 172.541 277.893 173.062 277.208 173.398L276.191 173.891C276.191 173.891 278.134 188.3 266.69 190.021C255.247 191.743 248.827 182.695 248.827 182.695L256.461 165.2Z" fill="#F1CCCD"/>
<path d="M278.809 100.141L278.543 71.3916H257.66L257.189 99.3901L278.809 100.141Z" fill="#F1CCCD"/>
<path d="M255.937 79.7863C254.852 77.3064 263.192 93.5352 271.706 92.6252C279.006 91.8669 279.295 78.626 279.295 78.626C279.295 78.626 276.707 82.8045 268.997 82.8121C260.415 82.8197 255.937 79.7863 255.937 79.7863Z" fill="#F0B4B4"/>
<path d="M289.668 55.5345C287.429 68.3507 279.977 79.1345 268.026 79.1345C256.074 79.1345 247.848 68.4797 246.376 55.5345C244.706 40.8528 256.066 31.0928 268.018 31.0928C279.97 31.0928 291.959 42.3771 289.668 55.5345Z" fill="#2F1118"/>
<path d="M286.731 62.1851C287.252 61.4492 288.016 60.9199 288.889 60.6898C289.761 60.4597 290.687 60.5434 291.504 60.9263C294.721 62.1472 293.264 69.9431 288.469 70.9441C287.927 71.0412 287.372 71.0196 286.84 70.8808C286.308 70.742 285.812 70.4893 285.388 70.1403C285.388 70.1403 286.541 64.4071 286.731 62.1851Z" fill="#F1CCCD"/>
<path d="M290.889 63.7019C290.889 63.7019 288.195 62.8071 286.283 66.7353" stroke="#161311" stroke-width="1.1" stroke-linecap="round" stroke-linejoin="round"/>
<path d="M249.813 62.1851C249.292 61.4492 248.528 60.9199 247.655 60.6898C246.783 60.4597 245.857 60.5434 245.04 60.9263C241.823 62.1472 243.28 69.9431 248.076 70.9441C248.617 71.0412 249.173 71.0196 249.704 70.8808C250.236 70.742 250.732 70.4893 251.156 70.1403C251.156 70.1403 250.003 64.4071 249.813 62.1851Z" fill="#F1CCCD"/>
<path d="M245.678 63.7019C245.678 63.7019 248.372 62.8071 250.284 66.7353" stroke="#161311" stroke-width="1.1" stroke-linecap="round" stroke-linejoin="round"/>
<path d="M287.035 55.4963C287.035 60.4938 286.519 70.9591 283.24 77.1625C280.205 82.9942 275.159 86.1262 268.557 86.3158C263.29 86.4675 255.702 81.5306 253.092 76.5255C249.153 68.9419 249.335 55.5873 249.335 55.5873C249.335 55.5873 249.335 37.728 267.957 37.728C287.619 37.728 287.035 55.4963 287.035 55.4963Z" fill="#F1CCCD"/>
<path d="M260.255 62.9892C261.052 62.9892 261.697 62.3441 261.697 61.5483C261.697 60.7525 261.052 60.1074 260.255 60.1074C259.459 60.1074 258.813 60.7525 258.813 61.5483C258.813 62.3441 259.459 62.9892 260.255 62.9892Z" fill="#1A1A1A"/>
<path d="M275.128 62.9892C275.925 62.9892 276.57 62.3441 276.57 61.5483C276.57 60.7525 275.925 60.1074 275.128 60.1074C274.332 60.1074 273.687 60.7525 273.687 61.5483C273.687 62.3441 274.332 62.9892 275.128 62.9892Z" fill="#1A1A1A"/>
<path d="M264.155 55.6937L253.941 58.3327C253.941 58.3327 254.404 55.4662 258.586 54.4272C262.767 53.3883 264.155 55.6937 264.155 55.6937Z" fill="#1A1A1A"/>
<path d="M270.644 55.6937L280.858 58.3327C280.858 58.3327 280.395 55.4662 276.213 54.4272C272.032 53.3883 270.644 55.6937 270.644 55.6937Z" fill="#1A1A1A"/>
<path d="M266.349 65.2031V68.8508H268.997" stroke="#161311" stroke-width="1.1" stroke-linecap="round" stroke-linejoin="round"/>
<path d="M276.024 71.9224H260.384C260.384 71.9224 260.817 76.0327 267.798 76.0402C274.195 76.0478 276.024 71.9224 276.024 71.9224Z" fill="white"/>
<path d="M249.813 62.1849C249.813 62.1849 256.787 51.4921 251.331 43.6279C251.331 43.6279 247.878 43.681 248 57.2783L249.813 62.1849Z" fill="#2F1118"/>
<path d="M286.723 62.1849C286.723 62.1849 279.75 51.4921 285.206 43.6279C285.206 43.6279 288.658 43.681 288.537 57.2783L286.723 62.1849Z" fill="#2F1118"/>
<path d="M249.449 43.1429C249.449 43.1429 258.457 53.32 277.003 51.3256C293.568 49.5434 295.01 37.9178 291.064 33.3677C285.426 26.8079 272.996 29.2499 266.349 36.568L249.449 43.1429Z" fill="#2F1118"/>
<path d="M257.189 99.3901L268.208 113.541L278.809 100.141L257.189 99.3901Z" fill="#F1CCCD"/>
<path d="M258.218 114.683L251.362 100.951L257.018 98.0459L264.703 109.791L258.218 114.683Z" fill="#9970B1" stroke="#9970B1"/>
<path d="M271.822 109.632L279.051 98.0368L285.49 101.061L278.282 114.683L271.822 109.632Z" fill="#9970B1" stroke="#9970B1"/>
<path fill-rule="evenodd" clip-rule="evenodd" d="M440.154 293.643C440.154 294.059 439.816 294.397 439.399 294.397H20.8434C20.4267 294.397 20.0889 294.059 20.0889 293.643C20.0889 293.226 20.4267 292.888 20.8434 292.888H439.399C439.816 292.888 440.154 293.226 440.154 293.643Z" fill="#3C3768"/>
</svg>
