<svg width="4" height="13" viewBox="0 0 4 13" fill="none" xmlns="http://www.w3.org/2000/svg">
<path fill-rule="evenodd" clip-rule="evenodd" d="M0.75 11.1142C0.75 10.395 1.31 9.8125 2 9.8125C2.69 9.8125 3.25 10.395 3.25 11.1142C3.25 11.8333 2.69 12.4167 2 12.4167C1.31 12.4167 0.75 11.8333 0.75 11.1142ZM0.75 6.58333C0.75 5.86417 1.31 5.28084 2 5.28084C2.69 5.28084 3.25 5.86417 3.25 6.58333C3.25 7.3025 2.69 7.88501 2 7.88501C1.31 7.88501 0.75 7.3025 0.75 6.58333ZM0.75 2.05168C0.75 1.33251 1.31 0.75 2 0.75C2.69 0.75 3.25 1.33251 3.25 2.05168C3.25 2.77084 2.69 3.35417 2 3.35417C1.31 3.35417 0.75 2.77084 0.75 2.05168Z" fill="#8E8E93"/>
</svg>
