<svg width="24" height="24" viewBox="0 0 24 24" fill="none" xmlns="http://www.w3.org/2000/svg">
<path fill-rule="evenodd" clip-rule="evenodd" d="M14 2H6C5.46957 2 4.96086 2.21071 4.58579 2.58579C4.21071 2.96086 4 3.46957 4 4V20C4 20.5304 4.21071 21.0391 4.58579 21.4142C4.96086 21.7893 5.46957 22 6 22H18C18.5304 22 19.0391 21.7893 19.4142 21.4142C19.7893 21.0391 20 20.5304 20 20V8L14 2ZM18 9H13V4L18 9ZM13.2175 17.39C13.541 17.39 13.8041 17.308 14.0068 17.1441C14.2096 16.9802 14.3131 16.7603 14.3131 16.4799C14.3131 16.3074 14.2656 16.1564 14.2009 16.0529C14.1449 15.9494 14.0068 15.8416 13.9163 15.7855C13.8731 15.7553 13.8084 15.7251 13.7265 15.6949C13.6445 15.6604 13.5798 15.6345 13.5324 15.6216L13.3254 15.5526C13.1011 15.4836 12.9501 15.4189 12.8682 15.3628C12.7905 15.3024 12.7517 15.2248 12.7517 15.1299C12.7517 14.953 12.9027 14.828 13.1485 14.828C13.4116 14.828 13.6057 14.9574 13.7265 15.2162L14.2268 14.9272C14.0198 14.5002 13.6359 14.25 13.1485 14.25C12.8768 14.25 12.6396 14.332 12.4455 14.4959C12.2514 14.6554 12.1565 14.8754 12.1565 15.1471C12.1565 15.4232 12.2557 15.6302 12.4412 15.7682C12.6309 15.9019 12.7948 15.9666 13.0666 16.0486C13.3124 16.1176 13.4806 16.1823 13.5755 16.2427C13.6704 16.2988 13.7179 16.3807 13.7179 16.4885C13.7179 16.674 13.5669 16.8077 13.2348 16.8077C12.8897 16.8077 12.6568 16.6524 12.5404 16.3462L12.0314 16.6438C12.1996 17.1053 12.618 17.39 13.2175 17.39ZM9.33974 14.3104L8.46417 15.7769L9.3915 17.3296H8.71433L8.12774 16.3462L7.54114 17.3296H6.86829L7.79131 15.7812L6.91573 14.3104H7.58859L8.12774 15.2162L8.66688 14.3104H9.33974ZM9.94079 14.3104H10.536V16.7603H11.6876V17.3296H9.94079V14.3104ZM17.0799 14.3104L16.2043 15.7769L17.1316 17.3296H16.4545L15.8679 16.3462L15.2813 17.3296H14.6084L15.5315 15.7812L14.6559 14.3104H15.3287L15.8679 15.2162L16.407 14.3104H17.0799Z" fill="black"/>
</svg>
