<svg width="20" height="21" viewBox="0 0 20 21" fill="none" xmlns="http://www.w3.org/2000/svg">
<path fill-rule="evenodd" clip-rule="evenodd" d="M9.98665 6.58403L5.30582 11.2649L5.08582 13.7282L7.56665 13.5024L12.2333 8.8307L9.98665 6.58403ZM14.9725 6.08903L12.7267 3.84403L11.1033 5.46737L13.3492 7.71403L14.9725 6.08903ZM4.24332 15.4782C4.21748 15.4807 4.19248 15.4815 4.16748 15.4815C3.94748 15.4815 3.73498 15.3949 3.57832 15.2374C3.40332 15.0624 3.31498 14.819 3.33748 14.5732L3.65332 11.0974C3.68832 10.7165 3.85665 10.3574 4.12748 10.0865L11.6242 2.58903C12.2092 2.00237 13.2708 2.03153 13.8875 2.64737L16.1692 4.92903H16.17C16.8083 5.5682 16.8333 6.58237 16.2267 7.1907L8.72915 14.6882C8.45832 14.9599 8.09999 15.1274 7.71832 15.1624L4.24332 15.4782ZM4.16732 17.1483H15.834C16.2923 17.1483 16.6673 17.5233 16.6673 17.9816C16.6673 18.44 16.2923 18.815 15.834 18.815H4.16732C3.70898 18.815 3.33398 18.44 3.33398 17.9816C3.33398 17.5233 3.70898 17.1483 4.16732 17.1483Z" fill="#8E8E93"/>
</svg>
