<svg width="20" height="21" viewBox="0 0 20 21" fill="none" xmlns="http://www.w3.org/2000/svg">
<path fill-rule="evenodd" clip-rule="evenodd" d="M10.8327 11.3333C10.8327 11.7933 10.4593 12.1667 9.99935 12.1667C9.53935 12.1667 9.16602 11.7933 9.16602 11.3333V7.16667C9.16602 6.70667 9.53935 6.33334 9.99935 6.33334C10.4593 6.33334 10.8327 6.70667 10.8327 7.16667V11.3333ZM9.99935 14.6667C9.53935 14.6667 9.16602 14.2933 9.16602 13.8333C9.16602 13.3733 9.53935 13 9.99935 13C10.4593 13 10.8327 13.3733 10.8327 13.8333C10.8327 14.2933 10.4593 14.6667 9.99935 14.6667ZM9.99935 2.16667C5.39685 2.16667 1.66602 5.89751 1.66602 10.5C1.66602 15.1025 5.39685 18.8333 9.99935 18.8333C14.6018 18.8333 18.3327 15.1025 18.3327 10.5C18.3327 5.89751 14.6018 2.16667 9.99935 2.16667Z" fill="#FF776F"/>
</svg>
