<svg width="20" height="21" viewBox="0 0 20 21" fill="none" xmlns="http://www.w3.org/2000/svg">
<path fill-rule="evenodd" clip-rule="evenodd" d="M6.98285 17.4585C7.86184 17.8186 8.94156 18.4983 9.42127 18.8983C10.2206 19.6585 10.2604 19.6585 11.0198 18.8186C11.4198 18.3788 12.3793 17.7389 13.1785 17.4186C17.4561 15.6193 19.5344 10.4207 17.6155 6.26128C15.7365 2.18227 11.2995 0.343128 7.02271 1.8627C-0.0925587 4.38228 -0.133138 14.5396 6.98285 17.4585Z" fill="#4DAC48"/>
<path fill-rule="evenodd" clip-rule="evenodd" d="M14.5839 8.90323L10.0016 13.4231C9.44776 13.9701 8.55139 13.9701 7.99753 13.4231L5.00059 10.5C4.63261 10.136 4.63261 9.54508 5.00059 9.18011C5.36952 8.81606 5.96679 8.81606 6.33477 9.18011L8.33061 11.1128C8.69953 11.4778 9.29868 11.4778 9.66855 11.1128L13.2497 7.58333C13.6177 7.21836 14.2159 7.21836 14.5839 7.58333C14.9528 7.94738 14.9528 8.53918 14.5839 8.90323Z" fill="white"/>
</svg>
