<svg width="20" height="21" viewBox="0 0 20 21" fill="none" xmlns="http://www.w3.org/2000/svg">
<path fill-rule="evenodd" clip-rule="evenodd" d="M12.5 10.5H10.8333V8.83333C10.8333 8.3725 10.46 8 10 8C9.54 8 9.16667 8.3725 9.16667 8.83333V11.3333C9.16667 11.7942 9.54 12.1667 10 12.1667H12.5C12.96 12.1667 13.3333 11.7942 13.3333 11.3333C13.3333 10.8725 12.96 10.5 12.5 10.5ZM10 16.9583C6.89833 16.9583 4.375 14.435 4.375 11.3333C4.375 8.23167 6.89833 5.70833 10 5.70833C13.1017 5.70833 15.625 8.23167 15.625 11.3333C15.625 14.435 13.1017 16.9583 10 16.9583ZM10.8233 3.88167C10.825 3.86417 10.8333 3.85083 10.8333 3.83333V3H11.6667C12.1267 3 12.5 2.6275 12.5 2.16667C12.5 1.70583 12.1267 1.33333 11.6667 1.33333H8.33333C7.87333 1.33333 7.5 1.70583 7.5 2.16667C7.5 2.6275 7.87333 3 8.33333 3H9.16667V3.83333C9.16667 3.85083 9.175 3.86417 9.17667 3.88167C5.4275 4.29333 2.5 7.47667 2.5 11.3333C2.5 15.4692 5.865 18.8333 10 18.8333C14.135 18.8333 17.5 15.4692 17.5 11.3333C17.5 7.47667 14.5725 4.29333 10.8233 3.88167Z" fill="#FF9859"/>
</svg>
