<svg width="20" height="21" viewBox="0 0 20 21" fill="none" xmlns="http://www.w3.org/2000/svg">
<path d="M15.8725 12.23C16.0125 11.7917 16.4808 11.5492 16.9192 11.6883C17.3575 11.8283 17.6 12.2967 17.4608 12.735C16.4583 15.8842 13.5217 18 10.1533 18C5.93333 18 2.5 14.6358 2.5 10.5C2.5 6.36417 5.93333 3 10.1533 3C12.04 3 13.8175 3.67917 15.2042 4.88L15.4308 3.67917C15.5158 3.2275 15.9533 2.93333 16.4042 3.015C16.8567 3.09917 17.1542 3.53583 17.0692 3.98833L16.4408 7.32167C16.4337 7.36036 16.418 7.39479 16.4024 7.42923C16.3961 7.44301 16.3899 7.45679 16.3842 7.47083C16.3784 7.48531 16.3737 7.50011 16.369 7.51481C16.3607 7.54072 16.3525 7.5663 16.3392 7.58917C16.3144 7.63158 16.2807 7.6662 16.2471 7.70066C16.2411 7.70682 16.2351 7.71297 16.2292 7.71917C16.2193 7.72996 16.2105 7.74172 16.2016 7.75348C16.1872 7.77259 16.1727 7.79171 16.1542 7.80667C16.1155 7.83921 16.0703 7.86182 16.0251 7.88438C16.0148 7.88955 16.0044 7.89472 15.9942 7.9C15.9823 7.90629 15.9711 7.91349 15.9601 7.92063C15.9434 7.93146 15.9269 7.94213 15.9083 7.94917C15.8183 7.9825 15.7217 8 15.6225 8C15.5783 8 15.5317 7.99667 15.4858 7.98917L11.9475 7.40417C11.4933 7.33 11.1858 6.90083 11.2608 6.44667C11.3358 5.99333 11.7608 5.6775 12.2192 5.76083L14.0242 6.05833C12.9517 5.16833 11.5933 4.66667 10.1533 4.66667C6.85167 4.66667 4.16667 7.28417 4.16667 10.5C4.16667 13.7167 6.85167 16.3333 10.1533 16.3333C12.7933 16.3333 15.0917 14.685 15.8725 12.23Z" fill="#675FA8"/>
<path d="M6.66667 11.75C7.35702 11.75 7.91667 11.1904 7.91667 10.5C7.91667 9.80964 7.35702 9.25 6.66667 9.25C5.97631 9.25 5.41667 9.80964 5.41667 10.5C5.41667 11.1904 5.97631 11.75 6.66667 11.75Z" fill="#675FA8"/>
<path d="M10 11.75C10.6904 11.75 11.25 11.1904 11.25 10.5C11.25 9.80964 10.6904 9.25 10 9.25C9.30964 9.25 8.75 9.80964 8.75 10.5C8.75 11.1904 9.30964 11.75 10 11.75Z" fill="#675FA8"/>
<path d="M14.5833 10.5C14.5833 11.1904 14.0237 11.75 13.3333 11.75C12.643 11.75 12.0833 11.1904 12.0833 10.5C12.0833 9.80964 12.643 9.25 13.3333 9.25C14.0237 9.25 14.5833 9.80964 14.5833 10.5Z" fill="#675FA8"/>
</svg>
