<svg width="20" height="21" viewBox="0 0 20 21" fill="none" xmlns="http://www.w3.org/2000/svg">
<path d="M8.33268 8.00001C7.87245 8.00001 7.49935 8.3731 7.49935 8.83334V12.1667C7.49935 12.6269 7.87245 13 8.33268 13H11.666C12.1263 13 12.4993 12.6269 12.4993 12.1667V8.83334C12.4993 8.3731 12.1263 8.00001 11.666 8.00001H8.33268Z" fill="#0049D8"/>
<path fill-rule="evenodd" clip-rule="evenodd" d="M1.66602 10.5C1.66602 5.90501 5.40435 2.16667 9.99935 2.16667C14.5943 2.16667 18.3327 5.90501 18.3327 10.5C18.3327 15.095 14.5943 18.8333 9.99935 18.8333C5.40435 18.8333 1.66602 15.095 1.66602 10.5ZM3.33268 10.5C3.33268 14.1758 6.32352 17.1667 9.99935 17.1667C13.6752 17.1667 16.666 14.1758 16.666 10.5C16.666 6.82417 13.6752 3.83334 9.99935 3.83334C6.32352 3.83334 3.33268 6.82417 3.33268 10.5Z" fill="#0049D8"/>
</svg>
