<svg width="133" height="107" viewBox="0 0 133 107" fill="none" xmlns="http://www.w3.org/2000/svg">
<path d="M1.09115 103.9C0.483838 104.823 0.739448 106.063 1.66208 106.671C2.5847 107.278 3.82497 107.022 4.43228 106.1L1.09115 103.9ZM132.736 12.8444C133.285 11.8856 132.952 10.6638 131.993 10.1154L116.368 1.17898C115.409 0.630593 114.187 0.963325 113.639 1.92215C113.091 2.88098 113.423 4.10282 114.382 4.6512L128.271 12.5947L120.328 26.4836C119.779 27.4424 120.112 28.6642 121.071 29.2126C122.03 29.761 123.252 29.4283 123.8 28.4694L132.736 12.8444ZM4.43228 106.1C33.7722 61.5269 78.7373 28.1566 131.526 13.7812L130.475 9.92177C76.7263 24.5586 30.9553 58.5312 1.09115 103.9L4.43228 106.1Z" fill="#ADD9F4"/>
</svg>
