<svg width="136" height="98" viewBox="0 0 136 98" fill="none" xmlns="http://www.w3.org/2000/svg">
<path d="M133.475 97.0782C134.54 97.3685 135.64 96.7398 135.93 95.674C136.22 94.6082 135.591 93.509 134.526 93.2188L133.475 97.0782ZM6.16542 0.0411675C5.08359 -0.181791 4.02584 0.514465 3.80289 1.5963L0.169571 19.2258C-0.0533872 20.3076 0.642869 21.3654 1.7247 21.5883C2.80654 21.8113 3.86428 21.115 4.08724 20.0332L7.31685 4.36253L22.9875 7.59215C24.0693 7.81511 25.1271 7.11885 25.35 6.03702C25.573 4.95518 24.8767 3.89744 23.7949 3.67448L6.16542 0.0411675ZM134.526 93.2188C81.7373 78.8434 36.7722 45.4731 7.43228 0.900356L4.09115 3.09964C33.9553 48.4688 79.7263 82.4414 133.475 97.0782L134.526 93.2188Z" fill="#ADD9F4"/>
</svg>
