<svg width="14" height="18" viewBox="0 0 14 18" fill="none" xmlns="http://www.w3.org/2000/svg">
<path fill-rule="evenodd" clip-rule="evenodd" d="M7.00016 8.16626C6.311 8.16626 5.75016 7.60542 5.75016 6.91625C5.75016 6.22709 6.311 5.66625 7.00016 5.66625C7.68933 5.66625 8.25016 6.22709 8.25016 6.91625C8.25016 7.60542 7.68933 8.16626 7.00016 8.16626ZM7.00016 3.99959C5.39183 3.99959 4.0835 5.30792 4.0835 6.91625C4.0835 8.52459 5.39183 9.83292 7.00016 9.83292C8.6085 9.83292 9.91683 8.52459 9.91683 6.91625C9.91683 5.30792 8.6085 3.99959 7.00016 3.99959ZM7.00016 15.3717C5.60433 14.0517 2.00016 10.3458 2.00016 7.26834C2.00016 4.5475 4.24266 2.33334 7.00016 2.33334C9.75766 2.33334 12.0002 4.5475 12.0002 7.26834C12.0002 10.3458 8.396 14.0517 7.00016 15.3717ZM7.00016 0.666672C3.32433 0.666672 0.333496 3.62751 0.333496 7.26834C0.333496 11.8308 6.20766 16.9175 6.45766 17.1317C6.61433 17.2658 6.80683 17.3333 7.00016 17.3333C7.1935 17.3333 7.386 17.2658 7.54266 17.1317C7.79266 16.9175 13.6668 11.8308 13.6668 7.26834C13.6668 3.62751 10.676 0.666672 7.00016 0.666672Z" fill="black"/>
</svg>
