<svg width="18" height="17" viewBox="0 0 18 17" fill="none" xmlns="http://www.w3.org/2000/svg">
<path fill-rule="evenodd" clip-rule="evenodd" d="M4.50033 1.83332C3.30533 1.83332 2.33366 2.80499 2.33366 3.99999C2.33366 10.1567 7.34283 15.1667 13.5003 15.1667C14.6945 15.1667 15.667 14.195 15.667 13C15.667 12.9075 15.6612 12.8167 15.6495 12.7267L11.7995 11.8433C11.7228 11.99 11.6387 12.1492 11.562 12.2975C11.182 13.0225 10.907 13.5492 10.2053 13.2667C7.45033 12.3 5.20116 10.05 4.22199 7.26166C3.92449 6.60749 4.49116 6.31082 5.20949 5.93582C5.35533 5.85916 5.51283 5.77666 5.65699 5.70166L4.77366 1.85082C4.68116 1.83916 4.59116 1.83332 4.50033 1.83332ZM13.5003 16.8333C6.42366 16.8333 0.666992 11.0767 0.666992 3.99999C0.666992 1.88582 2.38616 0.166656 4.50033 0.166656C4.71699 0.166656 4.93116 0.18499 5.13866 0.220823C5.34116 0.253323 5.54449 0.30499 5.74283 0.373323C6.01366 0.46749 6.21783 0.69499 6.28199 0.97499L7.42283 5.94499C7.48616 6.21832 7.40699 6.50499 7.21199 6.70832C7.09866 6.82666 7.09616 6.82916 6.06283 7.36999C6.89949 9.18166 8.35366 10.6308 10.1287 11.4392C10.6703 10.405 10.6737 10.4017 10.792 10.2883C10.9953 10.0933 11.2837 10.0175 11.5553 10.0775L16.5262 11.2183C16.8053 11.2825 17.0328 11.4858 17.1262 11.7567C17.1945 11.9533 17.2462 12.1567 17.2803 12.3658C17.3153 12.5717 17.3337 12.785 17.3337 13C17.3337 15.1142 15.6137 16.8333 13.5003 16.8333Z" fill="black"/>
</svg>
