<svg width="140" height="140" viewBox="0 0 140 140" fill="none" xmlns="http://www.w3.org/2000/svg">
<path d="M68.0631 0H68.7385C69.0721 0.0355469 69.69 0.142188 69.6709 0.298047C69.9414 0.474164 70.1901 0.681589 70.4119 0.916016C70.6854 1.16484 71.06 1.46289 70.8686 1.76094C71.2924 2.06992 71.5686 2.40078 70.9479 2.73711C70.6744 2.96406 70.1686 3.19102 70.9041 3.4207C71.2623 3.64766 70.885 3.87461 70.8604 4.1043C70.7045 4.33125 71.1994 4.56094 70.8959 4.78789C70.8767 5.01936 70.8346 5.24835 70.7701 5.47148C70.4775 5.69844 70.844 5.92812 70.6389 6.15508C70.092 6.38203 70.7045 6.61172 70.6881 6.83867C71.317 7.06563 70.9287 7.29531 70.6607 7.52227C70.5888 7.62007 70.5464 7.73648 70.5387 7.85765C70.5309 7.97882 70.5581 8.09968 70.617 8.20586C70.7701 8.43281 70.8904 8.6625 70.6389 8.88945C70.3873 9.11641 70.7619 9.34609 70.565 9.57305C70.8248 9.68789 70.9807 9.81367 70.6225 9.94219C70.74 10.0707 70.9178 10.202 70.5486 10.3277C70.0783 10.5793 70.349 10.8063 70.5486 10.943C71.1693 11.0523 71.019 11.0824 70.5486 11.241C70.4119 11.3996 70.874 11.6867 70.5486 12.3129C70.8221 12.8598 70.5486 12.8078 70.565 12.8105C70.8385 12.8105 70.8385 12.8789 70.5924 13.6828C70.6283 13.8729 70.6412 14.0666 70.6307 14.2598C70.6334 14.5239 70.6508 14.7877 70.6826 15.05C70.7018 15.7145 70.7592 14.7602 70.8193 16.0398C70.8795 16.152 70.9451 17.2703 70.9779 17.057C71.0107 18.7715 71.0135 18.3422 70.9479 18.0441C70.885 18.0852 70.7537 18.0441 70.5213 18.9465C70.2615 19.5453 69.9088 18.8316 69.5096 19.7258C69.1131 20.3902 68.6729 19.5344 68.2436 19.8926C67.8143 19.5043 67.3959 19.6191 67.0404 19.4715C66.685 19.7449 66.3951 19.9281 66.2201 18.4926C66.0779 18.5281 65.9713 18.1727 65.892 17.2566C65.851 17.3496 65.8182 17.2566 65.7908 17.0188C65.7635 16.7809 65.7389 16.4254 65.7197 15.9879C65.5557 15.5887 66.0178 15.3563 65.6705 15.1676C64.5576 14.9898 66.1846 14.8695 65.635 14.6918C65.7744 14.2844 64.6889 14.1449 65.6049 14.0137C64.7846 13.8852 66.5045 13.7676 65.5721 13.4121C65.4053 13.3164 65.6842 13.0484 65.5721 12.7613C66.1463 12.4879 66.376 12.1707 65.5721 12.0066C64.6752 11.7715 65.3342 11.5391 65.5721 11.3039C66.0998 11.0688 64.6506 10.8336 65.5721 10.6012C64.5193 10.1309 65.8674 9.66328 65.6049 9.19297C65.3424 8.72266 65.5174 8.25508 65.6596 7.7875C65.9877 7.31992 65.5092 6.84961 65.7361 6.38203C66.51 5.91445 66.2584 5.44688 65.8346 4.97656C65.8674 4.50898 66.7205 4.04141 65.9549 3.57383C66.1846 3.10625 65.8264 2.64141 66.0943 2.17383C66.9775 1.80742 65.8674 1.4793 66.417 1.19219C66.8463 0.905078 67.1498 0.645312 67.1361 0.456641C67.4182 0.255035 67.7313 0.100797 68.0631 0Z" fill="black"/>
<path d="M23.7361 15.0965C24.0757 14.9911 24.4347 14.9641 24.7861 15.0177C25.1376 15.0712 25.4723 15.2038 25.765 15.4055C26.0606 15.6216 26.3436 15.8544 26.6127 16.1027C26.8861 16.3488 27.135 16.6113 27.3811 16.882C27.6244 17.5492 27.8568 17.8281 28.0811 17.7242C28.3053 17.4371 28.5186 17.9977 28.7264 18.6102C28.9342 19.6191 29.1365 19.7039 29.3307 19.5234C29.5713 19.1434 29.8147 20.8441 30.058 20.5242C30.3014 20.8906 30.5475 21.3445 30.7963 21.5195C31.0451 21.8969 31.2994 22.0227 31.5565 22.4984C31.8135 22.3891 32.0787 23.6305 32.3494 23.45C32.6229 23.4363 32.8963 23.0727 33.1834 24.3633C33.4568 24.232 33.7658 24.582 34.0721 25.2246C34.3072 25.5281 34.5725 25.3504 34.8459 25.7934C35.1193 25.5719 35.3928 25.7496 35.6662 26.302C35.9397 25.3012 36.1858 27.1961 36.4018 26.9172C36.6533 26.3512 36.8037 27.4422 36.8611 27.9672C36.9186 28.8586 36.8857 29.0172 36.7736 29.1074C36.6615 30.5402 36.4674 30.7809 36.2076 30.1027C35.9342 29.9059 35.6197 30.2969 35.2342 30.7152C34.835 30.5539 34.4412 31.3004 34.0584 30.8027C33.6756 30.9176 33.301 31.0297 32.9455 30.3898C32.59 29.9715 32.251 29.9414 31.9365 29.7527C31.6084 29.4137 31.2912 29.8977 30.9822 28.9898C30.6733 29.4055 30.3752 28.0984 30.0854 28.1695C29.7955 27.8086 29.5111 28.1695 29.235 27.2945C28.9615 26.6766 28.6881 27.1004 28.4147 26.3785C28.1412 26.3129 27.8924 26.0176 27.6408 25.4324C27.3865 25.7633 27.1377 25.2438 26.8916 24.4672C26.6455 24.1199 26.4022 23.5949 26.1588 23.4937C25.9318 23.5266 25.7104 23.1273 25.4916 22.5805C25.2729 22.1375 25.0541 21.5605 24.8354 21.659C24.6139 21.7027 24.3924 21.093 24.16 20.7512C23.9303 20.8824 23.6897 19.9309 23.4381 19.8844C23.1869 19.6029 22.9213 19.3346 22.6424 19.0805C21.3518 17.891 22.06 15.5121 23.7361 15.0965Z" fill="black"/>
<path d="M107.115 18.3695C107.498 18.0961 107.906 18.5281 108.297 18.2711C108.69 18.818 109.068 18.4598 109.39 18.7223C109.614 19.0488 109.868 19.3528 110.151 19.6301C110.342 20.9563 110.424 21.1094 110.394 20.8223C110.369 21.7109 110.244 21.1148 110.03 21.9816C109.817 22.5805 109.513 23.4637 109.136 22.802C108.811 22.4301 108.496 22.2004 108.19 23.3488C107.884 22.5039 107.583 24.1117 107.285 23.9586C106.99 23.8902 106.697 23.8602 106.407 24.6066C106.117 24.1473 105.828 25.0004 105.538 25.2629C105.263 25.572 104.933 25.8271 104.564 26.0148C104.242 25.8891 103.919 26.2391 103.599 26.7777C103.279 26.9637 102.959 27.691 102.642 27.5516C102.325 27.8961 102.01 27.4859 101.696 28.3391C101.381 28.1148 101.072 29.4328 100.763 29.1402C100.454 28.793 100.148 29.5012 99.842 29.9605C99.7025 29.9961 99.5549 30.9996 99.3963 30.2531C99.2377 30.6988 99.0736 30.182 98.8986 30.6113C98.7264 30.7672 98.5432 30.9121 98.3518 30.4363C98.1489 30.5389 97.9558 30.6597 97.7748 30.7973C97.7241 30.7049 97.6498 30.6277 97.5595 30.5734C97.4692 30.5191 97.3661 30.4898 97.2607 30.4883C97.0967 30.4582 96.9381 30.7371 96.7904 30.5129C96.6428 30.8273 96.5033 30.5621 96.3748 30.4227C96.2463 30.2039 96.1287 29.8102 96.0248 29.8348C95.9576 29.5433 95.8661 29.2579 95.7514 28.9816C95.6748 28.7684 95.6174 29.1566 95.5736 28.9105C95.5326 29.0008 95.5053 28.5469 95.4998 28.3637C95.4998 28.134 95.4998 27.732 95.5436 27.8879C95.5627 27.5789 95.5982 27.3902 95.6447 27.4914C95.6912 27.4559 95.7514 27.7102 95.8197 27.1332C95.9592 27.1141 96.1342 26.8105 96.3283 26.5125C96.5197 26.5918 96.7303 25.6348 96.9299 25.9656C97.258 24.7789 97.5889 25.8918 97.917 25.1453C98.2451 24.1801 98.5732 23.8027 98.9041 24.325C99.2322 24.5273 99.5631 23.6906 99.894 23.5047C100.225 22.9578 100.556 23.3297 100.889 22.6844C101.223 22.75 101.556 22.5832 101.893 21.8641C102.229 22.277 102.568 21.257 102.91 21.0711C103.252 21.5441 103.594 19.9773 103.941 20.2973C104.288 20.3766 104.638 19.5426 104.991 19.548C105.212 19.3512 105.437 18.6758 105.663 19.1023C105.89 17.8418 106.12 18.0934 106.361 18.6922C106.612 17.634 106.858 19.332 107.115 18.3695Z" fill="black"/>
<path d="M42.7346 37.9422C42.9205 38.0816 43.1092 37.3953 43.2979 37.2695C43.4865 37.9012 43.6779 36.7773 43.8721 36.9961C44.0662 37.2148 44.2604 36.5121 44.4545 36.7555C44.6514 37.2777 44.8483 36.3289 45.0479 36.0992C45.2475 36.3508 45.4471 36.2988 45.6494 35.7383C45.8115 35.5324 46.0206 35.3683 46.2592 35.2598C46.6693 34.3137 47.0795 35.1641 47.5061 34.4723C47.9272 33.5207 48.3537 33.2764 48.7858 33.7395C49.2178 33.2062 49.6525 33.6301 50.0928 33.0613C50.533 32.7879 50.9787 31.3168 51.4272 32.4352C51.8756 32.2273 52.3295 32.498 52.7943 31.8582C53.251 32.8535 53.7131 30.7645 54.1752 31.3332C54.64 30.3352 55.1049 30.6633 55.5752 30.8574C56.0455 30.2723 56.5186 30.5512 56.9916 30.4281C57.4674 30.1547 57.9432 30.3051 58.4244 30.048C58.9029 29.5449 59.3842 30.3215 59.8682 29.7145C60.3522 29.1074 60.8361 30.2121 61.3201 29.4246C61.8068 29.2934 62.2936 28.9406 62.7803 29.1785C63.267 29.1238 63.7565 28.9188 64.2432 28.9762C64.7326 29.5832 65.2193 28.9215 65.7088 28.8176C66.1983 28.916 66.685 28.1859 67.1744 28.7C67.5955 28.5387 68.0166 28.9734 68.4377 28.6699C68.8588 29.1512 69.2799 28.7574 69.701 28.6699C70.1221 29.307 70.5432 29.0691 70.9643 28.7055C71.3854 29.7691 71.8065 29.2742 72.2275 28.7711C72.6486 30.3078 73.067 28.8176 73.4881 28.8695C73.9065 29.8129 74.3275 28.1805 74.7459 29.0035C75.1643 30.5621 75.5826 28.7848 75.9983 29.1703C76.4139 30.368 76.8186 29.4438 77.2451 29.3699C77.483 28.9625 77.7182 29.1512 77.9561 29.4984C78.1912 30.1684 78.4291 31.552 78.6643 29.6406C78.8994 29.2551 79.1346 31.1664 79.3697 29.6406C79.6049 29.966 79.8401 29.7473 80.0725 29.966C80.3076 30.9504 80.5401 31.9293 80.7725 30.0316C81.0049 29.8539 81.2373 29.668 81.4697 30.327C81.7022 30.5621 81.9318 29.7937 82.1643 30.4691C82.417 30.4893 82.6579 30.5845 82.8561 30.7426C83.0912 30.9148 83.3236 32.0195 83.5561 31.1008C83.7885 31.6312 84.0209 31.1281 84.2533 31.2047C84.4858 31.6914 84.7154 31.3195 84.9451 31.5902C85.1748 32.0496 85.4045 31.4398 85.6315 31.7242C85.8747 31.8656 86.1028 32.0314 86.3123 32.2191C86.5393 32.4188 86.7635 32.591 86.9877 32.3039C87.2119 32.5445 87.4334 32.1344 87.6576 32.3996C87.8791 32.1781 88.1006 32.6566 88.3194 32.9465C88.5381 32.4816 88.7569 33.2637 88.9729 33.2473C89.1889 33.0941 89.4049 33.2473 89.6209 33.641C89.8342 33.6191 90.0475 33.0941 90.2607 33.9145C90.4713 34.2426 90.6819 34.1578 90.8897 34.382C91.0975 34.8797 91.3053 34.8387 91.5104 34.7785C91.7154 34.6719 91.9205 35.2188 92.1229 35.1914C92.4756 34.6445 92.8256 35.525 93.1674 35.9461C93.5092 35.9133 93.8483 36.9469 94.1791 36.7418C94.51 37.7207 94.8354 36.4355 95.1553 37.5812C95.4752 37.0043 95.7869 39.7687 96.0932 38.4645C96.3994 39.4023 96.6975 38.6039 96.9901 39.3887C97.2826 40.5672 97.567 42.0301 97.8432 40.3539C98.1166 40.4305 98.3901 41.3191 98.6635 41.3602C98.9369 41.5898 99.1776 43.2387 99.4209 42.4102C99.6943 42.7492 99.9678 41.7621 100.241 43.6625C100.501 43.7609 100.747 44.4828 100.982 44.9559C101.217 44.9367 101.439 45.8145 101.649 46.2848C101.86 45.623 102.06 47.8926 102.246 47.652C102.385 48.1287 102.56 48.594 102.771 49.0438C102.935 48.9152 103.085 50.5887 103.227 50.4602C103.367 50.3863 103.501 50.5695 103.613 51.8984C103.673 52.3797 103.728 52.768 103.779 53.0223C104.053 53.2766 103.823 53.3996 103.93 53.3559C103.911 53.5609 103.714 53.6758 104.064 53.8645C104.236 54.0531 104.556 54.3184 104.181 54.8242C104.693 55.3574 104.026 55.5953 104.283 55.7676C104.54 55.9398 105.557 56.041 104.367 56.3145C103.323 56.4457 104.578 56.6727 104.436 56.9406C105.108 57.2141 105.382 57.5148 104.49 57.802C104.321 58.141 105.005 58.3898 104.529 58.6223C104.102 58.8492 104.255 59.0516 104.551 59.3004C103.386 59.6312 104.903 59.9621 104.551 60.293C104.504 60.6238 104.641 60.9547 104.529 61.2855C104.042 61.6164 104.512 61.9445 104.479 62.2754C103.9 62.7484 103.676 63.2242 104.406 63.7C103.971 64.1758 105.773 64.6516 104.307 65.1273C105.043 65.6031 104.805 66.0789 104.184 66.5574C103.796 67.0332 104.283 67.5117 104.037 67.9875C103.79 68.4633 101.849 68.9391 103.859 69.4148C102.956 69.8906 103.561 70.3637 103.651 70.8395C102.355 71.3125 102.738 71.7856 103.413 72.2586C104.088 72.7316 103.46 73.202 103.14 73.6695C103.621 74.1398 103.451 74.6074 102.831 75.0723C104.053 75.5371 103.613 76.002 102.483 76.4641C102.328 76.9262 102.349 77.3856 102.098 77.8313C101.278 78.2879 102.071 78.7445 101.671 79.1984C101.124 79.6524 101.234 80.1008 101.201 80.5492C100.892 80.9977 100.867 81.4406 100.684 81.8836C100.501 82.3266 100.318 82.7641 100.121 83.1988C99.8074 83.8952 99.4729 84.5815 99.1174 85.2578C98.9397 85.5969 98.5514 85.9332 98.5705 86.2641C98.5897 86.5949 98.0838 86.9285 97.9854 87.2566C97.4713 87.5848 97.6354 87.9102 97.3647 88.2301C97.2289 88.4317 97.078 88.6227 96.9135 88.8016C96.7583 88.9595 96.6438 89.1528 96.5799 89.3648C96.61 89.5508 96.1807 89.7367 96.1315 89.9117C95.9647 90.0949 95.7404 90.2781 95.7514 90.4586C95.9401 90.6391 95.2729 90.8195 95.2291 91.0055C94.9365 91.1832 94.8545 91.3609 94.8846 91.5387C94.819 91.7137 94.7424 91.8887 94.2885 92.0637C94.5127 92.2387 94.1463 92.4109 93.985 92.5832C93.1893 92.7555 93.3588 92.925 93.3998 93.0945C93.4408 93.2641 93.5529 93.4336 93.0553 93.6004C92.6697 93.7672 92.4209 93.934 92.5084 94.1008C92.5959 94.2676 92.5549 94.4316 92.1092 94.5957C92.4756 94.7598 91.7018 94.9238 91.6225 95.0852C91.8002 95.2465 90.8022 95.4078 91.1303 95.5691C91.2752 95.7469 90.8022 95.8863 90.9416 95.9984C90.9908 96.1105 90.3619 96.1953 90.6354 96.2719C90.6928 96.4031 90.8787 96.4633 90.135 96.5453C89.9983 96.6437 89.8615 96.734 89.6319 96.8707C89.3283 96.9391 89.4869 97.0211 89.3803 97.1195C89.1342 97.218 89.0904 97.3383 89.126 97.4832C89.2244 97.907 89.0576 97.9973 88.7678 98.0301C88.6885 98.0574 88.2373 98.0301 88.4479 98.1996C88.1006 98.5879 88.333 98.7902 88.1608 98.8941C88.0842 98.998 88.076 99.009 87.901 99.009C88.0705 99.0363 88.0158 99.2824 87.6686 99.5203C87.3213 99.7582 87.7889 99.9551 87.458 99.8867C87.458 100.002 87.2885 100.188 87.2666 100.365C87.3486 100.543 87.201 100.715 87.0889 100.795C86.8783 100.92 87.3979 101.021 87.4744 101.139C87.7998 101.257 87.4115 101.391 87.849 101.585C87.685 102.088 88.2619 102.208 88.2018 102.252C88.2537 102.296 88.7186 102.252 88.5244 102.452C88.4998 102.605 89.0276 102.692 88.7979 102.821C88.9123 103.005 88.9894 103.211 89.0248 103.425C89.1752 103.204 89.2983 104.398 89.3721 104.59C89.4568 104.62 89.5115 106.343 89.5443 105.787C89.5799 106.039 89.5936 106.81 89.599 107.004C89.599 107.488 89.599 108.645 89.599 108.224C89.599 109.706 89.599 106.706 89.599 109.435C89.599 109.586 89.5772 108.845 89.5197 110.619C89.465 109.987 89.383 112.366 89.2764 111.776C89.1725 111.776 89.044 113.449 88.9018 112.9C88.8307 111.855 88.7541 111.672 88.6748 113.446C88.5955 113.769 88.5135 112.536 88.426 113.993C88.5217 115.549 88.6119 114.051 88.6994 114.669C88.7842 115.525 88.8635 114.767 88.9373 115.153C89.0111 115.902 89.0795 114.354 89.1424 115.872C89.2053 115.85 89.2627 115.084 89.3119 116.37C89.3639 117.018 89.4076 116.337 89.4459 117.056C89.4842 117.668 89.517 117.89 89.5416 117.622C89.5662 118.716 89.5881 118.48 89.599 118.267C89.599 117.422 89.6182 119.785 89.6182 118.888C89.6182 119.64 89.6182 119.257 89.5936 119.435C89.5799 119.662 89.558 121.261 89.5279 120.148C89.4979 120.271 89.4623 119.58 89.4186 120.772C89.3748 121.398 89.3229 121.138 89.2627 121.387C89.2026 120.969 89.1369 121.177 89.0604 121.989C88.9838 122.183 88.9018 122.12 88.8088 122.577C88.6338 123.003 88.426 123.082 88.1963 123.651C87.9639 124.313 87.7068 123.359 87.4252 124.614C87.1518 123.864 86.8428 126.046 86.5201 125.45C86.1975 125.811 85.8584 127.091 85.5029 126.148C85.1464 126.356 84.7754 126.539 84.3928 126.695C84.0098 126.851 83.6159 126.979 83.2143 127.077C83.0325 127.496 82.9039 127.936 82.8315 128.387C82.6975 128.543 82.558 129.505 82.4186 129.686C82.2764 130.113 82.1287 130.143 81.9811 130.977C81.8307 131.748 81.6776 131.797 81.5217 132.262C81.3658 131.805 81.2072 133.139 81.0487 133.541C80.8901 134.384 80.7287 133.875 80.5647 134.816C80.4416 135.19 80.2912 136.779 80.108 135.784C79.9248 135.658 79.7115 135.617 79.4654 136.634C79.2194 135.762 78.9404 137.08 78.6287 137.296C78.2404 137.167 77.8385 137.55 77.4256 137.886C77.0127 138.42 76.5861 137.864 76.1541 138.296C75.7221 137.968 75.2818 136.79 74.8416 138.57C74.3986 139.91 73.9557 135.836 73.51 138.775C73.067 139.032 72.624 140.908 72.1838 138.955C72.1838 138.253 71.9104 138.102 71.4674 138.955C71.0272 139.278 70.4201 139.018 69.7584 138.955C69.0967 138.581 68.3912 138.266 67.7186 138.955C67.0568 139.385 66.4498 138.119 66.0096 138.955C65.5693 139.404 65.2932 139.789 65.2932 138.955C64.894 138.586 64.4729 139.314 64.0791 138.726C63.6717 139.505 63.2588 138.753 62.8623 138.403C62.4604 140.591 62.0639 136.938 61.6783 137.968C61.2928 138.42 60.9209 136.875 60.5654 137.402C60.21 137.676 59.8736 138.163 59.5619 136.686C59.2502 134.952 58.9631 136.823 58.7033 135.803C58.4463 136.661 58.2193 134.982 58.0307 134.731C57.8475 136.128 57.667 134.296 57.4838 133.438C57.3006 133.282 57.1174 131.953 56.9369 132.144C56.751 131.688 56.5623 130.72 56.3736 130.856C56.1822 129.907 55.9881 131.056 55.7912 129.579C55.6928 129.467 55.5916 129.716 55.4904 129.711C55.3893 129.705 55.2854 129.437 55.1815 128.313C55.1131 127.687 55.042 127.493 54.9709 126.645C54.8998 126.186 54.8287 126.645 54.7576 126.407C54.6865 127.031 54.6127 127.381 54.5389 127.064C54.3311 126.301 54.1205 126.771 53.91 126.79C53.6994 127.028 53.4889 126.104 53.2783 126.973C53.0678 127.345 52.86 127.055 52.6522 126.79C52.4443 126.525 52.2393 126.284 52.0397 126.749C51.635 127.039 51.244 126.339 50.8748 126.276C50.4674 127.876 50.0955 125.327 49.7647 125.56C49.4338 124.778 49.1385 123.698 48.8815 124.595C48.6244 124.111 48.4057 123.463 48.2225 123.452C48.1295 123.662 48.0475 123.791 47.9736 123.646C47.8998 123.501 47.8342 123.085 47.7795 122.199C47.5963 121.311 47.6647 121.253 47.6373 121.286C47.4924 121.319 47.7768 121.439 47.5471 120.906C47.6701 120.755 47.7822 120.646 47.5307 120.468C47.7002 120.291 47.8041 120.042 47.5307 119.61C47.2873 119.386 47.64 119.175 47.5307 118.962C47.6455 118.748 47.3256 118.535 47.5553 118.308C47.5553 117.98 47.3201 118.035 47.6018 118.002C47.4186 117.98 47.7385 117.928 47.6346 117.786C47.7494 117.644 47.4432 117.409 47.6756 117.02C48.1678 116.517 47.5936 116.159 47.5334 115.913C47.6428 115.664 47.0959 115.527 47.7822 115.467C47.7139 115.347 48.2854 115.533 47.9272 115.741C48.0611 114.857 48.0693 114.373 48.31 114.163C48.6408 113.941 48.5697 113.969 48.1158 114.081C48.3893 114.196 48.6955 114.395 48.567 114.521C48.5807 114.647 48.6436 114.696 48.351 114.521C48.6244 114.404 48.3127 114.311 48.4932 114.229C48.6736 114.146 48.2799 114.075 48.1158 113.996C48.1158 113.84 47.8834 113.657 47.9135 113.323C47.3666 112.938 47.99 112.889 47.7494 112.807C47.9791 112.766 47.8451 112.714 47.7686 112.61C47.3721 112.506 47.3584 112.336 47.6318 112.085C47.651 112.085 47.5033 111.989 47.6838 111.866C47.6701 111.743 47.2408 111.593 47.5635 111.42C47.8369 111.262 47.6647 111.106 47.7822 110.991C47.465 110.879 47.4104 110.808 47.5498 110.821C47.2244 110.247 47.5963 110.414 47.599 110.482C47.6018 110.551 47.8068 110.526 47.5662 110.409C47.5662 110.288 47.6838 110.042 47.7166 109.558C47.5061 109.49 47.4432 109.372 47.8451 109.186C48.2279 109.093 47.8151 108.984 48.1186 108.853C47.9873 108.721 47.9983 108.579 47.9381 108.402C48.3455 108.104 47.5881 108.221 48.001 108.207C47.8315 108.207 47.8178 108.161 47.8615 108.019C47.8451 107.877 48.0611 107.636 48.0475 107.223C48.1623 106.821 48.5397 106.539 48.0912 106.351C48.2799 106.162 48.269 106.077 48.1459 106.047C48.0764 105.968 48.0232 105.875 47.9894 105.775C47.9557 105.675 47.9419 105.569 47.949 105.464C47.9562 105.359 47.984 105.256 48.0309 105.161C48.0778 105.066 48.1429 104.982 48.2225 104.912C48.2225 104.609 48.8158 104.494 48.3318 104.891C49.3545 105.005 48.4057 105.312 48.4877 105.298C49.3545 105.282 48.8131 104.945 48.7037 103.772C48.515 103.05 49.1549 102.996 48.9279 103.029C48.1924 103.061 49.7729 103.184 49.2014 102.818C49.3627 102.788 49.8084 102.487 49.494 102.236C49.2697 101.984 49.1822 101.779 49.8111 101.94C49.2451 102.077 49.7975 101.773 50.1447 101.486C50.8639 101.196 50.3744 100.923 50.4893 101.114C50.3361 100.404 50.1721 100.535 49.9971 100.144C49.8221 99.8949 49.6334 98.4484 49.4365 99.2141C49.2397 98.041 49.0291 98.1203 48.8131 98.3254C48.5943 97.9699 48.3674 95.7605 48.1295 97.4805C47.8916 96.9336 47.6455 95.3613 47.3912 96.682C47.0768 97.4859 46.7623 94.9047 46.4479 95.6648C46.1361 95.6648 45.8244 96.023 45.5154 94.6367C45.4728 94.5443 45.4085 94.4635 45.3281 94.4012C45.2477 94.3389 45.1534 94.2968 45.0533 94.2785C44.9002 94.2184 44.7471 94.1035 44.5967 93.5922C44.4463 93.5129 44.2932 93.5922 44.1428 93.2176C43.9924 93.3488 43.8447 92.9441 43.6943 92.534C43.5467 92.3863 43.399 92.575 43.2514 92.1512C43.1631 91.8887 43.0141 91.6507 42.8166 91.4566C42.6717 91.3445 42.5295 91.5059 42.3873 90.9098C42.2451 91.0848 42.1139 90.743 41.9662 90.3629C41.6928 88.8453 41.4193 88.7797 41.1459 89.2445C41.0861 89.0265 40.9439 88.8403 40.7494 88.725C40.6467 88.6519 40.5595 88.5591 40.4929 88.4521C40.4263 88.3451 40.3815 88.226 40.3611 88.1016C40.2326 88.0277 40.1068 87.6695 39.9838 87.6695C39.8608 87.6695 39.7377 87.232 39.6174 86.934C39.4971 85.3617 39.3768 85.791 39.2619 85.8402C39.1443 86.0426 39.0295 85.7965 38.9174 85.7309C38.8053 85.2086 38.6932 85.4766 38.5838 84.9105C38.4744 84.4566 38.3678 84.3937 38.2639 84.5059C38.1572 84.2324 38.0533 84.7082 37.9522 83.8988C37.851 84.0656 37.7498 83.434 37.6514 83.2863C37.5529 83.3191 37.4572 82.332 37.3615 82.6602C37.2658 82.4496 37.1756 81.6375 37.0881 82.0477C36.9979 82.2363 36.9076 81.4844 36.8147 81.3941C36.7272 81.55 36.6424 80.3004 36.5576 80.7898C36.4729 80.1473 36.3908 79.8246 36.3115 80.0242C36.2322 79.9777 36.1529 78.575 36.0764 79.5184C35.9998 78.6215 35.9233 78.3973 35.8522 79.1273C35.7783 78.7254 35.7072 79.0508 35.6361 78.2332C35.565 77.9598 35.4967 77.1969 35.4311 77.5551C35.3654 77.4047 35.2998 77.6781 35.2342 76.9344C35.2014 77 35.1713 76.8332 35.1412 76.6254C35.1787 76.5865 35.2065 76.5394 35.2224 76.4878C35.2384 76.4363 35.2419 76.3817 35.2329 76.3285C35.2239 76.2753 35.2024 76.2249 35.1704 76.1815C35.1383 76.1381 35.0965 76.1028 35.0483 76.0785C34.9006 75.5316 34.4877 75.5316 34.958 75.6191C35.1576 75.7066 34.9006 75.8734 34.8705 75.6191C34.4822 74.8535 34.9662 74.7988 34.7858 74.8645C35.0236 74.9191 35.2397 75.075 34.7037 74.7059C34.3729 74.8699 34.5096 74.766 34.5451 74.2984C34.7147 74.2984 34.6244 74.252 34.4686 74.1234C34.8295 73.9949 34.0119 73.7762 34.3947 73.4098C34.9088 73.1363 34.3537 72.8629 34.3236 72.718C33.9654 72.5867 34.0912 72.6113 34.2553 72.9668C34.3975 72.9668 33.8807 72.9176 34.1869 72.7672C33.7822 72.6168 33.8725 72.3598 34.1213 71.9168C34.2416 71.8484 33.2272 71.2742 33.9983 71.6297C34.1158 71.6516 33.9053 71.5859 33.9381 71.4328C33.3912 71.2797 34.094 71.0391 33.8807 70.7137C33.9983 70.9078 33.2326 70.2215 33.774 70.2871C33.2272 70.1203 34.0721 69.8879 33.7221 69.7129C34.2936 69.5379 33.342 69.4203 33.6729 69.4859C33.3748 69.1797 33.744 68.9391 33.6264 68.8215C33.4022 68.7066 33.5799 68.7258 33.5826 68.9391C34.3428 68.4633 33.9572 68.2555 33.5416 68.1652C32.3904 68.0723 33.394 68.0996 33.5006 68.0914C33.4104 68.0559 34.2525 67.5637 33.424 67.6047C32.765 67.673 32.7268 67.1426 33.3529 67.3039C33.167 67.1125 32.4014 66.9703 33.3201 66.8172C34.7229 66.6641 33.6209 66.5 33.2873 66.2703C33.599 66.0379 33.5115 65.8984 33.2572 65.7672C32.4779 65.6359 33.1369 65.5102 33.2272 65.316C33.2272 65.2695 32.467 64.7473 33.1752 64.9305C33.8397 65.1848 32.7268 65.3051 33.1506 65.2859C33.3584 65.2668 33.6291 65.1055 33.1287 64.7992C33.3229 64.5395 32.9264 64.3152 33.1096 64.1156C32.5408 63.916 33.0768 63.7437 33.0932 63.5852C32.374 63.6043 33.2627 63.4184 33.0658 62.9973C32.91 62.9398 32.9537 62.3602 33.0467 62.2398C33.0467 62.2836 33.5936 62.2262 33.0467 61.8379C32.5928 61.7094 32.9893 61.5918 33.0467 61.4496C31.7205 61.3047 33.6373 61.1352 33.0467 60.9027C33.2901 60.3559 32.6147 60.1672 33.0467 60.0496C32.3576 59.932 32.5955 59.8746 33.0686 59.5574C32.9756 59.2074 32.9537 58.9477 33.1014 58.7371C32.4068 58.5266 33.8397 58.368 33.1451 58.2148C32.4916 57.9633 33.692 57.7555 33.2025 57.5477C32.5846 57.3398 33.0057 57.132 33.2736 56.875C33.9217 56.782 32.2592 56.875 33.3557 56.7656C33.7986 56.6645 33.4842 56.3773 33.4541 55.5406C33.7549 55.3027 33.074 55.2891 33.5635 55.1633C33.3283 55.0375 33.4869 54.7996 33.692 54.1105C33.5881 54.198 33.2436 53.9328 33.8369 53.602C33.909 53.5545 33.9706 53.4929 34.0181 53.4209C34.0657 53.349 34.0981 53.2681 34.1134 53.1832C34.1288 53.0983 34.1267 53.0112 34.1074 52.9271C34.0881 52.8431 34.0519 52.7638 34.001 52.6941C34.2744 52.8801 34.3182 52.6313 34.1815 52.284C33.4815 51.9367 34.7283 51.4937 34.3783 51.2941C34.9088 51.152 34.8104 51.1437 34.5916 51.0043C34.5725 50.8648 34.9963 50.5887 34.824 49.9105C35.1111 49.8695 35.658 49.5277 35.0729 49.1996C34.824 48.8715 35.2643 48.5516 35.3463 48.5543C35.2424 48.0074 35.5322 47.4113 35.6197 47.0887C35.7072 46.766 35.8166 46.7086 35.9178 47.2254C36.1201 46.8645 36.3361 45.5055 36.5604 45.9266C36.7846 45.0734 37.0225 44.4828 37.2686 44.6605C37.6082 44.3094 37.8708 43.8912 38.0397 43.4328C38.3131 42.4074 38.5865 42.1039 38.86 42.2461C39.1471 41.7785 39.4451 41.5461 39.7514 41.1059C40.0576 40.5918 40.3748 40.9992 40.7029 40.0121C40.867 39.4953 41.0311 39.2793 41.2006 39.4844C41.3701 39.5555 41.5397 39.0359 41.7119 38.9703C41.8842 38.6477 42.0619 39.3395 42.2397 38.6777C42.4174 37.7918 42.5979 37.6988 42.7865 37.9832M52.6002 40.9254C52.1214 41.0322 51.6859 41.2809 51.3506 41.6391C50.9404 41.8906 50.5303 42.3828 50.1447 42.432C49.751 42.998 49.3654 43.5695 48.9908 43.2988C48.8022 43.0992 48.619 43.2633 48.444 43.5094C48.1158 43.7582 48.5287 44.0918 47.8971 44.2367C47.6811 44.3762 47.0248 44.5102 47.6236 44.6277C47.815 44.748 47.2518 44.8547 47.3502 44.9422C47.2381 45.1227 48.0721 45.232 46.8443 45.243C47.0303 45.4508 47.3037 45.6312 46.5983 45.757C45.983 45.8828 45.8053 45.9484 46.3549 45.932C46.4424 46.2848 46.4916 46.498 45.8846 46.3203C46.0541 46.55 45.8299 46.5445 45.6576 46.5609C46.2783 46.5609 46.8471 46.5828 46.0705 46.6348C44.9959 46.6867 46.4287 46.7742 45.4334 46.9301C45.4197 47.0498 45.3719 47.1632 45.2959 47.2567C45.2198 47.3502 45.1186 47.42 45.0041 47.4578C44.8537 47.5973 45.5264 47.7148 45.0643 47.8215C44.6897 47.9281 44.6623 48.0211 44.5967 48.1113C45.0342 48.2918 44.3232 48.4504 44.2111 48.6582C44.1483 48.7949 44.9932 48.9316 43.9842 49.0711C44.5311 49.1395 43.8529 49.2105 43.6369 49.2816C43.7682 49.3527 43.0654 49.4211 43.7354 49.4922C43.1365 49.6344 43.3143 49.7656 43.4127 49.9188C43.5111 50.0719 43.7901 50.2059 43.3061 50.3508C42.8221 50.4957 43.2678 50.6434 43.0928 50.791C42.4584 50.9387 43.1502 51.0863 42.9205 51.2367C42.8057 51.4473 42.5322 51.6578 42.7947 51.8711C42.1877 52.0844 43.1912 52.2977 42.4338 52.5109C42.2205 52.6176 42.8385 52.727 42.226 52.8336C41.8514 52.9402 41.8623 53.0496 42.36 53.1562C42.1795 53.2656 42.6334 53.3723 42.3272 53.4816C42.6608 53.591 42.3272 53.7004 42.0291 53.807C41.5588 53.9164 42.3326 54.0258 41.8377 54.1352C42.0565 54.2445 41.0502 54.3539 41.8213 54.4633C42.3135 54.682 42.6826 54.9035 41.7065 55.125C41.3209 55.3465 40.9873 55.568 41.5424 55.7895C41.7721 56.0109 41.4549 56.2352 41.4576 56.4566C41.5102 56.566 41.5287 56.6886 41.5107 56.8086C41.4926 56.9285 41.4389 57.0403 41.3565 57.1293C42.4283 57.2414 41.0147 57.3535 41.3565 57.4656C41.2143 57.5777 41.0639 57.6898 41.2881 57.802C41.2279 58.0262 41.0858 58.2531 41.2553 58.4773C41.0693 58.7043 40.6647 58.9285 41.1733 59.1555C40.2682 59.3824 40.8424 59.6094 41.0283 59.8363C41.8486 60.0633 41.4822 60.2902 41.1158 60.5172C41.0988 60.7458 41.0677 60.9732 41.0229 61.198C40.9782 61.4285 41.0089 61.6672 41.1104 61.8789C41.0557 62.3328 41.4358 62.7867 41.1541 63.2461C40.9709 63.7 41.2061 64.1512 41.2416 64.6133C41.2772 65.0754 41.3182 65.5156 41.3674 65.9641C41.3953 66.4385 41.4473 66.9113 41.5233 67.3805C41.5633 67.8555 41.6272 68.3282 41.7147 68.7969C41.7858 69.3438 41.8623 69.3602 41.9443 70.2078C42.0291 70.1203 42.1193 71.0609 42.2178 71.6105C42.3162 72.3106 42.4229 73.3633 42.535 73.0051C42.6498 73.5684 42.7701 74.2957 42.8986 74.3859C43.0272 75.8406 43.1721 75.0312 43.3143 75.7531C43.4565 76.475 43.6178 76.9535 43.7818 77.1012C43.9459 77.4266 44.1209 78.3973 44.3068 78.4273C44.4928 78.4574 44.6842 79.3187 44.8893 79.7316C45.0943 80.5519 45.3076 80.0051 45.5346 81.0086C45.7397 81.2574 45.9557 82.2965 46.1826 82.2008C46.4096 82.5453 46.6447 82.5453 46.8881 83.3547C47.1315 83.2809 47.383 84.8668 47.6428 84.473C47.9025 85.8402 48.1678 85.7609 48.4412 85.5668C48.7147 86.0699 48.9881 85.2387 49.2752 86.6305C49.5486 87.9184 49.8467 87.8938 50.1393 87.675C50.4318 87.284 50.7272 89.2555 51.0225 88.7031C51.3205 88.8644 51.6186 89.9746 51.9193 89.7176C52.2201 90.4449 52.5209 90.1797 52.8244 90.7266C53.1252 90.7484 53.4287 91.6699 53.7268 91.7301C53.7866 91.9262 53.889 92.1068 54.0265 92.259C54.164 92.4112 54.3334 92.5312 54.5225 92.6105C54.7795 92.7227 55.0311 93.3953 55.2744 93.5293C55.5178 93.841 55.7502 94.8527 55.9744 94.4863C56.1986 94.6477 56.4119 95.1535 56.617 95.4816C56.8221 95.8098 57.0135 96.1652 57.1967 96.5152C57.3799 96.8652 57.5467 97.2234 57.7053 97.5871C58.0744 98.2844 58.1565 99.4629 59.2502 99.2004C59.0387 98.247 58.8264 97.2945 58.6131 96.343L58.2385 94.8527C58.1781 94.3669 58.071 93.8879 57.9186 93.4227C57.7855 92.9522 57.6787 92.4748 57.5986 91.9926C57.492 90.8332 57.3854 91.2543 57.2787 90.5625C57.1721 90.3027 57.0654 88.9437 56.9588 89.1324C56.8522 88.8344 56.7455 88.8945 56.6389 87.7023C56.5322 87.6148 56.4283 86.0617 56.3217 86.2723C56.1405 85.8155 56.0334 85.3327 56.0045 84.8422C55.9006 84.2953 55.794 83.434 55.69 83.4121C55.5861 84.5359 55.4822 83.959 55.3783 81.982C55.2744 82.2063 55.1733 81.5008 55.0693 80.5492C54.9682 79.8055 54.8643 78.9934 54.7631 79.1164C54.7111 79.3898 54.6619 78.8102 54.6127 78.4164C54.5635 76.5023 54.5115 77.4703 54.4623 77.6836C54.4131 78.3617 54.3611 77.7629 54.3119 77.1367C54.2627 78.4848 54.2135 78.1703 54.1643 76.2453C54.1151 77 54.0658 77.0656 54.0166 75.507C53.9674 75.127 53.9182 74.4133 53.869 74.8125C53.8197 75.0668 53.7705 74.2656 53.724 74.0687C53.6748 73.6148 53.6283 72.748 53.5791 73.377C53.5381 72.6906 53.4943 73.4371 53.4506 72.9641C53.4068 73.1582 53.3631 72.8082 53.3193 72.0617C53.2756 71.3152 53.2346 71.0965 53.1936 71.4492C53.1525 70.3035 53.1143 70.5906 53.0787 70.7438C53.0432 70.8969 53.0104 71.1758 52.9803 69.9781C52.9502 69.6227 52.9256 69.6746 52.9065 69.4312C52.8873 68.7203 52.8709 68.3238 52.8627 68.5043C52.8627 68.8953 52.8627 68.7777 52.8627 68.0941C52.8627 67.9 52.8627 67.5746 52.8791 67.468C52.8791 67.282 52.8983 66.8363 52.9092 67.2355C52.9092 66.0707 52.9365 68.4715 52.9529 66.8609C52.9693 66.8937 52.9885 66.7898 53.0076 66.3824C53.0268 65.6223 53.0514 66.2648 53.0733 65.9613C53.0979 65.3898 53.1225 65.4992 53.1525 65.5375C53.1936 64.5777 53.2401 65.2941 53.292 64.9086C53.344 64.7199 53.3986 65.0398 53.4561 64.2879C53.5162 64.2387 53.5791 63.6645 53.6447 63.6316C53.7131 63.7219 53.7815 63.391 53.858 63.0656C53.9495 62.9263 54.0282 62.7789 54.0932 62.6254C54.1752 61.8324 54.2627 61.7832 54.3529 61.8789C54.4432 61.3129 54.5361 61.0859 54.6264 60.9711C54.7166 60.8562 54.8233 60.8508 54.9272 60.7305C55.135 59.9102 55.3565 60.107 55.5889 59.6367C55.8404 59.4098 56.1166 57.3371 56.4092 58.4992C56.7127 58.4473 57.0381 58.0891 57.3881 57.4629C57.7381 58.1465 58.11 56.041 58.501 56.577C58.892 55.6609 59.3022 56.0574 59.7315 55.8934C60.1608 55.6199 60.6037 56.2652 61.0658 55.4668C61.5252 56.7219 62.001 55.3492 62.4877 55.3492C62.8623 57.0582 63.226 54.5289 63.5815 55.4641C63.9342 55.2754 64.276 55.3492 64.6123 55.8031C64.9459 56.1859 65.274 57.3945 65.5912 56.2898C65.9111 56.927 66.2229 57.0801 66.5291 56.8504C66.819 55.7566 67.1115 57.3344 67.4123 56.2297C67.7131 55.2234 68.0166 55.2781 68.3338 55.6637C68.651 56.793 68.9764 55.5051 69.3154 55.2371C69.6545 54.8078 70.0072 54.5016 70.3764 55.0348C70.8193 54.5426 71.2596 56.082 71.6889 55.0348C72.1182 54.5563 72.5393 56.3008 72.944 55.3246C73.3514 55.3738 73.7451 54.9527 74.1252 55.8715C74.4492 56.1715 74.8183 56.4188 75.219 56.6043C75.5635 56.6043 75.8861 56.5605 76.1897 57.4738C76.5807 57.1594 76.9881 56.0875 77.4065 57.0145C77.8248 57.3945 78.2514 56.6727 78.6834 56.7766C79.1154 56.8805 79.5475 56.5168 79.9768 56.7766C80.0708 56.7133 80.181 56.6781 80.2943 56.6752C80.4076 56.6723 80.5194 56.7018 80.6166 56.7602C80.8272 56.7438 81.0377 57.3344 81.2428 57.0336C81.4479 56.8559 81.6529 57.4848 81.8525 56.8887C82.0522 57.0527 82.249 56.5414 82.4377 57.5531C82.6346 57.1594 82.8178 57.6844 82.9846 57.6598C83.1596 57.4273 83.3264 57.9059 83.4795 58.3406C83.6354 58.8875 83.7803 58.5977 83.9143 58.9832C84.0483 59.1609 84.1877 59.3305 84.2889 59.3633C84.4037 59.0352 84.5104 59.4453 84.6061 59.8145C84.6525 60.2602 84.699 60.416 84.7428 60.3613C84.7865 60.5992 84.8248 60.6594 84.8631 60.5445C84.9014 60.8754 84.9369 60.818 84.9697 60.7523C85.0026 60.9984 85.0326 60.6184 85.06 61.3266C85.1147 61.0367 85.1611 61.3266 85.1967 61.8133C85.235 61.5754 85.2705 61.9582 85.2979 62.2645C85.3252 62.5707 85.3498 63.2543 85.3662 63.1805C85.3826 63.1805 85.3963 63.0711 85.4045 63.7465C85.4045 64.2688 85.4045 64.8102 85.4045 64.5531C85.4045 65.3488 85.4045 64.1348 85.4045 65.2914C85.4045 66.3852 85.3854 65.9859 85.3717 65.9258C85.358 65.8656 85.3416 65.9258 85.3225 66.0926C85.2729 66.4925 85.2509 66.8955 85.2569 67.2984C85.2322 68.6437 85.2076 67.8809 85.1803 68.4195C85.1529 69.1168 85.1256 69.0266 85.0955 68.6656C85.0654 69.7594 85.0354 68.3922 85.0053 69.1387C84.9752 69.2918 84.9451 68.9062 84.9123 70.0273C84.8959 69.3328 84.8768 70.4074 84.8604 70.2051C84.8412 70.6316 84.8248 71.8457 84.8057 70.7383C84.7701 71.3152 84.7318 71.6379 84.6936 71.4465C84.6744 71.8266 84.6553 71.3891 84.6361 71.3973C84.617 73.6121 84.5979 72.707 84.5787 72.1547C84.5404 72.4008 84.4994 73.5355 84.4584 72.8629C84.4393 73.6039 84.4174 73.1609 84.3955 73.3414C84.3736 71.3727 84.3545 72.8984 84.3326 73.6148C84.3108 74.941 84.2916 73.1117 84.2697 73.8172C84.2479 72.8656 84.226 75.2992 84.2068 74.2711C84.185 76.0047 84.1631 74.7578 84.1412 75.5453C84.1194 74.7004 84.0975 75.2719 84.0756 75.0941C84.0537 74.9164 84.0319 74.859 84.01 75.2281C83.9881 75.5973 83.9662 74.3012 83.9416 75.682C83.9197 76.2781 83.8951 75.0859 83.8733 76.1879C83.8514 75.2582 83.8268 76.2125 83.8049 76.3711C83.7584 76.7211 83.7119 77.3719 83.6654 77.093C83.6408 75.9445 83.619 76.7977 83.5944 76.6445C83.5697 75.5672 83.5479 77.2215 83.5233 77.7984C83.4986 77.6152 83.4768 79.1656 83.4522 78.4328C83.4276 78.1594 83.4057 78.3016 83.3811 78.5012C83.3346 78.9277 83.2854 78.6707 83.2362 79.2695C83.1869 80.5547 83.1404 79.4855 83.0912 79.9066C82.9955 80.0242 82.8971 80.6695 82.7987 81.3121C82.7002 81.107 82.6018 81.777 82.5061 82.7176C82.3745 83.1783 82.2768 83.6481 82.2135 84.123C82.0943 84.5874 81.9985 85.0573 81.9264 85.5312C81.8307 85.8648 81.7377 86.4746 81.6529 86.9395C81.5682 87.4043 81.4697 87.8801 81.3795 88.3504C80.8326 91.1723 80.3787 94.0051 80.067 96.8652C80.8408 95.2684 81.6748 93.6578 82.9326 92.3781C84.6908 90.5871 86.5475 88.8945 88.2346 87.0352C88.5226 86.7143 88.8024 86.3862 89.074 86.0508C89.3475 86.141 89.6209 86.1547 89.867 85.0281C90.124 84.5852 90.3729 83.907 90.6108 83.9699C90.8514 84.3801 91.0838 81.7223 91.3053 82.8762C91.4855 82.4835 91.7015 82.1082 91.9506 81.7551C92.1584 81.8617 92.3553 80.9566 92.5467 80.6066C92.7354 79.9777 92.9186 79.1246 93.0936 79.4309C93.2686 79.7371 93.4299 78.0637 93.5858 78.2332C93.7416 79.3625 93.8865 77.3336 94.0233 77.0164C94.1709 77.6098 94.3104 76.743 94.4416 75.7012C94.5729 73.9566 94.6986 74.0605 94.8135 74.375C94.9311 74.1453 95.0404 73.0461 95.1416 73.0379C95.2455 72.1684 95.3412 71.4547 95.4287 71.6898C95.519 72.4391 95.601 70.2133 95.6776 70.3227C95.7541 69.6172 95.8252 69.5707 95.8908 68.9555C95.9565 68.4997 96.0166 68.044 96.0713 67.5883C96.126 67.1316 96.1205 66.675 96.219 66.2211C96.3779 65.7837 96.4194 65.3123 96.3393 64.8539C96.3885 64.3945 96.0358 63.9352 96.4322 63.4867C96.569 63.0273 95.951 62.568 96.5006 62.1195C96.3092 61.6602 95.9127 61.2008 96.5498 60.7523C96.8971 60.375 97.0037 59.9977 96.5498 59.6203C96.1588 59.243 97.3975 58.8629 96.5006 58.4855C96.1342 58.1082 96.8861 57.7281 96.4022 57.3508C96.3985 56.9689 96.3489 56.5888 96.2545 56.2188C96.198 55.8432 96.1324 55.4686 96.0576 55.0949C95.9647 54.6283 95.858 54.1652 95.7377 53.7059C95.6174 53.2684 95.4834 52.7406 95.3358 52.3387C95.1881 52.0652 95.0268 51.3105 94.849 51.0043C94.674 50.7828 94.4826 50.05 94.2775 49.7082C94.0716 49.2835 93.851 48.866 93.6158 48.4559C93.3807 48.0457 93.13 47.6456 92.8639 47.2555C92.5977 46.8635 92.3161 46.4826 92.019 46.1125C91.7209 45.5383 91.4065 45.4645 91.0783 45.0352C90.7611 45.3797 90.4358 43.9797 90.0967 44.0316C89.7604 43.1813 89.4104 43.9277 89.0549 43.102C88.6967 42.3691 88.3303 43.1703 87.9612 42.2461C87.5865 41.6008 87.201 41.2316 86.81 41.4613C86.419 42.0355 86.0197 41.0129 85.6151 40.7449C85.2104 41.6445 84.7947 39.7168 84.3791 40.0969C83.9608 39.4078 83.5369 38.623 83.1076 39.5145C82.6783 38.3633 82.2463 37.9422 81.8088 38.9949C81.3713 39.416 80.9283 37.6277 80.4854 38.5383C80.0397 38.3551 79.594 37.1383 79.1428 38.1418C78.6916 37.3352 78.2404 38.9895 77.7756 37.8027C77.3217 38.2129 76.8678 37.3023 76.4084 37.5293C75.9463 38.5656 75.4815 38.7516 75.0166 37.2996C74.5518 35.2598 74.0842 36.5066 73.6166 37.1082C73.149 36.8211 72.6815 35.741 72.2111 36.9633C71.7408 37.1301 71.2733 36.9496 70.8029 36.8676C70.3326 36.7254 69.8623 37.573 69.392 36.8266C68.9217 37.0125 68.4514 36.0527 67.9811 36.8457C67.5108 37.357 67.0432 36.8785 66.5729 36.9305C66.1053 35.8367 65.635 36.9852 65.1701 37.0863C64.7299 36.6926 64.2924 36.8129 63.8549 37.2777C63.4174 37.2477 62.9799 36.1676 62.5451 37.5074C62.1104 38.366 61.6756 36.8238 61.2408 37.7809C60.8088 37.4855 60.3768 39.2957 59.9475 38.0926C59.5182 37.3324 59.0916 37.9039 58.665 38.4508C58.2385 38.8062 57.8174 39.5117 57.3963 38.8527C56.9752 39.4762 56.5596 39.8672 56.144 39.3039C55.7311 39.0305 55.3236 40.1652 54.9108 39.8043C54.5033 40.6246 54.0904 41.0703 53.6994 40.3512C53.3002 39.9574 52.9037 40.4879 52.5127 40.9527M70.5979 65.3105C70.3811 65.6874 70.1981 66.0827 70.051 66.4918C69.9006 66.8992 69.7775 67.3121 69.6518 67.7387C69.526 68.1652 69.4111 68.7996 69.2744 68.991C69.1377 68.4441 68.9873 70.3582 68.7959 70.1914C68.6045 70.0246 68.3748 71.1785 68.0877 71.2852C67.8006 71.3918 67.4233 72.9613 67.0295 72.1055C66.6357 72.5047 66.2092 72.2723 65.7717 72.4992C65.3342 73.3934 64.883 72.0152 64.4455 72.4828C64.008 72.316 63.5815 73.2184 63.1904 72.0672C62.7994 71.2469 62.4412 71.6871 62.1404 71.2469C61.867 70.4812 61.6701 70.7656 61.5143 70.3145C61.3584 69.8633 61.2408 69.5488 61.1506 69.248C61.0549 69.002 60.9783 68.0531 60.8772 68.1543C60.8772 68.4715 60.8963 68.3566 60.9182 69.0293C60.9218 69.3226 60.9548 69.6148 61.0166 69.9016C61.0576 69.866 61.1123 70.2051 61.1752 70.7656C61.2709 70.8449 61.3666 71.5312 61.4623 72.193C61.558 72.6961 61.6565 72.6277 61.7549 73.6203C61.8134 74.1026 61.9122 74.5791 62.0502 75.0449C62.1486 76.5898 62.2498 76.0922 62.3483 76.4695C62.3975 76.3055 62.4494 76.6937 62.4986 77.1094C62.5479 77.525 62.5998 77.9625 62.649 77.8941C62.5397 78.009 62.8869 78.132 62.8022 78.3398C62.7174 78.5477 63.0154 78.8457 62.9553 79.316C63.5022 79.5703 63.4311 79.893 63.1084 80.1691C63.3983 80.4426 63.4174 80.6723 63.2615 80.7406C63.3107 81.1262 62.7775 81.375 63.4174 81.5801C63.0045 81.7852 63.4858 81.9492 63.5732 82.1625C64.3006 82.4004 63.4393 82.6355 63.7291 82.8734C64.4209 83.1113 63.7647 83.3465 63.885 83.5844C64.8994 84.0574 64.2897 84.5305 64.1994 85.0062C64.3197 85.4793 64.0381 85.9523 64.5166 86.4281C64.5052 86.6652 64.5107 86.9028 64.533 87.1391C64.5651 87.3994 64.6693 87.6457 64.8338 87.85C64.8885 88.0879 65.5201 88.3231 65.6268 88.5609C65.3943 88.7988 65.9713 89.034 65.151 89.2719C65.265 89.3641 65.3496 89.4877 65.3943 89.6273C65.4354 89.7449 65.5584 89.8652 65.8154 89.9828C65.8154 90.1004 66.1354 90.2207 66.0123 90.3383C66.0123 90.4559 66.3049 90.5762 65.4654 90.6937C65.717 90.8113 66.3377 90.9316 65.7006 91.0492C65.8127 91.1668 65.8729 91.2871 65.5529 91.4047C65.2795 91.6426 65.8947 91.8777 65.7854 92.1156C66.2775 92.2332 66.0861 92.3535 66.1135 92.4711C66.2693 92.5887 66.2584 92.709 65.9959 92.8266C66.1029 92.9076 66.1742 93.0272 66.1946 93.1599C66.215 93.2926 66.183 93.428 66.1053 93.5375C66.1873 93.7262 66.9721 93.9148 66.3022 94.1063C66.8244 94.2949 66.7233 94.4836 66.3596 94.675C66.1818 94.8637 66.8436 95.0523 66.633 95.2438C66.7424 95.4324 66.4553 95.6211 66.6084 95.8125C66.2748 96.0012 66.3514 96.1898 66.6084 96.3813C66.726 96.5699 67.0459 96.7586 66.8682 96.95C67.9182 97.1387 67.333 97.3273 67.1881 97.5188C67.2219 97.5601 67.247 97.6078 67.262 97.659C67.277 97.7102 67.2816 97.764 67.2754 97.817C67.2693 97.87 67.2526 97.9213 67.2264 97.9677C67.2001 98.0142 67.1648 98.0549 67.1225 98.0875C67.4643 98.2762 67.1225 98.4648 67.3193 98.6562C67.6693 98.8449 67.2619 99.0336 67.3795 99.225H70.5678C70.1959 99.225 71.3881 99.225 71.1584 99.225C71.399 99.225 71.183 99.225 71.6315 99.225C71.5713 99.0418 71.8147 98.8613 71.6615 98.6781C71.2623 98.4949 71.1147 98.3145 71.7572 98.1312C71.7162 97.9481 72.8236 97.7676 71.8393 97.5844C72.0279 97.4012 71.533 97.2207 71.8885 97.0375C71.8147 96.8543 71.4592 96.6738 71.7053 96.4906C71.6725 96.3074 71.9486 96.127 72.0252 95.9437C72.1018 95.7606 72.3397 95.5801 71.9459 95.3969C72.0587 95.2329 72.1342 95.0462 72.1674 94.85C72.1018 94.6668 72.3861 94.4863 72.2986 94.3031C72.1045 94.1227 72.8455 93.9395 72.3178 93.7562C71.8803 93.5293 72.7006 93.3023 72.4135 93.0754C72.2275 92.8484 72.7416 92.6215 72.5119 92.3945C72.3068 92.2824 72.8674 92.1676 72.1893 92.0555C72.0225 91.9434 72.769 91.8285 72.3834 91.7164C72.3643 91.6043 72.1592 91.4894 72.3561 91.3773C72.769 91.2652 71.976 91.1504 72.717 91.0383C73.0451 90.9262 73.4088 90.8113 72.9904 90.6992C73.51 90.5871 72.5393 90.4723 72.6924 90.3602C73.2885 90.248 72.9658 90.1332 72.9658 90.0211C73.4279 89.909 73.335 89.7941 72.9303 89.682C73.0041 89.5699 73.4772 89.4551 73.3459 89.343C73.3588 89.2825 73.3563 89.2198 73.3386 89.1605C73.3209 89.1013 73.2886 89.0474 73.2447 89.0039C73.4006 88.777 73.2447 88.5527 73.16 88.3258C73.0752 88.0988 73.7068 87.8746 73.7068 87.6477C73.4526 87.4207 74.0377 87.1965 73.4033 86.9695C73.8682 86.7453 73.3131 86.5184 73.8135 86.2941C74.3139 86.0699 73.6357 85.843 73.6576 85.6188C72.4928 85.3945 73.2119 85.1676 73.5346 84.9434C73.7178 84.7191 73.9858 84.4949 73.9283 84.268C74.3166 84.0437 74.158 83.8195 74.0678 83.5953C74.415 83.3711 74.6283 83.1469 74.2127 82.9227C74.7322 82.7941 73.5154 82.6492 74.2893 82.477C74.3494 82.3184 74.8361 82.1543 74.3658 82.0094C74.549 81.3367 74.5162 80.932 74.4424 80.8418C74.5873 80.7516 74.2947 80.9731 74.5162 81.5555C74.7705 80.7816 74.6311 80.623 74.59 80.5957C74.1881 80.5684 74.3686 80.675 74.6639 80.4289C74.8334 80.0488 74.8061 79.9258 74.7377 79.9258C74.5053 79.9258 74.7377 80.057 74.8088 80.1992C75.1725 79.718 75.4022 79.9531 74.951 79.852C74.9893 80.0734 75.1123 79.8902 75.0221 79.6141C74.7486 79.3406 75.126 78.9715 75.0932 78.832C74.8361 78.7855 74.9619 78.3945 75.1615 78.0992C75.3092 77.8039 75.219 77.6098 75.2299 77.9543C74.9346 77.659 75.3229 77.1668 75.3666 77.4594C75.9135 77.7711 75.2299 77.4867 75.5033 77.1312C75.5252 77.2215 75.5854 77.3418 75.5717 77.2461C75.618 76.8614 75.6409 76.4742 75.64 76.0867C75.6838 75.9883 75.7303 74.6703 75.774 75.168C75.8178 75.2992 75.8615 74.1043 75.908 74.7141C75.9518 74.4242 75.9955 74.9684 76.0393 74.2684C76.083 73.943 76.1268 73.6504 76.1705 73.3414C76.0338 73.716 75.8971 73.8609 75.7549 73.8664C75.6127 73.8719 75.4815 73.7379 75.3338 73.5602C75.0604 72.8793 74.765 74.1836 74.4779 73.6859C74.2045 73.3633 73.9037 73.6668 73.6166 73.6203C73.2201 72.9859 72.84 72.8 72.4873 73.243C72.149 73.0349 71.828 72.7999 71.5275 72.5402C71.2541 71.4 70.9998 71.5148 70.8029 71.5941C70.6088 71.3945 70.4639 71.5941 70.3791 70.484C70.2934 70.0926 70.2731 69.6898 70.319 69.2918C70.3572 68.9773 70.401 68.1023 70.442 68.3074C70.483 68.0012 70.5213 69.0293 70.5514 67.323C70.5815 66.9949 70.6006 66.6641 70.6061 66.3359C70.6114 66.0055 70.5977 65.675 70.565 65.3461M56.0729 107.363C56.0729 107.636 56.0483 108.016 56.0346 108.432C56.0209 108.749 56.0045 108.486 55.9881 109.501C55.9717 110.018 55.9498 109.955 55.9279 110.567C55.9061 110.663 55.8815 111.661 55.8541 111.634C56.3545 112.571 56.8549 111.776 57.3553 111.634C57.8557 111.174 58.3561 111.114 58.8565 111.634C59.3568 111.182 59.8572 111.284 60.3576 111.634C60.858 111.207 61.3584 112.413 61.8588 111.634C62.0915 111.751 62.3486 111.813 62.6094 111.813C62.8702 111.813 63.1273 111.751 63.36 111.634C63.8604 111.404 64.3608 111.275 64.8611 111.634C65.3615 111.221 65.8619 111.043 66.3623 111.634C66.8627 111.308 67.3631 111.524 67.8635 111.634C68.3639 111.888 68.8643 113.138 69.3647 111.634C69.8651 111.434 70.3654 110.097 70.8658 111.634C71.3662 110.813 71.8666 110.556 72.367 111.634C72.8662 111.585 73.3689 111.585 73.8682 111.634C74.3686 112 74.869 111.245 75.3693 111.634C75.8597 111.496 76.3778 111.491 76.8705 111.62C77.3709 113.039 77.8713 109.807 78.3717 111.606C78.8721 111.948 79.3725 112.175 79.8729 111.593C80.3733 112.224 80.8736 111.128 81.374 111.576C81.4096 110.756 81.4315 109.963 81.4451 110.543C81.4588 110.887 81.467 109.974 81.4697 109.509C81.4697 108.536 81.4697 108.142 81.4697 108.475C81.4697 108.202 81.4697 108.161 81.4697 107.442C80.9721 107.901 80.4744 106.991 79.9768 107.442C79.4791 106.895 78.9815 107.524 78.4838 107.442C77.9862 108.612 77.4885 106.936 76.9908 107.442C76.4932 107.291 75.9955 107.551 75.4979 107.442C75.0002 106.258 74.5025 107.464 74.0049 107.442C73.511 107.529 73.0058 107.529 72.5119 107.442C72.0143 106.895 71.5166 105.927 71.019 107.442C70.5213 106.173 70.0236 108.218 69.526 107.442C69.0283 108.046 68.5307 107.622 68.033 107.442C67.5354 108.891 67.0377 108.049 66.5401 107.442C66.0424 106.835 65.5447 107.611 65.0471 107.442C64.5494 107.428 64.0518 106.873 63.5541 107.442C63.0565 106.537 62.5588 107.546 62.0611 107.442C61.5635 107.338 61.0658 107.907 60.5682 107.442C60.0705 107.937 59.5729 107.152 59.0752 107.442C58.5775 107.732 58.0799 107.579 57.5822 107.442C57.0846 107.089 56.5869 107.338 56.0893 107.442M56.7045 117.969C56.5186 117.458 56.3053 117.466 56.1084 118.024C55.9115 118.163 55.7338 117.543 55.6108 118.316C55.577 118.622 55.5588 118.928 55.5561 119.235C55.5561 118.94 55.5561 119.558 55.5561 120.154C56.0346 120.113 56.5131 120.501 56.9889 120.154C57.4674 120.755 57.9459 119.681 58.4217 120.154C58.9002 119.53 59.3787 120.892 59.8545 120.154C60.333 121.409 60.8115 120.094 61.2873 120.154C61.7658 119.88 62.2443 119.995 62.7201 120.154C62.958 119.744 63.1986 119.815 63.4365 119.952C63.6744 120.088 63.9151 120.999 64.1529 120.154C64.3908 120.195 64.6315 119.88 64.8693 119.963C65.1072 120.077 65.3479 119.454 65.5858 120.154C65.8236 119.924 66.0643 120.662 66.3022 120.099C66.5401 120.271 66.7807 121.021 67.0186 120.154C67.2565 119.88 67.4971 119.79 67.735 120.154C67.9729 119.588 68.2135 120.22 68.4514 120.154C68.6893 119.432 68.9299 119.358 69.1678 119.503C69.4057 119.648 69.6463 120.075 69.8842 120.154C70.1221 120.233 70.3627 120.088 70.6006 120.288C70.8432 120.267 71.0832 120.222 71.317 120.154C71.7934 120.106 72.2734 120.106 72.7498 120.154C72.9877 120.154 73.2283 120.345 73.4662 120.449C73.7041 120.553 73.9447 120.559 74.1826 120.154C74.4205 120.654 74.6611 120.673 74.899 120.838C75.1369 120.695 75.3775 120.326 75.6154 120.154C76.094 119.112 76.5725 120.641 77.0483 120.154C77.5268 118.743 78.0053 119.06 78.4811 120.154C78.9596 120.851 79.4381 120.168 79.9139 120.154C80.3924 120.285 80.8709 120.14 81.3467 120.154C81.3467 119.118 81.3467 118.472 81.3139 119.361C81.2947 118.798 81.2674 117.849 81.2291 118.571C81.1936 118.524 81.1471 116.968 81.0924 117.789C80.6139 118.177 80.1354 118.527 79.6568 117.789C79.1783 118.1 78.6998 116.938 78.2213 117.789C77.7428 117.906 77.2643 117.141 76.7858 117.789C76.3072 117.272 75.8287 118.029 75.3502 117.789C74.8717 116.586 74.3932 118.735 73.9147 117.789C73.4361 117.488 72.9576 117.641 72.4791 117.789C72.0006 117.936 71.5221 117.671 71.0436 117.789C70.565 118.554 70.0865 117.904 69.608 117.789C69.1295 118.336 68.651 118.027 68.1725 117.789C67.694 118.289 67.2154 118.095 66.7369 117.789C66.2584 117.348 65.7799 118.062 65.3014 117.789C64.8229 117.808 64.3443 117.578 63.8658 117.789C63.3873 117.731 62.9088 117.879 62.4303 117.789C61.9518 117.698 61.4733 118.158 60.9947 117.789C60.5162 117.679 60.0377 117.496 59.5592 117.789C59.0807 117.663 58.6022 117.811 58.1236 117.789C57.6451 118.513 57.1666 117.433 56.6881 117.789M63.4365 127.086C63.565 127.632 63.6936 128.42 63.8221 127.977C63.9506 128.505 64.0818 127.351 64.2104 128.868C64.3389 128.97 64.4674 129.194 64.5932 129.762C64.719 129.839 64.842 130.616 64.9623 130.662C65.3615 131.934 65.7662 130.936 66.1682 130.854C66.5729 131.061 66.9885 131.846 67.3822 130.955C67.7869 130.873 68.2025 131.288 68.6018 130.977C69.0092 131.852 69.4221 131.723 69.8213 130.933C70.2287 131.972 70.6416 130.845 71.0408 130.834C71.4455 131.381 71.8611 130.936 72.2549 130.695C72.6596 129.224 73.0615 130.036 73.4608 130.525C73.5947 129.776 73.7342 129.946 73.8545 129.382C73.983 129.557 74.1115 129.164 74.2346 128.234C74.3576 127.482 74.4807 126.459 74.601 127.083C74.1361 128.177 73.6713 127.069 73.2065 127.083C72.7416 128.136 72.2768 125.85 71.8119 127.083C71.3471 126.068 70.8822 128.007 70.4174 127.083C69.9525 127.127 69.4877 127.315 69.0229 127.083C68.558 126.263 68.0932 127.95 67.6283 127.083C67.1635 126.64 66.6986 127.95 66.2338 127.083C65.769 127.121 65.3041 128.212 64.8393 127.083C64.451 126.905 63.9807 127.512 63.5186 127.083L63.4365 127.086Z" fill="black"/>
<path d="M115.387 58.677C115.731 57.9141 116.071 58.6004 116.404 58.573C116.74 58.1301 117.071 58.223 117.405 58.7781C117.707 58.9592 118.047 59.0704 118.397 59.1035C118.728 58.491 119.059 58.8301 119.396 59.3578C119.715 59.5766 120.038 59.8281 120.361 59.5711C120.683 59.3141 121.006 59.6395 121.331 59.727C121.657 59.8144 121.979 59.6094 122.305 59.8309C122.619 59.9438 122.958 59.9647 123.284 59.891C123.503 59.891 123.719 59.9238 123.937 59.9375C124.155 59.9548 124.375 59.9475 124.591 59.9156C125.028 60.2492 125.463 59.6039 125.901 59.891C126.338 60.0961 126.776 60.807 127.213 59.8336C127.651 60.6922 128.088 59.6039 128.526 59.7625C128.963 59.4699 129.401 59.9402 129.835 59.6941C130.273 59.3687 130.708 59.6941 131.142 59.6449C131.52 60.0961 131.892 58.9449 132.236 59.8445C132.572 60.3477 132.876 59.8172 133.111 60.5145C133.33 60.814 133.494 61.1501 133.595 61.507C133.691 62.7129 133.677 62.0156 133.573 62.7156C133.469 63.4156 133.27 62.7512 132.996 63.7738C132.723 64.1949 132.376 65.718 131.971 64.4055C131.613 64.4328 131.249 64.2824 130.877 64.5668C130.513 65.6277 130.15 63.7875 129.783 64.6488C129.417 65.759 129.053 64.2195 128.69 64.7063C128.323 65.4254 127.96 64.8156 127.596 64.7883C127.139 65.1383 126.683 65.3543 126.229 64.8867C125.772 65.707 125.313 65.1027 124.862 64.9195C124.405 65.3461 123.946 64.9879 123.494 64.8895C123.038 64.6871 122.581 64.8375 122.127 64.7938C121.673 64.75 121.217 64.698 120.76 64.6324C120.306 64.2988 119.855 64.4547 119.406 64.4027C118.958 64.3508 118.51 64.7719 118.067 64.1074C117.624 64.2059 117.181 63.9789 116.743 63.741C116.507 63.7897 116.262 63.7751 116.034 63.6988C115.805 63.6224 115.601 63.487 115.442 63.3063C115.168 63.4047 114.936 62.9727 114.72 62.9043C114.504 63.1777 114.318 62.3574 114.173 62.2863C114.025 62.4367 113.919 61.343 113.858 61.5234C113.763 61.0887 113.779 59.9949 113.886 60.3668C113.992 60.2164 114.189 59.7133 114.449 59.3496C114.695 58.7016 115.021 58.5895 115.387 58.677Z" fill="black"/>
<path d="M8.48926 61.693C8.9295 61.641 9.36973 61.9391 9.80997 61.6492C10.012 61.7642 10.2413 61.8226 10.4737 61.8182C10.7061 61.8139 10.9331 61.747 11.1307 61.6246C11.5709 61.7312 12.0111 61.5918 12.4541 61.6246C12.8971 61.6574 13.3346 62.0785 13.7775 61.6246H15.101C15.5412 61.6246 15.9842 62.1496 16.4244 61.6246C16.8647 61.0203 17.3076 61.816 17.7479 61.6246C18.1881 61.3266 18.6283 61.4168 19.0713 61.6246C19.1529 61.5301 19.2538 61.454 19.3671 61.4014C19.4804 61.3488 19.6036 61.3209 19.7286 61.3197C19.8535 61.3184 19.9772 61.3437 20.0916 61.3939C20.206 61.4441 20.3084 61.5181 20.392 61.6109C20.7338 61.6684 21.0975 61.5672 21.4584 61.6109C21.8193 61.9527 22.1803 61.6738 22.5139 61.7559C22.8475 62.4914 23.1537 61.4824 23.408 62.3027C23.6815 62.177 23.8811 63.123 24.0068 63.1613C24.1326 63.9488 24.1846 63.6727 24.1682 64.1922C24.149 64.2195 24.0615 65.0891 23.8947 65.2039C23.7361 65.7234 23.5119 66.0242 23.2193 66.0023C23.0088 66.3113 22.7709 66.016 22.5193 66.3742C22.2678 66.2074 21.9998 65.4309 21.7318 66.4973C21.4584 66.8008 21.185 66.1609 20.9307 66.4973C20.485 66.0488 20.0393 66.6066 19.5936 66.4973C19.1479 66.243 18.7022 66.4672 18.2565 66.4973C17.8107 66.7707 17.365 66.4289 16.9193 66.4973C16.4736 67.2301 16.0279 66.4645 15.5822 66.4973H14.2451C13.7994 66.2238 13.3537 66.4508 12.908 66.4973C12.4623 66.273 12.0166 65.9504 11.5709 66.4973C11.3794 66.6452 11.1443 66.7254 10.9024 66.7254C10.6604 66.7254 10.4253 66.6452 10.2338 66.4973C9.78809 66.1773 9.34239 66.4973 8.89669 66.4973C8.54669 66.7461 8.21583 66.7707 7.91505 66.2621C7.61426 66.0871 7.34903 65.4227 7.13301 65.625C6.917 65.6469 6.75294 65.4254 6.65723 64.7309C6.56153 64.6844 6.53419 64.0199 6.59434 63.7246C6.67984 63.4066 6.79236 63.0965 6.93067 62.7977C7.1002 62.1305 7.32442 62.2016 7.58966 62.073C7.85216 62.3902 8.15567 61.9227 8.48926 61.693Z" fill="black"/>
<path d="M107.121 91.3992C107.394 92.0391 107.668 90.9836 107.941 91.309C108.215 91.8559 108.488 91.0766 108.745 91.5059C108.999 91.5059 109.237 91.9734 109.445 91.9488C109.776 92.0582 110.11 92.6543 110.443 92.9086C110.78 92.5695 111.116 93.1602 111.458 93.8547C111.799 94.8117 112.141 94.582 112.488 94.7844C112.836 95.2328 113.186 96.1898 113.538 95.6895C113.891 95.0523 114.249 96.5098 114.613 96.5672C114.974 97.2727 115.34 97.4094 115.707 97.4121C116.079 96.9418 116.453 98.0766 116.836 98.216C117.216 97.7102 117.604 98.175 117.996 98.9762C118.296 99.6324 118.622 98.7027 118.953 99.4848C119.283 100.136 119.617 100.929 119.942 99.9332C120.265 100.546 120.577 100.081 120.861 100.499C121.17 101.046 121.372 100.95 121.479 101.546C121.583 102.38 121.591 103.734 121.506 102.758C121.424 102.859 121.252 102.462 121.001 103.852C120.751 104.183 120.408 104.431 120.016 104.565C119.672 104.956 119.327 104.483 118.988 104.716C118.649 104.863 118.313 104.932 117.985 104.491C117.656 104.765 117.334 104.218 117.019 104.054C116.705 102.96 116.399 104.546 116.101 103.567C115.685 102.919 115.28 103.592 114.867 102.81C114.463 102.323 114.061 102.413 113.664 102.006C113.268 100.223 112.877 102.402 112.491 101.161C112.106 100.677 111.723 100.207 111.346 100.278C110.955 99.9933 110.582 99.6866 110.227 99.359C109.858 99.884 109.494 98.7902 109.133 98.4102C108.772 97.1305 108.417 97.7047 108.062 97.4367C107.709 97.0238 107.359 96.5809 107.012 96.4414C106.664 96.2254 106.322 95.4078 105.983 95.4269C105.658 95.6676 105.461 95.0195 105.376 94.3332C105.289 93.8684 105.313 93.8109 105.431 93.1C105.549 93.1984 105.759 92.2797 106.046 92.0063C106.336 91.7191 106.7 91.2324 107.121 91.3992Z" fill="black"/>
<path d="M30.6213 96.6766C30.9686 96.1762 31.3432 96.6766 31.715 96.4961C32.0842 95.5363 32.4479 95.9848 32.7733 96.7941C33.0986 96.3676 33.3803 97.6445 33.5936 97.5324C33.7959 97.5816 33.9244 98.741 33.9873 98.4457C34.0502 99.1676 34.0475 98.6152 33.9873 99.4437C33.9217 100.127 33.7904 99.5996 33.6018 100.36C33.4131 100.466 33.1643 100.934 32.8608 101.019C32.4205 101.41 31.9803 102.082 31.54 101.546C31.0998 101.691 30.6623 102.446 30.2221 102.093C29.7846 101.896 29.3471 101.486 28.9096 102.64C28.4721 102.009 28.0346 103.231 27.5998 103.187C27.1623 103.225 26.7275 103.778 26.2928 103.734C25.858 103.816 25.4205 104.281 24.9857 104.297C24.551 104.215 24.1162 104.65 23.6815 104.866C23.2467 105.022 22.8119 106.318 22.3799 105.437C21.9451 106.479 21.5131 105.093 21.0783 106.012C20.6436 105.552 20.2115 106.425 19.7768 106.586C19.342 106.504 18.91 106.586 18.4779 107.163C18.343 107.286 18.1777 107.372 17.999 107.41C17.8202 107.448 17.6345 107.439 17.4607 107.382C17.1162 108.057 16.7717 107.234 16.46 107.144C16.1455 106.799 15.8639 106.553 15.6397 106.529C15.4127 106.088 15.2404 106.2 15.1502 105.612C15.029 105.218 15.0177 104.799 15.1174 104.398C15.2104 103.852 15.3908 103.797 15.6643 103.321C15.9377 102.791 16.2686 103.48 16.6596 102.624C17.0807 101.847 17.5018 101.752 17.9229 102.077C18.344 101.938 18.765 101.371 19.1861 101.516C19.6072 100.33 20.0283 100.696 20.4494 100.956C20.8705 100.715 21.2916 100.357 21.7127 100.409C22.1338 100.887 22.5549 100.836 22.9787 99.8621C23.3998 99.6543 23.8236 98.9816 24.2475 99.3152C24.6713 98.9434 25.0951 98.2871 25.5189 98.7683C25.9428 98.4019 26.3666 98.607 26.7932 98.2215C27.2197 97.8359 27.6436 98.2598 28.0729 97.6992C28.4994 97.8934 28.9287 97.1059 29.358 97.1906C29.7682 97.0539 30.1975 96.7559 30.6213 96.6766Z" fill="black"/>
</svg>
