<svg width="140" height="140" viewBox="0 0 140 140" fill="none" xmlns="http://www.w3.org/2000/svg">
<path d="M63.0431 0.480209C63.6057 0.172829 64.1683 0.766073 64.7309 0.329593C65.2935 -0.208323 65.8561 0.261969 66.4218 0.22201C66.9844 0.046803 67.5501 -0.143773 68.1158 0.160534C68.6796 0.120969 69.2452 0.114811 69.8098 0.142091C72.069 0.14707 74.3265 0.268133 76.5733 0.5048C77.1349 0.564227 77.6955 0.630826 78.255 0.704597C78.8146 1.19026 79.3741 0.633899 79.9305 0.947427C80.487 0.541685 81.0435 1.0796 81.5999 1.23022C82.1564 1.56526 82.7098 1.74354 83.2632 1.55604C83.8166 1.86342 84.3669 2.42285 84.9172 1.9249C85.4675 2.19232 86.0147 1.18718 86.5589 2.33679C87.1061 2.33679 87.6503 3.10831 88.1914 2.78864C88.7325 2.81323 89.2735 2.46281 89.8116 3.28352C90.3496 2.81937 90.8845 3.43106 91.4164 3.81836C91.9493 4.35115 92.4801 4.54378 93.0089 4.39623C93.5377 4.78661 94.0634 4.47923 94.586 5.011C95.1087 5.87166 95.6283 5.79789 96.1448 5.67186C96.6612 7.20877 97.1747 6.19748 97.6819 6.37269C98.1923 6.49564 98.6995 7.27024 99.2191 7.11348C99.7233 7.16881 100.224 8.0725 100.722 7.89422C101.208 8.61042 101.691 9.47416 102.171 8.68726C102.65 9.22211 103.127 9.60941 103.597 9.51719C104.07 10.4393 104.538 9.82457 105.002 10.3809C105.466 10.9373 105.924 11.2201 106.385 11.2816C106.847 11.343 107.308 12.2498 107.744 12.2037C108.193 11.6166 108.639 14.4998 109.082 13.1719C109.524 14.0941 109.961 12.4588 110.394 14.174C110.828 13.8359 111.255 15.3236 111.683 15.2068C112.107 14.6381 112.528 15.5757 112.943 16.2703C113.358 18.1423 113.77 16.9281 114.173 17.3646C114.579 19.4517 114.981 17.9947 115.381 18.4896C115.778 18.1208 116.171 20.9487 116.562 19.6454C116.949 18.7048 117.333 21.8155 117.711 20.8288C118.09 23.3216 118.465 21.5665 118.834 22.0399C119.202 21.1177 119.565 23.9702 119.925 23.2694C120.285 24.1423 120.638 24.9292 120.986 24.5327C121.333 26.0235 121.677 25.0983 122.016 25.8237C122.354 24.9016 122.686 27.2746 123.012 27.1393C123.356 27.569 123.679 28.0163 123.977 28.4795C124.284 28.3319 124.592 29.3033 124.899 29.8412C125.207 31.0307 125.514 29.6936 125.797 31.2275C126.119 31.6742 126.407 32.1449 126.658 32.6353C126.938 34.5871 127.214 33.5881 127.485 34.0646C127.755 35.8628 128.017 34.0646 128.275 35.5123C128.533 35.9058 128.782 35.9642 129.028 36.9816C129.274 36.6742 129.511 36.4314 129.741 38.4693C129.972 40.0339 130.199 39.0226 130.418 39.9755C130.463 40.2892 130.579 40.5886 130.756 40.8515C130.916 41.0597 131.028 41.3014 131.082 41.5585C131.469 42.0196 131.189 42.4807 131.389 42.8157C131.485 43.1231 131.023 43.3075 131.697 43.1538C131.601 43.3075 131.528 43.6241 132.004 43.9438C131.525 44.2512 131.614 44.5924 132.287 44.7645C132.524 45.1702 132.308 45.4899 132.561 45.7543C132.222 46.0186 132.837 46.2215 132.822 46.3905C132.822 46.6979 132.727 46.9869 133.074 47.2512C133.221 47.4837 133.304 47.751 133.314 48.0258C132.807 48.1272 134.082 48.2471 133.544 48.4869C133.388 48.7266 133.529 49.1016 133.763 49.6764C134.522 49.6365 134.436 49.9684 133.972 50.3527C133.873 50.7369 134.245 51.1703 134.168 51.3363C134.236 51.3978 133.803 51.7881 134.356 52.1785C133.889 52.5689 135.232 52.9562 134.531 53.0054C133.8 53.1591 135.497 53.5248 134.697 53.8783C135.128 54.2318 133.624 54.573 134.851 54.6806C134.851 54.988 136.431 55.2277 134.995 55.4859C135.656 55.7441 135.61 56.0146 135.128 56.365C134.531 56.6478 134.488 56.9275 135.251 57.2103C134.909 57.4931 134.75 57.7728 135.364 58.0556C136.198 58.5905 135.269 59.1253 135.549 59.6632C135.444 60.2011 137.234 60.736 135.696 61.2739C135.423 61.8118 136.585 62.3497 135.807 62.8876C133.962 63.4256 137.744 63.9665 135.881 64.5045C135.205 65.0424 135.727 65.5834 135.915 66.1244C136.483 66.6653 134.685 67.2033 135.915 67.7442C134.962 68.2852 135.097 68.8232 135.875 69.3641C135.841 69.9051 135.072 70.443 135.801 70.984C136.791 71.5219 135.435 72.0629 135.69 72.6009C135.66 73.1388 135.457 73.6767 135.543 74.2146C135.629 74.7525 135.958 75.2874 135.358 75.8253C135.463 76.3699 135.385 76.9339 135.137 77.4298C135.564 77.9646 134.808 78.4964 134.882 79.0312C135.942 79.563 134.307 80.0948 134.59 80.6266C133.594 81.1583 133.713 81.687 134.264 82.2157C134.756 82.7444 134.479 83.27 133.901 83.7956C132.404 84.3213 133.062 84.8438 133.504 85.3664C131.174 85.8889 133.123 86.4084 133.071 86.9279C132.742 87.4473 131.758 87.9637 132.604 88.4648C132.822 88.7353 133.612 89.0457 132.342 89.3377C133.265 89.6267 133.879 89.8971 132.072 90.0908C131.832 90.5181 133.206 90.9422 131.792 91.2496C131.647 91.557 131.727 91.7445 131.503 91.7015C130.037 92.4207 131.328 92.9802 131.196 93.2783C130.747 93.5857 131.475 93.6165 130.888 93.2999C132.93 93.5857 132.066 93.7087 130.581 93.8962C130.412 94.0837 129.744 94.3388 130.252 94.8798C131.328 95.3286 128.549 95.4177 129.914 95.5468C129.997 95.6759 130.221 95.8542 129.566 96.4444C129.701 96.6472 128.902 97.0253 129.21 97.3665C128.804 97.6985 128.499 97.9812 128.844 98.0028C128.149 98.7343 130.104 98.7712 128.469 98.7989C127.765 98.8266 129.206 98.8419 128.084 99.5335C127.645 99.2016 127.162 99.7333 127.691 100.268C125.914 100.806 127.426 101.35 127.288 101.043C126.673 101.261 127.31 101.098 126.876 101.147C127.134 101.196 126.716 101.455 126.455 102.53C125.588 103.053 126.891 103.486 126.024 103.76C125.846 104.031 126.246 104.135 125.585 104.003C125.437 104.618 125.277 104.79 125.136 104.91C124.926 105.031 124.765 105.221 124.678 105.448C124.37 105.487 124.063 106.419 123.731 106.871C123.424 106.742 123.082 108.761 122.747 108.269C122.412 106.732 122.074 108.829 121.727 109.64C121.382 107.839 121.029 109.837 120.672 110.987C120.315 112.702 119.95 113.369 119.581 112.305C119.212 111.69 118.834 112.511 118.452 113.593C118.071 114.269 117.684 112.176 117.29 114.853C116.937 114.694 116.577 115.182 116.217 115.969C115.854 116.455 115.489 117.254 115.117 117.057C114.745 117.423 114.37 118.806 113.988 118.118C113.607 120.094 113.223 119.483 112.835 119.151C112.448 118.96 112.055 118.668 111.658 120.156C111.261 119.375 110.862 122.055 110.456 121.133C110.05 120.475 109.641 121.717 109.226 122.08C108.814 122.313 108.396 123.684 107.978 123.002C107.557 124.376 107.136 123.77 106.708 123.887C106.281 125.258 105.851 124.61 105.417 124.739C104.984 125.006 104.544 125.661 104.104 125.559C103.665 124.892 103.219 124.164 102.77 126.346C102.321 126.263 101.872 127.514 101.417 127.099C101.891 126.651 102.361 127.527 102.835 126.915C103.308 127.797 103.781 125.609 104.255 126.743C104.728 125.187 105.202 127.004 105.675 126.583C106.149 128.12 106.622 127.969 107.096 126.435C107.569 125.298 108.043 125.184 108.519 126.3C108.993 125.218 109.469 126.19 109.942 126.177C110.416 126.165 110.892 125.535 111.366 126.067C111.839 125.941 112.316 127.751 112.792 125.968C113.063 127.591 113.337 126.174 113.607 125.916C113.878 127.146 114.151 126.86 114.422 125.867C114.692 123.896 114.966 125.845 115.237 125.968C115.507 126.011 115.781 125.483 116.051 125.778C116.322 126.678 116.595 124.656 116.866 126.051C117.136 125.778 117.41 126.245 117.681 125.704C117.951 126.134 118.225 125.452 118.495 125.569C118.766 126.663 119.04 125.698 119.31 125.642C119.581 124.702 119.854 125.314 120.125 125.673C120.398 125.298 120.669 126.06 120.943 125.59C121.216 124.361 121.487 125.959 121.76 125.858C122.034 125.953 122.304 125.483 122.578 125.55C122.852 125.858 123.122 126.125 123.396 125.55C123.67 125.347 123.94 125.138 124.214 125.516C124.758 125.679 125.302 126.709 125.846 125.498C126.39 125.805 126.934 123.746 127.479 125.498C128.023 126.057 128.567 126.036 129.111 125.498C129.655 125.559 130.199 125.191 130.744 125.498C131.288 125.959 131.832 127.65 132.376 125.516C132.92 126.688 133.464 125.658 134.009 125.541C134.553 126.239 135.097 127.078 135.641 125.572C136.028 125.649 136.428 127.059 136.816 125.71C137.203 126.309 137.578 125.227 137.913 126.14C138.248 127.201 138.546 126.469 138.78 126.936C139.014 127.404 139.124 127.219 139.17 127.951C139.217 129.681 139.17 125.842 139.097 129.039C139.008 128.756 138.863 130.576 138.682 130.053C138.469 132.036 138.214 131.341 137.928 131.034C137.643 130.997 137.314 133.957 136.978 131.821C136.637 129.094 136.271 129.562 135.893 132.436C135.515 133.05 135.125 130.407 134.734 132.863C134.205 132.288 133.674 131.686 133.145 133.262C132.613 132.168 132.084 132.233 131.552 133.656C131.02 135.669 130.488 133.902 129.957 134.04C129.425 132.423 128.89 134.261 128.358 134.412C127.823 134.63 127.291 133.561 126.756 134.775C126.221 132.863 125.686 132.549 125.151 135.125C124.616 136.296 124.081 133.53 123.543 135.463C123.009 135.417 122.471 136.619 121.933 135.789C121.394 135.039 120.856 136.096 120.322 136.096C119.784 136.754 119.246 134.913 118.707 136.404C118.169 134.649 117.628 136.647 117.09 136.69C116.552 137.4 116.011 136.167 115.47 136.96C114.929 135.97 114.388 137.178 113.847 137.215C113.306 138.642 112.765 139.348 112.224 137.455C111.683 137.901 111.138 138.027 110.597 137.679C110.056 137.043 109.512 136.96 108.968 137.885C108.424 138.263 107.883 137.701 107.339 138.076C106.794 138.383 106.25 138.571 105.706 138.248C105.162 140.443 104.618 138.368 104.07 138.402C103.526 136.932 102.979 139.665 102.435 138.534C101.888 140.965 101.343 139.917 100.796 138.648C100.249 138.414 99.7049 138.811 99.1576 138.74C98.6104 138.903 98.0631 138.482 97.5159 138.811C96.9687 138.328 96.4214 137.888 95.8742 138.86C95.3516 139.53 94.8258 138.583 94.3032 138.894C93.7806 137.434 93.2548 138.989 92.7322 138.915C92.2096 138.937 91.6839 139.063 91.1612 138.915C90.6386 137.652 90.1128 137.461 89.5902 138.915C89.0676 138.042 88.5419 139.868 88.0192 138.897C87.4966 138.998 86.9708 140.016 86.4482 138.866C85.9256 138.685 85.3998 139.674 84.8772 138.826C84.3546 137.978 83.8288 138.559 83.3062 138.777C82.7923 138.648 82.2572 138.628 81.7352 138.718C81.2126 137.289 80.6869 138.823 80.1642 138.651C79.6416 136.865 79.1158 139.493 78.5932 138.574C78.0706 138.635 77.5448 137.928 77.0222 138.491C76.4996 138.267 75.9769 137.188 75.4512 138.402C74.9286 138.383 74.4059 139.152 73.8833 138.306C73.3606 138.921 72.838 138.223 72.3154 138.208C71.7712 138.761 71.227 137.882 70.6859 138.058C70.1418 136.567 69.6007 138.094 69.0565 137.882C68.5154 137.91 67.9713 138.058 67.4302 137.683C66.8891 139.023 66.348 136.779 65.8069 137.458C65.2658 137.839 64.7278 137.809 64.1867 137.209C63.6487 138.368 63.1107 137.824 62.5727 136.936C62.0347 137.741 61.4997 137.455 60.9617 136.628C60.4268 136.229 59.8919 135.629 59.3569 136.321C58.822 136.797 58.2901 135.66 57.7552 135.973C57.2233 136.484 56.6914 134.744 56.1596 135.602C55.6277 135.857 55.0989 134.962 54.5701 135.205C54.0413 135.448 53.5156 134.32 52.9868 134.781C52.4611 133.803 51.9354 134.249 51.4128 134.332C50.9147 133.945 50.4167 133.96 49.9217 133.868C49.4236 133.693 48.9287 133.269 48.4337 133.376C47.9387 133.133 47.4468 133.302 46.9549 132.857C46.463 133.164 45.9742 133.026 45.4885 132.303C45.0027 131.689 44.517 132.629 44.0343 131.716C43.5516 131.808 43.0751 130.425 42.5986 131.101C42.122 131.148 41.6517 131.559 41.1813 130.434C40.714 129.703 40.259 129.952 39.7886 129.721C39.3274 129.389 38.8663 129.294 38.4205 128.962C37.9686 128.04 37.5228 128.544 37.0832 128.154C36.9329 127.931 36.7401 127.741 36.5159 127.593C36.2916 127.445 36.0404 127.343 35.7766 127.293C35.3461 125.99 34.9219 126.309 34.5038 126.371C34.018 125.516 33.5353 125.212 33.0557 125.476C32.5761 124.975 32.1027 125.698 31.6323 124.554C31.1619 124.056 30.71 124.05 30.2335 123.586C29.9415 123.54 29.6646 123.425 29.4258 123.25C29.1869 123.076 28.9927 122.848 28.8592 122.584C28.4063 122.244 27.9564 121.899 27.5096 121.548C25.4067 119.888 23.4019 118.107 21.5054 116.215C21.1262 115.836 20.7511 115.454 20.3801 115.069C19.5408 114.681 19.2672 114.291 19.2826 113.894C18.2404 113.498 19.1627 113.098 18.2096 112.696C17.2566 112.293 16.7493 111.884 17.1644 111.466C16.5126 111.054 17.2658 110.639 16.1498 110.221C15.6856 109.803 15.0769 109.379 15.1629 108.952C14.711 108.524 14.5727 108.094 14.2037 107.661C13.6965 107.227 13.8779 106.791 13.2814 106.348C14.0131 105.909 12.1316 105.463 12.3837 105.014C11.2278 104.565 14.0377 104.117 11.5168 103.662C11.367 103.129 11.0645 102.653 10.6467 102.291C10.2964 101.88 10.0235 101.409 9.84122 100.901C9.69365 100.434 9.04804 99.9792 9.06648 99.4936C9.26324 99.2446 9.11875 99.014 8.66989 98.7712C9.19561 98.5315 8.31941 98.2763 8.28252 97.9813C7.7814 97.7507 9.37392 97.4095 7.90437 97.1083C6.67463 96.8009 8.37168 96.5366 7.53545 96.4536C7.434 95.5622 6.73611 95.5622 7.17575 95.5898C7.46166 95.6206 7.17575 95.679 6.82527 94.9075C5.88144 94.9812 6.02286 94.7661 6.48402 94.4433C7.30487 94.1359 5.3711 93.6933 6.15506 93.3429C5.56171 93.7794 5.77691 92.9894 5.84762 92.2855C4.70396 91.5847 5.74002 90.9699 5.54019 91.7629C4.74085 91.2404 5.06059 91.2373 5.23275 91.1666C5.32806 91.0959 5.3834 90.9607 4.94069 90.1676C4.96836 89.1687 4.92224 89.2455 4.66092 89.35C4.71933 89.4422 4.56562 89.5406 4.39038 88.56C5.26042 88.1789 3.66175 87.558 4.12906 87.143C4.23666 86.725 3.87081 86.5129 3.88003 86.9371C4.20899 86.5283 2.36437 86.4268 3.64023 86.2731C3.54185 86.1195 2.75482 85.9135 3.40965 85.3018C2.21373 84.936 2.81938 84.5088 3.19137 84.1829C2.22295 83.8571 2.45045 83.6266 2.98232 83.6543C2.34285 83.3776 2.57035 83.104 2.78556 82.8274C3.23749 82.5508 2.80708 82.2741 2.59802 81.9975C2.93005 81.7208 2.9608 81.4565 2.41049 81.1491C2.34592 80.8725 2.90853 80.5928 2.24447 80.313C1.79561 79.8427 2.00467 79.3725 1.98622 78.9022C2.81938 78.4319 1.26682 77.9585 1.7618 77.4851C1.42362 77.0271 2.65336 76.5384 1.57119 76.0773C0.713438 75.6163 0.470563 75.1275 1.42362 74.6511C0.501307 74.1746 1.95548 73.6982 1.30064 73.2218C1.45436 72.7453 2.16761 72.2689 1.21148 71.7894C1.82636 71.3129 1.66342 70.8334 1.15615 70.357C1.03625 70.0773 1.30064 69.8498 1.1377 69.5947C1.49125 69.3396 1.46973 69.0629 1.1377 68.6725C0.722661 68.4236 1.16537 68.0578 1.1377 67.7135C1.34676 67.3785 1.08851 67.0988 1.15307 66.9973C1.24729 66.9409 1.32572 66.8615 1.38106 66.7667C1.4364 66.6718 1.46687 66.5645 1.46963 66.4547C1.47239 66.3449 1.44735 66.2362 1.39685 66.1387C1.34634 66.0412 1.27201 65.958 1.18074 65.8969C0.900974 65.5649 1.8817 65.319 1.22071 65.3252C0.75033 64.5598 1.04854 64.2678 1.2699 64.0956C0.67962 63.9327 1.12848 63.8958 1.33139 63.6469C0.568943 63.1643 1.22071 63.1889 1.40517 63.112C1.93089 63.0383 0.851784 62.8631 1.48818 61.9778C1.18074 61.5813 1.57119 61.0311 1.58348 60.6468C0.888677 60.2626 1.73413 60.0321 1.69109 60.3179C2.24447 59.8907 1.23608 59.4112 1.80791 59.073C1.58656 58.7349 2.54268 58.5351 1.93703 58.6642C2.06923 58.3569 2.76404 57.9511 2.07846 57.6253C2.1678 57.5537 2.23099 57.4547 2.25824 57.3435C2.28548 57.2323 2.27523 57.1153 2.2291 57.0105C2.84397 56.9368 2.53654 56.7031 2.39204 56.3958C2.9485 56.0884 2.3244 55.7195 2.5642 55.366C2.4812 54.7236 2.97309 54.1673 2.68718 53.7615C2.83782 53.3588 3.44655 53.1068 2.81323 53.0791C3.98763 53.0515 1.67879 53.2482 2.94543 53.7339C2.63799 53.5125 2.6964 53.2943 3.15141 53.0361C3.70172 52.7779 3.98456 52.4859 3.36969 52.114C3.73861 52.1355 3.00999 51.9234 3.59719 51.6129C4.36271 51.3055 4.85461 50.8906 3.83699 50.5064C4.60251 50.1252 4.18439 50.2174 4.08909 50.159C4.39653 50.1006 4.2797 49.8947 4.35041 48.9141C4.40882 49.2984 3.76936 48.6067 4.62403 47.9551C4.62403 47.3127 4.18439 46.7256 4.90687 47.3403C6.48094 46.6918 5.29116 46.4182 5.17741 46.2584C5.81996 46.0985 4.48568 46.0555 5.46026 45.8618C5.06366 46.0002 6.17658 46.2676 5.75232 46.1692C5.47255 46.0832 5.79536 45.6497 6.05976 44.3895C5.72465 44.4694 6.1981 44.1774 6.36719 43.8331C6.41331 43.4889 6.28726 43.0862 6.67463 42.9448C6.7023 42.0688 6.98206 41.8936 7.00358 41.8475C7.60001 41.8013 6.84679 41.8843 7.34176 41.5155C6.78223 41.5708 8.62377 41.3218 7.68609 41.0114C7.84746 40.7279 7.96656 40.4225 8.03965 40.1046C8.51925 39.7419 8.1411 39.6497 8.40242 39.5206C8.66374 39.3915 8.61455 39.2132 8.77442 38.7091C8.80837 38.3781 8.93999 38.0646 9.15257 37.8085C9.31991 37.685 9.45319 37.521 9.53993 37.332C9.80126 36.4406 10.0657 37.6241 10.3362 35.9734C10.4693 35.4522 10.7577 34.9837 11.1632 34.6302C11.443 35.7214 11.7289 33.2193 12.0179 33.3054C12.3069 33.5851 12.602 31.7346 12.9002 31.999C13.1984 32.2633 13.5151 31.6394 13.8225 30.7111C14.13 30.376 14.4374 29.669 14.7448 29.3156C15.0523 28.7469 15.3597 28.8176 15.6979 27.9446C16.0207 27.2623 16.3496 27.2008 16.6848 26.5983C17.0199 25.6762 17.358 26.5061 17.7054 25.2766C18.0498 24.8924 18.4002 23.5491 18.7569 23.9794C19.1135 23.3432 19.4732 22.5009 19.8421 22.71C20.208 21.9722 20.58 22.7714 20.9581 21.4804C21.324 19.962 21.7144 21.8431 22.0926 20.2878C22.4799 21.0931 22.8704 19.1874 23.267 19.1044C23.6636 18.4712 24.0663 18.505 24.4721 17.9486C24.8779 18.256 25.2899 16.9343 25.7019 16.8236C26.1169 16.3134 26.5381 15.2683 26.9624 15.7293C27.3866 14.7888 27.817 15.0869 28.2505 14.6689C28.684 14.7734 29.1236 13.1873 29.5663 13.6422C29.9322 13.5285 30.3011 14.0695 30.6731 12.8154C31.0451 12.3389 31.4202 12.9721 31.7952 12.0131C32.1734 11.4721 32.5515 10.7836 32.9358 11.2354C33.3171 11.0879 33.7044 12.1576 34.0918 10.4824C34.4792 9.99056 34.8696 10.5162 35.2631 9.75387C35.6567 9.18522 36.0502 9.24362 36.4498 9.04997C36.6896 9.22518 36.9294 9.45264 37.1692 8.63808C37.409 9.07456 37.6519 7.71594 37.8917 8.23542C38.1346 8.33378 38.3775 8.37374 38.6203 7.87578C38.8632 7.1104 39.1092 7.46389 39.3551 7.46082C39.6011 7.1227 39.847 7.64217 40.093 7.28868C40.3389 6.61245 40.5879 6.16367 40.837 6.72003C41.086 6.98745 41.335 6.00998 41.584 6.20671C41.833 6.14216 42.0851 6.42495 42.3372 6.0192C42.5893 5.75793 42.8414 5.82555 43.0935 5.66572C43.3456 6.10527 43.6008 5.75178 43.8529 5.35834C44.0657 5.0754 44.3244 4.83019 44.6184 4.63292C44.7369 4.55386 44.8799 4.52028 45.0211 4.53836C45.1624 4.55643 45.2923 4.62495 45.387 4.73128C45.9004 3.88291 46.4169 3.71385 46.9242 4.14418C47.4438 4.06734 47.9633 4.14418 48.486 3.59397C49.0086 3.04376 49.5343 3.34499 50.06 3.08372C50.5888 3.3911 51.1176 2.4874 51.6464 2.61343C52.1783 2.15543 52.7101 2.58884 53.2451 2.1831C53.78 1.9249 54.315 1.6667 54.8561 1.79272C55.3941 1.81117 55.9352 1.30706 56.4762 1.44538C57.0173 0.809106 57.5584 1.31936 58.1026 1.138C58.6467 1.05194 59.1909 0.649268 59.7381 0.873656C60.2854 0.90132 60.8326 0.317298 61.3798 0.652342C61.6145 0.480389 61.8903 0.373123 62.1795 0.341294C62.4687 0.309465 62.7612 0.35419 63.0277 0.470988M64.4634 6.76306C63.9653 7.0195 63.3882 7.07665 62.8494 6.9229C62.3268 7.0717 61.7848 7.14113 61.2415 7.12885C60.7066 6.00383 60.1716 7.3225 59.6398 7.37782C59.1079 6.67085 58.576 6.89216 58.0442 7.6852C57.5154 7.33786 56.9866 7.48848 56.4578 8.02025C55.9321 7.08274 55.4064 7.86963 54.8806 8.39833C54.358 8.76718 53.8354 10.0889 53.3158 8.81944C52.7962 7.66984 52.2767 10.4209 51.7632 9.28358C51.2467 9.72006 50.7333 9.634 50.2261 9.79076C49.7157 10.633 49.2054 10.5438 48.6889 10.3379C48.1816 9.60633 47.6805 11.7518 47.1794 10.9281C47.1073 11.0682 47.0005 11.1876 46.8692 11.2748C46.7379 11.362 46.5864 11.414 46.4292 11.426C46.1802 10.885 45.9312 11.7334 45.6852 11.5582C45.4745 11.4066 45.2141 11.3407 44.9566 11.3738C44.7107 10.8697 44.4647 11.7641 44.2218 12.2252C44.1961 12.2946 44.1547 12.3572 44.1007 12.4079C44.0468 12.4586 43.9818 12.4962 43.911 12.5176C43.8401 12.539 43.7652 12.5438 43.6922 12.5315C43.6192 12.5191 43.55 12.4901 43.4901 12.4465C43.2473 12.259 43.0044 12.4465 42.7646 12.9353C42.5248 13.4824 42.285 12.6433 42.0452 13.1135C41.8054 13.1351 41.5687 12.3543 41.3289 13.6883C41.0829 13.3963 40.8339 14.0695 40.591 14.0572C40.3451 14.5306 40.1022 13.8881 39.8593 14.506C39.6164 14.506 39.3736 15.2437 39.1338 14.9578C38.894 15.4711 38.6511 15.0562 38.4144 15.3697C38.1746 16.5162 37.9378 15.5019 37.7011 15.9476C37.4644 15.7662 37.2276 15.216 36.994 16.2734C36.5236 16.2734 36.0717 16.8482 35.5982 17.2171C35.1371 18.3482 34.6759 17.6074 34.2301 18.1976C33.7554 18.4995 33.3071 18.8409 32.8897 19.2181C32.447 18.9107 32.0105 21.1392 31.58 20.2755C31.1466 21.1485 30.7223 21.3237 30.298 21.3698C29.8768 21.7233 29.4587 21.9108 29.0468 22.4979C28.6348 22.7714 28.229 23.9641 27.817 23.6598C27.4174 23.9456 27.0208 24.1147 26.6303 24.8555C26.2399 24.3421 25.8556 26.4139 25.4774 26.085C25.0993 26.2848 24.7273 27.3606 24.3614 27.3453C23.9956 27.8893 23.6359 28.1321 23.2793 28.6363C22.9257 27.8063 22.5752 28.9436 22.234 29.958C21.8927 29.8135 21.5545 29.8688 21.2256 31.3074C20.8966 31.9221 20.5738 31.541 20.2572 32.6844C19.9497 33.1056 19.6423 33.8709 19.3349 34.0892C19.0274 34.249 18.72 36.3208 18.4464 35.5185C18.1574 35.6753 17.8745 36.1917 17.5978 36.9755C17.4114 37.1847 17.271 37.4308 17.1859 37.6978C17.0506 38.0882 16.9184 38.0236 16.7862 38.4478C16.654 38.3618 16.5249 38.6046 16.3958 39.1148C16.2666 38.9489 16.1406 38.9028 16.0176 39.9478C15.8946 39.2071 15.7717 39.1364 15.6487 39.8433C15.5872 39.8187 15.5288 40.2245 15.4704 40.6364C15.6364 41.0483 15.0246 41.4663 15.2921 41.4632C15.7809 41.7122 15.4519 41.8874 15.1168 42.0565C15.4612 42.2255 14.8094 42.3946 14.9447 42.6343C14.1054 42.6866 15.3074 42.9817 14.7756 43.163C14.7756 43.3444 15.206 43.4089 14.6096 43.0032C14.1546 43.3444 14.502 43.4551 14.4466 43.5503C14.1392 43.6456 13.3521 43.7256 14.2868 44.0053C15.1261 44.4356 13.7088 44.537 13.9793 44.5616C14.8432 45.204 14.5173 45.2717 13.8287 45.2901C13.4382 45.3086 13.2937 45.2901 13.678 45.7174C13.1093 45.6774 13.8133 46.3321 13.389 46.1385C13.5182 45.9541 13.1277 46.3352 13.2476 46.7532C13.4813 47.1621 12.974 47.5955 13.1093 47.5125C13.5889 48.0688 12.8418 48.1119 12.974 48.0227C13.1062 47.9336 13.2814 47.7153 12.8418 47.7399C13.3214 47.8199 12.2269 48.0258 12.7127 48.2194C12.5651 48.4131 13.1831 48.5914 12.5866 48.6221C13.2937 48.45 12.3192 48.8004 12.4637 49.1109C12.7557 49.4182 11.8057 49.6856 12.3438 49.3475C11.074 48.9695 10.6252 49.5934 12.1101 49.3106C12.9371 49.6611 12.1101 49.6488 11.9964 49.7594C12.6481 49.8732 12.1593 50.1098 11.8857 50.9674C11.4891 50.9521 12.1931 50.9674 11.7781 51.0996C10.9849 51.2471 11.0833 51.5392 11.6735 52.1017C11.2339 52.1877 10.1733 52.5228 11.5721 52.7164C10.5637 52.9224 10.6713 53.0054 11.4737 52.5843C11.2032 52.5843 11.858 53.0791 11.2862 53.2205C10.8957 53.7308 11.3231 53.8353 11.197 53.8752C10.6805 53.9214 12.1839 53.9183 11.1109 54.2257C11.5813 54.4777 10.2101 54.4808 10.9449 54.9111C11.5598 54.822 9.87197 54.8404 10.8681 54.991C10.3762 55.1417 10.4038 55.4306 10.7943 55.8763C10.9142 56.1283 11.1878 55.5689 10.6529 56.0853C9.9273 56.2728 10.7912 56.6816 10.5852 57.0075C9.46615 57.3486 10.3669 57.6222 10.5207 57.5208C10.6313 57.8036 10.2378 57.9972 10.4592 58.1509C10.3147 58.3077 11.2831 58.4245 10.4008 58.5597C10.2747 58.7657 10.8127 58.5843 10.2932 59.1745C10.5545 59.6448 10.2224 59.946 10.244 60.0536C10.4469 60.1612 10.3454 60.0751 10.1978 59.7739C10.287 59.5987 10.2255 59.8599 10.1548 60.1673C9.36777 60.4747 10.4192 60.8313 10.1148 60.8466C10.1302 60.3702 10.0841 60.3026 10.0779 60.4532C10.9111 60.6069 9.97649 60.9788 10.0441 61.3753C9.77359 61.5721 10.1733 61.9317 10.0134 62.2053C9.3647 62.4788 9.84122 62.6632 9.98572 62.5126C9.82893 62.7708 10.4868 62.9983 9.96112 63.1981C10.5422 63.3979 9.86274 63.567 9.9396 63.7053C10.3731 63.985 10.4715 64.1479 9.90271 64.1909C9.88119 64.5413 9.77359 64.7627 9.87811 64.9963C9.80126 65.2299 8.93429 65.4758 9.87811 65.8754C9.50304 66.4133 9.87811 66.816 9.87811 67.1049C9.02959 67.3815 9.57068 67.5322 9.87811 67.5721C9.84122 67.8518 10.0011 68.1316 9.90271 68.4143C10.7174 68.6941 8.31634 68.9738 9.9396 69.2535C9.63217 69.6285 9.57683 70.0004 10.0072 70.3724C9.76436 70.7443 9.58912 71.1193 10.0964 71.4912C10.0349 71.8631 9.78896 72.2351 10.2071 72.607C10.4622 72.9759 10.37 73.3447 10.3331 73.7136C9.9396 74.0824 10.3823 74.4513 10.4776 74.8201C10.0288 75.189 11.3323 75.5548 10.6436 75.9236C11.0556 76.2003 11.1263 76.3847 10.782 76.6183C10.5084 76.8489 10.2747 77.1224 10.9326 77.5712C11.5905 78.02 11.1079 78.02 11.0956 78.1429C9.7121 78.2659 11.2493 78.4718 11.2708 79.2095C11.9779 79.354 11.2892 79.3571 11.4553 79.5169C12.2146 79.6829 11.2677 80.0179 11.652 80.8294C12.6389 80.6788 12.5743 80.8048 11.8611 81.1091C12.0701 81.4165 12.0486 81.893 12.0794 82.4463C11.9871 83.2915 11.6305 83.6143 12.3099 83.7649C12.7035 83.9155 12.1347 83.894 12.5528 84.0508C12.1439 84.2352 12.9433 84.4043 12.8049 84.6409C13.1923 84.8776 13.0908 85.185 13.0693 85.6399C14.3544 85.7045 12.4175 85.5969 13.346 85.7229C13.306 85.849 13.5981 86.2086 13.6319 87.2137C14.5542 87.3766 13.7856 87.6441 13.9393 87.9299C12.7096 88.2158 14.6003 88.5262 14.2468 88.7721C14.4251 88.4371 13.9393 88.643 14.5542 89.0242C14.7139 89.4391 14.8243 89.8714 14.8832 90.3121C13.8902 90.558 14.5757 91.2834 15.2244 91.7752C15.9315 92.2671 15.1845 92.5253 15.5749 91.8336C14.7079 92.516 15.661 92.8695 15.9377 93.0632C15.6302 93.2599 15.9377 93.2937 16.3097 93.3337C14.9908 93.8224 16.5003 94.1144 16.694 94.3204C16.1191 94.5294 17.7608 94.6554 17.0875 94.8152C17.8192 94.7661 17.4287 94.7845 17.4902 94.9874C17.7731 95.1933 18.72 95.5806 17.9053 96.2722C17.6901 96.3552 17.3765 96.7056 18.3295 97.0407C17.4441 97.3726 18.2158 97.6892 18.763 97.7077C18.2527 97.9444 21.0719 98.1811 19.2088 98.4147C18.6554 98.6483 18.8799 98.885 19.6638 99.1155C19.3564 99.3491 21.8159 99.5796 20.128 99.8102C22.1756 100.041 21.4777 100.271 20.6015 100.499C21.7267 100.499 21.4008 100.717 21.0872 100.994C21.7329 101.27 20.1373 101.608 21.5822 101.854C21.49 102.423 22.7628 102.776 22.0864 102.988C22.0864 103.191 21.3332 103.237 22.5998 103.182C24.509 103.994 23.3899 104.055 23.1071 104.043C22.7259 104.043 23.3223 103.938 23.6205 104.445C23.393 104.9 24.1801 104.965 24.1432 105.039C24.758 105.112 23.7835 105.192 24.675 105.681C24.1186 105.942 25.4528 106.373 25.2161 106.671C24.9271 106.978 25.5235 107.144 25.7633 106.886C26.9931 107.479 25.9909 107.452 26.3198 107.436C27.4204 107.436 27.6602 107.418 26.8824 108.051C26.8609 108.398 27.8693 108.358 27.4542 108.392C27.6107 108.467 27.7458 108.58 27.8469 108.721C27.948 108.861 28.0117 109.025 28.0322 109.198C28.5026 109.834 27.897 109.689 28.6194 109.597C29.2159 109.505 29.471 109.465 29.2128 110.31C29.2435 109.932 29.7139 110.224 29.8277 110.599C30.3165 110.974 30.4948 111.432 30.4425 111.392C30.0429 111.853 31.1927 112.13 31.0574 112.284C31.2455 112.388 31.4573 112.442 31.6723 112.44C32.0412 112.656 32.0043 113.034 32.3025 113.295C32.5147 113.556 32.7268 113.704 32.9389 113.452C33.3662 114.66 33.7967 113.864 34.2332 114.432C34.6698 112.748 35.1094 114.681 35.5552 115.376C36.001 117.177 36.4468 115.991 36.9018 116.298C37.3537 115.831 37.8241 117.817 38.2729 117.168C38.7341 118.868 39.1952 117.386 39.6656 118.001C40.1329 118.022 40.6064 117.371 41.0798 118.797C41.5564 118.336 42.0329 119.104 42.5156 119.553C42.9982 120.534 43.484 119.068 43.9728 120.269C44.437 120.451 44.8951 119.409 45.3747 120.927C45.8451 120.718 46.3185 120.989 46.7951 121.542C47.2716 121.127 47.7512 121.908 48.2308 122.12C48.7104 120.205 49.1961 122.599 49.6819 122.658C50.1676 122.224 50.6565 124.462 51.1453 123.156C51.6341 124.053 52.1291 122.584 52.621 123.614C53.1129 124.643 53.6109 123.921 54.109 124.035C54.607 124.075 55.1051 125 55.6093 124.416C56.1104 124.862 56.6146 124.803 57.1188 124.757C57.623 125.065 58.1272 125.409 58.6344 125.065C59.1417 125.203 59.649 124.819 60.1716 125.326C60.4514 125.286 60.7312 125.667 61.014 125.523C61.2938 125.523 61.5766 125.707 61.8564 125.569C62.1361 125.43 62.419 125.818 62.7018 125.83C62.9851 125.834 63.2682 125.812 63.5473 125.762C64.113 126.515 64.6756 126.743 65.2412 125.91C65.8069 126.691 66.3726 124.459 66.9414 126.008C67.5071 124.929 68.0758 125.854 68.6415 126.06C69.2103 126.561 69.7759 124.422 70.3447 126.06C70.9134 124.434 71.4791 126.475 72.0448 126.017C72.6105 127.422 73.1793 127.066 73.7449 125.925C74.3106 127.619 74.8763 126.254 75.442 125.787C76.0077 127.456 76.5703 124.978 77.1329 125.599C77.6955 124.742 78.2581 126.749 78.8176 125.366C79.3772 125.867 79.9367 124.444 80.4962 125.083C81.0527 123.853 81.6122 122.255 82.1656 124.754C82.719 124.674 83.2724 124.911 83.8258 124.376C84.3761 124.232 84.9264 123.389 85.4736 123.952C86.0209 125.541 86.565 122.901 87.1092 123.482C87.6503 122.885 88.1914 125.858 88.7294 122.962C89.2674 122.424 89.8023 121.219 90.3342 122.396C90.8661 121.634 91.3949 122.089 91.9206 121.782C92.4463 122.052 92.9689 120.328 93.4885 121.121C93.9988 121.468 94.5061 117.125 95.0257 120.435C95.5299 119.854 96.031 118.785 96.526 119.707C97.024 118.619 97.5159 118.834 98.0047 118.935C98.4936 117.896 98.9793 117.371 99.462 118.124C99.9447 115.785 100.421 118.991 100.895 117.269C101.368 115.68 101.838 114.06 102.303 116.375C102.767 115.643 103.225 116.114 103.686 115.453C104.144 117.405 104.608 112.686 105.045 114.481C105.494 116.59 105.937 112.487 106.376 113.473C106.816 112.471 107.249 111.014 107.677 112.428C108.107 112.692 108.531 110.006 108.949 111.349C109.368 111.727 109.783 110.556 110.179 110.233C110.588 109.44 110.991 108.866 111.391 109.084C111.714 108.628 112.112 108.229 112.568 107.903C112.955 106.093 113.337 108.146 113.715 106.689C114.09 105.853 114.462 106.25 114.828 105.46C115.193 104.117 115.55 105.693 115.904 104.184C116.257 100.222 116.605 101.707 116.946 102.881C117.083 102.68 117.254 102.503 117.45 102.358C117.682 102.14 117.852 101.864 117.942 101.559C118.197 101.473 118.151 101.734 118.431 101.716C118.397 101.697 118.48 101.409 118.91 100.201C119.504 100.972 118.864 101.384 119.218 101.485C119.302 101.287 119.405 101.096 119.525 100.917C119.999 100.453 119.694 99.7333 119.833 98.8112C121.062 97.3142 120.365 97.3327 120.282 97.5386C120.543 97.7446 121.969 98.1534 120.721 97.3972C120.838 97.3235 121.527 97.3972 121.164 97.2866C120.989 97.1636 122.452 96.8347 121.594 95.9341C120.881 96.1708 122.707 95.7404 122.016 95.2794C121.471 94.8183 121.57 94.3265 122.424 94.4464C120.614 92.9802 122.354 92.7374 122.821 92.7927C122.821 92.848 121.899 93.2015 123.208 92.9371C124.438 93.1431 123.593 93.5734 123.583 93.2445C124.14 93.1984 122.083 93.0447 123.768 92.7496C124.383 92.4423 123.221 92.0181 123.949 91.4125C124.327 90.6718 123.476 90.1523 124.303 89.8756C124.656 89.6082 125.382 89.5867 124.644 89.848C125.779 89.6082 124.69 89.3623 124.973 89.1041C126.433 88.8459 126 88.5723 125.28 88.2742C125.087 88.5109 125.44 88.2404 125.588 87.85C125.895 87.4566 125.763 86.9279 125.895 86.682C126.203 86.3992 125.923 86.1041 126.178 85.8274C127.497 85.5508 126.575 85.2895 126.452 85.0713C125.471 84.8008 125.806 84.5303 126.713 84.2598C128.011 83.9893 126.476 83.7188 126.962 83.4452C127.961 82.9319 129.068 82.4155 127.402 81.9083C126.999 81.3919 127.313 80.8725 127.798 80.3499C128.044 79.8274 126.978 79.3048 128.155 78.7823C128.266 78.2567 129.139 77.731 128.462 77.2054C128.813 76.6798 128.635 76.1511 128.733 75.6193C128.733 75.0906 127.98 74.5589 128.964 74.0271C129.382 73.4953 127.937 72.9636 129.151 72.4287C129.262 71.897 128.844 71.3621 129.296 70.8273C129.12 70.2924 128.961 69.7576 129.397 69.2227C129.031 68.6879 129.68 68.1531 129.455 67.6152C129.231 67.0772 130.07 66.5424 129.455 66.0076C128.748 65.4727 129.259 64.9348 129.428 64.3999C128.887 63.8651 130.418 63.3272 129.357 62.7924C130.402 62.2575 129.751 61.7227 129.24 61.1878C129.625 60.653 128.318 60.1212 129.08 59.5864C128.874 59.0546 128.665 58.5228 128.877 57.9911C128.376 57.7267 129.166 57.4501 128.758 57.1796C129.6 56.9091 129.483 56.6447 128.628 56.4019C128.478 56.1283 128.447 56.0331 128.487 55.8579C129.849 55.6826 128.3 55.4214 128.336 54.8189C128.241 54.6283 127.602 54.3455 128.173 54.0505C127.184 53.7431 127.457 53.4357 128.001 53.2144C127.509 53.1437 128.924 52.7687 127.817 52.3998C127.589 52.031 126.685 51.6652 127.62 51.6191C127.851 51.0535 127.42 50.7769 127.414 50.5801C127.319 50.3834 127.177 50.2728 127.196 50.0361C127.485 49.993 127.386 49.5443 126.968 49.1324C126.624 48.7205 126.206 48.3485 126.729 48.4654C127.011 47.8291 126.089 47.574 126.479 47.411C126.083 47.2481 126.636 47.1774 126.218 46.91C125.831 46.9715 125.745 46.9684 125.948 46.7563C125.53 46.6518 125.271 46.5596 125.809 46.3659C126.464 46.1723 125.52 45.8772 125.668 45.367C125.619 44.8229 125.573 44.4448 125.523 44.1712C125.504 43.9998 125.454 43.8332 125.376 43.6794C125.277 43.535 125.176 43.6948 125.068 43.8393C124.967 43.8393 124.859 43.6026 124.761 43.3505C124.653 43.0432 124.546 42.3639 124.435 42.33C124.347 42.0888 124.235 41.8571 124.1 41.6384C123.986 41.1958 123.872 40.8577 123.756 40.8392C123.639 40.6118 123.522 40.7501 123.399 40.4704C123.243 40.1149 123.12 39.7454 123.033 39.3669C122.91 39.4714 122.784 39.2132 122.658 38.8751C122.555 38.5461 122.426 38.2255 122.274 37.9161C122.012 38.3402 121.745 36.622 121.474 36.4867C121.201 35.6414 120.921 36.9417 120.635 35.0789C120.349 36.2747 120.057 35.2542 119.756 33.6957C119.448 31.3996 119.141 31.9344 118.834 32.3371C118.526 31.8146 118.203 30.3268 117.877 31.0062C117.548 32.1004 117.213 28.8545 116.869 29.6721C116.528 30.2316 116.18 27.4282 115.824 28.3688C115.47 30.1209 115.11 27.0901 114.745 27.0963C114.379 26.2909 114.007 24.5204 113.629 25.8668C113.251 25.8206 112.866 26.4293 112.479 24.6557C112.088 24.0102 111.695 26.1004 111.295 23.4784C110.896 22.9589 110.49 23.9426 110.065 22.3319C109.905 21.9486 109.699 21.5863 109.451 21.253C109.242 21.0163 109.032 20.9456 108.836 21.2192C108.627 21.2468 108.415 22.4487 108.199 21.5265C107.987 20.7089 107.772 21.0993 107.557 20.1556C107.342 19.7161 107.126 20.0573 106.908 19.7898C106.69 19.6269 106.472 19.1443 106.25 19.1167C106.029 19.4487 105.807 18.5019 105.586 19.1167C105.365 18.2314 105.14 18.4527 104.916 18.1146C104.691 18.2191 104.464 18.3943 104.24 18.2529C104.012 17.755 103.785 18.3298 103.554 17.1494C103.323 17.5337 103.096 16.2273 102.862 16.2273C102.632 15.3574 102.398 15.2683 102.164 16.2273C101.931 16.338 101.697 15.7324 101.46 15.3052C101.224 15.8953 100.987 14.5705 100.75 15.3236C100.513 16.0767 100.274 14.8257 100.034 14.8933C99.794 13.5469 99.5542 14.1156 99.3113 14.4722C99.0685 13.6822 98.8287 13.0336 98.5827 13.4517C98.3398 13.0705 98.0939 14.3154 97.851 13.6607C97.6051 14.1894 97.3591 13.4056 97.1132 13.6883C96.8672 13.9711 96.6182 13.4824 96.3692 12.8922C96.1232 12.0992 95.8773 13.089 95.6313 12.173C95.3854 11.9363 95.1364 12.548 94.8873 12.173C94.6383 13.5562 94.3893 12.2037 94.1403 12.6094C93.8912 13.0152 93.6545 12.2959 93.4116 11.4598C93.1595 11.6473 92.9074 11.0387 92.6553 11.4598C92.4032 12.2867 92.1481 10.882 91.8929 10.8143C91.6377 10.9035 91.3826 10.1412 91.1274 10.2795C90.8722 10.0121 90.614 9.8215 90.3557 10.2211C90.0975 10.1381 89.8392 10.427 89.581 10.4147C89.3227 10.1074 89.0645 10.0797 88.8032 9.67395C88.7152 9.5462 88.599 9.44039 88.4636 9.3647C88.3282 9.28902 88.1772 9.24549 88.0223 9.23748C87.7591 9.2486 87.4957 9.22587 87.2383 9.16985C86.7126 7.8143 86.1869 8.78255 85.6581 8.70878C85.1293 7.50385 84.5974 10.0981 84.0656 8.29074C83.5337 8.96083 82.9988 7.47619 82.4638 7.91574C81.9289 7.3225 81.3909 8.06328 80.8529 7.58377C80.3148 8.10017 79.7738 7.19647 79.2327 7.29791C78.6916 7.86656 78.1474 6.2897 77.6033 7.05508C77.0591 6.77536 76.5149 6.28048 75.9677 6.85835C75.4235 8.06328 74.8763 6.39728 74.3291 6.70466C73.7818 7.83889 73.2346 6.57864 72.6874 6.59708C72.1401 6.219 71.5898 6.02842 71.0426 6.5356C70.7898 6.40121 70.5083 6.32965 70.2221 6.32697C69.9358 6.3243 69.653 6.39059 69.3978 6.52023C68.8506 6.93212 68.3002 5.59809 67.753 6.55097C67.2058 6.8061 66.6555 7.3102 66.1082 6.62782C65.5579 6.31121 65.0107 6.96286 64.4634 6.76306Z" fill="black"/>
<path d="M74.2061 26.8934C74.5965 27.1455 75.0085 26.1034 75.4358 25.8883C75.8632 26.1957 76.312 25.2735 76.7732 25.0307C77.2343 23.7581 77.6955 24.0501 78.1966 24.3268C78.6824 23.2325 79.1835 23.2079 79.6877 23.7796C80.195 23.4139 80.7084 23.4723 81.2249 23.3954C81.7444 21.9784 82.2701 23.3954 82.7989 23.1803C83.3277 24.1424 83.8565 22.4548 84.3853 23.1372C84.9141 23.3647 85.4429 22.3688 85.9655 23.2755C86.4912 23.6352 87.0108 24.2223 87.5242 23.5829C88.0038 25.2366 88.4742 22.5624 88.9323 24.0471C89.3904 22.4671 89.8546 23.6905 90.2758 24.6618C90.7123 25.6915 91.1366 24.3083 91.5486 25.4118C91.9605 24.5296 92.3571 26.2971 92.7414 26.2879C93.1257 26.0081 93.4916 25.7008 93.8451 27.2746C94.1987 28.8483 94.5338 27.8555 94.8504 28.3627C95.1579 27.9723 95.4653 27.9754 95.7512 29.5369C96.0341 30.6895 96.2954 30.4221 96.5383 30.7879C96.9779 29.709 97.4237 30.3545 97.8756 30.3361C98.3275 29.4908 98.7979 29.835 99.2529 30.0287C99.7172 29.3094 100.175 29.626 100.655 29.8535C101.134 30.0809 101.596 29.6383 102.063 29.8289C102.51 29.9951 102.993 30.0428 103.465 29.9672C103.929 29.8627 104.387 30.0902 104.848 30.2746L105.592 30.5082C105.838 30.5881 106.081 30.6711 106.321 30.7695C106.8 30.6865 107.268 31.5871 107.72 31.4396C108.172 31.415 108.611 32.1619 109.032 32.2664C109.454 32.6722 109.859 33.29 110.244 33.2377C110.628 33.4375 110.994 35.3587 111.338 34.3412C111.683 35.4785 112.002 35.1035 112.301 35.5708C112.608 35.0082 112.872 36.5421 113.118 36.8894C113.364 35.3218 113.586 39.2409 113.776 38.2941C113.967 39.4161 114.13 38.7552 114.259 39.7726C114.394 40.1999 114.496 43.243 114.566 41.2481C114.64 41.3864 114.686 43.1569 114.702 42.745C114.717 43.6917 114.702 44.2481 114.668 44.2481C114.628 43.4766 114.563 47.5647 114.468 45.7389C114.376 44.2327 114.256 45.3915 114.111 47.202C114.041 47.3742 113.961 47.4725 113.878 47.6569C113.748 47.9664 113.658 48.2906 113.607 48.6221C113.469 49.2615 113.456 49.16 113.3 49.117C113.337 49.077 113.152 49.0955 112.958 49.9807C112.734 50.4603 112.918 50.7338 112.596 50.9029C112.141 51.0812 111.535 51.1642 112.205 51.2656C112.476 51.1303 111.87 51.3609 111.79 51.6652C111.621 51.9726 111.249 52.3414 111.351 52.4951C111.135 52.7595 111.434 53.0269 110.886 53.239C111.194 53.4511 111.194 53.6078 110.404 53.6539C110.198 53.7646 110.265 53.9244 109.899 54.1119C109.534 54.2994 110.238 54.5177 109.377 54.7451C109.257 54.9203 108.882 55.0955 108.836 55.2646C108.021 55.4337 108.894 55.6027 108.279 55.7656C108.894 55.9285 107.483 56.0915 107.707 56.2513C107.501 56.3915 107.305 56.5477 107.123 56.7185C105.678 57.0259 106.395 57.3333 105.894 57.6591C105.875 57.9665 105.512 58.2739 104.633 58.5812C104.787 58.8886 103.385 59.196 103.354 59.4757C101.712 59.7831 103.717 60.0597 102.057 60.3425C102.592 60.6253 101.931 60.905 100.738 61.1786C101.002 61.3139 100.43 61.4491 100.181 61.5844C99.0746 61.7165 98.9332 61.8487 99.4005 61.9778C99.4497 62.1069 99.1238 62.236 99.0101 62.362C99.2622 62.4881 98.6135 62.6141 98.0416 62.737C97.0978 62.86 97.7772 62.9829 97.6204 63.0997C97.5897 63.2196 97.4882 63.3364 96.6582 63.4532C96.6582 63.57 96.1201 63.6838 95.9111 63.7944C95.991 63.9051 95.1425 64.0157 95.2532 64.1233C94.6844 64.2309 94.1987 64.3354 94.2786 64.4307C93.8789 64.5352 94.1895 64.6366 93.8205 64.7381C94.1495 64.8364 93.9773 64.9348 93.6299 65.027C93.2825 65.1192 92.7537 65.2145 92.3664 65.3036C91.7054 65.3805 91.5025 65.4604 91.7023 65.5403C90.8415 65.6203 90.6293 65.7002 91.029 65.7739C91.2135 65.8477 90.9952 65.9153 90.2143 65.9737C90.2666 66.0322 89.3904 66.0813 89.6578 66.1151C89.4601 66.1166 89.2628 66.133 89.0676 66.1643C88.7981 66.1206 88.5258 66.097 88.2529 66.0936C88.382 66.0598 87.9024 66.0045 87.7886 65.9307C88.0622 65.8569 87.0815 65.7647 87.0938 65.6571C87.0108 65.5526 86.0424 65.4328 86.15 65.3036C85.8579 65.1746 86.5312 65.0393 86.11 64.8979C86.0547 64.7565 85.9778 64.609 85.4398 64.4645C85.157 64.317 84.951 64.1571 85.2185 64.0311C83.8596 63.6592 84.3607 63.2872 84.0717 62.9122C83.1002 62.5372 84.3115 62.1591 82.9342 61.778C83.0234 61.3968 81.2279 61.0157 81.8121 60.6284C82.513 60.2442 81.1972 59.8538 80.7053 59.4634C80.2134 59.073 80.6377 58.6765 79.62 58.28C79.6815 57.8804 78.3257 57.4808 78.5594 57.0751C76.7916 56.6693 76.8931 56.2605 77.5264 55.8456C78.7561 55.4337 78.3073 55.0156 76.5242 54.5945C79.5985 54.1734 74.8917 53.7461 75.5557 53.3158C76.7056 52.8855 74.6334 52.449 74.6334 52.0094C73.1577 51.5699 72.712 51.1242 73.7419 50.6754C72.3369 50.2266 73.7419 49.7686 72.8933 49.3106C72.9241 48.8588 73.4467 48.3885 72.1186 47.9336C71.6513 47.4664 70.1203 46.9899 71.4238 46.5073C71.5929 46.0248 70.0004 45.5329 70.8089 45.0381C71.8327 44.5432 71.7097 44.0391 70.3109 43.5319C69.9389 43.0247 69.0811 42.5114 69.9266 41.995C68.6538 41.4786 70.2555 40.9591 69.6653 40.4366C67.9897 39.914 70.5476 39.3884 69.5361 38.8597C69.656 38.331 69.1518 37.8023 69.5515 37.2706C70.5783 36.9079 69.5792 36.5451 69.6376 36.1824C69.696 35.8197 69.7329 35.4601 69.7975 35.1005C69.9292 34.382 70.11 33.6733 70.3385 32.9795C70.4923 32.5185 70.6644 32.2787 70.8581 31.6178C71.0244 31.1561 71.2464 30.7164 71.5191 30.3084C71.7558 30.1301 72.0141 29.2449 72.2938 29.0789C72.5736 28.3688 72.8749 27.0901 73.1946 27.9354C73.5021 27.336 73.8587 27.3791 74.2184 26.8934M79.7522 32.4263C79.1866 32.7336 79.1374 33.1086 78.7592 33.5021C77.8123 33.8955 77.7693 34.3228 78.0429 34.7685C77.4004 35.2142 78.0644 35.6906 77.591 36.1609C77.8707 36.6404 77.4834 37.1292 77.3819 37.6179C79.1404 38.1066 76.4596 38.5984 77.4034 39.078C77.5049 39.5759 79.5555 40.0647 77.6279 40.5442C77.6279 41.0237 78.6547 41.497 78.0306 41.9643C77.6832 42.4284 81.7198 42.8864 78.5809 43.3352C79.2511 43.784 80.8959 44.2266 79.2481 44.66C81.2618 45.0934 79.2972 45.5207 80.0013 45.9418C81.437 46.3598 82.3839 46.7748 80.8098 47.1713C79.6846 47.6047 81.0496 48.0289 81.7137 48.4531C80.8775 48.8742 81.9227 49.2922 82.6575 49.7041C81.065 50.116 83.7366 50.5217 83.6382 50.9336C83.1709 51.1365 83.2263 51.3363 83.4999 51.5484C83.8694 51.7726 84.2535 51.9718 84.6497 52.1447C84.4714 52.3414 84.6682 52.5381 84.8772 52.7349C85.4183 52.9316 85.6612 53.1252 85.6888 53.3189C86.8694 53.5125 85.6458 53.7062 86.5466 53.8968C86.9924 54.0873 86.9309 54.281 86.7526 54.4685C86.8325 54.6591 87.3674 54.8466 87.2937 55.0371C87.8347 55.2246 86.9862 55.4122 87.8378 55.5997C87.183 55.8486 88.5511 56.0976 88.5695 56.3435C89.292 56.5894 89.8177 56.8353 89.3074 57.0812C90.4357 57.3271 88.9692 57.57 90.0514 57.8128C89.9438 57.6407 89.5379 57.4562 91.401 57.2626C92.0343 57.0689 92.5539 56.8661 92.723 56.6478C93.6145 56.4357 94.0941 56.2175 94.0204 55.99C95.2286 55.7626 94.6352 55.529 95.2931 55.2861C95.1702 55.0464 96.1478 54.7974 96.5444 54.5423C96.8211 54.2871 96.7996 54.0289 97.7742 53.7646C97.7988 53.5002 98.0816 53.2297 98.9855 52.9562C100.523 52.6826 99.6403 52.4029 100.178 52.1201C99.5143 51.9787 101.101 51.8373 100.769 51.6928C100.947 51.5515 100.769 51.407 101.356 51.2625C101.205 51.0289 101.728 50.9398 101.912 50.8445C102.131 50.749 102.322 50.5986 102.466 50.408C102.831 50.6508 103.191 49.7932 103.536 49.4674C103.883 49.9285 104.215 49.2461 104.529 48.4408C104.836 45.8157 105.143 48.1672 105.402 47.325C105.669 47.4694 105.906 45.6497 106.112 46.117C106.318 47.8998 106.487 45.9971 106.616 44.8137C106.745 43.246 106.834 44.8413 106.874 43.412C106.908 41.6999 106.874 42.7973 106.791 42.1118C106.705 41.9581 106.564 41.4263 106.376 40.8823C106.189 41.7153 105.955 40.1753 105.685 39.7819C105.414 37.9683 105.103 38.4109 104.762 38.8597C104.424 37.9376 104.058 38.8751 103.671 38.1589C103.256 37.0124 102.822 37.8023 102.38 37.7931C101.937 36.3392 101.488 39.4222 101.039 37.7654C100.593 37.8208 100.151 38.1589 99.7264 38.0482C99.3021 38.8997 98.8932 38.0206 98.4966 38.6169C98.3337 38.1712 98.1892 38.6169 98.0324 39.0257C98.0324 39.4468 97.9402 39.8556 97.6112 39.3608C97.5096 39.4185 97.4212 39.4966 97.3513 39.5903C97.2815 39.6839 97.2318 39.791 97.2054 39.9048C97.2361 40.0677 96.9379 40.1876 96.7873 40.1784C96.9994 40.2921 96.7873 40.4642 96.3292 40.5964C95.7973 40.7317 95.5821 40.8239 95.8066 40.7808C95.7758 40.664 95.2809 40.9038 95.1179 41.0882C94.2141 41.2727 94.4446 41.3956 94.4047 41.0575C94.6967 41.4786 93.6975 41.3126 93.6883 41.0944C93.3624 40.8761 92.8398 40.6056 92.9904 40.8147C92.311 40.7593 92.5508 40.6794 92.3356 40.5657C92.4463 40.452 92.3817 40.3013 91.7453 40.1077C91.5577 39.9638 91.3893 39.7964 91.2442 39.6097C91.1151 39.3761 91.3826 39.1241 90.8538 38.995C91.1612 38.8874 90.1774 38.6323 90.6324 38.3986C90.6324 38.1681 89.9991 37.9591 90.5033 37.9407C90.2512 37.9038 89.6701 37.6609 90.4295 37.4089C90.5248 37.1568 90.2942 36.8986 90.3742 36.831C89.2612 36.6466 90.2789 36.4591 90.3004 36.2777C90.4418 36.0964 89.993 35.915 90.1713 35.7367C89.5379 35.3587 89.7808 34.9959 89.7101 34.6517C89.5406 34.5403 89.3955 34.3957 89.2834 34.2266C89.1714 34.0576 89.0948 33.8676 89.0583 33.6681C89.169 33.5144 89.3104 33.2838 88.674 33.0994C88.3666 32.915 88.1852 32.7736 88.259 32.792C88.4711 32.5523 87.6072 32.4846 87.8163 32.4263C87.5857 32.3617 87.0661 32.2941 87.349 32.042C87.7671 31.9529 86.9063 31.9252 86.7679 31.8545C86.3683 31.7838 87.0754 31.6639 86.1531 31.3934C86.7679 31.624 85.7688 31.5902 85.5075 31.4734C85.4767 31.3535 85.5074 31.1475 84.8403 31.0338C84.8956 30.9139 84.4345 30.9723 84.1609 31.0338C84.3576 31.083 84.4283 31.123 83.4784 30.9723C83.2683 31.0774 83.0325 31.12 82.7989 31.0953C82.5729 31.0702 82.3441 31.0997 82.1318 31.1814C81.6917 31.2978 81.2658 31.4627 80.8621 31.6732C80.6607 31.7784 80.4656 31.8954 80.278 32.0236C80.0915 32.1499 79.9128 32.2875 79.743 32.4355L79.7522 32.4263Z" fill="black"/>
<path d="M45.1903 26.0973C45.6514 26.0573 46.1126 25.1506 46.6045 25.5778C47.0841 26.1557 47.5729 25.7038 48.0648 25.2213C48.2868 25.0886 48.5336 25.0027 48.79 24.9688C49.0464 24.935 49.307 24.954 49.5558 25.0245C50.057 25.7192 50.5581 24.3944 51.0592 24.9846C51.5603 24.6956 52.0615 24.9846 52.5595 25.1014C53.0575 25.4979 53.5525 25.1813 54.0413 25.3688C54.5302 25.5102 55.0128 26.2909 55.4894 25.7838C55.9659 25.4395 56.4301 25.8299 56.8851 26.3463C57.3401 26.7305 57.7828 25.4825 58.2133 27.0532C58.6713 27.2192 59.1079 27.7141 59.5229 27.9385C59.7714 28.1038 59.9811 28.3208 60.1378 28.5748C60.3346 28.9621 60.5283 28.6885 60.7158 28.9744C60.9033 29.6783 61.0847 29.1772 61.2599 29.457C61.4352 29.374 61.6073 29.4108 61.7703 30.1393C61.9363 29.8811 62.0962 30.1732 62.2499 30.7541C62.4036 31.0369 62.5573 31.4734 62.6926 31.4057C62.9201 31.4057 63.1322 32.9426 63.3321 32.4969C63.5288 34.3412 63.7133 33.0533 63.8793 33.6373C64.0453 34.2213 64.1867 34.7623 64.3312 34.8177C64.4665 34.5656 64.5864 35.6783 64.6879 36.0287C64.7893 34.8976 64.8785 36.3361 64.9461 37.2583C64.9716 37.7858 65.0415 38.3102 65.1552 38.8259C65.2013 39.7696 65.2228 40.6702 65.2197 40.3997C65.2197 40.7624 65.1951 40.1999 65.149 41.9704C65.1029 41.9858 65.0383 43.0093 64.9523 43.5319C64.8662 43.7901 64.7616 44.6846 64.6448 45.0688C64.5218 45.6467 64.3804 44.7829 64.2236 46.5903C64.1749 47.1213 63.9965 47.6322 63.7041 48.0781C63.5641 48.3716 63.4608 48.6814 63.3966 49.0002C63.2952 49.3721 63.1907 49.6826 63.0892 49.5381C62.8555 49.9592 63.3474 49.8455 62.7479 49.8639C62.3759 49.8824 62.9724 50.0361 62.3944 50.9951C62.1786 51.2564 62.0506 51.5791 62.0285 51.9172C61.9056 52.0463 61.6996 52.1109 61.6535 52.4367C61.0663 52.7625 60.7558 52.9377 61.2661 53.1191C61.4137 53.3004 60.3838 53.4879 60.8664 53.8384C60.2823 54.1734 60.8326 54.3916 60.4575 54.5884C60.7926 54.7851 60.5498 54.9634 60.0394 55.2031C59.4983 55.698 59.7135 55.8425 59.6121 55.9593C59.692 56.0761 59.7381 56.1714 59.1755 56.574C59.483 56.7339 58.3455 56.9552 58.7297 57.1888C58.5545 57.4286 58.1702 57.6837 58.2778 57.9019C58.4715 58.2339 57.6445 58.5628 57.583 58.8917C57.1126 59.2206 58.0073 59.5464 56.8728 59.8692C57.1372 60.195 56.2334 60.5177 56.1473 60.8374C55.6339 61.1448 55.1174 61.4768 55.4094 61.7964C56.1565 62.0085 55.8798 62.2206 54.9114 62.4296C54.8778 62.5644 54.8156 62.6904 54.7292 62.7991C54.6427 62.9078 54.534 62.9967 54.4103 63.0598C54.0137 63.2688 54.8345 63.4778 54.0198 63.6745C52.7901 63.8835 53.8108 64.0895 53.405 64.2893C53.1375 64.4952 52.7901 64.7043 52.8147 64.9041C51.9661 65.11 51.9477 65.3159 52.375 65.5188C52.1202 65.6732 51.9036 65.8834 51.7417 66.1336C51.6203 66.3473 51.4848 66.5527 51.3359 66.7483C50.9729 67.2059 50.5157 67.5799 49.9953 67.8451C49.4749 68.1103 48.9035 68.2604 48.32 68.2852C47.9632 68.2758 47.6071 68.2481 47.2532 68.2022C46.4876 68.1469 47.4899 68.0732 46.2017 67.9902C46.2878 67.9072 46.0419 67.818 45.1626 67.735C45.7621 67.6213 45.47 67.5014 43.8468 67.3754C42.3557 67.2463 41.8453 67.1141 42.5463 66.9727C41.9714 66.8313 40.8185 66.6838 41.2581 66.527C39.7425 66.3733 39.4719 66.2196 39.9854 66.0444C38.8325 65.8784 38.9001 65.7032 38.7279 65.525C38.7095 65.3467 38.5865 65.1623 37.4828 64.9748C37.2 64.861 36.3084 64.7473 36.7419 64.6305C37.0493 64.5137 36.4345 64.3938 36.0071 64.2739C36.0502 64.0926 35.8227 64.0034 35.2754 63.9081C34.1933 63.8159 34.2517 63.7206 34.5468 63.5331C34.4208 63.2995 33.5138 63.0997 33.8243 62.9614C33.8243 62.8231 33.0004 62.7462 33.1049 62.7585C32.5577 62.8016 32.4163 62.6971 32.3917 62.5311C31.7122 62.3651 31.4202 62.1438 31.6815 61.9532C31.8321 62.1807 31.1312 62.1192 30.9744 61.9255C30.4026 61.7319 30.2089 61.4122 30.2734 61.1233C30.3103 60.8897 30.0798 60.7544 29.6063 60.6407C29.5479 60.527 29.1144 60.4347 28.9484 60.2841C28.5764 60.1765 28.3796 60.2472 28.3028 60.195C27.8447 60.1427 27.9369 59.9675 27.6695 59.362C27.6695 58.695 27.4635 58.3691 27.0546 58.2493C26.954 58.1986 26.8396 58.1819 26.7287 58.2019C26.6177 58.2218 26.5163 58.2773 26.4397 58.3599C26.0431 56.823 25.6619 57.4378 25.293 57.2779C24.9731 56.8621 24.6205 56.4726 24.2385 56.113C23.9034 55.2154 23.5867 54.4255 23.2885 54.865C22.9811 54.3363 22.7136 53.1498 22.4584 53.531C22.2032 52.2431 21.9727 51.3086 21.7636 52.1109C21.5336 51.6487 21.3533 51.1634 21.2256 50.6631C21.0749 49.8547 20.952 48.9879 20.8597 49.1631C20.7675 49.1785 20.7029 47.6969 20.6691 47.6262C20.6353 47.3188 20.6292 45.2409 20.6538 46.0893C20.6784 45.7082 20.7306 44.5708 20.8136 44.5524C20.8966 44.2788 21.0104 45.1887 21.1518 43.0462C21.2963 41.7399 21.4592 41.202 21.6714 41.5893C21.8835 41.9766 22.0864 40.8485 22.3354 40.2183C22.5845 39.0626 22.8581 39.1517 23.1532 38.9335C23.4607 38.1804 23.7681 37.8515 24.1124 37.7501C24.4537 37.8454 24.8164 36.1548 25.1977 36.6804C25.5789 36.9447 25.9786 35.7214 26.3967 35.7398C26.6057 35.2142 26.8179 35.2203 27.0331 35.3218C27.2483 35.1886 27.4676 35.0615 27.691 34.9406C28.1368 34.7685 28.5979 34.2398 29.0683 34.2951C29.5387 34.3504 30.0213 33.6804 30.5132 33.8187C31.0051 33.6588 31.5032 33.6711 32.0105 33.5113C32.4685 33.8832 32.9328 33.8494 33.3847 33.3914C33.8428 32.7767 34.307 33.084 34.762 33.4375C35.2201 32.6721 35.6843 32.9058 36.1301 33.625C36.582 33.9662 37.034 34.3382 37.4767 33.9324C37.6919 34.0461 37.9317 32.5584 38.1961 32.4939C38.4605 32.6383 38.7464 31.9283 39.0569 31.1353C39.3643 31.1906 39.6994 30.1086 40.0499 29.8688C40.4035 29.8688 40.7755 29.5184 41.169 28.7131C41.5625 28.75 41.9714 27.1116 42.3987 27.6834C42.8291 27.8186 43.2749 26.4692 43.7392 26.795C44.2034 25.8176 44.683 25.9467 45.178 26.0665M47.6805 33.5543C47.2962 33.4929 46.9365 34.3443 46.6045 34.3351C46.4904 34.6483 46.3297 34.9426 46.1279 35.208C45.6576 35.3802 45.4485 35.4232 45.6975 35.3095C45.5622 35.1466 45.47 35.4263 45.3132 35.749C45.427 36.0564 45.6852 36.4345 44.9781 36.4283C44.7906 36.6527 45.1841 36.8495 44.6922 37.0431C44.7783 37.2398 43.9082 37.4335 44.4586 37.6579C44.603 37.8454 44.4217 38.0329 44.3171 38.2234C44.6031 38.414 43.8437 38.6046 44.2556 38.7982C43.7238 39.1855 44.2188 39.5728 44.2311 39.9632C43.9636 40.3505 44.7383 40.7378 44.1112 41.1159C43.856 41.5708 44.0497 41.9919 43.4748 42.3454C42.3219 42.7143 42.6846 43.0309 42.4356 43.2676C42.3495 43.5165 41.5502 43.701 41.1413 43.8024C40.6818 43.9041 40.2071 43.9177 39.7425 43.8424C39.6287 43.8116 38.7986 43.6917 38.6757 43.535C38.153 43.3659 38.4758 43.1477 37.7534 42.9202C37.3445 42.6897 37.1969 42.4468 36.8649 42.2317C37.2123 42.1241 36.2838 42.0565 36.3976 41.9827C36.2197 41.9071 36.0507 41.8122 35.8934 41.6999C35.4375 41.5494 34.9709 41.4333 34.4976 41.3526C34.2643 41.2723 34.0117 41.2669 33.7751 41.3372C33.5388 41.4032 33.289 41.4032 33.0527 41.3372C32.8129 41.7706 32.5761 41.3188 32.3456 41.4725C32.115 41.6261 31.8875 41.202 31.6661 41.7061C31.4448 41.5647 31.2326 41.7952 31.0297 42.038C30.8268 41.7675 30.6331 42.7327 30.4518 42.4745C30.1136 42.9356 29.8123 42.9571 29.551 43.4397C29.2927 43.8577 29.0744 44.2758 28.9023 44.5862C28.73 44.9903 28.6061 45.4133 28.5333 45.8465C28.4674 46.2796 28.4467 46.7185 28.4719 47.1559C28.5057 48.1641 28.5979 48.2287 28.7516 48.4469C28.9299 50.0422 29.1574 50.2605 29.4218 49.8516C29.6862 50.5709 29.9875 50.7154 30.3196 51.1119C30.5621 51.4162 30.8262 51.7028 31.1097 51.9695C31.5923 52.2431 31.4171 52.5043 31.9766 52.7564C32.2574 53.0285 32.5666 53.2696 32.8989 53.4757C33.242 53.6572 33.5629 53.8779 33.8551 54.1334C34.5868 54.407 34.2332 54.6744 35.2109 54.9419C35.8257 55.2062 35.9795 55.4706 36.582 55.7257C37.3844 55.9839 36.7327 56.2359 37.9686 56.4818C39.5058 56.7277 38.9739 56.9675 39.3736 57.2011C40.1022 57.4347 38.6111 57.6591 40.8001 57.8773C41.6055 58.0956 40.6125 58.3046 42.2481 58.4921C44.062 58.6919 42.9152 58.8855 43.7176 59.0669C44.6215 59.2483 45.1872 59.4204 45.2118 59.5802C45.5192 59.7401 46.749 59.8876 46.7305 60.0259C47.9603 59.6263 46.586 59.2237 47.7205 58.8179C49.5989 58.4122 47.124 58.0064 48.6981 57.5884C48.5136 57.1796 48.7811 56.7677 49.6604 56.3589C50.5396 55.9501 51.4312 55.5259 50.6011 55.1048C51.216 54.6837 50.8901 54.2595 51.5234 53.8322C51.5419 53.405 50.3275 52.9746 52.4058 52.5381C52.4058 52.1047 53.0207 51.6652 53.2543 51.2226C53.0114 50.7799 54.315 50.3342 54.0598 49.8824C54.6224 49.4305 53.7124 48.9756 54.8192 48.5176C54.9083 48.0565 53.8969 47.5955 55.5293 47.1221C55.0743 46.8885 56.3102 46.6149 55.8644 46.3629C55.9202 46.1228 56.0249 45.8968 56.1719 45.6989C56.2949 45.4653 55.9628 45.0842 56.424 44.7768C56.8851 44.4694 56.1995 44.2819 56.6546 44.4233C56.9835 44.2604 57.2141 44.2942 56.8575 44.1897C56.6177 44.0821 56.6853 43.8362 57.0296 43.1169C56.4147 43.1969 57.4477 43.0801 57.171 42.8341C56.9651 42.5882 57.4785 42.2194 57.2756 41.7829C57.6875 41.2634 56.8267 40.953 57.3432 40.7563C57.3432 40.5626 57.3678 40.4827 57.3678 40.4304C57.3684 39.9761 57.3386 39.5222 57.2786 39.0718C57.2202 38.6384 57.1342 37.4089 57.0143 37.7286C56.8944 37.5195 56.7406 37.4857 56.5531 36.4314C56.3656 35.3771 56.1381 36.0011 55.8706 35.248C55.6031 36.4345 55.2957 33.9754 54.9483 34.2398C54.7515 35.0451 54.5455 34.0584 54.3334 33.7726C54.1182 34.2121 53.8907 33.5943 53.6601 33.3883C53.4265 33.5789 53.1897 32.2787 52.9438 33.081C52.6978 32.4939 52.4488 32.9795 52.1967 32.8658C51.9446 32.331 51.6864 32.3494 51.4281 32.6476C51.1699 33.084 50.9116 32.4478 50.6503 32.7029C50.3921 32.1527 50.1338 32.8627 49.8756 32.7736C49.7859 32.8829 49.6601 32.9566 49.5209 32.9814C49.3816 33.0062 49.2381 32.9805 49.1162 32.9088C48.8672 32.8689 48.6212 33.1517 48.3814 33.25C48.1679 33.392 47.9363 33.5046 47.6928 33.5851L47.6805 33.5543Z" fill="black"/>
<path d="M98.844 73.4216C99.09 72.8252 99.339 72.6992 99.5942 72.7638C99.8494 72.8283 100.101 73.1203 100.35 73.2402C100.603 73.1726 100.849 72.6531 101.091 72.8806C101.334 72.6408 101.568 73.0589 101.795 73.6675C101.921 73.649 102.048 73.6684 102.162 73.7232C102.276 73.778 102.371 73.8656 102.435 73.9749C102.536 74.1654 102.632 73.6675 102.724 74.0978C102.816 74.1162 102.905 74.3007 102.988 74.6019C103.071 74.5527 103.151 74.9708 103.225 75.2167C103.287 75.2992 103.356 75.3764 103.431 75.4472C103.557 75.7331 103.665 75.0507 103.738 75.9267C103.812 76.0558 103.868 76.5077 103.901 76.4032C103.935 76.1142 103.951 76.2003 103.951 77.0825C103.915 77.3143 103.902 77.5489 103.911 77.7833C103.886 77.9646 103.846 77.7433 103.803 78.2351C103.757 78.2997 103.705 78.7054 103.649 78.8069C103.594 78.2966 103.532 78.7423 103.474 79.3755C103.416 79.9227 103.354 80.147 103.299 79.9411C103.271 79.8366 103.243 79.5046 103.219 79.7843C103.179 80.0213 103.155 80.2605 103.145 80.5005C103.09 80.5682 103.034 80.5866 102.982 81.0507C102.93 81.1399 102.878 81.5856 102.825 81.7577C102.773 81.6133 102.724 82.228 102.675 82.5661C102.665 82.7284 102.615 82.8857 102.53 83.0241C102.484 83.7957 102.438 83.1194 102.392 83.6389C102.346 83.6389 102.303 83.4145 102.257 84.2813C102.235 84.4901 102.191 84.6961 102.127 84.8961C102.084 85.4186 102.041 85.1881 102.001 85.56C101.958 86.4268 101.918 86.0457 101.878 86.2485C101.838 86.3346 101.799 86.7065 101.755 86.8418C101.706 86.8203 101.608 87.2967 101.534 87.6441C101.46 88.2219 101.411 88.0744 101.457 88.4463C101.285 89.0611 101.279 89.4115 101.285 89.2486C101.285 89.2855 101.304 90.3306 101.165 90.0508C101.208 90.8039 101.273 90.1892 101.254 90.8531C101.239 91.1912 101.141 90.7394 100.867 91.6554C100.79 91.7723 100.738 91.904 100.715 92.0422C100.691 92.1804 100.697 92.3219 100.732 92.4576C100.766 92.5953 100.768 92.7391 100.738 92.8777C100.707 93.0163 100.645 93.1461 100.556 93.2568C100.652 93.7886 100.338 94.3204 100.228 94.8521C99.2037 95.3839 99.6126 95.9126 99.8709 96.4382C100.006 96.9638 99.6157 97.4894 99.4774 98.012C99.0676 99.5824 98.5708 101.129 97.9894 102.644C97.7926 103.148 97.5866 104.083 97.3745 104.147C97.1531 105.143 96.9195 106.068 96.6705 105.629C96.446 106.551 96.2032 108.229 95.948 106.994C95.6928 106.634 95.4223 107.359 95.1394 108.303C94.8566 107.71 94.5584 110.762 94.2479 109.557C93.9404 111.017 93.6145 110.147 93.2794 110.753C92.9443 111.469 92.5969 110.513 92.2372 111.884C91.8775 111.322 91.5086 111.915 91.1274 112.951C90.7462 112.978 90.3557 114.795 89.9561 113.95C89.5564 113.301 89.1444 113.787 88.7263 114.872C88.3082 116.224 87.8778 114.909 87.4443 115.726C87.0077 116.055 86.565 115.748 86.1131 116.504C85.6612 116.415 85.1908 116.851 84.7389 117.202C84.2746 118.17 83.8166 117.629 83.3277 117.817C82.8235 119.068 82.3163 116.452 81.7906 118.404C81.2771 120.58 80.7606 117.263 80.2534 118.932C79.7338 120.976 79.2081 118.407 78.6824 119.403C78.1536 119.178 77.6248 119.338 77.0898 119.811C76.558 119.685 76.02 122.63 75.4819 120.156C74.9439 117.503 74.4028 122.129 73.8618 120.435C73.3661 120.713 72.7826 120.789 72.2324 120.647C71.6882 122.818 71.144 121.57 70.5968 120.792C70.0495 120.66 69.5054 121.195 68.9581 120.863C68.4109 119.771 67.8668 120.5 67.3195 120.863C66.7723 122.458 66.2281 119.483 65.684 120.786C65.1398 121.222 64.5956 119.529 64.0545 120.629C63.9226 120.561 63.772 120.537 63.6255 120.562C63.479 120.587 63.3447 120.659 63.2429 120.767C62.9724 120.838 62.7049 120.672 62.4343 120.395C62.1638 119.655 61.8963 120.15 61.6289 119.947C61.3614 119.682 61.0939 120.103 60.8265 120.079C60.559 120.239 60.2946 119.842 60.0271 119.888C59.7627 119.664 59.4983 120.242 59.2339 119.676C58.9695 118.708 58.7082 120.067 58.4438 119.443C58.1825 118.345 57.9212 118.929 57.6599 119.187C57.1311 119.907 56.6084 119.089 56.095 118.613C55.5785 117.644 55.0713 116.59 54.5578 117.955C54.0567 116.569 53.5617 117.795 53.0729 117.214C52.5841 116.04 52.1045 116.418 51.631 116.396C51.1576 117.546 50.6934 117.352 50.2353 115.502C49.7772 115.668 49.313 115.065 48.8856 114.54C48.4429 111.856 48.0094 113.848 47.5852 113.51C47.373 114.322 47.1609 113.676 46.9519 113.015C46.7428 112.354 46.5368 111.675 46.337 112.419C45.9004 111.294 45.9312 111.497 45.7221 111.74C45.5131 111.982 45.3255 112.253 45.1288 111.266C44.932 111.328 44.7414 110.891 44.5508 110.51C44.5846 110.126 44.1942 109.794 43.9851 110.061C43.7514 109.198 43.8775 108.69 43.4348 108.494C42.9921 108.297 43.1089 108.414 42.8968 108.801C42.7215 108.939 42.5463 108.383 42.3741 107.91C42.202 107.436 42.0329 107.04 41.8669 107.495C41.5318 108.171 41.2089 107.144 40.8954 106.145C40.5879 106.268 40.2805 106.711 39.9731 104.756C39.6656 106.367 39.3981 104.427 39.1276 103.33C38.8571 105.085 38.5957 104.236 38.3467 101.87C38.1592 101.018 37.9778 100.382 37.8026 100.333C37.6273 100.284 37.4552 98.1811 37.2861 98.7958C37.117 98.0181 36.954 99.8348 36.7942 97.2374C36.7142 97.4126 36.6343 97.4218 36.5574 97.1882C36.4407 96.69 36.3636 96.1832 36.3269 95.6728C36.25 94.1851 36.1762 94.7507 36.0994 94.4433C36.0225 94.1359 35.9518 94.1974 35.878 94.1052C35.8615 93.6229 35.7882 93.1441 35.6597 92.6789C35.589 92.8572 35.5152 91.7568 35.4445 92.5283C35.3738 92.974 35.3031 92.5283 35.2324 92.0457C35.1311 91.6867 35.0612 91.3195 35.0233 90.9484C34.9557 90.8131 34.885 89.8357 34.8173 89.6943C34.7497 88.8705 34.6821 88.806 34.6144 89.3654C34.5468 89.7373 34.4792 89.2793 34.4146 88.8889C34.347 88.5816 34.2824 88.2557 34.2148 87.7793C34.1471 88.5508 34.0826 88.2465 34.0149 87.8623C33.9473 87.4781 33.8827 86.8018 33.8182 86.1932C33.686 86.1717 33.5538 83.3131 33.4216 84.6071C33.2894 83.7834 33.1572 82.6553 33.0219 83.021C32.9205 84.2506 32.8129 83.7618 32.7329 81.8069C32.6537 81.4018 32.6136 80.9901 32.613 80.5774C32.6119 80.3084 32.6355 80.0398 32.6837 79.7751C32.7268 79.5753 32.7913 79.6522 32.8774 79.3663C32.954 78.9262 33.0566 78.491 33.1849 78.063C33.3017 79.0067 33.4339 77.7894 33.5784 78.2413C33.7259 77.0118 33.8858 77.9339 34.0549 77.5589C34.2271 77.5589 34.4085 78.0999 34.5991 77.4114C34.7897 76.7966 34.9895 76.0589 35.1955 76.6398C35.4015 76.8027 35.6136 76.5538 35.8288 76.9472C36.044 76.8366 36.2623 77.1993 36.4806 76.8765C36.6989 76.5538 36.9171 77.1593 37.1354 76.898C37.3506 77.2485 37.5658 76.5538 37.7749 77.0548C37.9839 76.8765 38.1868 77.2454 38.3898 77.3407C38.8755 77.9769 39.3643 78.186 39.8593 78.1399C40.3543 78.6501 40.8523 79.1665 41.3565 78.8776C41.8607 79.8212 42.368 81.0999 42.8937 79.5538C43.404 80.2608 43.9205 79.6214 44.4309 80.1686C44.9504 80.1132 45.4731 81.3243 45.9988 80.7249C46.5245 81.4503 47.0533 81.9114 47.5852 81.2229C48.117 81.2997 48.652 81.5303 49.19 81.6624C49.728 80.3714 50.2691 81.4534 50.8102 82.0467C51.3513 81.4073 51.8985 81.2659 52.4427 82.3755C52.9899 83.5836 53.5371 81.7362 54.0875 82.6491C54.6378 82.0344 55.1881 82.7444 55.7415 82.8674C56.2948 83.5713 56.8482 82.56 57.4016 83.0333C57.955 82.7598 58.5115 83.2946 59.0679 83.1502C59.6244 84.9084 60.1808 83.6266 60.7373 83.2147C61.2938 83.5559 61.8502 83.4299 62.4067 83.2147C62.9631 83.7957 63.5196 83.7772 64.073 83.1809C64.6294 83.7311 65.1828 82.3971 65.7362 83.101C66.2896 81.5641 66.843 83.5866 67.3933 82.9719C67.9436 82.3571 68.4939 83.144 69.0412 82.8028C69.5884 82.978 70.1356 82.0897 70.6798 82.5907C71.224 82.2833 71.7681 82.0313 72.3123 82.3387C72.8564 82.7137 73.3975 81.9544 73.9355 82.0467C74.4766 81.5456 75.0146 81.4104 75.5527 81.7178C76.0907 81.4104 76.6256 81.9637 77.1606 81.352C77.6955 82.4801 78.2274 81.0753 78.7623 80.9524C79.2942 80.227 79.826 80.4145 80.3548 80.522C80.8836 80.0364 81.4124 79.8489 81.9381 80.061C82.4638 80.0026 82.9895 80.061 83.5153 79.5692C84.0379 78.6163 84.5636 80.1378 85.0832 79.0528C85.6058 79.6122 86.1254 79.4985 86.645 78.5087C87.1645 77.3407 87.681 78.1429 88.1975 77.9431C88.714 76.0343 89.2274 77.0025 89.7347 77.353C90.2481 76.2034 90.7615 77.5097 91.2719 76.7382C91.7822 77.1071 92.2926 76.812 92.8091 76.1234C93.3163 76.9288 93.8236 75.3949 94.3309 75.4779C94.8351 76.1419 95.3423 75.3611 95.8435 74.8171C96.3477 74.4851 96.8488 74.6296 97.3499 74.1408C97.5989 73.5599 97.851 73.48 98.1 73.4984C98.3491 73.5169 98.5981 73.6337 98.8471 73.4554M73.6712 90.0631C73.3945 89.8203 73.1147 89.6328 72.838 90.306C72.5582 89.8726 72.2815 90.8285 72.0018 90.3367C71.722 90.5334 71.4422 90.7424 71.1625 90.2568C70.8827 90.6994 70.6029 89.5498 70.3232 90.5642C70.0434 90.6103 69.7636 90.4074 69.4808 90.6164C69.1979 90.8254 68.9182 90.6687 68.6384 90.7578C67.919 91.2312 68.2418 91.1574 68.2172 91.0283C68.0758 90.8992 67.9344 90.7209 67.796 90.9761C67.5132 90.4935 67.2334 90.5826 66.9506 90.9115C66.6677 90.1308 66.388 91.2834 66.1051 90.973C65.8223 91.0099 65.5395 90.9883 65.2566 91.0222C64.8047 91.5109 64.3528 91.2435 63.9008 91.0806C63.4489 90.9914 62.997 92.1718 62.542 91.1113C62.09 89.7558 61.6381 92.5468 61.1831 91.1113C60.7312 90.4504 60.2792 90.7486 59.8273 91.0836C59.3754 90.933 58.9234 91.4402 58.4715 91.0283C58.1887 92.0765 57.9058 90.6502 57.626 90.9791C57.3432 92.0119 57.0634 92.0119 56.7806 90.9177C56.4978 91.6707 56.218 92.3716 55.9351 90.847C55.6554 90.0908 55.3725 90.3152 55.0928 90.7578C54.813 89.7773 54.5302 90.7824 54.2504 90.7578C53.9706 90.7332 53.6909 90.4504 53.4111 90.5488C53.1313 90.4351 52.8516 90.9883 52.5749 90.3521C52.2951 91.1789 52.0184 91.7261 51.7386 90.2906C51.4619 90.8347 51.1822 90.432 50.9055 90.266C50.6288 90.6656 50.3521 90.6441 50.0754 89.9801C49.7987 88.1666 49.522 90.223 49.2484 89.7465C48.9717 89.5467 48.6981 89.2055 48.4214 89.6205C48.1478 90.1953 47.8711 90.598 47.5975 89.4668C47.3239 91.4218 47.0502 90.6963 46.7766 89.2086C46.503 89.4514 46.2325 88.4279 45.9619 88.9842C45.6914 89.9064 45.4208 89.5467 45.1503 88.7414C44.8797 88.1543 44.6092 87.2045 44.3417 88.1728C44.0712 87.6102 43.8037 88.5754 43.5362 88.2189C43.2688 87.6256 43.0013 88.9812 42.7338 87.9453C42.4664 88.7014 42.202 87.1399 41.9376 87.6379C41.9868 88.9719 42.0329 88.6523 42.0821 88.6984C42.1313 88.8521 42.1804 87.8623 42.2296 89.0334C42.2788 89.7773 42.328 89.1717 42.3803 89.7312C42.4325 89.642 42.4848 90.3275 42.5401 90.4258C42.5955 90.2107 42.6508 92.1502 42.7092 91.1174C42.7676 92.39 42.8261 92.0211 42.8875 91.8091C43.0167 92.8203 43.1581 92.2209 43.318 93.389C43.6102 93.8533 43.7892 94.3797 43.8406 94.9259C43.9359 95.347 44.0343 95.848 44.148 96.2046C44.2618 96.5612 44.3571 96.7179 44.4555 96.4413C44.3909 97.0376 44.7998 97.2743 44.7937 97.428C45.0458 97.5817 45.1564 97.6524 45.1534 97.9198C45.1042 98.304 45.4423 98.513 45.5315 98.7005C45.5315 98.888 46.1833 99.054 45.9312 99.3583C45.8266 99.5489 45.9312 99.8501 46.3493 100.127C46.0418 100.403 46.4661 100.659 46.7858 100.742C47.3577 100.969 47.1548 101.196 47.2408 101.421C47.0041 101.645 47.2408 101.867 47.7143 102.088C47.5913 102.466 48.0217 102.838 48.569 103.201C48.861 103.566 48.9317 103.923 49.4728 104.273C50.1984 104.624 50.3306 104.968 50.4259 105.303C50.8098 105.576 51.1472 105.909 51.4251 106.29C51.5832 106.463 51.756 106.623 51.9416 106.766C51.837 106.923 52.126 107.074 52.4673 107.23C52.6118 107.384 53.2635 107.538 53.2143 107.682C53.4203 107.83 53.5402 107.99 53.5494 108.122C53.242 108.266 53.4664 108.408 54.0167 108.546C53.654 108.684 54.2658 108.823 54.6716 108.958C55.2496 108.752 55.1174 108.552 55.2496 108.343C55.1051 108.146 55.9044 107.95 55.763 107.759C56.0368 107.585 56.3016 107.397 56.5562 107.197C56.4885 107.012 57.0419 106.834 56.9374 106.656C57.218 106.449 57.5212 106.274 57.8413 106.136C58.0811 105.967 57.872 105.801 58.1917 105.641C58.161 105.478 58.905 105.334 58.8558 105.168C59.0648 105.014 59.2739 104.86 59.5168 104.719C59.8801 104.304 60.3654 104.015 60.9033 103.892C60.7404 103.763 60.5959 103.637 60.7373 103.517C60.882 103.425 61.0443 103.364 61.2138 103.339C61.5865 103.261 61.9632 103.204 62.3421 103.167C62.685 103.086 63.0333 103.031 63.3843 103.001C62.9508 102.945 63.4673 102.893 63.5288 102.841C63.7102 102.736 64.2052 102.638 63.8363 102.534C64.2421 102.487 63.9685 102.441 64.0822 102.395C63.99 102.349 64.0822 102.306 64.8139 102.263C65.7362 102.22 65.5825 102.18 65.5825 102.14C66.1513 102.1 64.9676 102.06 65.3611 102.023C64.9 101.946 66.3695 101.876 65.7454 101.811C65.941 101.735 66.1509 101.703 66.3603 101.716C66.3173 101.685 66.265 101.654 66.9229 101.627C67.5808 101.599 67.1473 101.59 67.3441 101.571C67.052 101.571 67.2396 101.553 67.5009 101.544C67.7622 101.35 68.1004 101.344 68.1158 101.519C68.1926 101.433 69.0965 102.134 68.4478 101.47C68.7552 101.163 68.082 101.224 69.0842 101.424C68.1096 101.731 67.9528 101.731 68.0481 101.381C68.1434 101.11 68.4878 101.129 68.5185 101.344C68.3894 101.129 68.3648 101.156 68.454 101.249C68.6476 101.249 67.7284 101.224 69.0381 101.212C69.2471 101.565 68.0543 101.212 69.2779 101.212C68.786 101.012 68.992 101.464 69.324 101.212C69.656 101.212 70.111 100.649 70.1233 101.212C69.8159 101.037 70.3693 101.335 69.7237 101.193C70.3601 101.725 70.3939 101.344 70.4277 101.193C70.2893 100.911 70.9811 101.568 71.2455 101.193C70.9749 101.501 70.9042 100.514 70.9934 101.193C71.0825 101.356 71.3316 101.107 71.7097 101.193C70.9965 101.661 71.3193 101.003 70.8981 101.193C70.4646 101.123 70.2248 101.098 70.3262 101.193C69.8989 101.387 70.3017 101.193 70.6798 101.193C71.0579 100.809 71.4084 101.193 70.8796 101.209C71.021 101.741 71.0549 100.766 71.1655 101.209C71.2762 101.424 71.473 101.338 71.9188 101.209C72.2785 101.39 72.2969 100.886 72.3891 101.209C72.4353 101.421 72.4998 100.797 72.632 101.067C72.7642 101 72.9671 101.067 73.293 101.218C73.1301 101.439 72.8933 101.525 73.582 101.304C73.9079 101.584 73.9571 102.029 73.7111 101.359C73.4836 101.23 73.4375 101.243 73.6127 101.39C73.7433 101.479 73.8949 101.532 74.0524 101.544C74.2584 101.498 74.5258 102.054 74.8609 101.421C74.7441 101.876 74.907 101.178 75.1684 101.455C75.4174 101.907 75.7494 101.261 75.9739 101.488C76.0569 101.513 76.3397 101.538 76.5887 101.562C77.0345 101.587 77.1544 101.614 77.0806 101.645C76.8659 101.691 76.648 101.721 76.4289 101.734C75.9677 101.47 77.5141 101.796 77.0284 101.83C76.3858 101.704 76.558 101.747 76.89 101.879C77.222 101.897 77.717 101.913 77.7139 101.931C77.4065 102.002 78.2366 102.076 77.9537 102.155C77.5295 102.195 77.3389 102.235 77.3173 102.278C77.2835 102.143 77.4004 102.361 77.5633 102.408C77.4403 102.408 77.5049 102.497 77.923 102.543C78.584 102.589 79.0082 102.635 79.4602 102.684C79.8998 102.779 79.1343 102.881 79.3956 102.992C79.2112 103.044 79.3065 103.096 79.1896 103.151C79.7582 103.26 80.3355 103.316 80.9144 103.317C81.2162 103.417 81.5118 103.534 81.7998 103.668C82.0006 103.749 82.1789 103.878 82.3193 104.043C82.7282 104.301 81.2556 104.575 83.6721 104.867C84.5267 105.156 84.9018 105.463 84.9633 105.789C84.4929 106.096 85.8487 106.443 86.193 106.794C86.625 106.578 86.9605 106.209 87.1338 105.758C88.5388 105.401 86.977 105.039 88.0008 104.664C87.8101 104.289 89.1198 103.904 88.7909 103.511C89.2735 103.118 88.6433 102.715 89.4949 102.303C90.7523 101.891 89.7716 101.47 90.1098 101.043C90.4172 100.551 90.8968 100.056 90.7246 99.5581C90.1959 99.0602 91.5762 98.5561 91.2627 98.0489C91.8345 97.5417 91.7638 97.0345 91.7361 96.512C92.0927 95.9987 91.4287 95.4853 92.1542 94.9751C92.8798 94.4648 92.1542 93.9392 92.5262 93.4167C91.6961 92.8941 93.1227 92.3716 92.8613 91.849C93.2118 91.3265 92.6123 90.8008 93.1688 90.2752C92.1665 89.7496 93.6084 89.224 93.4608 88.6953C93.5712 88.438 93.6657 88.1742 93.7437 87.9053C93.8201 87.6476 93.8201 87.3731 93.7437 87.1154C93.6914 87.5764 93.6391 85.9842 93.6422 86.7219C93.6422 85.9535 93.7068 86.559 93.8851 86.3285C94.1587 85.8613 94.1649 85.4801 94.1157 85.935C94.0665 86.144 93.965 84.9268 94.0296 85.5416C94.1157 85.1727 93.9312 84.7639 93.8359 85.0928C93.7406 84.7362 93.7345 84.7854 94.1772 84.7854C94.2694 84.9883 94.337 84.478 94.3708 84.478C94.4016 84.3643 94.3954 83.6512 94.3309 83.977C94.6844 84.1553 94.5953 83.977 94.3647 84.6256C94.1372 84.77 93.7683 85.4955 93.5623 84.85C93.7252 84.9606 92.9474 84.2506 92.7937 84.5826C92.2342 84.6748 91.733 84.7455 91.527 84.8008C91.3211 84.8561 91.4072 84.9022 92.022 84.9391C91.6715 85.0159 91.5855 85.0713 91.2473 85.1666C91.3395 85.3971 91.5547 85.0283 90.4725 84.8592C90.1928 84.6871 89.4303 84.7147 89.6947 85.7352C88.9661 86.3315 89.4672 86.4422 88.9138 86.4176C88.6433 86.393 88.299 86.2301 88.133 86.2793C87.2322 86.2117 88.133 86.2793 87.349 86.4145C87.0416 86.5375 86.1192 86.7035 86.565 86.7988C85.9194 86.7803 85.8518 86.9094 85.778 87.0416C85.5278 87.163 85.2618 87.2488 84.9879 87.2967C84.7152 87.3076 84.4439 87.2516 84.1978 87.1338C84.1361 87.1 84.0661 87.0844 83.9959 87.0887C83.9257 87.0931 83.8582 87.1172 83.8012 87.1584C83.6144 87.3225 83.4771 87.5354 83.4046 87.7731C83.3168 87.9126 83.2004 88.0318 83.0632 88.1229C82.9259 88.214 82.7709 88.275 82.6083 88.3018C82.3439 88.1297 82.0765 88.3357 81.8121 88.2189C81.5477 88.2189 81.2802 89.141 81.0127 88.4309C80.7453 88.4309 80.4809 87.9084 80.2134 88.6369C79.9459 88.9074 79.6785 89.1502 79.411 88.8644C79.1435 89.1717 78.8761 89.0734 78.6055 89.0273C78.338 89.1103 78.0675 89.4822 77.8 89.2025C77.5325 89.3193 77.262 89.0119 76.9915 89.3869C76.7209 89.4514 76.4535 90.6902 76.1829 89.4914C75.9124 88.0682 75.6418 90.0478 75.3713 89.7127C75.0786 89.6916 74.7888 89.7816 74.5596 89.9648C74.2891 90.3183 74.0155 89.4269 73.7449 90.0047M58.0657 113.479C58.5096 113.615 58.9458 113.775 59.3723 113.959C59.4748 113.906 59.5887 113.878 59.7043 113.878C59.8199 113.878 59.9338 113.906 60.0363 113.959C60.5436 114.051 60.1224 114.214 60.7035 114.374C60.9321 114.415 61.1571 114.474 61.3768 114.549C61.1124 114.604 62.09 114.657 62.0562 114.706C62.0962 114.755 62.0562 114.801 62.7387 114.847C62.6465 114.89 63.1292 114.933 63.4243 114.97C63.9193 115.062 64.2236 115.029 64.113 115.013C64.5803 114.998 64.199 115.013 64.8047 115.164C64.7002 115.321 64.8047 115.419 64.9769 115.471C65.1451 115.522 65.3211 115.541 65.4964 115.53C65.8223 115.637 65.8469 115.425 66.1912 115.284C66.4987 115.72 66.6309 115.496 66.7292 115.508C66.8307 115.591 66.886 115.284 66.9998 115.493C67.092 115.053 67.2058 116.107 67.3072 115.772C67.424 115.259 67.5409 116.138 67.6362 115.523C67.4179 115.748 67.3564 114.82 67.796 115.348C67.8698 114.943 68.3679 114.804 68.3218 115.321C68.703 115.05 68.7091 115.6 68.6077 115.118C68.4847 114.973 68.3771 114.724 68.3863 114.832C68.3863 114.509 68.5185 115.265 68.8598 115.029C68.5984 115.029 68.829 115.213 68.6507 115.115C68.9889 115.213 68.9981 114.423 69.4162 115.336C69.6284 115.388 68.4939 115.511 69.7237 115.468C69.6714 115.852 69.53 115.628 69.5392 115.419C69.5392 115.649 69.6991 115.668 70.234 115.333C70.5138 115.511 70.6122 116.031 70.6952 115.48C70.7751 115.732 70.8397 115.281 71.0426 115.247C71.2762 115.723 71.35 115.025 71.4115 115.511C71.4853 115.748 71.5714 115.354 71.8511 115.259C72.1862 116.138 72.011 114.801 72.3584 115.191C73.1547 114.614 72.589 115.523 72.6658 115.081C72.2262 115.133 73.0993 114.466 73.0163 114.601C73.2315 114.229 73.4406 114.411 73.6127 114.429C73.7849 114.506 73.9202 114.349 74.0001 114.5C74.1508 114.807 74.0493 114.048 73.4682 114.472C73.6589 114.315 73.7173 114.955 73.7757 114.586C74.0432 115.084 74.1753 114.426 74.2676 114.832C73.8587 114.863 74.1969 114.924 74.575 114.694C74.7595 114.589 74.9532 114.761 75.0669 114.912C75.1807 114.398 75.2114 114.952 75.0669 114.647C75.1684 114.623 75.2913 114.567 75.4235 114.813C75.5557 115.059 75.7064 114.792 75.857 114.506C76.1645 114.841 76.3612 114.466 76.4073 114.377C76.4504 113.679 76.352 114.528 76.0999 114.26C76.2659 114.488 76.8439 114.202 76.641 114.082C77.2343 113.814 76.5119 114.389 77.4249 114.11C77.8308 113.406 77.8 113.824 77.7324 113.679C77.6678 113.338 77.5725 113.547 77.8554 113.442C78.2673 113.363 77.883 113.944 78.2028 113.369C78.4825 113.817 78.6701 113.722 78.7992 113.399C78.9252 113.608 78.9898 112.905 79.0205 113.547C79.079 113.547 78.9929 113.181 78.9775 113.636C78.9345 114.14 79.0605 114.097 79.2327 113.636C79.4018 113.738 79.617 113.897 79.743 113.98C79.8691 114.392 79.9951 114.03 80.1242 113.904C80.3134 113.665 80.443 113.385 80.5024 113.086C81.0066 113.246 81.5046 112.09 81.9965 112.471C82.4884 111.7 82.9742 111.405 83.4568 111.764C83.1064 111.391 82.7385 111.038 82.3531 110.704C82.0457 110.435 81.728 110.179 81.4001 109.935C81.5999 109.812 81.4001 109.696 81.1296 109.579C80.859 109.462 80.5147 108.838 80.3917 109.241C80.0843 108.982 79.9859 109.121 79.9244 109.133C79.8629 109.84 79.8383 108.764 79.6754 108.924C79.6754 108.586 78.8976 108.481 79.3372 108.617C79.0298 108.657 78.8976 108.65 78.8115 108.475C78.7254 108.555 78.667 108.257 78.461 108.34C78.3534 108.558 78.3626 108.555 78.2397 108.082C78.4333 107.67 78.2181 107.98 77.9691 107.833C77.7232 107.959 77.4465 107.473 77.5264 107.833C77.1175 107.787 76.9331 108.844 76.89 107.722C76.847 107.996 76.9484 107.015 77.1052 107.615C76.5764 107.75 77.0376 107.522 76.4442 107.372C76.6963 107.473 76.5795 107.157 76.3612 107.261C76.1429 107.876 75.8171 106.416 75.648 107.16C75.4758 107.409 75.5588 106.545 75.5496 106.917C75.5404 107.289 75.4389 106.456 74.8978 106.981C75.3252 107.436 75.3098 107.452 75.1007 106.905C74.9962 106.652 74.8425 106.84 74.6765 106.726C74.5074 107.363 74.3229 106.533 74.1538 106.837C73.4498 106.155 73.8802 106.944 73.4559 106.726C73.5267 106.419 73.4959 107.289 73.3606 106.683C73.2446 106.729 73.1203 106.749 72.9958 106.743C72.8713 106.738 72.7494 106.706 72.6382 106.649C72.4607 106.61 72.2786 106.595 72.0971 106.606C71.9587 106.874 71.6728 106.545 71.4822 106.606C71.2885 106.579 71.1748 105.666 71.4115 106.606C70.9442 106.988 70.8735 106.539 71.104 106.606C70.8132 106.752 70.4849 106.804 70.1633 106.757C70.0157 106.609 70.0096 106.36 70.0649 106.616C70.1725 106.52 70.5261 106.769 70.4953 106.634C70.3478 106.167 70.1879 107.04 70.0711 106.662C70.3785 106.308 70.3355 106.683 70.1848 106.68C70.0342 106.603 69.7606 106.271 69.5699 106.699C69.0166 106.367 69.5054 106.121 69.3855 106.748C69.3271 106.36 68.8198 106.861 68.6599 106.806C67.5224 106.702 68.3187 107 68.0635 106.951C67.3656 107.258 67.9559 107.19 67.3871 107.132C66.8461 107.018 67.4363 107.067 66.9506 107.236C66.8215 108.177 67.0336 107.341 67.1258 107.587C67.2181 107.153 67.1935 107.661 66.5878 107.35C66.4802 107.633 66.7016 107.378 66.8953 107.169C67.0736 107.301 67.2027 107.538 66.9198 107.476C66.9936 106.969 66.8768 108.288 66.7046 107.707C66.6132 107.743 66.5132 107.753 66.4163 107.735C66.3194 107.718 66.2296 107.672 66.1574 107.605C66.4648 107.572 66.3111 107.857 66.1021 107.645C65.8961 107.175 65.6378 107.338 65.7331 107.741C64.94 108.263 65.1183 107.698 65.1644 107.885C64.9031 109.139 64.2759 107.691 64.5495 108.039C65.0137 107.384 64.7893 107.839 64.5495 108.119C64.3128 107.633 64.0638 108.518 64.4819 108.199C64.568 108.709 64.4542 108.288 64.2882 108.481C64.1191 108.217 63.9008 108.481 63.7748 108.543C63.8977 108.543 63.9439 108.171 63.8609 108.727C63.7778 109.096 63.5534 108.647 63.1753 108.918C63.3228 109.277 63.1937 108.918 63.0031 109.115C62.8178 109.166 62.6377 109.235 62.4651 109.321C61.6781 109.6 61.798 109.895 61.2354 110.212C60.6727 110.529 60.9925 110.86 60.0794 111.208C59.8918 111.558 59.1878 111.921 59.0187 112.302C58.8507 112.493 58.6867 112.686 58.5268 112.883C58.367 113.08 58.1887 113.295 57.9919 113.529L58.0657 113.479Z" fill="black"/>
</svg>
