<svg width="140" height="139" viewBox="0 0 140 139" fill="none" xmlns="http://www.w3.org/2000/svg">
<path d="M135.638 55.9586C135.207 55.9586 136.623 55.9586 135.638 55.9586C136.325 56.4823 135.881 57.0061 136.033 57.5271C135.167 58.0509 136.591 58.5719 136.396 59.093C136.093 59.614 136.499 60.1351 136.729 60.6534C135.343 61.1718 137.872 61.6928 137.029 62.2085C136.656 62.7269 138.835 63.2425 137.3 63.7609C136.071 64.2765 137.26 64.7922 137.538 65.3078C138.581 65.8235 136.967 66.3364 137.744 66.8467C138.757 67.3596 136.962 67.8699 137.918 68.3802C138.73 68.8904 139.001 69.4007 138.061 69.9082C137.073 70.4158 138.226 70.9233 138.172 71.4282C138.554 71.9331 138.797 72.4379 138.251 72.9428C136.962 73.4449 137.918 73.9471 138.297 74.4492C139.155 74.9487 137.858 75.4481 138.297 75.9476C140.249 76.4444 138.099 76.9411 138.278 77.4379C137.836 77.9319 138.868 78.426 138.226 78.9173C138.285 79.4089 138.257 79.907 138.142 80.3887C137.111 80.8774 139.041 81.3633 138.023 81.8493C137.295 82.3352 138.37 82.8185 137.871 83.3017C136.483 83.785 138.267 84.2629 137.687 84.7434C138.632 85.2213 137.56 85.6991 137.471 86.1743C137.53 86.6495 136.117 87.1219 137.219 87.5944C135.386 88.0668 137.105 88.5339 136.935 89.0009C136.691 89.468 136.694 89.9324 136.615 90.3967C135.429 90.8611 136.962 91.32 136.263 91.779C136.225 92.238 137.26 92.6942 135.876 93.1505C135.741 93.604 134.869 94.0576 135.456 94.5004C136.715 94.9512 133.916 95.3994 135.001 95.8502C135.681 96.2957 135.001 96.7385 134.511 97.1812C134.297 97.6038 134.121 98.0447 133.986 98.4987C133.881 98.9361 133.125 99.3707 133.428 99.8C134.116 100.232 132.781 100.661 132.835 101.088C132.294 101.514 131.17 101.938 132.207 102.359C131.872 102.781 132.085 103.199 131.544 103.612C132.177 104.028 132.207 104.438 130.848 104.849C130.623 105.259 128.065 105.658 130.117 106.069C129.251 106.471 129.922 106.879 129.351 107.27C128.779 107.662 129.676 108.061 128.538 108.453C129.695 108.844 127.77 109.233 127.702 109.619C127.204 110.005 128.82 110.386 126.83 110.766C126.492 111.144 125.988 111.522 125.923 111.895C126.963 112.081 126.042 112.267 125.457 112.451C125.617 112.635 125.834 112.818 124.983 112.991C125.731 113.261 124.788 113.585 124.499 113.801C123.762 114.028 125.078 114.163 124.006 114.071C123.781 114.219 124.342 114.317 123.505 114.46C123.039 114.603 123.167 114.794 122.996 115.14C122.724 115.558 122.367 115.915 121.948 116.188C121.594 116.749 121.233 116.625 120.865 117.213C120.5 117.421 120.126 118.04 119.747 118.218C119.368 118.863 118.983 119.881 118.594 119.2C118.204 119.786 117.808 120.421 117.405 120.162C117.001 119.794 116.593 120.702 116.181 121.098C115.767 120.699 115.347 122.448 114.922 122.014C114.497 121.879 114.064 122.34 113.625 122.905C113.186 123.714 112.742 122.219 112.293 123.774C111.803 123.997 111.344 124.281 110.926 124.619C110.463 125.275 109.997 125.556 109.523 125.429C109.049 125.969 108.57 124.824 108.083 126.225C107.598 125.996 107.105 127.699 106.607 126.995C106.607 126.29 106.607 127.219 106.607 126.995C106.607 128.158 106.607 126.811 106.607 126.995C106.166 128.075 105.722 128.385 105.272 127.632C104.825 129.67 104.376 127.165 103.918 128.25C103.466 129.435 103.014 128.593 102.565 128.849C102.11 129.522 101.652 129.929 101.192 129.427C100.732 128.731 100.271 128.304 99.8056 129.983C99.3426 130.548 98.8769 129.786 98.4085 130.523C97.9401 131.52 97.4717 130.896 97.0006 131.039C96.5294 131.039 96.0556 131.039 95.5818 131.533C95.108 131.463 94.6314 130.869 94.1522 132.005C93.6729 131.976 93.1937 133.639 92.7145 132.456C92.2325 133.536 91.7506 132.845 91.2659 132.883C90.7812 132.54 90.2966 133.774 89.8092 133.288C89.3219 134.252 88.8345 133.223 88.3444 133.671C87.8544 132.448 87.3643 132.683 86.8742 134.03C86.3841 134.111 85.8914 133.785 85.3959 134.365C84.9031 134.651 84.4076 133.992 83.9121 134.678C83.4166 133.552 82.9211 135.656 82.4229 134.967C81.9248 133.906 81.4266 135.623 80.9284 135.237C80.686 135.112 80.4095 135.067 80.1399 135.111C79.8703 135.154 79.6217 135.282 79.4311 135.477C78.9302 136.287 78.4293 136.233 77.9284 135.691C77.4275 135.758 76.9239 137.024 76.423 135.88C75.9193 136.474 75.4184 136.312 74.9148 136.044C74.4112 136.376 73.9076 136.787 73.404 136.182C72.9004 136.301 72.3968 136.59 71.8905 136.295C71.3868 135.909 70.8805 136.582 70.3769 136.382C69.8733 136.258 69.367 137.988 68.8634 136.441C68.3598 135.961 67.8535 136.422 67.3498 136.474C66.8462 136.587 66.3399 137.284 65.8363 136.474C65.3327 135.869 64.8291 137.116 64.3255 136.452C63.8219 137.94 63.3183 137.483 62.8146 136.403C62.311 136.943 61.8101 134.784 61.3065 136.328C60.8056 136.158 60.302 136.83 59.8011 136.223C59.3002 136.43 58.7993 135.953 58.2984 136.09C57.7975 137.508 57.2993 136.217 56.8011 135.928C56.3029 135.342 55.8047 135.118 55.3065 135.737C54.8083 137.005 54.3128 135.032 53.8174 135.515C53.3219 134.792 52.8291 136.735 52.3336 135.267C51.8408 134.168 51.348 135.934 50.858 134.997C50.3679 135.34 49.8778 134.667 49.3878 134.686C48.9004 135.175 48.4103 134.686 47.9257 134.346C47.4383 134.546 46.9536 134.36 46.4717 133.976C45.987 134.049 45.5051 133.706 45.0258 133.574C44.5466 132.181 44.0674 133.228 43.5881 133.142C43.1116 132.524 42.635 133.509 42.1612 132.678C41.6874 132.948 41.2136 131.271 40.7424 132.181C40.2713 132.084 39.8029 132.694 39.3345 131.641C38.8661 131.088 38.4031 131.079 37.9401 131.079C37.4771 130.988 37.0168 131.762 36.5565 130.486C36.0962 129.676 35.6414 129.514 35.1838 129.859C34.7289 130.545 34.2767 131.395 33.83 129.2C33.3805 130.01 32.9311 128.121 32.4762 128.509C32.0295 127.84 31.5854 127.678 31.1441 127.783C30.7027 127.659 30.2641 128.323 29.8282 127.022C29.3923 126.328 28.9591 126.903 28.5258 126.228C28.0953 124.57 27.6648 124.479 27.2397 125.399C26.8146 126.19 26.3896 124.719 25.9699 124.535C25.5502 123.455 25.1305 124.73 24.7163 123.636C24.5078 123.401 24.5051 123.301 24.0962 123.191C23.8567 123.077 23.6465 122.909 23.4816 122.702C23.5246 122.725 23.5605 122.76 23.5855 122.801C23.6106 122.843 23.6238 122.891 23.6238 122.94C23.6238 122.988 23.6106 123.036 23.5855 123.078C23.5605 123.12 23.5246 123.154 23.4816 123.177C23.3354 123.25 23.3814 123.164 23.4816 122.699C23.4383 122.786 23.441 122.483 23.4816 122.699C23.1567 122.548 22.6829 122.559 22.821 122.473C22.4013 122.384 22.4121 122.203 22.1711 121.638C21.7867 121.125 21.3101 120.828 21.5295 120.683C20.3679 120.531 21.2749 120.518 20.8986 120.558C21.1693 121.001 21.1044 121.074 20.4843 120.958C20.0565 120.842 21.4211 120.537 20.0755 120.229C19.9103 119.919 20.5737 119.603 19.6693 119.462C18.2695 119.546 19.6233 119.192 19.071 118.852C17.7172 118.515 19.8318 118.193 18.4834 118.347C17.9419 118.123 17.5141 118.077 17.9067 117.975C17.617 117.867 18.0719 117.705 17.3381 117.213C18.0258 117.049 17.0024 116.906 16.7804 116.73C16.2849 116.555 17.0511 116.35 16.2388 116.063C16.3038 115.869 16.5529 115.677 15.6973 115.483C15.1558 115.289 16.2145 115.094 15.1721 114.897C14.6305 114.506 15.1721 114.111 14.1513 113.715C13.0439 113.318 11.5493 112.905 13.1711 112.516C12.9897 112.114 13.4202 111.706 12.2316 111.301C12.4022 110.893 12.3453 110.491 11.3327 110.073C11.2136 109.66 11.7605 109.246 10.4717 108.831C9.60256 108.415 9.89498 107.994 9.65942 107.573C9.85436 107.151 9.0827 106.728 8.87963 106.301C8.45454 105.874 8.16213 105.448 8.13776 105.016C8.64678 104.587 8.34624 104.155 7.43649 103.72C6.67025 103.285 7.32819 102.851 6.77314 102.411C6.21808 101.971 5.17296 101.533 6.15039 101.09C5.21086 100.648 5.98794 100.205 5.56556 99.7595C7.3309 99.314 4.31195 98.8659 5.02404 98.4096C5.56556 97.9588 4.30653 97.5079 4.51772 97.0597C4.31465 96.6062 4.03306 96.1526 4.04931 95.6964C3.35888 95.2401 4.14408 94.7811 3.6188 94.3222C3.8327 93.8632 3.07729 93.4016 3.22621 92.9399C2.75779 92.4782 4.07639 92.0139 2.86881 91.5468C1.66122 91.0798 2.78487 90.6154 2.54931 90.1456C1.79119 89.6786 3.53487 89.2088 2.27855 88.7364C2.47621 88.2666 0.984329 87.7942 2.03487 87.319C1.99155 86.8465 1.49335 86.3714 1.82639 85.8962C1.51501 85.4211 2.79299 84.9432 1.65581 84.4653C1.47982 83.9875 1.23613 83.5069 1.52043 83.0291C1.39588 82.5485 2.06195 82.068 1.42025 81.5847C0.713571 81.1014 1.0439 80.6209 1.35797 80.1349C1.55834 79.6517 0.605267 79.1657 1.3309 78.6798C1.65852 78.1938 1.23613 77.7078 1.3309 77.2219C1.3309 76.7341 1.34534 76.2464 1.37422 75.7586C1.39588 75.27 0.77043 74.7813 1.45274 74.2926C1.50689 73.804 0.616098 73.3126 1.56646 72.8213C2.51682 72.3299 0.483426 71.8386 1.71538 71.3472C1.61249 70.8558 2.41935 70.3645 1.89949 69.8704C1.45274 69.3791 2.71177 68.885 2.1161 68.391C2.21899 67.8969 2.09444 67.4028 2.3679 66.9115C2.1892 66.6658 3.26682 66.4174 2.50599 66.1718C3.2587 65.9234 2.61158 65.6777 2.6522 65.4293C3.82458 65.1809 2.98252 64.9353 2.71177 64.6869C3.45093 64.4385 3.12603 64.1928 2.98252 63.9444C2.26231 63.6961 3.83 63.4504 3.03126 63.202C4.83992 62.9536 3.57278 62.708 3.33451 62.4596C2.7253 62.2112 3.96537 61.9655 3.52404 61.7171C4.29299 61.4688 4.0466 61.2231 3.72169 60.9747C4.06014 60.5346 2.1188 60.0946 4.09263 59.6545C3.41574 59.255 4.22801 58.8041 4.46357 58.3775C3.83 57.9375 4.34985 57.5001 4.88595 57.0601C5.89317 56.62 6.32909 56.1826 5.33541 55.7426C2.82548 55.3052 4.05473 54.8651 5.80924 54.4278C5.86068 53.9904 6.35075 53.5531 6.31014 53.113C6.91935 52.6756 6.5809 52.2383 6.83541 51.8009C7.58812 51.3636 6.64859 50.9289 7.37693 50.4915C6.34263 50.0569 6.91122 49.6195 7.95093 49.1848C8.26772 48.9716 8.617 48.7556 8.22169 48.5423C8.1188 48.329 8.32187 48.113 8.5114 47.8998C8.01862 47.6892 8.8309 47.4651 8.8309 47.2599C8.41393 47.0466 9.45364 46.8334 9.13144 46.6174C8.79028 46.5769 8.75238 46.4473 9.4374 46.234C9.51321 46.0207 9.1883 45.7211 9.74877 45.335C10.117 45.2189 9.96537 44.9732 10.0656 44.7194C10.1502 44.4878 10.2581 44.2653 10.3878 44.0553C10.6044 44.8301 10.8264 44.1336 11.0511 42.7783C11.2758 42.8944 11.5033 42.6082 11.7361 41.5067C11.969 41.7416 12.2045 40.7589 12.4428 40.2405C12.6811 40.7238 12.9248 39.6763 13.1711 38.9797C13.4175 37.1709 13.6666 39.0823 13.9212 37.7271C14.1757 38.8691 14.4329 35.3135 14.6928 36.4825C14.9636 36.4825 15.2181 37.4517 15.4834 35.246C15.7542 34.104 16.0249 33.4074 16.2957 34.0203C16.5665 34.05 16.8372 33.3561 17.1296 32.8054C17.4004 33.0754 17.6955 31.712 17.9825 31.6013C18.2695 31.4906 18.5619 30.5673 18.8571 30.4107C19.1522 29.482 19.45 28.9366 19.7506 29.2336C20.0511 29.0581 20.3571 27.7001 20.663 28.07C20.9717 28.6559 21.2804 28.2104 21.5944 26.9226C21.9085 25.7455 22.2253 27.0117 22.5448 25.7914C22.8643 26.2531 23.1892 24.1068 23.5141 24.6764C23.8417 25.6348 24.1693 24.1149 24.5024 23.5803C24.8354 21.0587 25.1711 20.5188 25.5096 22.5004C25.848 22.5193 26.1919 22.8379 26.5358 21.4421C26.7091 21.218 26.8823 19.887 27.0556 20.8805C27.2289 20.7483 27.4049 18.6964 27.5809 20.4027C27.7569 19.6252 27.9329 19.9734 28.1224 19.6494C28.2984 19.8006 28.4771 20.8346 28.6639 19.3795C28.8426 19.4038 29.0213 17.3951 29.2054 19.1095C29.3841 20.2893 29.5656 19.3795 29.747 18.3833C29.9284 18.7153 30.1098 17.7245 30.2885 18.1322C30.4726 17.3924 30.654 16.9119 30.83 17.4113C30.9789 16.4394 31.1278 15.8374 31.2767 17.0226C31.4257 16.0372 31.5773 16.0831 31.7262 16.6473C31.8778 17.0334 32.0295 17.0226 32.1811 15.994C32.3327 14.8871 32.4843 15.6619 32.6387 15.8995C32.7903 15.4675 32.9446 16.7877 33.0989 15.5269C33.2533 16.156 33.4076 15.1975 33.5619 15.1678C33.7677 15.0868 33.9762 14.0879 34.182 14.69C34.3905 15.1003 34.5989 14.7845 34.8074 14.2175C35.0159 14.3201 35.2271 12.5113 35.4383 13.7532C35.6359 12.7839 35.8336 14.9141 36.034 13.3266C36.2343 13.0566 36.432 12.055 36.635 12.9081C36.8354 11.3882 37.0385 11.2478 37.2388 12.3358C37.4419 12.4492 37.645 12.4789 37.848 12.0901C38.0511 12.5626 38.2569 13.791 38.46 11.6474C38.6657 11.9173 38.8715 10.6295 39.0773 11.3045C39.2831 10.7645 39.4915 11.264 39.6973 10.9238C39.9058 10.0086 40.1143 10.4109 40.3228 10.5485C40.5313 9.37145 40.7424 11.0102 40.9536 10.3191C41.1648 10.4568 41.376 10.8833 41.5872 9.82501C41.7984 8.34014 42.0123 10.2624 42.2262 9.28506C42.4401 8.44543 42.654 8.35634 42.8679 9.12847C43.0818 9.73052 43.2984 8.18625 43.5123 8.8585C43.7289 9.28506 43.9455 9.12847 44.1621 8.46703C44.3787 8.02967 44.598 8.48863 44.8146 7.92708C45.034 8.06477 45.2533 8.42653 45.4726 7.83799C45.7347 7.61524 45.958 7.35067 46.1332 7.05505C46.3553 6.69059 46.5773 7.32503 46.7993 7.25484C47.0213 6.5097 47.2461 7.19274 47.4681 7.07395C47.6928 6.87147 47.9148 6.5178 48.1423 6.70679C48.367 6.39091 48.5917 6.80938 48.8192 6.31802C49.0466 6.01835 49.2713 5.77807 49.4988 6.19923C49.7262 6.62039 49.9536 6.5394 50.1838 5.98055C50.4112 5.48649 50.6414 5.20302 50.8715 5.72947C51.1017 5.59178 51.3318 5.17332 51.5619 5.59718C51.7921 5.89416 52.0249 5.86716 52.2578 5.30021C52.4121 5.09233 52.5692 5.10853 52.7235 4.72516C52.8778 4.61447 53.0349 4.18521 53.1919 4.16631C53.3489 4.14741 53.5033 4.3013 53.6603 4.91144C54.1287 5.65928 54.6026 4.2473 55.0764 4.56587C55.5502 3.28079 56.0267 4.2959 56.506 4.2635C56.9852 4.36339 57.4645 3.31858 57.9491 3.99352C58.4338 3.66415 58.9184 4.2338 59.4058 3.78024C59.8932 4.2581 60.3832 3.05671 60.876 3.61286C61.3688 2.74893 61.8616 2.17118 62.3598 3.49137C62.6089 3.64255 62.858 3.49137 63.1071 3.35368C63.3562 3.21599 63.6053 3.1323 63.8571 3.42117C64.1062 3.58586 64.358 4.46598 64.6098 3.93683C64.8616 4.50108 65.1134 2.85692 65.3652 3.39688C65.4085 2.70574 65.4545 3.99352 65.5087 3.1701C65.6251 2.74083 65.7551 2.81373 65.8986 2.80293C66.0428 2.67956 66.1938 2.56419 66.3507 2.45736C66.6675 2.04969 67.0141 1.59613 67.3607 2.20628C67.9022 2.15768 68.4437 2.54375 68.9852 1.966C69.5267 2.23598 70.0547 3.22139 70.5854 1.77702C71.1269 2.47896 71.6441 1.57994 72.172 1.63663C72.6973 2.0038 73.2226 1.66633 73.7451 1.54484C74.2677 0.937392 74.7876 2.26298 75.3047 1.50164C75.8219 1.9417 76.3363 1.48544 76.8507 1.50164C77.3625 -0.0345224 77.8742 2.54105 78.3805 1.55294C78.8895 0.840201 79.3932 3.03511 79.8968 1.64743C80.4004 2.32237 80.9013 2.33587 81.3995 1.78782C81.8977 1.9849 82.3932 2.59775 82.8859 1.9714C83.3787 2.67334 83.8688 2.61394 84.3589 2.19818C84.8462 0.0032742 85.3336 2.25488 85.8155 2.46816C86.2975 1.83911 86.7794 2.17388 87.256 2.78133C87.7352 3.59126 88.2091 4.70086 88.6829 3.135C89.1567 2.68414 89.6251 3.65335 90.0935 3.52916C90.5619 4.2284 91.0249 4.2311 91.4879 3.96113C91.9509 4.17441 92.4085 3.65065 92.8661 4.43358C93.3237 3.99352 93.7758 2.75973 94.2199 4.94384C94.672 5.70787 95.1188 5.446 95.5737 5.48379C96.0204 4.64687 96.4618 6.34772 96.9004 6.06694C97.3228 7.50861 97.7587 7.50861 98.1811 6.72028C98.6035 5.93195 99.0475 6.95516 99.4753 7.37363C99.9031 7.33853 100.328 8.45353 100.751 8.05937C101.173 8.17546 101.593 7.75699 102.01 8.7802C102.427 7.81099 102.841 7.24134 103.25 9.53344C103.661 10.3056 104.062 9.56853 104.471 10.3164C104.874 9.54694 105.283 11.1263 105.676 11.1263C106.074 10.2651 106.469 12.4303 106.862 11.9713C107.254 11.2127 107.641 11.2208 108.029 12.846C108.413 12.7219 108.797 14.2796 109.177 13.7478C109.556 15.5107 109.932 14.1041 110.306 14.6765C110.679 13.8396 111.047 13.4238 111.416 15.6322C111.781 17.2521 112.144 15.1948 112.499 16.6149C112.859 16.3449 113.216 14.9735 113.582 17.6219C113.934 18.2132 114.286 18.0647 114.632 18.6559C114.979 17.1711 115.323 19.7871 115.661 19.7115C115.832 20.3973 116 20.5485 116.168 20.5863C116.335 20.6241 116.503 20.5512 116.671 20.7914C116.707 20.926 116.769 21.0521 116.855 21.162C116.94 21.272 117.047 21.3636 117.169 21.4313C117.334 21.758 117.497 21.731 117.662 21.893C117.86 22.0193 118.027 22.1892 118.149 22.3897C118.033 22.5355 118.691 22.6921 118.39 22.8136C118.409 22.9351 118.361 23.0188 118.631 23.0161C118.144 23.3994 118.382 23.4615 119.108 23.5857C119.398 23.5425 118.802 23.5857 119.344 23.6775C118.453 23.7774 119.073 23.9475 119.579 24.1608C119.362 24.2498 120.808 24.509 120.045 24.7628C119.75 25.0166 120.586 25.265 120.505 25.327C120.023 25.651 120.895 25.8886 120.96 26.0749C120.28 26.2612 120.18 26.3935 121.409 26.5122C120.153 26.8794 121.409 26.955 121.853 27.0522C121.469 27.1494 122.1 27.2682 122.292 27.7136C122.216 27.7946 122.52 27.9377 122.725 28.1429C123.743 28.3481 122.882 28.6127 123.153 28.9366C124.271 29.104 123.738 29.3092 123.575 29.5252C124.659 29.7412 122.601 29.9679 123.992 30.1758C124.705 30.3729 124.997 30.57 124.385 30.7698C126.01 30.9696 123.808 31.1666 124.772 31.3664C124.973 31.5662 125.755 31.766 125.154 31.9685C125.912 32.1682 124.948 32.3707 125.53 32.5732C124.927 32.7757 124.718 32.9782 125.918 33.1807C125.509 33.3831 126.597 33.5883 126.272 33.7908C126.519 33.996 125.885 34.2012 126.638 34.4063C126.795 34.6115 126.264 34.8167 126.992 35.0246C128.422 35.2298 127.19 35.4377 127.418 35.6455C127.371 35.8534 126.955 36.0613 127.688 36.2692C128.422 36.4771 128.362 36.6849 128.425 36.8955C128.462 37.1065 128.443 37.3236 128.368 37.5246C127.908 37.9457 128.501 38.3669 129.026 38.7908C129.261 39.2146 129.67 39.6412 129.662 40.0678C130.252 40.4943 130.921 40.9236 130.279 41.3528C131.574 41.7821 132.037 42.2141 130.875 42.6487C130.699 43.0807 131.587 43.5153 131.449 43.9527C131.192 44.3874 131.796 44.8247 131.991 45.2648C133.057 45.7022 133.038 46.1422 132.532 46.5823C131.817 47.0223 135.397 47.4651 133.041 47.9052C132.99 48.3479 132.865 48.7907 133.529 49.2361C135.592 49.6816 132.955 50.1244 133.994 50.5698C134.065 51.0153 133.453 51.4607 134.436 51.9197C134.614 52.3679 133.55 52.8133 134.855 53.2696C135.938 53.7178 134.698 54.1659 135.253 54.6195C135.356 55.0676 134.528 55.5185 135.627 55.9694C135.816 55.9532 136.583 55.9586 135.638 55.9586ZM112.585 114.508C113.016 113.798 113.438 112.618 113.853 113.547C114.061 113.226 114.264 113.86 114.467 113.612C114.67 113.941 114.871 113.825 115.071 112.556C115.133 112.456 115.22 112.373 115.323 112.315C115.427 112.257 115.543 112.226 115.661 112.224C115.804 112.162 115.931 112.068 116.031 111.949C116.132 111.83 116.203 111.69 116.241 111.539C116.43 111.503 116.62 111.252 116.807 110.999C116.993 110.745 117.177 110.507 117.348 110.486C117.714 110.164 118.071 110.521 118.431 109.406C118.664 110.691 118.894 109.719 119.119 108.966C119.233 108.588 119.322 108.266 119.455 108.307C119.325 108.245 119.549 108.207 119.95 108.064C119.95 107.921 120.324 107.67 120.432 107.181C120.703 107.494 121.185 107.238 120.903 106.884C121.899 106.533 120.8 106.074 121.363 106.031C121.003 106.209 120.862 105.837 121.81 105.459C124.193 105.081 123.037 104.7 122.246 104.857C121.77 104.786 123.042 104.587 122.671 104.341C123.665 104.106 122.918 103.842 123.085 103.658C123.673 103.455 123.795 103.213 123.486 102.991C123.01 102.767 123.965 102.565 123.876 102.451C123.08 102.265 125.993 101.911 124.255 101.628C123.199 101.344 124.526 101.126 124.623 101.209C124.661 101.088 125.487 101.166 124.981 101.077C124.653 100.988 127.51 100.734 125.325 99.9431C124.263 99.9134 125.241 99.881 125.658 99.7109C125.514 99.5408 126.275 99.233 125.98 98.6607C125.119 98.631 125.287 98.5797 126.291 98.3907C124.52 98.2098 125.522 97.8994 126.592 97.3486C126.7 96.9274 126.186 96.9302 126.881 96.8708C124.967 96.8114 126.806 96.6926 127.152 96.0257C126.478 95.6019 127.829 95.0133 127.423 94.6569C128.322 94.3006 128.59 94.1791 127.694 94.6839C128.384 94.2574 127.937 94.0441 127.94 93.874C128.92 93.7039 127.686 93.577 128.176 93.3341C126.551 92.9858 129.497 92.705 128.4 92.4782C127.918 92.2515 128.01 92.0814 128.614 91.9572C130.363 91.5603 128.885 91.2337 128.817 90.9961C130.328 90.7585 127.97 90.6073 129.012 90.5641C129.039 90.0053 128.725 89.8271 129.196 89.7029C128.807 89.6408 128.888 89.5895 129.045 89.5139C129.202 89.4383 129.44 89.3303 129.37 89.1575C128.59 89.0711 128.863 88.974 129.175 88.8741C129.486 88.7742 129.827 88.6608 129.532 88.5447C129.18 88.4259 128.926 88.3017 129.183 88.1667C129.586 88.0317 129.827 87.8967 129.684 87.7375C129.873 87.5809 129.659 87.4432 130.011 87.3163C130.068 87.1894 130.361 87.076 129.827 86.9653C129.686 86.8546 129.302 86.7493 129.936 86.6413C130.233 86.5334 129.797 86.4227 129.96 86.3012C129.589 86.0771 129.689 85.8503 129.5 85.6262C130.014 85.3995 129.334 85.1754 130.182 84.9486C130.196 84.7218 130.328 84.495 130.038 84.2683C130.141 84.0415 130.131 83.812 130.366 83.5852C130.669 83.3557 131.032 83.129 130.973 82.8995C131.479 82.67 130.851 82.4405 130.515 82.211C131 81.9816 130.626 81.7494 130.372 81.5199C129.048 81.2904 130.978 81.0583 130.642 80.8261C131.086 80.5939 130.301 80.3617 130.696 80.1295C130.667 79.8973 130.52 79.6652 130.723 79.4303C130.003 79.1981 130.074 78.9632 130.802 78.731C130.066 78.4962 129.589 78.264 130.772 78.0291C130.902 77.7942 130.74 77.5594 130.193 77.3245C129.307 77.0896 130.78 76.8547 130.788 76.6171C130.315 76.3823 131.484 76.1447 130.518 75.9098C130.45 75.6722 129.892 75.4373 130.761 75.1998C130.721 74.9622 130.22 74.7246 130.288 74.487C131.612 74.2494 130.06 74.0119 130.713 73.7743C130.983 73.5367 131.143 73.2964 130.594 73.0588C129.919 72.8213 131.116 72.581 130.629 72.3407C130.899 72.1004 129.895 71.8629 130.797 71.6226C130.845 71.3823 130.049 71.142 130.526 70.9017C131.728 70.783 130.526 70.6615 130.404 70.5427C130.282 70.4239 131.538 70.3024 130.458 70.1809C131.319 70.0594 131.195 69.9406 130.594 69.8191C130.732 69.6976 130.323 69.5789 130.382 69.4574C130.742 69.3359 130.174 69.2171 130.041 69.0956C130.133 68.9741 130.35 68.8553 130.144 68.7338C130.055 68.6247 129.983 68.5027 129.93 68.3721C129.903 68.2506 129.957 68.1318 130.201 68.0103C130.217 67.7673 129.99 67.527 130.038 67.2841C129.881 67.0411 130.038 66.8008 129.995 66.5578C129.952 66.3148 129.919 66.0719 129.881 65.8316C129.844 65.5913 129.8 65.3456 129.76 65.1026C129.718 64.8615 129.676 64.6194 129.632 64.3764C129.564 64.1401 129.519 63.8978 129.497 63.6529C129.375 63.4126 129.914 63.1129 129.356 62.8429C129.356 62.573 129.776 62.3327 129.21 62.2085C129.018 61.817 129.448 61.5849 129.056 61.3986C129.578 61.1988 129.838 61.0341 128.896 60.7803C128.067 60.6075 129.167 60.3511 128.731 60.0838C129.066 59.8138 128.14 59.5438 128.56 59.3441C129.102 59.174 129.018 59.0525 128.381 58.8554C128.752 58.6583 128.574 58.3856 128.197 57.9159C127.694 57.7539 127.64 57.6027 128.008 57.3894C127.943 57.1761 127.196 56.9008 127.813 56.4931C127.307 56.2555 127.122 56.0206 127.612 55.7831C127.488 55.5482 127.791 55.3106 127.404 55.0757C127.604 54.606 127.404 54.1362 126.971 53.6665C126.031 53.1994 125.379 52.7323 126.513 52.2653C126.394 51.8009 126.075 51.3366 126.034 50.8749C126.348 50.4132 126.627 49.9516 125.53 49.4953C125.612 49.0364 124.656 48.5801 125.005 48.1238C125.501 47.6676 124.956 47.2167 124.464 46.774C125.338 46.3231 124.252 45.8749 123.89 45.4241C123.253 44.9759 123.324 44.5332 123.294 44.0904C123.264 43.6476 122.368 43.2076 122.677 42.7702C122.853 42.3329 122.517 41.8955 122.035 41.4635C122.698 41.0289 121.312 40.5996 121.371 40.1703C121.101 39.9571 121.214 39.7438 121.258 39.5305C121.301 39.3172 121.258 39.1039 120.686 38.8934C120.353 38.6828 120.183 38.4695 120.226 38.2616C120.083 38.051 120.381 37.8404 119.98 37.6326C119.936 37.4247 119.674 37.2141 119.763 37.0089C119.969 36.801 119.666 36.5932 119.249 36.388C119.078 36.28 118.691 36.1909 119.054 36.118C119.032 36.0748 118.864 36.0343 119.325 35.9938C119.2 35.9533 119.779 35.9101 118.853 35.8642C118.71 35.7751 118.412 35.6779 118.499 35.5564C118.298 35.435 119.311 35.2865 118.455 35.111C118.476 35.0141 118.468 34.9135 118.432 34.8211C118.397 34.7287 118.335 34.6485 118.255 34.5899C117.852 34.4495 117.776 34.3389 118.198 34.2552C118.049 34.0851 117.256 34.0095 118.052 33.9852C119.057 33.9204 117.326 34.0203 117.64 33.8502C117.876 33.9015 117.668 33.8502 117.551 33.7692C117.11 33.7233 116.931 33.6639 116.909 33.5964C116.888 33.5289 117.029 33.4533 117.223 33.375C118.06 33.2967 117.462 33.2158 117.348 33.1348C117.643 33.0538 117.402 32.9782 117.029 32.9053C117.058 32.7622 117.714 32.6488 116.801 32.6029C116.205 32.6029 116.124 32.5597 116.178 32.4706C116.233 32.3815 116.425 32.26 116.371 32.125C116.457 31.9901 116.49 31.8551 116.154 31.712C115.883 31.5797 116.021 31.4582 115.937 31.3772C115.874 30.9886 115.723 30.6194 115.496 30.2973C115.444 30.2325 115.373 30.1857 115.293 30.1639C115.212 30.1421 115.127 30.1462 115.049 30.1758C114.749 30.2487 114.446 30.0435 114.14 28.9933C113.834 27.8 113.522 29.428 113.205 27.8324C112.891 28.3076 112.572 26.7282 112.25 26.6958C111.927 27.1197 111.6 25.5808 111.27 25.5862C110.939 25.0058 110.606 24.5738 110.268 24.5063C109.929 22.9756 109.588 24.0042 109.242 23.448C108.895 23.2833 108.546 22.5436 108.194 22.4167C107.842 23.0107 107.484 21.1748 107.111 21.4151C106.751 22.225 106.385 20.2272 106.028 20.4405C105.659 20.8049 105.288 20.6376 104.912 19.4956C104.536 19.258 104.157 19.7439 103.775 18.583C103.393 18.961 103.006 16.9794 102.616 17.7002C102.421 17.7002 102.226 18.7126 102.029 17.271C101.831 17.576 101.633 15.5188 101.436 16.8498C101.238 18.4697 101.038 15.8671 100.837 16.4367C100.637 16.3557 100.436 15.94 100.233 16.0318C100.03 14.0987 99.8273 14.6549 99.6242 15.454C99.4211 14.8547 99.2154 14.9762 99.0096 15.2488C98.8038 13.8261 98.598 14.5739 98.3895 14.6252C98.1811 14.6765 97.9726 13.988 97.7641 14.4983C97.5556 14.5334 97.3444 15.5782 97.1332 14.3957C96.922 14.042 96.7109 13.6209 96.497 13.7829C96.2831 13.1457 96.0719 13.143 95.8553 12.7354C95.6414 14.1905 95.4248 12.3655 95.2081 13.1052C94.9915 12.8082 94.7749 12.4978 94.5583 12.757C94.3417 12.4357 94.1224 12.5032 93.9031 12.4627C93.6838 12.9621 93.4618 10.8428 93.2424 12.3061C93.0204 12.3061 92.7984 12.541 92.5764 11.8579C92.3543 13.1133 92.1296 11.6042 91.9049 11.4287C91.6802 10.4919 91.4554 10.3002 91.228 11.291C91.0006 11.291 90.7731 11.1128 90.5457 11.6366C90.3183 11.8552 90.0881 11.758 89.858 10.7645C89.6278 10.8428 89.3977 10.2246 89.1648 10.0734C88.932 9.50374 88.7018 9.9519 88.469 10.2759C88.2361 10.6889 88.0006 10.0356 87.7677 10.1544C87.5322 10.1355 87.2966 10.3596 87.061 9.82771C86.8255 10.3137 86.5872 9.77641 86.3489 9.44704C86.1107 9.47404 85.8724 8.38604 85.6314 9.42275C85.3905 8.61282 85.1522 9.51994 84.9085 9.15277C84.6675 8.90979 84.4238 9.03668 84.1829 9.07178C83.9392 9.28506 83.6955 9.61173 83.4518 9.57933C83.2081 9.19327 82.9618 9.42005 82.7154 8.74781C82.469 9.15007 82.2226 8.63712 81.9735 8.31044C81.7244 8.14576 81.478 8.04047 81.2262 8.46703C80.9771 8.32394 80.7253 8.35634 80.4762 7.94328C80.2244 8.02967 79.9726 7.56261 79.7208 8.23485C79.469 7.94598 79.2145 7.51131 78.96 7.87308C78.7054 8.93949 78.4509 8.71271 78.1937 8.04587C77.8525 8.63712 77.5087 8.7748 77.1648 7.94598C76.821 7.40602 76.4744 7.25754 76.1278 7.86498C75.7812 7.6949 75.432 8.15656 75.0827 7.80559C74.9338 8.65331 74.7524 7.33043 74.5412 8.12146C74.3354 7.86768 74.1053 9.24186 73.8508 8.25915C73.58 8.42383 73.3255 9.02588 73.0655 8.28615C72.7948 7.12525 72.543 7.78129 72.2831 8.32124C72.0123 8.48323 71.7632 9.04208 71.5033 8.50753C71.2325 8.50753 70.9834 7.15765 70.7262 8.42383C70.4554 7.93248 70.2091 8.66951 69.9518 8.72621C69.8196 8.76336 69.6804 8.76803 69.546 8.73982C69.4116 8.71161 69.2861 8.65136 69.1802 8.56422C68.923 7.58961 68.6657 8.36174 68.4112 8.61552C68.154 8.42923 67.8995 8.53182 67.645 8.74241C67.3905 9.06908 67.1359 11.0696 66.8814 9.03938C66.6269 8.29155 66.3724 8.7694 66.1206 8.95839C65.8688 9.04208 65.6143 8.45083 65.3625 9.18247C65.1107 8.19165 64.8589 9.45244 64.6071 9.20947C64.3553 8.96649 64.1062 9.47944 63.8544 9.36335C63.6053 10.7969 63.3535 8.99618 63.1044 9.49834C62.8553 9.22836 62.6062 10.5161 62.3598 9.65762C62.1107 9.58203 61.8643 9.15817 61.6179 9.82501C61.1847 9.41195 60.7542 8.7856 60.3264 10.1382C59.8986 11.2829 59.4708 10.1382 59.0457 10.4784C58.6206 10.5998 58.1955 9.38225 57.7731 10.8455C57.3507 11.3018 56.9311 11.4719 56.5114 11.237C56.0917 11.7769 55.6775 10.6322 55.2605 11.6554C54.8462 12.1522 54.432 12.0712 54.0204 12.0982C53.6089 12.7759 53.2081 12.4789 52.7912 12.568C52.385 12.5059 51.9789 12.1765 51.5755 13.062C51.3453 13.9286 51.1152 12.7354 50.885 13.3563C50.6549 13.5453 50.4275 15.5998 50.2 13.656C49.9726 14.1959 49.7452 13.5561 49.5177 14.393C49.2903 13.4589 49.0655 15.0922 48.8381 14.2823C48.7244 13.8639 48.6134 13.5939 48.4997 13.7019C48.3859 13.6614 48.2749 14.0366 48.1639 14.6171C47.9392 14.7872 47.7172 15.0329 47.4924 14.9384C47.2704 15.4621 47.0484 16.1641 46.8264 15.3136C46.6044 15.8536 46.385 14.5037 46.163 15.6241C45.9437 16.2099 45.7244 16.7823 45.5051 16.2504C45.2858 17.2062 45.0692 16.7364 44.8498 16.3395C44.6332 16.5906 44.4166 15.7996 44.2 16.7688C43.9834 15.7402 43.7695 17.5787 43.5556 17.0847C43.3417 17.2521 43.1278 17.9243 42.9139 17.4815C42.7 17.2116 42.4888 18.7126 42.2776 17.8595C41.8634 17.6273 41.4654 17.5895 41.043 18.6451C40.6341 20.4108 40.2307 18.799 39.8273 19.4551C39.4239 19.9167 39.015 20.508 38.6278 20.292C38.4302 20.7833 38.2325 20.7806 38.0349 20.7644C37.8372 20.7483 37.6423 20.6295 37.4473 21.1559C37.3819 21.6944 37.251 22.2229 37.0574 22.7299C36.7867 23.2698 36.5403 22.8973 36.2831 22.0468C35.8986 23.6127 35.5168 24.7466 35.1378 22.9594C34.7587 24.9491 34.3823 23.8503 34.0114 23.8962C33.6378 25.516 33.2695 24.4739 32.904 24.8573C32.7199 25.4863 32.5385 25.8967 32.3625 26.0668C32.1865 26.2369 31.9997 26.1694 31.821 25.8427C31.6423 26.5365 31.4609 26.6904 31.2795 26.0965C31.1008 25.6996 30.9248 26.0965 30.7379 26.8524C30.6215 26.3125 30.5024 26.7849 30.386 25.9102C30.2695 25.7239 30.1531 26.2288 30.0367 26.2585C29.9202 26.9874 29.8038 27.3384 29.6901 27.8783C29.5168 28.7017 29.3435 28.5209 29.173 28.4831C29.0024 29.1931 28.8318 28.5884 28.6612 28.9285C28.563 28.7746 28.4497 28.6308 28.3228 28.4993C28.2879 28.8222 28.1725 29.1313 27.987 29.3983C27.876 30.2703 27.765 30.7212 27.654 30.003C27.4861 30.3675 27.321 30.8427 27.1558 30.273C26.9906 30.3783 26.8282 31.334 26.663 31.1072C26.5006 31.5419 26.3381 31.091 26.1757 31.5446C26.0132 32.206 25.8535 32.9107 25.6937 32.2222C25.534 31.8281 25.3742 32.3194 25.2172 32.584C25.0601 33.2805 24.9031 33.205 24.7461 33.3588C24.589 33.3804 24.4347 33.9933 24.2804 34.0203C24.126 34.8032 23.9717 34.8626 23.8201 34.5116C23.6684 35.2919 23.5168 35.3702 23.3652 35.5564C23.2136 36.6957 23.0646 35.6401 22.9157 35.686C22.7668 36.3772 22.6206 35.8156 22.4717 36.5473C22.3255 37.4598 22.1793 36.3205 22.0331 36.8766C21.8869 35.7157 21.7434 37.1196 21.5998 37.2492C21.5295 37.1007 21.4563 37.3194 21.386 37.5705C21.3156 37.8215 21.2452 38.1104 21.1748 38.0861C20.8634 38.6693 21.386 38.8961 20.9636 38.9662C21.1152 39.031 20.9906 38.9285 20.7551 38.8448C20.4654 38.9608 20.4843 38.7692 20.3408 39.3145C20.2474 39.3651 20.1752 39.4473 20.1375 39.5464C20.0997 39.6455 20.0989 39.7548 20.135 39.8545C19.8183 40.0381 20.9473 40.1838 19.932 40.1973C19.9157 40.8048 19.3417 40.5105 19.5286 40.5483C20.0024 40.3944 19.2957 40.443 19.1468 40.6563C18.9979 40.8696 19.4961 41.2475 18.7704 41.7578C17.923 42.2465 17.904 42.2114 18.3995 42.2249C19.3417 42.2384 18.7596 42.3005 18.034 42.9808C19.3282 43.3723 17.4573 43.761 17.6739 44.0121C17.2623 44.2632 17.3598 44.3766 17.3192 44.22C17.3489 43.9716 16.756 44.3739 16.9699 44.7923C15.9654 45.2108 16.8778 45.6482 16.6287 45.4727C16.534 45.8965 16.2226 45.9262 16.293 45.9937C17.0403 46.0612 16.3336 46.1665 15.9627 46.7389C17.0728 46.9062 16.5908 47.2437 15.6378 47.5299C15.7217 47.8161 15.3805 48.0536 15.3183 48.0186C15.3183 48.3425 14.9392 48.5828 15.0042 48.7826C16.0195 48.9824 13.997 49.1444 14.6955 49.3225C15.2885 49.5385 15.6296 49.7572 14.3923 49.9732C14.1215 50.1919 14.5601 50.4078 14.0971 50.6265C14.247 50.8443 14.1134 51.063 13.6964 51.2826C13.7858 51.5012 13.1387 51.7226 13.5204 51.9413C13.6071 52.1627 13.6775 52.3814 13.1657 52.6054C13.0466 52.8268 13.2063 53.0482 12.9681 53.2723C13.1901 53.4937 13.3119 53.7178 12.6973 53.9418C13.0601 54.1659 12.8571 54.39 12.4482 54.6141C12.5701 54.8382 12.4482 55.0622 12.1937 55.289C12.3074 55.5131 11.3814 55.7399 11.9446 55.9667C11.8471 56.1934 12.1314 56.4202 11.858 56.647C11.7967 56.908 11.6602 57.1454 11.4654 57.33C11.5737 57.5568 11.1486 57.7863 10.8508 58.0131C10.3526 58.2426 10.6044 58.4693 11.0132 58.6988C10.4419 58.9283 10.3119 59.1578 10.3363 59.3873C10.3607 59.6167 10.5394 59.8489 10.5854 60.0784C10.3336 60.5401 9.77314 61.0044 10.1847 61.4688C10.1847 61.9331 10.2172 62.4002 9.80833 62.8672C9.57819 63.3343 9.32639 63.8041 9.45906 64.2738C10.2524 64.587 10.4771 64.9002 10.1197 65.216C9.82362 65.4318 9.49055 65.5919 9.13686 65.6885C8.50057 65.9261 8.73884 66.161 8.617 66.3985C8.95003 66.6361 8.85797 66.8737 8.83902 67.1113C9.31826 67.5864 8.95815 68.0616 8.56826 68.5394C9.44281 69.0173 7.61519 69.4952 8.32729 69.9757C8.15671 70.4563 8.59805 70.9368 8.11339 71.4174C7.5448 71.8979 8.87422 72.3812 7.92657 72.8645C7.60166 73.3477 9.20184 73.831 7.77765 74.3088C7.77765 74.7894 7.50689 75.2646 7.67476 75.7397C7.49065 76.2149 8.79299 76.6873 7.61519 77.1571C8.04299 77.6268 7.47982 78.0939 7.59895 78.561C7.66664 78.7931 7.32819 79.0253 7.59895 79.2575C7.46628 79.4897 7.59895 79.7192 7.61519 79.9513C8.0809 80.1808 8.2948 80.4103 8.21628 80.6398C8.62783 80.8693 8.34895 81.0987 7.67476 81.3255C8.34895 81.5523 8.25148 81.7818 7.89678 82.0086C8.11068 82.2353 8.4383 82.4621 7.78306 82.6862C8.73343 82.913 8.5818 83.1371 7.99155 83.3611C7.80202 83.5852 7.17927 83.8093 7.93198 84.0307C8.09542 84.2313 8.22608 84.4563 8.31917 84.6975C8.92296 84.9189 8.90671 85.1403 8.12151 85.3617C9.03397 85.583 7.95364 85.8017 8.32729 86.0204C9.4753 86.2391 8.27314 86.4578 8.35166 86.6764C7.26862 86.8951 8.87151 87.1111 8.46537 87.3271C8.69281 87.5431 8.27043 87.7591 8.617 87.975C9.55924 88.191 8.15671 88.4043 9.18559 88.6203C9.23433 88.8336 8.86339 89.0468 8.91483 89.2601C10.3092 89.4734 9.38866 89.684 8.77945 89.8973C9.64859 90.1078 8.74155 90.3184 9.25599 90.529C10.0683 90.6424 10.4988 90.7558 9.72711 90.8692C10.5394 90.9826 10.358 91.096 9.45635 91.2094C8.81194 91.3227 9.05292 91.4361 9.77855 91.5468C11.2677 91.6602 8.86339 91.7709 9.66754 91.8843C9.66754 91.9977 10.9482 92.1084 9.96537 92.2191C10.5258 92.3298 9.74064 92.4431 9.92205 92.5538C10.4961 92.7752 10.6179 92.9993 10.1197 93.2207C10.7939 93.4421 8.82007 93.6607 9.9735 93.8821C9.85166 93.9928 9.88144 94.1008 10.1576 94.2115C9.63505 94.3195 11.2406 94.4302 10.6152 94.5382C10.6748 94.7568 10.5583 94.9728 10.6829 95.1888C11.0322 95.2968 11.1811 95.4048 10.9347 95.5128C10.7831 95.6208 11.9094 95.7288 11.1513 95.834C11.636 95.942 11.4464 96.0473 11.4221 96.1553C11.6928 96.2633 12.4293 96.3686 11.3246 96.4739C12.0475 96.5792 11.2488 96.6872 11.3246 96.7925C11.3598 96.8978 11.6901 97.003 11.7226 97.111C10.8941 97.3216 12.1044 97.5322 11.6657 97.7428C12.1369 97.9534 11.3652 98.1612 12.3345 98.3691C12.9085 98.577 12.1775 98.7849 12.7379 98.9901C12.8395 99.053 12.9182 99.1467 12.9625 99.2575C13.0069 99.3682 13.0145 99.4902 12.9843 99.6056C13.0797 99.6531 13.1609 99.7247 13.2198 99.8133C13.2787 99.9019 13.3133 100.004 13.3201 100.11C13.3104 100.239 13.3425 100.367 13.4118 100.476C13.481 100.585 13.5837 100.669 13.7045 100.715C14.0295 101.117 13.5367 101.525 14.4275 101.909C14.7876 102.303 13.9428 102.694 15.1856 103.08C14.8688 103.466 16.1143 103.85 15.9789 104.23C15.9789 104.43 16.5204 104.627 16.4067 104.822C16.0845 104.919 16.7831 105.019 16.4879 105.116C16.3228 105.213 16.3011 105.31 16.8426 105.407C17.2163 105.523 18.0556 105.621 17.6549 105.71C16.4771 105.799 17.4762 105.88 17.2975 105.964C18.2858 106.047 17.108 106.131 17.7036 106.234C17.3625 106.331 18.3697 106.439 17.7524 106.568C16.8345 106.547 18.1504 106.606 18.0421 106.703C17.4491 106.803 18.1044 106.941 18.2154 107.087C17.9717 107.23 18.9193 107.378 18.5538 107.492C17.8065 107.605 18.8679 107.686 18.6892 107.697C19.4148 107.802 18.6702 107.888 19.1116 107.967C20.0565 108.048 20.043 108.121 19.1684 108.199C19.9591 108.277 18.6134 108.358 19.4121 108.469C19.7885 108.566 19.182 108.677 19.6585 108.814C19.8264 108.879 19.5746 108.941 20.154 109.084C20.33 109.233 20.6955 109.471 20.6576 109.894C20.6387 110.129 20.7605 110.326 21.1693 110.499C21.413 110.672 21.7623 110.818 21.6892 110.95C20.8769 111.136 22.1441 111.198 22.2307 111.312C23.0701 111.368 23.1161 111.439 22.5015 111.541C22.136 111.644 22.6044 111.784 22.7722 111.976C23.1621 112.127 22.4094 112.346 23.024 112.567C22.7533 112.789 23.4816 113.015 23.3165 113.183C22.7749 113.35 23.6847 113.453 23.4843 113.453C23.7822 113.453 23.8174 113.304 23.8661 112.986C23.3029 112.902 24.0475 112.986 24.2045 113.145C24.8841 113.304 23.636 113.536 24.4239 113.747C25.9428 113.958 24.5511 114.144 24.6296 114.211C24.3778 114.279 25.1711 114.228 24.987 113.96C24.987 113.925 25.6098 113.96 25.5421 114.101C25.4392 114.171 25.5204 114.268 25.8128 114.398C25.2876 114.527 26.0836 114.686 26.0836 114.881C27.2073 114.503 25.913 114.411 26.6522 114.57C26.2 114.73 27.1423 115.143 27.2262 115.774C27.3424 116.142 27.5405 116.478 27.8056 116.757C28.0006 116.916 28.1955 116.892 28.3932 116.644C28.7858 114.446 29.1838 117.389 29.5845 117.486C29.9852 116.439 30.3968 117.718 30.7975 118.296C31.2063 118.79 31.6098 118.817 32.0322 119.084C32.4464 118.412 32.8661 120.294 33.2858 119.846C33.7082 119.246 34.1332 119.519 34.561 120.577C34.9888 121.636 35.4193 122.691 35.8553 121.282C36.2885 121.433 36.7271 120.677 37.1657 121.957C37.6044 123.339 38.0484 120.877 38.4924 122.605C38.9365 121.185 39.3859 123.571 39.8462 123.223C40.2957 123.399 40.7506 121.752 41.2 123.812C41.6549 123.002 42.1125 123.069 42.5728 124.371C42.8308 124.336 43.0935 124.367 43.3361 124.461C43.5786 124.556 43.793 124.71 43.9591 124.91C44.045 125.009 44.1528 125.087 44.2741 125.137C44.3954 125.187 44.5267 125.209 44.6576 125.199C44.7826 125.187 44.9089 125.199 45.0293 125.235C45.1496 125.271 45.2616 125.331 45.3589 125.41C45.5917 125.747 45.8273 126.414 46.0628 126.093C46.2984 125.772 46.534 126.077 46.7695 125.88C47.0051 125.591 47.2406 125.71 47.4789 125.893C47.7145 125.731 47.9527 125.926 48.191 126.317C48.4293 126.709 48.6675 126.776 48.9058 126.239C49.1441 126.02 49.3823 126.042 49.6233 126.725C49.8616 127.024 50.1026 126.946 50.3408 127.151C50.5818 127.494 50.8201 127.338 51.061 127.1C51.302 126.455 51.543 125.961 51.784 126.533C52.0249 126.671 52.2659 126.665 52.5096 127.443C52.7506 127.397 52.9943 127.632 53.2352 128.366C53.4789 128.183 53.7199 129.219 53.9636 127.753C54.2072 128.866 54.4482 129.171 54.6919 128.471C54.9356 129.651 55.1793 128.582 55.423 128.034C55.6666 127.181 55.9103 127.81 56.154 127.864C56.3977 128.812 56.6414 128.045 56.8878 128.28C57.0041 128.208 57.1426 128.181 57.2775 128.203C57.4123 128.226 57.5346 128.296 57.6215 128.401C57.8652 127.764 58.1116 128.021 58.3553 128.493C58.5177 128.104 58.6829 128.331 58.8453 127.929C59.0078 127.929 59.173 127.375 59.3354 127.389C59.4979 127.402 59.663 127.74 59.8255 128.66C60.0719 128.453 60.3155 128.852 60.5619 128.885C60.8083 128.69 61.0547 129.284 61.2984 128.806C61.4636 128.687 61.626 129.036 61.7912 129.543C61.9563 130.796 62.1188 130.378 62.284 130.021C62.4491 129.565 62.6116 129.721 62.7767 128.92C63.0231 128.687 63.2695 128.38 63.5159 128.296C63.7623 128.212 64.0087 128.347 64.2551 128.998C64.7479 128.92 65.2406 127.635 65.7307 129.041C66.2235 128.471 66.7136 129.451 67.2063 129.041C67.4527 128.747 67.6964 129.19 67.9428 129.484C68.1892 129.538 68.4329 129.956 68.6793 129.014C68.9175 129.824 69.1585 129.133 69.3968 129.678C69.635 129.298 69.876 129.209 70.117 128.957C70.358 128.488 70.5962 128.93 70.8372 128.812C71.0782 129.292 71.3192 129.692 71.5574 128.874C71.7172 128.709 71.8796 128.169 72.0394 127.902C72.1991 127.635 72.3616 127.473 72.5213 127.567C72.6811 127.662 72.8435 128.01 73.0033 128.763C73.163 129.7 73.3255 128.92 73.4852 129.284C73.645 129.37 73.8074 128.66 73.9672 128.382C74.1269 127.961 74.2894 128.069 74.4491 128.628C74.5788 128.335 74.7404 128.057 74.9311 127.799C75.0935 127.572 75.2533 127.437 75.4157 127.508C75.5782 127.578 75.7379 127.859 75.9004 128.466C76.1414 128.123 76.385 128.528 76.626 128.547C76.8459 128.407 77.0933 128.315 77.3516 128.277C77.5926 127.599 77.8363 127.572 78.0773 127.699C78.3183 127.826 78.5619 128.112 78.8029 128.061C79.2876 127.289 79.7695 128.22 80.2542 127.821C80.7388 128.612 81.2208 128.126 81.7027 127.551C82.1847 127.051 82.6666 127.864 83.1486 127.259C83.6305 127.886 84.1125 127.081 84.5917 126.941C85.071 127.181 85.5529 126.941 86.0322 126.598C86.5114 125.915 86.9906 126.714 87.4672 126.228C87.9437 126.466 88.4202 125.688 88.8968 125.834C89.135 125.48 89.3706 125.758 89.6089 125.936C89.8471 125.936 90.0827 126.9 90.3183 125.415C90.5538 125.172 90.7894 125.361 91.0249 125.459C91.1716 125.434 91.311 125.378 91.4332 125.293C91.5554 125.209 91.6573 125.098 91.7316 124.97C91.9672 125.024 92.2 124.727 92.4356 124.506C92.6711 124.284 92.904 124.138 93.1368 124.506C93.3697 124.986 93.6026 124.176 93.8354 124.446C94.0683 124.16 94.3011 123.687 94.5312 124.011C94.6717 124.064 94.7926 124.158 94.8778 124.281C94.9942 123.933 95.108 124.122 95.2244 124.246C95.3408 124.573 95.4545 124.975 95.571 123.976C95.6874 123.185 95.8011 123.328 95.9175 123.509C96.0312 124.449 96.1477 123.779 96.2614 123.161C96.3751 122.915 96.4915 123.795 96.6053 123.107C96.8354 122.567 97.0628 123.107 97.2903 122.967C97.404 123.11 97.5177 123.801 97.6314 122.999C97.7451 122.384 97.8589 123.709 97.9726 122.459C98.0863 121.617 98.2 121.009 98.3137 121.825C98.4275 121.771 98.5412 122.365 98.6522 122.389C98.7659 122.119 98.8769 121.895 98.9906 122.186C99.1043 121.954 99.2154 122.375 99.3291 122.351C99.4428 122.729 99.5538 121.771 99.6648 122.292C99.7758 121.39 99.8895 122.087 100.001 121.798C100.112 121.444 100.225 121.862 100.336 121.744C100.447 121.474 100.558 122.189 100.669 121.441C100.78 121.377 100.891 122.008 101.002 121.601C101.113 120.75 101.224 121.098 101.335 121.179C101.446 120.208 101.557 121.028 101.666 120.78C101.774 120.531 101.885 120.758 101.996 120.861C102.215 120.429 102.435 119.835 102.654 120.537C102.849 119.997 103.044 119.873 103.236 120.121C103.428 119.803 103.623 119.894 103.816 119.948C103.979 119.771 104.175 119.627 104.392 119.522C104.575 119.438 104.766 119.376 104.964 119.338C105.345 118.798 105.722 116.93 106.098 118.709C106.474 117.689 106.848 118.752 107.219 118.061C107.59 118.804 107.958 118.601 108.324 117.394C108.689 116.506 109.052 117.003 109.407 116.709C109.767 116.009 110.124 116.134 110.49 116.004C110.844 115.734 111.196 116.328 111.548 115.28C111.895 115.259 112.242 114.576 112.585 114.508Z" fill="black"/>
<path d="M79.5989 15.1246C79.5989 14.4281 79.5989 14.2418 79.6233 14.7602C79.6233 15.9454 79.6477 14.9384 79.6477 15.1408C79.8968 15.7078 80.1459 15.0221 80.3923 15.7267C80.6386 15.4567 80.885 15.6943 81.1314 15.6403C81.3778 16.1992 81.6215 15.1813 81.8652 15.7807C82.1089 14.9573 82.3525 17.5031 82.5935 16.1803C82.8345 16.6959 83.0755 17.2602 83.3165 16.9389C83.5574 16.5447 83.7957 16.2099 84.0312 16.7634C84.2695 16.3287 84.5051 17.4923 84.7406 17.3034C84.9762 17.3034 85.2118 16.9146 85.4446 17.3951C85.6775 16.8768 85.9103 17.8298 86.1432 17.7002C86.376 20.5269 86.6062 18.2591 86.8363 18.0539C87.0665 18.5155 87.2939 18.3671 87.5213 18.6073C87.7488 19.4578 87.9762 18.6073 88.2009 18.7504C88.4257 18.3401 88.6504 19.1851 88.8751 19.501C89.0998 19.1149 89.3219 19.4497 89.5439 19.4848C89.7329 19.735 89.9552 19.9584 90.2045 20.1489C90.4239 20.3271 90.6432 20.4189 90.8598 20.2542C91.2957 21.2207 91.7262 19.9545 92.1513 21.0641C92.2712 21.3535 92.4994 21.585 92.7876 21.7094C93.0011 21.762 93.2117 21.826 93.4184 21.901C93.6269 22.36 93.8354 22.711 94.0412 22.4923C94.2469 22.1521 94.4527 22.3465 94.6585 22.7623C94.8643 22.1386 95.0673 22.4707 95.2677 22.9054C95.4708 22.9864 95.6711 23.9853 95.8715 23.6667C96.0719 23.6991 96.2695 24.0555 96.4699 24.2255C96.6675 24.2255 96.8652 24.32 97.0601 24.6008C97.2551 25.5079 97.45 25.4107 97.645 25.0544C97.8372 24.5522 98.0294 24.4334 98.2217 25.5673C98.4139 26.407 98.6035 25.5295 98.793 26.2099C98.9825 26.3881 99.1693 26.9442 99.3562 26.5635C99.543 28.0997 99.7271 26.8335 99.9112 27.3411C100.095 27.9269 100.279 27.638 100.453 27.5894C100.634 28.5992 100.816 26.8902 100.994 28.1294C101.173 26.8875 101.352 28.6694 101.536 28.6343C101.712 29.9841 101.888 28.9042 102.077 29.7142C102.253 30.3513 102.427 28.8475 102.597 29.7142C102.77 28.8556 102.941 29.7466 103.112 29.8384C103.282 29.4766 103.45 30.7158 103.618 30.8238C103.722 31.1273 103.892 31.4039 104.116 31.6337C104.281 32.6812 104.446 32.206 104.609 31.9442C104.771 32.5435 104.934 32.8675 105.094 32.827C105.253 32.6623 105.51 33.0376 105.57 33.097C105.248 33.097 105.462 33.1456 105.806 33.2536C105.535 33.3615 105.297 33.5235 106.038 33.753C105.364 33.9474 107.934 34.1202 106.501 34.2795C106.835 34.6844 107.105 35.0597 106.956 35.2946C106.807 35.5294 107.4 35.6293 107.403 35.4863C108.245 35.9587 107.43 36.1828 107.842 36.3313C106.783 36.4771 108.383 36.5473 108.272 36.7146C108.451 36.9225 108.072 37.1277 108.697 37.3383C108.343 37.5462 109.03 37.7568 109.114 37.9646C109.908 38.2913 109.87 38.618 109.745 38.9473C110.108 39.2767 109.204 39.6088 110.357 39.9436C111.334 40.2783 110.495 40.6131 110.95 40.9506C111.186 41.2623 111.378 41.6047 111.521 41.9684C111.887 42.3086 111.099 42.6514 112.063 42.997C112.683 43.213 112.688 43.429 112.334 43.6449C112.334 43.8609 111.816 44.0796 112.718 44.2983C113.452 44.517 113.344 44.7356 113.111 44.9543C113.112 45.1951 113.197 45.4281 113.352 45.6131C114.012 45.8344 114.069 46.0558 114.007 46.2772C113.945 46.4986 113.763 46.7227 113.955 46.944C114.47 47.3895 114.161 47.8377 114.524 48.2939C114.551 48.7448 114.846 49.1983 115.066 49.6438C114.73 50.0974 115.336 50.5563 115.572 51.0153C116.143 51.4742 116.709 51.9359 116.046 52.3976C117.353 52.8592 115.989 53.3236 116.487 53.7906C116.804 54.0228 116.203 54.2577 116.696 54.4926C116.549 54.6087 116.663 54.7275 116.782 54.8436C116.901 54.9596 117.023 55.0784 116.893 55.1945C116.893 55.2809 116.52 55.4078 116.582 55.5482C116.909 55.6886 116.909 55.8452 117.085 55.9963C117.261 56.1475 117.57 56.2852 117.695 56.3959C117.819 56.5066 117.768 56.5849 117.27 56.6065C116.547 56.7604 116.793 56.8954 117.562 57.0169C117.96 57.1384 118.29 57.2517 117.446 57.357C117.688 57.3966 117.913 57.5086 118.09 57.6783C118.19 57.7863 118.09 57.8997 117.611 58.0266C117.835 58.2561 117.933 58.3748 117.768 58.5665C117.992 58.6583 117.44 58.7636 117.673 58.9067C117.424 59.0498 117.402 59.228 117.917 59.4655C116.88 59.5735 117.473 59.6842 117.768 59.7976C117.359 59.911 118.155 60.0271 118.057 60.1459C118.12 60.2647 117.995 60.3889 117.852 60.5131C117.175 60.6399 118.136 60.7695 118.187 60.9018C118.84 61.1907 118.889 61.4418 118.764 61.6227C118.64 61.8035 118.347 61.9655 118.309 62.0762C119.406 62.2976 117.589 62.3678 118.423 62.3462C118.964 62.7943 117.976 63.0886 118.529 63.3046C118.529 63.5206 117.919 63.6583 118.623 63.7933C118.412 63.6718 118.485 63.8824 118.71 64.2009C119.181 64.5195 118.26 64.9434 118.788 65.2484C119.601 65.1188 118.872 65.3348 118.859 65.6588C119.208 65.8208 119.1 66.0071 118.967 66.1988C118.902 66.2665 118.861 66.3544 118.852 66.4481C118.844 66.5417 118.867 66.6356 118.918 66.7144C119.66 66.5929 118.106 66.4579 118.97 66.6037C118.908 66.6766 118.97 66.8197 119.024 67.0681C119.104 67.4327 119.104 67.8103 119.024 68.175C119.836 68.1966 119.414 68.445 119.057 68.7635C119.279 68.9174 119.671 69.0821 119.395 69.236C119.56 69.3116 119.712 69.3872 119.706 69.4547C119.701 69.5222 119.541 69.5843 119.081 69.6383C118.629 69.7759 118.826 69.892 118.607 69.9946C118.637 70.0972 118.878 70.1836 119.124 70.2646C119.593 70.3402 119.514 70.4023 119.354 70.4563C119.195 70.5103 118.954 70.5562 119.084 70.5967C117.906 70.6804 119.154 70.7452 118.761 70.8207C119.56 70.8963 119.603 70.9827 119.089 71.1123C119.36 71.4606 118.916 71.6523 119.203 71.7522C120.381 71.8575 118.461 71.8791 119.084 71.8952C118.813 71.9141 120.104 71.9249 119.132 72.014C119.853 72.1004 118.954 72.2624 119.073 72.5783C119.425 72.3677 118.718 72.23 119.449 72.1571C119.314 72.0842 118.637 72.0734 119.059 72.1112C118.737 72.149 119.69 72.2354 119.227 72.3569C119.17 72.4784 118.71 72.6269 119.043 72.8159C118.705 72.994 118.32 73.1965 118.899 73.4044C118.087 73.615 118.821 73.831 119.019 74.0443C119.885 73.9417 118.661 74.2953 118.978 74.6814C120.646 74.8758 119.297 75.0756 118.978 75.2214C118.78 75.3779 118.881 75.4913 118.932 75.4913C118.052 75.6722 118.353 75.8477 119.078 76.0151C118.369 76.1825 118.434 76.3364 118.87 76.4714C118.079 76.7413 118.667 76.9276 118.799 76.9573C117.716 77.1733 119.238 77.4244 118.761 77.6646C117.678 77.9049 118.851 78.1371 118.721 78.3153C118.572 78.6744 119.103 78.8228 118.631 78.4179C120.765 78.1857 120.237 78.345 118.531 78.6663C118.564 78.9875 118.087 79.4762 118.423 79.8784C118.529 80.386 118.61 80.5588 118.304 80.6884C118.975 80.8315 118.883 80.9422 118.177 81.3228C117.259 81.4281 118.068 81.5415 118.038 81.7548C118.309 81.9681 117.727 82.2785 117.89 82.7753C117.8 82.8563 117.291 83.0993 117.89 82.7753C118.214 82.2488 117.984 83.1938 117.89 82.7753C118.277 83.0453 118.878 83.2963 117.716 83.5582C117.264 83.8282 117.104 84.0766 117.532 84.3331C117.354 84.4951 117.227 84.7057 117.167 84.9389C117.107 85.1721 117.118 85.4177 117.196 85.6452C117.657 86.0798 116.888 86.5091 116.834 86.9356C117.299 87.3622 116.598 87.7861 116.446 88.2045C116.432 88.6515 116.288 89.0848 116.032 89.4518C114.659 89.8649 115.542 90.2617 115.594 90.6802C116.406 91.0852 115.705 91.4901 115.128 91.887C115.669 92.2866 114.608 92.6807 114.638 93.0722C114.692 93.3017 114.486 93.5285 114.34 93.7525C113.88 93.9793 114.034 94.2034 114.034 94.4275C113.552 94.6516 113.855 94.8729 113.763 95.0943C113.812 95.3157 113.647 95.5344 113.398 95.7531C113.75 95.9717 113.186 96.1877 112.981 96.4037C112.98 96.6424 112.89 96.8723 112.729 97.049C112.671 97.2877 112.551 97.5073 112.382 97.6861C112.022 97.8967 111.792 98.1073 112.03 98.3151C112.382 98.4204 112.38 98.523 112.247 98.6283C112.114 98.7336 111.586 98.8362 111.692 98.9388C111.307 99.0414 111.091 99.144 111.405 99.2466C110.568 99.3491 111.573 99.4517 111.299 99.5516C111.768 99.6542 111.57 99.7541 111.229 99.8567C110.823 99.9566 110.779 100.059 110.923 100.159C110.566 100.359 111.351 100.559 110.538 100.758C111.039 100.958 110.111 101.155 110.241 101.35C109.715 101.547 110.057 101.741 109.745 101.933C109.535 102.114 109.335 102.307 109.147 102.511C109.507 102.702 108.96 102.891 108.925 103.08C108.89 103.269 108.275 103.455 108.232 103.642C108.551 103.828 107.939 104.012 108.075 104.195C107.693 104.379 107.547 104.56 107.501 104.735C107.043 104.916 107.639 105.094 107.195 105.275C106.936 105.51 106.708 105.776 106.518 106.069C106.333 106.366 106.099 106.629 105.825 106.846C105.15 107.103 104.742 107.354 105.118 107.605C104.576 107.856 104.438 108.102 104.395 108.347C103.997 108.518 103.667 108.631 103.881 108.771C103.881 108.912 103.361 109.079 103.358 109.357C103.401 109.473 102.862 109.535 102.816 109.66C102.579 109.833 102.393 110.066 102.275 110.334C102.079 110.551 101.898 110.781 101.733 111.023C101.552 110.95 101.368 111.161 101.192 111.277C101.016 111.393 100.821 112.683 100.634 112.114C100.447 112.516 100.26 112.762 100.071 112.181C99.8814 113.299 99.6919 112.959 99.4997 112.705C99.3074 113.342 99.1152 112.286 98.9229 113.05C98.7307 113.685 98.5358 113.223 98.3408 113.464C98.1459 113.704 97.9482 113.464 97.7506 113.887C97.5529 114.238 97.3553 114.781 97.1549 114.462C96.9545 114.144 96.7542 114.192 96.5538 114.689C96.4004 114.497 96.1868 114.362 95.9473 114.306C95.7442 114.238 95.5385 114.427 95.3327 115.453C94.9211 114.103 94.5204 116.97 94.0872 116.182C93.6675 116.012 93.2452 116.784 92.8201 116.873C92.395 116.757 91.9645 115.523 91.5312 117.529C91.098 118.242 90.6621 118.102 90.2208 118.15C89.7794 117.308 89.3354 115.99 88.8886 118.733C88.4419 119.174 87.9897 120.324 87.5349 119.273C87.08 120.102 86.6251 119.897 86.1648 119.784C85.9347 119.784 85.7045 120.089 85.4717 120.302C85.2388 120.515 85.0087 120.634 84.7758 120.256C84.543 119.986 84.3101 119.716 84.0746 119.986C83.839 120.561 83.6035 120.378 83.3679 120.688C83.1323 120.874 82.8941 120.785 82.6585 120.936C82.4202 121.279 82.182 119.973 81.9437 121.085C81.7054 120.005 81.4645 120.545 81.2262 120.588C80.9852 120.556 80.7442 121.066 80.5033 121.444C80.2623 120.939 80.0186 121.212 79.7776 121.714C79.534 122.081 79.2903 122.411 79.0466 121.757C78.8029 121.557 78.5565 121.776 78.3128 122.146C78.0692 122.516 77.8201 122.802 77.5737 122.041C77.0809 121.652 76.5854 122.451 76.0872 122.286C75.589 120.853 75.0881 123.034 74.5845 122.494C74.0809 121.198 73.5773 124.114 73.0683 122.664C72.5619 123.577 72.0529 124.778 71.5412 122.794C71.2867 122.624 71.0294 122.775 70.7722 122.905C70.515 123.034 70.2578 123.142 70.0006 122.886C69.7298 122.489 69.4861 122.589 69.2262 122.886C68.9663 123.183 68.7091 123.509 68.4491 122.923C68.1784 123.609 67.9293 123.342 67.6693 123.04C67.3986 122.953 67.1495 121.398 66.8868 122.937C66.6161 123.577 66.3643 123.582 66.1017 123.423C65.839 123.264 65.5764 122.937 65.3137 122.913C65.043 122.373 64.7885 122.975 64.5231 122.697C64.2524 122.878 63.9952 122.81 63.7325 122.845C63.4618 122.691 63.191 122.799 62.9392 122.929C62.6874 123.058 62.3977 123.142 62.1432 122.74C61.6351 122.542 61.0813 122.492 60.5457 122.594C60.0042 123.404 59.4762 122.656 58.9401 122.408C58.3986 121.239 57.8571 120.818 57.3156 122.181C56.774 124.511 56.2325 119.67 55.691 121.911C55.1495 120.969 54.608 121.981 54.0908 121.614C53.5628 121.047 53.0403 122.513 52.5258 121.26C52.0087 122.34 51.4997 121.377 50.9961 120.853C50.4924 119.233 49.9915 121.69 49.4988 120.394C49.006 119.722 48.5186 120.534 48.0367 119.881C47.5547 120.44 47.0809 120.772 46.6098 119.319C46.1414 116.709 45.6757 118.62 45.2181 118.709C44.7605 118.844 44.3083 119.195 43.8643 118.05C43.4175 117.672 42.9789 117.929 42.543 117.346C42.1098 116.552 41.6793 116.425 41.2569 116.595C40.8345 114.222 40.4175 116.387 40.0087 115.801C39.5971 116.269 39.1964 115.599 38.7957 114.965C38.3977 114.824 38.0051 114.425 37.6179 114.087C37.2307 113.547 36.8517 115.232 36.4753 113.169C36.1017 111.231 35.7307 114.519 35.3679 112.214C35.0051 110.883 34.6477 109.824 34.2849 111.22C33.9329 111.39 33.589 111.96 33.2506 110.191C32.9121 109.579 32.5791 109.133 32.2542 109.128C32.1459 109.722 32.0376 109.816 31.9293 109.668C31.7874 109.384 31.6801 109.085 31.6098 108.777C31.4609 108.415 31.5773 108.08 31.293 108.029C31.3715 106.903 31.0656 106.468 30.9816 106.369C30.9816 106.269 30.7109 106.501 30.673 106.709C30.478 106.917 30.3508 107.1 30.3697 106.9C30.2993 106.174 30.2235 105.991 29.9202 105.934C29.6874 105.877 29.6495 105.95 29.4816 105.739C28.8426 105.105 29.617 104.832 29.0511 104.708C28.9188 104.636 28.7764 104.583 28.6287 104.552C28.1955 104.252 28.6287 103.882 28.2172 103.617C27.6757 103.347 27.2018 103.199 27.8137 103.334C27.1423 103.383 27.4482 103.269 27.6161 103.086C27.4807 102.902 27.2127 102.651 27.4212 102.421C26.9852 102.195 27.5836 101.99 27.1504 101.903C27.3805 101.817 27.2424 101.846 27.0448 102.089C26.9663 101.952 27.191 101.838 27.1369 101.741C27.3535 101.641 27.0367 101.555 26.6684 101.471C26.4735 101.385 25.7181 101.296 26.043 101.201C25.8968 101.099 26.0944 100.98 26.3137 100.831C26.7876 100.861 26.3137 100.866 26.2488 100.831C25.8074 100.802 25.7073 100.74 25.9591 100.64C25.9184 100.54 25.6017 100.399 25.5583 100.218C25.5259 99.9887 25.5444 99.7546 25.6125 99.5327C24.4455 99.0765 25.2226 98.8011 25.274 98.6121C25.3255 98.4231 25.0601 98.3205 24.9464 98.2152C24.9302 97.9939 24.4401 97.7725 24.6269 97.5484C23.5168 97.3243 23.5439 97.1002 24.3183 96.8762C24.4753 96.4469 24.4645 96.0176 23.7551 95.583C24.0258 95.1483 23.8282 94.711 23.2136 94.2736C21.7434 93.8335 23.4329 93.3908 22.7181 92.948C22.2659 92.5025 22.7858 92.0571 22.2578 91.5981C22.8914 91.15 21.4455 90.6964 21.83 90.2482C21.9762 89.7947 21.4401 89.3384 21.4374 88.8795C21.6215 88.4205 22.274 87.9615 21.08 87.4999C21.2804 87.2704 20.904 87.0382 20.6278 86.806C20.3517 86.5739 19.9374 86.3417 20.7578 86.1095C20.7876 85.8773 21.0502 85.6451 21.1369 85.4103C21.2235 85.1754 21.1369 84.9432 20.4708 84.711C20.6441 84.4762 19.8426 84.244 20.1242 84.0091C20.0538 83.7742 20.4221 83.5393 20.219 83.3045C20.2326 83.0588 20.2952 82.8184 20.4031 82.5971C20.5141 82.3622 20.5304 82.1247 19.9997 81.8898C19.8691 81.6627 19.7578 81.4252 19.6666 81.1797C19.8778 80.9422 19.6666 80.7073 19.8156 80.4697C20.1486 80.2321 20.2731 79.9945 20.2325 79.757C20.1393 79.4575 19.9376 79.2034 19.6666 79.0442C19.7154 78.8066 19.3634 78.5691 19.1251 78.3315C19.163 78.0939 18.6323 77.8563 19.5583 77.616C19.0168 77.3785 19.1793 77.1382 19.9103 76.9006C20.2271 76.663 20.4166 76.4228 19.4798 76.1852C20.1026 75.9476 20.3192 75.7073 20.2677 75.4697C20.2163 75.2322 19.8914 74.9919 19.4365 74.7543C18.5105 74.5167 19.0168 74.2764 18.895 74.0389C19.1224 73.8013 19.5258 73.561 19.4202 73.3234C19.2172 72.8456 19.4934 72.3704 19.4473 71.8926C18.5755 71.4147 19.3878 70.9395 19.5123 70.4644C19.4636 70.2268 19.2199 69.9892 19.1495 69.7516C19.3661 69.5141 19.3174 69.2765 19.6098 69.0389C19.8264 68.9201 19.5421 68.8013 19.4609 68.6825C19.6666 68.5637 18.7596 68.445 19.6748 68.3262C19.8697 68.2074 19.7722 68.0886 20.3489 67.9698C20.2758 67.851 19.4554 67.7322 19.7479 67.6161C20.3165 67.6161 19.2307 67.6161 19.7479 67.6161C20.1134 67.6161 20.1486 67.6161 19.7479 67.6161C19.4446 67.4946 18.9952 67.3731 19.9076 67.2517C19.5015 67.1302 20.1784 67.0087 19.9536 66.8899C20.1621 66.7684 20.0213 66.6469 19.886 66.5281C18.8517 66.4066 18.8923 66.2878 19.9293 66.1664C20.9094 66.0449 20.2867 65.9261 20.4491 65.8046C19.561 65.6831 20.135 65.5643 20.1973 65.4428C19.691 65.324 20.0078 65.2025 19.9076 65.0837C19.5773 64.965 20.0755 64.8435 20.1459 64.7247C20.5547 64.6059 20.1188 64.4844 20.7388 64.3656C20.7388 64.2468 20.2786 64.128 20.4681 64.0092C20.3733 63.8905 20.8607 63.7717 20.024 63.6529C20.9879 63.5341 20.4735 63.4153 20.3977 63.2965C20.2406 63.1777 21.0123 63.0589 20.839 62.9401C20.839 62.8214 19.8995 62.7026 20.6035 62.5865C20.1648 62.3489 20.5547 62.114 20.6847 61.8791C20.8174 61.7603 19.5475 61.6443 20.5412 61.5255C21.2424 61.4094 20.0267 61.2906 20.5412 61.1745C21.2235 61.0584 20.2434 60.9396 20.5656 60.8235C20.8878 60.7074 20.6982 60.5886 21.0069 60.4726C21.0069 60.2404 21.8381 60.0055 21.0773 59.7733C20.9636 59.6572 21.5728 59.5411 21.0773 59.425C21.5457 59.309 21.3832 59.1929 21.3778 59.0768C20.6657 58.8446 21.4536 58.6151 21.2722 58.3856C20.46 58.1562 21.4563 57.9267 21.7677 57.6972C20.5764 57.4677 21.1829 57.2409 21.7813 57.0115C21.0096 56.7847 21.8652 56.5552 22.1901 56.3311C21.6242 56.1043 21.9545 55.8776 22.4879 55.6535C23.284 55.4294 23.4248 55.2026 22.645 54.9785C24.08 54.7545 22.645 54.5304 23.1188 54.309C23.8661 54.0849 22.9049 53.8635 23.1323 53.6422C24.2776 53.4208 23.5276 53.1994 23.6739 52.978C22.8616 52.7566 23.2704 52.538 23.6739 52.3193C22.2795 52.1006 23.108 51.8819 23.8228 51.6632C23.6305 51.4445 24.9708 51.2286 24.2235 51.0126C23.7822 50.7966 26.0647 50.5806 24.6648 50.3646C25.163 50.1487 24.1233 49.9354 24.8029 49.7221C24.4293 49.5088 25.0358 49.2955 25.1143 49.0823C26.1973 48.869 25.4013 48.6584 25.4121 48.4478C25.8318 48.221 25.4663 47.9943 25.7533 47.7675C26.4762 47.5407 24.9924 47.3166 26.1026 47.0925C25.5908 47.1249 24.8841 47.0493 26.46 46.8388C27.2316 46.7335 27.034 46.5931 26.5006 46.4122C26.0511 46.234 26.284 46.018 26.8255 45.7589C26.682 45.6968 27.9085 45.5429 27.1991 45.3188C28.1793 45.2054 26.7632 45.0758 27.3887 44.93C26.7632 44.7842 27.3047 44.6223 27.5809 44.4441C27.3697 44.2983 26.7686 44.0931 27.7758 43.9041C27.5647 43.7097 28.1062 43.5261 27.9735 43.4236C28.1062 43.2967 28.2443 43.3966 28.3715 43.1536C28.4632 42.9523 28.6026 42.7763 28.7776 42.6406C28.9157 42.592 29.0484 42.6271 29.1919 41.8847C29.2891 41.8506 29.3774 41.7954 29.4505 41.723C29.5235 41.6506 29.5795 41.5629 29.6143 41.4662C29.7578 41.0991 29.8986 41.1963 30.0448 40.6374C30.1883 40.7778 30.3345 40.9398 30.4834 40.6374C30.6323 40.335 30.7785 39.7735 30.9302 39.4144C31.0791 38.5532 31.2307 38.1023 31.3823 38.2022C31.534 37.9484 31.6883 38.0456 31.8426 38.2022C31.997 38.0807 32.154 37.3464 32.311 37.1952C32.4681 37.2438 32.6278 36.2719 32.7876 37.0278C32.9473 36.7983 33.1071 37.0872 33.2695 36.9657C33.432 37.1088 33.5944 36.7902 33.7596 35.8858C33.9248 35.794 34.0899 35.2865 34.2578 34.922C34.4257 34.5575 34.5935 34.3281 34.7614 34.7627C35.0998 34.4765 35.4437 34.5116 35.7903 33.6666C36.1369 33.1969 36.4888 33.0403 36.8462 32.5867C37.2036 31.2584 37.5637 32.0711 37.9293 31.5446C38.2948 29.2417 38.663 31.2746 39.0394 30.5322C39.413 29.8788 39.7921 30.1596 40.1739 29.5468C40.5556 29.8168 40.9428 28.2725 41.3327 28.5911C41.8134 28.4578 42.2333 28.1631 42.5213 27.7568C42.9193 27.4869 43.3336 28.2563 43.7289 26.8632C44.135 26.6202 44.5412 27.3006 44.9609 25.9993C45.3751 26.1964 45.7921 24.7655 46.2145 25.1678C46.4257 24.6926 46.6369 24.5441 46.848 24.4874C47.0644 24.4685 47.2784 24.4287 47.487 24.3686C47.7009 24.482 47.9175 23.9178 48.1314 24.752C48.348 25.0085 48.5646 24.6413 48.7813 23.6046C48.9979 24.2849 49.2172 22.6759 49.4365 23.0646C49.6558 23.6316 49.8778 22.4896 50.0971 22.8649C50.3192 22.549 50.5412 22.8649 50.7632 22.6543C50.9852 22.1575 51.21 22.7272 51.4347 22.1683C51.6594 22.1332 51.8841 20.7402 52.1116 21.6122C52.339 21.9712 52.5637 21.9415 52.7939 21.5069C53.0213 21.5933 53.2515 21.1802 53.4789 21.1451C53.709 21.955 53.9392 20.7294 54.1693 20.8751C54.3995 21.5555 54.6323 20.8913 54.8652 20.6268C55.098 20.8616 55.3309 20.8724 55.5637 20.2839C55.7966 20.3082 56.0322 19.9788 56.2677 19.9167C56.5033 19.725 56.7388 19.7763 56.9771 19.7304C57.4509 19.2742 57.9275 18.7747 58.4067 19.2148C58.8859 17.9486 59.3679 19.1338 59.8526 18.7369C60.3372 18.7558 60.8246 19.1662 61.3146 18.2996C61.5753 18.3356 61.8407 18.3188 62.0947 18.2502C62.3487 18.1815 62.5862 18.0624 62.793 17.9C63.2885 18.0944 63.7867 18.0053 64.2876 17.5409C64.8012 17.4923 65.3079 17.3873 65.7984 17.2278C66.302 14.3336 66.811 17.5652 67.3201 16.9578C67.8291 17.8541 68.3408 17.0064 68.8553 16.7229C69.3697 17.3789 69.8841 16.5042 70.4013 16.5312C70.9184 16.7526 71.4383 15.6808 71.9609 16.3827C72.4834 17.2332 73.006 17.0253 73.5312 16.2774C74.0387 16.0916 74.5919 16.0699 75.1125 16.2153C75.2885 15.7618 75.4645 15.5107 75.654 15.4054C75.7422 15.3584 75.8439 15.3427 75.9423 15.3608C76.0407 15.379 76.13 15.4299 76.1955 15.5053C76.345 15.7567 76.527 15.9872 76.737 16.1911C76.8372 16.2072 76.9591 16.2801 77.0998 15.7348C77.2082 15.3136 77.3219 15.1948 77.4437 15.1651C77.5656 15.1354 77.6928 14.5982 77.8255 15.2326C77.9581 14.771 78.0962 14.9006 78.237 15.0383C78.3778 14.9708 78.524 15.4648 78.6702 15.0221C78.8192 15.562 78.9681 15.292 79.1197 15.4513C79.2713 16.102 79.4257 15.5728 79.5773 15.103C79.5773 14.5172 79.5773 14.3147 79.6016 14.6792C79.5881 14.3984 79.5989 14.9681 79.5989 15.1246ZM78.1585 20.3784C78.0312 20.5863 77.904 20.3487 77.774 20.3055C77.6468 20.6943 77.5195 20.0895 77.3923 20.4729C77.3254 20.4595 77.2564 20.4613 77.1903 20.4781C77.1242 20.4949 77.0628 20.5264 77.0105 20.5701C76.8832 20.4378 76.756 19.9653 76.6287 20.5701C76.3742 21.3422 76.1197 20.1651 75.8652 20.6808C75.6107 21.3098 75.3589 20.9777 75.1044 20.7995C74.8525 21.1991 74.598 20.6862 74.3462 20.9669C74.0944 20.7752 73.8426 20.6727 73.5908 21.0641C73.339 20.8859 73.0872 20.9993 72.8381 21.0641C72.5774 21.1348 72.3257 21.2354 72.0881 21.3638C71.5872 21.3422 71.0917 21.955 70.5935 21.6932C70.098 21.5987 69.6026 22.9 69.1098 22.0522C68.617 21.3611 68.1269 22.4437 67.6396 22.4437C67.1522 21.9955 66.6648 22.6354 66.1802 22.8676C65.6955 22.387 65.2136 22.2898 64.7343 23.3211C64.2551 23.1591 63.7785 23.1915 63.3047 23.8071C63.1477 24.6926 62.9879 24.7952 62.8309 25.0355C62.6739 25.4026 62.5168 24.6008 62.3598 24.6062C62.2027 24.4955 62.0457 24.2417 61.8887 24.3227C61.6531 24.0906 61.4202 24.5927 61.1874 24.3065C60.9545 25.1165 60.7217 24.59 60.4888 24.8681C60.256 25.1462 60.0258 24.7601 59.7957 25.4242C59.5655 26.4124 59.3354 25.0301 59.1053 25.4485C58.8751 25.1273 58.6477 24.7385 58.4202 25.7185C58.1928 26.6985 57.9654 24.5198 57.7406 26.0641C57.5132 24.9005 57.2885 25.6051 57.0637 26.2558C56.839 27.1359 56.6143 26.9496 56.3923 26.7012C56.1702 25.8589 55.9455 26.4124 55.7262 26.8929C55.5042 29.5927 55.2849 27.5625 55.0628 27.3681C54.8435 26.2531 54.6242 24.9599 54.4049 27.7136C54.1856 30.4134 53.969 29.4766 53.7524 28.0673C53.3192 26.0317 52.8887 28.1483 52.4636 28.7962C52.0385 29.05 51.6134 27.2142 51.1964 29.5549C50.7767 29.32 50.3625 30.4512 49.9509 30.3432C49.5394 29.7682 49.1387 32.5705 48.7271 31.1531C48.3237 30.6375 47.9148 33.7233 47.5276 32.0009C47.1323 32.4355 46.7397 33.0808 46.3526 32.8756C45.9654 32.476 45.5809 33.9906 45.2018 33.78C44.8228 34.6628 44.4491 34.7492 44.0782 34.7141C43.7072 33.9177 43.3417 35.3135 42.9816 35.6752C42.6215 34.3092 42.2641 37.3788 41.8986 36.6661C41.5466 35.3891 41.2 38.6423 40.8562 37.6839C40.5123 38.0942 40.1766 36.909 39.8435 38.7314C39.5105 40.4592 39.1829 40.0812 38.8607 39.8113C38.7524 40.0812 38.839 40.4808 38.5385 40.8156C38.4275 41.1504 38.617 41.4311 38.2217 41.5013C38.4924 41.5715 38.0809 41.4284 37.9076 40.9128C37.6991 41.0829 37.7939 40.9614 37.4419 40.9965C37.4202 41.0343 37.0791 41.2314 36.9843 42.0413C36.589 42.0413 36.2993 42.0926 36.5349 42.2546C37.0764 42.4165 35.9934 42.7027 36.0935 43.1995C36.3643 42.6595 35.5953 42.9295 35.6603 43.3561C35.8282 43.7718 36.2154 44.3361 35.2352 44.3847C35.5926 44.4981 34.4365 44.4738 34.8183 44.5845C33.5403 44.6951 34.4906 44.9408 34.4121 45.5996C34.8074 45.5402 34.1414 45.8263 34.0141 46.1395C33.0935 46.4527 34.5231 46.7929 33.6242 46.8415C31.58 47.2815 34.6098 47.5191 33.2424 47.6838C32.3814 47.8512 31.5448 47.9538 32.8715 48.1076C30.9004 48.0456 31.6585 48.2561 32.5087 48.5396C33.1748 48.8231 31.469 49.1794 32.154 49.4008C30.7434 49.4872 31.2822 49.6708 31.8101 49.8895C29.9717 50.119 32.2704 50.4051 31.4744 50.721C32.598 50.9424 32.5574 51.1665 31.1495 51.3906C31.6233 51.6146 30.6269 51.8414 30.8327 52.0682C32.6928 52.4705 32.6847 52.8781 30.2912 53.2858C30.5267 53.6962 30.126 54.0957 29.7822 54.525C28.848 54.9407 30.1531 55.3619 29.3056 55.7858C28.3823 56.2096 28.7181 56.6362 28.8616 57.0655C28.6829 57.4947 29.4681 57.9294 28.45 58.3667C27.7677 58.8041 28.534 59.2442 28.071 59.6869C27.7785 59.9083 27.4428 60.1324 27.895 60.3538C27.9816 60.5778 28.4067 60.8019 27.7271 61.026C28.163 61.1799 27.5511 61.3203 27.5674 61.5201C28.5015 61.7225 26.4843 61.9871 27.4157 62.3867C27.145 62.7755 26.46 62.816 27.2722 62.9104C27.7975 63.0049 27.9843 63.1561 27.1369 63.7663C27.2289 63.931 28.8832 63.2263 27.1369 63.7663C26.7172 63.8284 26.5953 63.6799 26.6441 63.5908C26.6928 63.5017 26.9013 63.4693 27.1369 63.769C26.3544 63.8284 26.0538 63.9175 26.2298 64.0389C26.4539 64.2238 26.7196 64.3517 27.0042 64.4115C26.2785 64.5465 25.9943 64.6815 26.2515 64.8354C26.793 64.9785 26.8282 65.1053 26.8823 65.2457C27.5349 65.4644 27.3589 65.6264 27.0962 65.7533C26.8336 65.8802 26.2298 65.9747 26.7713 66.0611C27.2452 66.2338 26.5006 66.3796 26.6684 66.709C27.4807 66.8305 27.3453 66.952 27.0637 67.0735C26.4004 67.195 26.6251 67.3165 26.5764 67.4379C26.3056 67.5594 26.682 67.6809 26.4464 67.8024C26.7686 67.9239 26.7172 68.0454 26.4952 68.1669C26.7659 68.4099 26.682 68.6555 26.3869 68.8985C26.3636 69.1417 26.3555 69.386 26.3625 69.6301C26.9988 69.8731 26.8796 70.1161 26.6522 70.3591C26.487 70.5804 26.3582 70.8264 26.2704 71.088C25.3174 71.331 26.2704 71.574 26.0511 71.817C26.1486 72.0599 26.3219 72.3029 26.2163 72.5432C26.1784 73.0265 25.5556 73.5124 26.2027 73.993C26.5656 74.2332 26.7091 74.4762 26.6955 74.7165C26.6393 75.0077 26.4724 75.2659 26.2298 75.4373C26.0128 75.6742 25.7301 75.8415 25.4175 75.9179C25.7127 76.0772 25.3011 76.2365 25.6233 76.3985C25.1468 76.5577 26.4356 76.717 26.2975 76.8763C26.5168 77.1166 27.0258 77.3542 26.8932 77.5918C26.828 77.8841 26.6513 78.1398 26.4004 78.3045C25.6044 78.4638 26.5845 78.6204 26.7524 78.7796C27.1504 78.9389 27.3399 79.0955 27.4076 79.2521C27.4753 79.4087 27.2885 79.568 26.5439 79.7246C26.4924 79.9594 27.2479 80.197 27.3562 80.4319C27.4645 80.6668 27.3291 80.9017 26.728 81.1365C26.3571 81.3714 26.4708 81.6036 26.3354 81.8385C26.0971 82.0707 26.0646 82.3028 26.95 82.535C26.4491 82.6889 26.8174 82.8455 27.1098 82.9994C27.6892 83.3071 28.7343 83.6149 27.2127 83.9227C27.8841 84.3817 27.9952 84.8406 27.5132 85.2942C28.5665 85.7477 28.0087 86.2013 27.8517 86.6441C27.4861 87.0949 28.0818 87.5404 28.228 87.9939C28.8156 88.4367 27.8896 88.8795 28.6423 89.3168C28.3092 89.549 28.4392 89.7812 28.8778 90.0107C28.6071 90.2401 28.5529 90.4696 29.1215 90.6991C29.1757 91.0204 29.5087 91.4145 29.376 91.7007C28.247 91.9869 30.0962 92.1678 29.6468 92.0598C30.0556 92.5187 29.6468 92.7725 29.9175 92.9507C30.7623 93.1289 30.1396 93.2207 30.2045 93.3962C30.2045 94.0981 30.1585 94.3627 30.5024 94.4761C29.9121 94.5976 29.904 94.5733 30.811 94.7001C30.2695 94.5706 30.811 95.0916 31.1278 95.5452C31.0249 95.9987 30.9654 96.3848 31.4554 95.9852C30.8219 96.7061 31.1062 96.9706 31.7939 97.0813C31.5665 97.192 32.1594 97.1461 32.1432 97.2433C32.2082 97.8697 32.5114 98.1964 32.5006 98.3583C32.33 98.5203 32.7903 98.5149 32.8688 98.4717C32.8282 98.7417 32.8688 98.6769 33.2479 98.7201C33.413 98.766 33.7894 98.9253 33.635 99.665C33.6811 100.137 34.5231 100.156 34.0331 100.205C34.6829 100.24 33.9464 100.297 34.4419 100.842C34.7695 100.615 34.5096 100.74 34.8589 101.001C35.33 101.271 35.1594 101.657 35.2867 101.976C35.4762 102.421 35.4545 102.821 35.5764 103.115C35.6982 103.41 35.7713 103.593 35.8715 103.609C35.9717 103.626 36.0719 103.469 36.1721 103.069C36.2262 102.751 36.2181 102.543 36.4753 102.481C36.6459 102.419 36.7758 102.502 36.784 102.764C36.9328 103.209 37.038 103.668 37.098 104.133C37.4565 104.44 37.7806 104.785 38.0646 105.162C38.3923 105.972 38.728 104.489 39.0692 106.153C39.4103 107.103 39.7596 105.866 40.1143 107.106C40.469 109.4 40.8318 108.059 41.1973 108.018C41.5655 108.828 41.9392 109.657 42.321 108.89C42.7027 109.619 43.0899 109.273 43.4825 109.719C43.8751 109.152 44.2758 111.79 44.6847 110.505C45.0908 112.435 45.497 111.231 45.9248 111.244C46.3444 111.652 46.7695 112.227 47.2027 111.938C47.6359 112.262 48.0746 112.713 48.5186 112.583C48.9627 112.454 49.4148 112.681 49.8724 113.18C50.33 112.999 50.7957 114.168 51.2641 113.72C51.7352 114.022 52.2118 113.828 52.6937 114.214C53.1757 113.796 53.6657 114.214 54.1612 114.654C54.6567 115.478 55.1576 113.164 55.6666 115.04C56.1757 115.629 56.6901 115.769 57.21 115.37C57.7298 115.415 58.2578 114.138 58.7912 115.64C59.3327 116.385 59.8742 116.568 60.4157 115.853C60.9572 117.875 61.5123 117.537 62.0701 116.007C62.0701 115.102 62.0701 116.722 62.0701 116.007C62.5195 115.197 62.9663 116.776 63.4239 116.093C63.8679 116.209 64.3119 117.413 64.756 116.147C65.1973 117.999 65.6386 117.154 66.0773 116.171C66.5159 117.192 66.9545 117.87 67.3905 116.171C67.8264 116.941 68.2596 116.711 68.6928 116.136C69.126 114.948 69.5565 115.424 69.9843 116.071C70.2551 116.838 70.4988 114.5 70.7533 116.02C71.0105 115.667 71.265 116.071 71.5195 115.958C71.774 114.762 72.0285 115.739 72.2803 115.591C72.5349 116.401 72.7867 116.941 73.0385 115.799C73.0866 115.847 73.149 115.88 73.2166 115.891C73.2841 115.902 73.3535 115.891 73.4148 115.861C73.5394 115.623 73.6666 115.513 73.7912 115.278C73.9157 116.074 74.0403 116.088 74.1648 115.942C74.2894 115.586 74.4139 115.774 74.5385 115.599C74.663 114.654 74.7876 114.886 74.9121 115.378C75.0367 115.469 75.1612 115.918 75.2831 115.742C75.4076 116.52 75.5294 116.493 75.654 116.328C75.7785 116.034 75.9004 115.575 76.0222 115.359C76.1441 115.143 76.2686 114.7 76.3905 114.4C76.4911 114.506 76.6168 114.585 76.756 114.63C76.8778 113.968 76.9997 113.25 77.1215 113.906C77.2433 114.198 77.3652 113.415 77.487 115.081C77.6089 114.786 77.7307 115.351 77.8498 115.156C77.9717 114.743 78.0908 115.599 78.2127 114.654C78.3318 112.861 78.4536 115.248 78.5728 114.384C78.6919 115.27 78.8137 114.214 78.9329 114.773C79.0114 114.476 79.0926 114.109 79.1711 114.719C79.2497 114.576 79.3309 115.326 79.4094 115.799C79.4879 116.055 79.5692 116.053 79.6477 115.027C79.7668 115.318 79.8859 114.487 80.0024 115.132C80.1215 115.189 80.2379 115.156 80.3571 114.398C80.4762 114.649 80.5926 114.317 80.709 114.776C80.8255 114.014 80.9446 114.843 81.061 114.287C81.1775 114.336 81.2939 114.827 81.4103 114.74C81.5267 114.654 81.6432 114.9 81.7596 113.998C81.876 115.027 81.9924 113.925 82.1062 113.669C82.2226 113.059 82.3363 113.461 82.4527 113.796C82.5692 114.543 82.6829 113.272 82.7966 113.796C82.9103 113.944 83.0267 113.013 83.1405 113.553C83.2542 112.875 83.3679 113.107 83.4816 113.528C83.5953 113.042 83.709 113.161 83.8228 113.318C83.9365 113.277 84.0502 112.648 84.1612 112.699C84.2749 112.921 84.3859 112.343 84.4997 113.072C84.6675 112.764 84.8354 112.872 85.0033 112.705C85.1694 112.684 85.3371 112.679 85.5042 112.689C85.8372 114.203 86.1675 113.596 86.4951 112.284C86.8228 112.824 87.1504 110.88 87.4726 111.857C87.7975 111.776 88.117 112.802 88.4365 111.409C88.6504 111.679 88.8616 111.088 89.0701 111.099C89.2812 111.439 89.4897 110.486 89.6982 110.78C89.9067 108.944 90.1125 110.51 90.321 110.456C90.5267 111.738 90.7325 110.669 90.9356 110.113C91.1386 111.463 91.3417 109.09 91.5448 109.487C91.7451 110.297 91.9482 109.692 92.1459 109.411C92.3462 107.61 92.5439 108.099 92.7415 108.574C92.9392 107.694 93.1341 109.508 93.3291 108.671C93.524 109.73 93.7163 108.855 93.9085 108.534C94.1007 107.673 94.293 108.561 94.4825 107.894C94.672 109.12 94.8616 107.74 95.0484 107.354C95.256 107.318 95.4492 107.224 95.6062 107.084C95.7903 108.04 95.9744 107.135 96.1477 106.838C96.3291 107.211 96.5105 105.55 96.6892 106.239C96.8679 107.089 97.0466 106.344 97.2307 105.699C97.4067 105.013 97.5827 105.58 97.7587 105.348C97.932 104.171 98.108 105.024 98.2785 104.894C98.3652 104.948 98.4491 104.687 98.5358 104.484C98.6739 104.282 98.4491 104.139 98.7903 104.433C98.2217 104.103 98.9284 103.817 99.2939 103.639C98.9663 103.461 99.9979 103.388 99.7894 103.482C100.09 103.399 100.266 103.237 100.277 103.053C100.233 102.961 100.488 102.864 100.591 102.783C100.767 102.689 100.981 102.597 100.756 102.513C100.734 102.373 100.645 102.243 101.027 102.092C101.178 101.952 101.617 101.822 101.544 101.666C101.471 101.509 101.316 101.379 101.815 101.234C101.958 101.088 102.473 100.942 102.299 100.796C102.546 100.669 102.782 100.521 103.003 100.353C103.325 100.205 102.868 100.054 103.036 99.9026C103.767 99.7514 102.995 99.6002 103.325 99.4463C103.25 99.2924 103.001 99.1386 103.748 98.9847C104.333 98.8308 104.333 98.6742 104.457 98.5176C104.154 98.361 104.411 98.2044 104.436 98.0452C104.709 97.9408 104.956 97.7776 105.159 97.5673C105.112 97.408 105.429 97.246 105.099 97.084C105.134 96.9869 105.099 96.8897 105.218 96.7898C105.565 96.6926 105.638 96.5927 105.64 96.4955C105.584 96.4006 105.535 96.3013 105.494 96.1985C105.223 96.0986 105.638 95.9987 105.86 95.8988C106.082 95.799 105.76 95.6991 106.084 95.5965C106.29 95.4966 106.566 95.394 106.447 95.2941C106.534 95.1915 106.686 95.0916 106.756 94.989C106.826 94.8864 106.818 94.7839 106.583 94.6813C106.288 94.4761 106.637 94.2682 106.921 94.0603C106.488 93.8524 107.132 93.6418 107.268 93.4313C107.934 93.2207 107.728 93.0074 107.861 92.7941C107.993 92.5808 107.763 92.3649 107.915 92.1489C107.254 91.9329 108.05 91.7142 108.332 91.4955C108.557 91.2769 108.743 91.0555 108.521 90.8341C109.334 90.3913 108.494 89.9432 109.087 89.4842C108.451 89.0307 109.233 88.5717 109.612 88.11C110.197 87.6457 109.778 87.1786 110.094 86.7035C110.178 86.231 110.98 85.7504 110.536 85.2672C110.092 84.7839 110.744 84.2953 110.931 83.8012C110.861 83.3072 111.172 82.8104 111.283 82.3055C111.394 81.8007 111.494 81.2931 111.589 80.7802C111.684 80.2672 111.77 79.8245 111.86 79.2251C111.969 78.7036 112.041 78.1748 112.074 77.643C112.106 77.3515 112.136 77.2705 112.163 77.1031C112.211 76.745 112.237 76.3844 112.242 76.0232C112.667 75.6938 112.109 75.7532 112.307 75.6803C112.504 75.6074 112.664 75.351 112.361 74.3817C112.361 74.5707 112.672 74.4114 112.38 74.1874C112.325 73.9633 110.969 73.6771 112.396 73.615C112.493 73.615 111.649 73.3261 112.409 73.075C113.609 72.8348 113.01 72.6431 112.409 72.8429C112.659 73.0885 111.776 73.0184 112.409 72.8267C111.597 72.635 112.255 72.3218 112.409 72.0842C112.047 72.2192 113.159 72.1058 112.409 71.9222C112.252 71.7387 112.491 71.4822 112.409 71.331C111.443 71.1042 111.559 70.8342 112.409 70.6237C112.409 70.4131 112.242 70.2592 112.409 70.2673C113.528 70.0486 112.139 69.9352 112.396 69.8353C111.854 69.6706 110.847 69.3278 112.371 69.0254C111.727 68.7095 113.024 68.4234 112.339 68.3694C111.906 67.9617 110.893 67.9185 112.296 67.8294C112.171 67.7268 112.883 67.5594 112.244 66.9196C112.144 66.7279 111.762 66.4471 112.182 66.1745C112.853 65.9045 112.683 65.6345 112.109 65.4752C113.211 65.2349 110.739 64.9974 112.028 64.7598C111.54 64.5222 111.524 64.2846 111.936 64.047C110.969 63.5746 112.723 63.1021 111.727 62.6351C113.081 62.168 111.854 61.7036 111.481 61.2393C111.21 60.7776 111.508 60.3187 111.21 59.8624C109.686 59.4061 111.053 58.9526 110.89 58.5125C110.157 58.0617 110.72 57.6135 110.536 57.1626C109.453 56.7172 111.248 56.2744 110.149 55.8371C111.058 55.397 111.502 54.9623 109.726 54.5277C108.481 54.093 108.586 53.6638 109.269 53.2345C109.152 52.8052 108.343 52.3814 108.779 51.9602C109.117 51.7361 109.066 51.5093 108.508 51.288C108.104 51.0639 109.507 50.8425 108.237 50.6184C108.064 50.4321 108.446 50.3889 107.945 50.2486C107.576 50.1082 108.586 49.8706 107.641 49.2982C108.494 49.0283 107.769 48.7745 107.33 48.545C107.704 48.3155 107.918 48.1211 107.01 48.0051C106.542 47.5326 106.659 47.5407 106.68 47.5029C106.916 47.4651 107.119 47.3814 106.342 46.7227C106.196 46.4615 106.112 46.1707 106.095 45.8722C106.304 45.7103 106.236 45.6482 105.995 45.6266C105.754 45.605 106.242 45.6914 105.64 45.4592C105.581 45.4592 105.719 45.3863 105.933 45.2945C106.147 45.2027 105.578 45.0785 105.275 44.9462C105.153 44.8139 104.872 44.6762 104.936 44.544C105.001 44.4117 105.026 44.2983 104.901 44.2173C104.663 44.0337 104.511 43.8393 104.785 43.6611C104.409 43.483 104.135 43.3183 104.514 43.1887C104.043 43.0591 103.973 42.9619 103.954 42.9187C104.127 42.8782 103.954 42.8944 104.127 42.9889C103.973 43.1509 103.485 43.1968 103.729 43.0294C104.065 42.9457 103.756 42.808 103.918 42.6055C103.496 42.403 103.139 42.1331 103.323 41.7956C103.699 41.288 103.052 40.8939 103.084 40.5969C102.781 40.2972 103.171 40.0948 103.047 39.9625C102.995 39.6925 102.976 39.733 102.776 39.895C102.952 39.976 102.762 40.0894 102.692 40.2162C102.443 40.3431 103.074 40.4862 102.494 40.6104C102.573 40.4727 102.102 40.5186 102.064 40.4295C101.909 40.3404 101.774 40.1164 101.625 39.4468C101.33 37.557 101.029 37.5111 100.726 38.3021C100.42 37.9889 100.112 36.226 99.7948 37.1763C99.4807 35.3756 99.1585 34.2579 98.8336 36.0721C98.5087 35.2001 98.1784 35.6428 97.8426 34.9922C97.5069 34.5926 97.1684 34.4144 96.8219 33.9258C96.478 34.1688 96.1287 32.1628 95.774 32.881C95.4193 31.3367 95.0619 32.2843 94.691 31.8551C94.3282 30.9992 93.96 31.9064 93.589 30.8508C93.2181 31.6094 92.8417 28.9609 92.4599 29.8653C92.0782 29.0878 91.6937 28.8718 91.3038 28.8988C90.9139 27.3249 90.5213 28.0457 90.1233 27.9539C89.7253 27.8108 89.311 29.3308 88.9184 27.0279C88.5123 26.6121 88.1062 25.2731 87.6892 26.1235C87.2749 24.7277 86.858 25.6888 86.4356 25.238C86.0132 25.5646 85.5881 25.3189 85.1603 24.374C84.9464 24.0717 84.7298 23.4723 84.5132 23.9853C84.2966 24.4172 84.08 23.6856 83.8607 23.529C83.6414 23.0862 83.422 23.2212 83.2027 23.3103C82.9834 23.0673 82.7614 22.4626 82.5394 22.7029C82.3174 22.8163 82.0953 22.4815 81.8706 22.2277C81.6459 22.819 81.4211 21.7229 81.1964 21.901C80.9717 21.4583 80.7442 21.7094 80.5168 21.4826C80.2894 20.9183 80.0619 20.5782 79.8318 21.1154C79.6044 20.5026 79.3742 19.806 79.1441 20.4459C78.9139 20.4864 78.6811 19.8438 78.4509 20.3514C78.4049 19.7817 78.3589 19.2094 78.3101 19.7952C78.2614 19.3876 78.2099 19.6575 78.1585 20.3784Z" fill="black"/>
<path d="M69.8814 29.239C69.6648 29.4064 69.4753 30.8103 69.2993 29.7358C69.1233 28.3535 68.9636 30.9183 68.8119 30.327C68.6603 32.5327 68.5168 27.9242 68.3733 30.9669C68.1567 28.637 68.1567 30.5781 67.9428 30.5349C67.6721 30.5349 67.4013 31.4285 67.098 29.725C66.7948 30.7698 66.4726 30.6888 66.1396 29.1472C65.8065 30.4674 65.46 31.8794 65.108 28.8907C64.756 30.0381 64.3986 28.6883 64.0439 29.0392C63.6892 29.4631 63.3345 30.5322 62.9906 29.6737C62.6684 28.5128 62.3841 31.1612 62.1784 30.6888C61.9727 31.093 61.8242 31.5236 61.737 31.9685C61.6693 32.2546 61.691 35.5996 61.821 33.2886C61.9509 34.7627 62.1946 34.9571 62.571 34.4252C62.7876 34.5251 63.015 35.273 63.2533 35.3783C63.4915 39.1579 63.7406 33.3885 64.0006 36.2962C64.2713 35.4674 64.5421 37.6974 64.8128 37.179C65.0836 36.5392 65.3787 36.2638 65.6739 38.024C65.969 37.4247 66.2722 38.564 66.5809 38.834C66.8923 38.1158 67.2091 40.0084 67.5312 39.6088C67.8318 40.7373 68.1784 40.6401 68.5439 40.0543C68.9094 39.4684 69.2939 40.7427 69.6784 40.1163C70.0628 37.5705 70.4446 41.2691 70.8047 39.8275C71.1621 39.3469 71.4979 40.8804 71.7849 39.2173C72.0719 39.1849 72.3264 37.476 72.4861 38.3156C72.6486 38.2859 72.8219 39.517 73.0114 37.2519C73.2009 38.0402 73.4013 35.4971 73.6179 36.2908C73.8345 37.4787 74.0619 35.2109 74.3056 35.3702C74.5493 32.9404 74.8038 35.7265 75.0746 34.4279C75.4509 33.0457 75.7109 34.3254 75.8679 33.0268C76.0249 32.1547 76.0818 32.7568 76.052 31.6445C76.0222 30.7644 75.9085 30.7293 75.7271 30.3783C75.5457 30.9992 75.2939 30.3783 74.9906 29.3281C74.6874 30.1083 74.3327 26.3422 73.9428 28.5911C73.5529 28.2941 73.1305 27.1602 72.6784 28.2671C72.2316 29.7979 71.7659 27.8189 71.3002 28.4534C70.8101 29.833 70.339 27.4626 69.8814 29.239Z" fill="black"/>
<path d="M41.9988 64.6734C41.8092 64.1334 41.6143 63.6421 41.4139 64.0713C41.2136 63.9768 41.0078 64.4898 40.802 64.0713C40.5935 64.3197 40.385 64.3791 40.1739 63.2182C39.9627 63.6853 39.7542 63.1669 39.543 63.8932C39.3345 65.3402 39.126 63.7906 38.923 64.1982C38.7199 65.2079 38.5195 64.0821 38.3273 64.1604C38.1323 64.3305 37.9455 66.385 37.7668 64.5303C37.5881 64.8732 37.4148 66.8413 37.2524 64.8948C37.1089 66.3418 36.9816 65.2619 36.8381 65.2457C36.7054 65.4698 36.5674 65.2835 36.4618 65.7587C36.2208 66.2177 36.0069 66.2554 35.8147 66.6226C35.6224 67.1383 35.4545 68.5934 35.311 67.4865C35.0944 66.763 34.8805 67.195 34.6639 67.2706C34.2767 68.4018 33.895 67.7322 33.5403 67.1707C33.1856 67.2976 32.8526 66.4255 32.5628 67.5702C32.2704 68.2155 32.0213 67.1734 31.8237 68.3424C31.626 67.8024 31.4852 70.3429 31.4148 69.3656C31.3444 70.2025 31.3444 71.1339 31.4311 70.513C31.5177 70.2646 31.6558 70.5589 31.8318 71.628C32.0105 71.987 32.2271 72.8591 32.4708 72.6404C32.6995 72.9785 32.9727 73.2845 33.2831 73.5502C33.8463 74.099 34.4519 74.6027 35.0944 75.0567C35.7371 75.6117 36.5383 75.9517 37.385 76.0286C37.8122 76.0575 38.2405 75.995 38.6414 75.845C39.0556 75.4859 39.4536 75.575 39.8381 75.054C40.1251 75.8504 40.3661 74.6382 40.5719 74.02C40.6748 74.4222 40.7722 74.6058 40.8616 74.4492C40.9509 74.2926 41.0349 73.7986 41.1161 72.8294C41.1973 72.4028 41.2731 72.6998 41.3462 72.7889C41.4193 72.878 41.4924 72.2327 41.5628 71.7954C41.6359 71.4282 41.7118 70.7856 41.7957 71.0529C41.8796 70.756 41.9663 71.3553 42.0665 70.9881C42.1666 70.621 42.2533 70.0783 42.3535 70.1782C42.4536 70.567 42.5538 70.432 42.6567 70.2187C42.7596 69.8137 42.8652 70.2808 42.9735 69.4628C43.0791 69.6247 43.1874 69.5438 43.2957 69.4088C43.3769 68.7743 43.4365 68.9336 43.4798 69.1388C43.5204 68.8958 43.5448 69.209 43.5502 68.2695C43.5502 67.9995 43.5502 68.5637 43.5123 68.3127C43.4825 67.3731 43.4365 67.7457 43.3769 66.9466C43.3174 67.6134 43.2415 66.9763 43.1495 66.1583C43.0601 65.9963 42.9572 65.0783 42.8408 65.6669C42.7244 64.7652 42.5944 64.2846 42.4563 64.7976C42.3128 65.621 42.1612 65.3159 41.9988 64.6734Z" fill="black"/>
<path d="M72.4591 100.796C72.3859 101.158 72.3156 101.08 72.2424 101.047C72.1721 101.271 72.1017 100.75 72.0313 101.46C71.9636 101.19 71.8959 101.62 71.8336 101.803C71.7713 101.857 71.7091 101.822 71.6549 102.17C71.572 102.293 71.5182 102.432 71.4979 102.578C71.4518 103.045 71.4085 103.194 71.3733 102.98C71.2379 102.527 71.1025 102.535 70.9672 102.478C70.826 102.446 70.6902 102.394 70.5637 102.324C70.293 103.299 70.0222 102.999 69.7731 101.671C69.5024 102.481 69.2641 101.509 69.0258 101.015C68.7849 99.7811 68.5547 100.475 68.3381 100.359C67.978 99.1872 67.58 100.542 67.1739 99.7379C66.7704 99.5165 66.3616 99.9701 65.969 99.7541C65.5791 97.9264 65.2109 100.972 64.8859 100.278C64.5692 100.278 64.3038 100.686 64.1197 101.185C63.9356 103.296 63.83 101.026 63.8489 102.346C63.8489 103.253 63.9681 102.932 64.2226 103.634C64.4392 103.609 64.6775 104.924 64.9347 104.714C65.1919 104.503 65.4762 105.955 65.747 105.737C66.0313 106.466 66.3291 106.884 66.6323 106.719C66.9356 107.286 67.247 107.346 67.561 107.678C67.8751 108.01 68.1892 108.312 68.5006 108.634C68.7081 108.848 68.9139 109.063 69.1179 109.279C69.3219 109.495 69.5222 109.714 69.719 109.935C69.9792 110.091 70.1808 110.328 70.293 110.61C70.5962 110.34 70.9428 110.289 71.3137 111.441C71.6847 111.058 72.08 110.75 72.4807 111.665C72.8814 110.191 73.293 110.955 73.6802 111.395C74.0728 112.316 74.4491 111.015 74.7957 110.783C75.1396 112.373 75.4536 110.569 75.7136 109.94C75.8153 109.749 75.9429 109.573 76.0926 109.417C76.2145 110.451 76.3336 109.147 76.4473 108.89C76.5637 108.831 76.6748 109.282 76.7858 108.464C76.8968 108.734 77.0024 109.168 77.108 107.829C77.2136 109.322 77.3192 107.621 77.422 107.303C77.5249 107.459 77.6278 106.682 77.728 106.746C77.8282 106.86 77.9311 106.703 78.0312 106.298C78.1314 105.41 78.2343 106.509 78.3372 105.634C78.4401 104.622 78.543 104.171 78.6486 105.154C78.7542 104.036 78.8598 105.105 78.9681 104.479C79.0493 105.092 79.1143 104.549 79.163 104.13C79.2118 102.392 79.247 103.051 79.2659 103.32C79.2849 103.798 79.2903 103.288 79.2822 102.961C79.2822 101.992 79.2524 103.482 79.2172 102.232C79.182 101.566 79.1387 103.885 79.0791 102.43C79.0222 102.43 78.9545 101.933 78.876 101.239C78.7975 100.235 78.7109 100.767 78.6053 100.499C78.5078 100.062 78.4049 101.549 78.2912 100.38C78.1423 100.024 77.9771 99.719 77.8038 99.8999C77.7172 100.102 77.6278 99.063 77.5331 99.0657C77.441 99.0144 77.3462 99.9377 77.2623 99.5057C77.1648 98.9874 77.0674 99.2357 76.9672 99.746C76.867 99.6677 76.7641 100.059 76.6612 99.2789C76.5583 99.0738 76.4527 99.1386 76.3471 99.233C76.2415 99.063 76.1359 98.8632 76.0276 99.0198C75.8137 99.3788 75.5971 98.1531 75.3778 98.8713C75.1612 98.5041 74.9446 98.0938 74.7307 99.009C74.5168 99.9242 74.3056 99.4598 74.0998 99.2222C73.8941 99.9647 73.6937 99.1656 73.5015 99.5597C73.3092 98.8794 73.1251 99.233 72.96 100.137C72.9438 100.208 72.9131 100.275 72.8697 100.333C72.8264 100.391 72.7713 100.439 72.7082 100.475C72.6434 100.504 72.5868 100.549 72.5434 100.605C72.4999 100.661 72.471 100.726 72.4591 100.796Z" fill="black"/>
<path d="M108.806 69.1982C108.662 69.6464 108.427 67.7484 108.134 68.3883C107.842 68.7743 107.495 68.0022 107.13 67.8105C106.767 66.52 106.388 67.0384 106.03 67.7079C105.489 68.0049 105.029 68.6258 104.617 67.9968C104.203 66.5605 103.843 67.2571 103.534 68.5665C103.214 69.5654 102.933 70.0864 102.681 69.4547C102.554 69.6329 102.435 70.2403 102.318 70.6561C102.205 71.196 102.094 71.5659 101.985 70.7047C101.985 70.4671 101.771 70.9746 101.771 71.3472C101.628 71.8548 101.501 70.9962 101.36 70.845C101.227 70.845 101.089 69.8434 100.973 70.6507C100.845 70.162 100.721 69.5708 100.596 69.8758C100.472 69.2252 100.347 70.5319 100.22 69.9055C100.093 70.5778 99.9654 70.0783 99.8327 69.9541C99.7 69.2684 99.5619 68.5502 99.4211 69.209C99.2424 69.3953 99.0529 68.939 98.8553 68.5665C98.6576 68.5125 98.4518 68.1561 98.2433 68.6582C98.1053 67.7754 97.9726 67.3705 97.8237 67.2571C97.6748 67.1437 97.5529 67.3273 97.4013 67.6215C97.2211 67.9501 97.0811 68.2991 96.9843 68.6609C96.7785 67.9212 96.5782 67.7727 96.3859 68.2641C96.1937 67.5567 96.0123 68.804 95.8444 69.128C95.6766 68.9228 95.5195 69.1037 95.3814 69.5519C95.2433 69.3872 95.1107 69.8974 95.024 69.9676C94.9266 70.0783 94.848 69.5492 94.7966 70.0621C94.7451 69.0308 94.7208 70.6021 94.7262 71.0934C94.7262 71.763 94.7668 72.0707 94.8345 71.6334C94.9049 71.4066 95.0078 70.7371 95.1513 72.4163C95.2569 73.9066 95.3679 72.3002 95.4843 72.9563C95.598 73.4368 95.7172 73.0156 95.839 73.4638C95.9609 73.4638 96.0854 74.1873 96.2154 73.9795C96.3453 73.7716 96.4861 74.5491 96.6053 74.487C96.876 74.3466 97.1468 76.6684 97.4175 75.4859C97.6883 75.2808 97.959 77.176 98.2488 76.4686C98.5195 76.7386 98.7903 76.6684 99.061 77.4379C99.3612 77.7238 99.6225 78.0479 99.8381 78.4017C100.087 78.6204 100.38 78.5151 100.713 79.3088C101.04 79.9378 101.4 79.2602 101.777 79.8757C102.15 80.0057 102.541 80.0768 102.936 80.0863C103.555 80.1019 104.168 79.954 104.712 79.6578C105.256 79.3615 105.711 78.9272 106.033 78.399C106.461 77.7564 106.954 77.0491 107.427 76.2986C107.663 75.9233 107.896 75.2376 108.112 75.1485C108.329 74.973 108.529 75.1053 108.703 73.9579C108.767 73.5309 108.913 73.1203 109.133 72.7484C109.242 71.9627 109.315 72.1706 109.336 71.5389C109.367 71.1399 109.338 70.7386 109.25 70.3483C109.163 69.5357 109.011 69.9244 108.806 69.1982Z" fill="black"/>
<path d="M80.4627 53.7582C80.284 54.3819 80.0971 54.5844 79.9022 55.0703C79.7072 55.4942 79.5042 56.1286 79.293 56.35C79.0818 55.4402 78.8598 57.0817 78.6323 57.5946C78.4049 58.8905 78.1666 57.519 77.9229 58.8041C77.6793 58.931 77.4248 58.9418 77.1648 59.9812C76.8941 60.756 76.6233 61.3311 76.3526 61.1232C76.0818 61.7063 75.7921 60.8532 75.4997 62.2301C75.2072 61.9601 74.9094 62.9131 74.6007 63.31C74.4464 63.04 74.2921 63.256 74.135 63.5638C73.978 63.8716 73.8183 64.2657 73.6585 64.3494C73.496 65.1782 73.3336 65.54 73.1684 65.459C73.0033 65.5805 72.8381 65.5562 72.6675 65.3537C72.4997 65.2565 72.3291 65.1971 72.1558 65.6912C71.9825 65.7182 71.8092 65.8532 71.6332 66.3229C71.4572 66.0044 71.2785 66.6712 71.0917 66.5551C70.9049 66.439 70.7316 66.8575 70.5502 67.2571C70.6098 67.3731 70.6585 66.8116 70.6964 67.5648C70.749 67.754 70.7781 67.949 70.7831 68.1453C70.802 68.5043 70.8101 69.0848 70.8101 68.831C70.8101 69.1874 70.8101 68.4666 70.7749 69.0659C70.7757 69.1799 70.7427 69.2917 70.6802 69.3872C70.6396 69.4061 70.5854 69.4466 70.5231 69.9514C70.6937 70.1674 70.867 69.8353 71.0376 70.459C71.2081 70.5778 71.3814 71.061 71.552 70.9638C71.8959 71.2608 72.2397 71.9141 72.5836 71.9654C72.9275 72.068 73.274 72.3839 73.6206 72.9563C73.7939 72.7592 73.9672 72.6863 74.1405 73.1587C74.3137 73.7284 74.487 74.3439 74.663 73.9363C74.8363 75.7478 75.0123 73.9957 75.1856 74.7462C75.3616 74.703 75.5349 75.4967 75.7109 74.9136C75.8868 74.7003 76.0628 74.5221 76.2388 74.9757C76.4148 74.6517 76.5908 76.1177 76.7803 75.8828C76.9563 76.4228 77.135 76.7818 77.3219 76.061C77.5006 75.8585 77.6766 76.1447 77.8634 76.8466C78.0421 76.8763 78.2208 77.4325 78.4049 77.1868C78.5836 77.0761 78.765 77.1868 78.9464 77.8077C79.1278 77.3272 79.3092 77.2678 79.4879 77.9373C79.6693 78.1425 79.8534 77.8914 80.0294 78.7661C80.1892 79.1522 80.3489 79.2791 80.5087 79.3061C80.6684 79.1684 80.8282 80.1862 80.9906 79.5437C81.1504 79.7597 81.3128 80.5264 81.4753 80.2645C81.6377 80.2186 81.8002 80.7586 81.9627 80.332C82.2876 80.3077 82.6152 80.3833 82.9428 81.1176C83.2921 81.3525 83.6217 81.6153 83.9284 81.9033C84.2614 82.6916 84.5944 82.2947 84.9275 82.7132C85.2605 83.8309 85.5935 83.3179 85.9266 83.5231C86.2596 84.0118 86.5926 84.8298 86.923 84.3331C87.2533 85.9529 87.5836 84.9135 87.9139 85.143C88.2442 84.8352 88.5692 84.5193 88.8968 85.9664C89.2217 86.6036 89.5466 87.2029 89.8661 86.8033C90.1883 86.3147 90.5051 87.6997 90.8219 87.6511C91.1386 88.6446 91.45 87.8832 91.7614 88.515C91.7614 87.562 91.7614 89.3249 91.7614 88.515C91.7614 87.5971 91.7614 88.0101 91.7614 88.515C92.0322 88.8471 92.2136 89.2439 92.3462 89.3519C92.4762 89.8919 92.5439 90.7423 92.5466 90.2752C92.5466 90.1429 92.4897 90.7018 92.3841 91.15C92.2791 91.4181 92.1289 91.6665 91.9401 91.8843C91.6878 92.1746 91.3744 92.406 91.0222 92.5619C90.6675 92.624 90.2695 93.2315 89.858 92.7779C89.4464 92.0706 89.0213 92.3243 88.6071 92.3783C88.1928 93.5311 87.7812 92.354 87.3724 91.6548C86.9636 92.1597 86.5601 92.2623 86.1567 90.8881C85.7533 90.8206 85.3444 91.1122 84.9572 90.0781C84.5619 89.3195 84.1666 89.4302 83.7767 89.2358C83.3868 90.0107 82.997 88.866 82.6125 88.3584C82.228 87.4108 81.8462 87.0085 81.4645 87.4513C81.0854 87.3136 80.709 86.7197 80.3354 86.5145C79.9618 86.7412 79.5908 86.1797 79.2199 85.5533C78.8516 85.7288 78.4861 85.6478 78.1206 84.5679C77.7578 83.3206 77.395 83.021 77.0376 83.5636C76.6802 83.0993 76.3228 82.5944 75.9681 82.5431C75.6134 81.7818 75.2641 81.9519 74.9148 81.5064C74.7415 80.8234 74.5656 80.548 74.3923 80.9854C74.219 80.1754 74.0457 81.3282 73.8751 80.4616C73.7045 79.595 73.5312 79.8596 73.3607 80.0053C73.1901 79.6625 73.0195 79.4222 72.8489 79.406C72.6784 79.6544 72.5105 79.5437 72.3399 78.8849C72.172 79.325 72.0042 78.7365 71.8363 78.345C71.6684 79.19 71.5006 78.8282 71.3354 77.8644C71.1675 77.2597 71.0024 78.0993 70.8372 77.2813C70.6721 77.4811 70.5069 76.2851 70.3417 76.6117C70.1766 77.2921 70.0141 77.2894 69.8489 76.2176C69.6865 75.9476 69.5213 75.6533 69.3589 75.5831C69.1964 75.332 69.034 74.865 68.8742 75.1593C68.7689 74.888 68.6042 74.6436 68.3923 74.4438C68.239 74.3225 68.079 74.2098 67.913 74.1064C67.7533 73.9579 67.5935 73.6177 67.4365 73.5826C67.2767 73.3801 67.1197 72.8888 66.9627 73.0615C66.8923 73.2559 66.8246 72.4244 66.7542 72.6296C66.6865 72.5999 66.6161 72.7916 66.5484 72.608C66.367 72.9914 66.1802 72.608 65.9906 72.7727C65.8011 72.6701 65.6116 72.3488 65.422 72.4379C65.2325 71.8116 65.0457 72.257 64.8616 72.0734C64.6775 72.1652 64.4988 72.2948 64.3201 71.9303C63.9762 71.2284 63.6594 71.0529 63.3968 70.9233C63.3968 71.358 63.3697 71.3391 63.3697 70.8774C63.3697 70.5859 63.348 70.3375 63.348 70.8261C63.1991 71.0448 63.1017 70.4968 63.0583 69.7462C63.0168 69.3805 63.025 69.0109 63.0827 68.6474C63.1423 69.3737 63.2506 67.0276 63.4049 67.6242C63.5619 66.223 63.7623 67.0708 64.0114 66.7684C64.2605 66.466 64.5529 66.7117 64.8859 66.1691C65.1567 64.776 65.4952 64.9704 65.8444 65.4725C66.1937 65.1323 66.5565 66.0746 66.8841 65.2025C66.9437 64.3683 67.0412 65.0594 67.1955 64.7733C67.5258 62.654 67.8535 64.3899 68.1757 63.715C68.4979 64.4142 68.8174 63.8743 69.1341 62.6351C69.2024 62.3961 69.321 62.1745 69.4821 61.985C69.6432 61.7955 69.843 61.6425 70.0683 61.5363C70.3769 60.2431 70.6802 61.3554 70.978 60.4159C71.2785 58.5476 71.5737 60.4645 71.8634 59.2766C72.1531 59.1308 72.4401 58.6502 72.7217 58.1157C72.9924 59.6221 73.2822 59.4655 73.5529 56.9332C73.8237 57.7863 74.0944 55.154 74.3652 55.7318C74.6359 56.0395 74.8877 56.593 75.1395 54.5088C75.3941 54.3954 75.6405 53.8932 75.8841 53.2642C76.1278 51.0477 76.3661 52.3328 76.5989 52.0007C76.7939 51.8738 77.0674 50.4213 77.376 51.1908C77.6847 51.9602 78.0285 51.8549 78.3643 50.9451C78.7 49.7896 79.0276 51.8981 79.3038 51.1206C79.5231 49.5844 79.7397 52.0331 79.932 51.4985C80.1242 51.5984 80.2921 52.1789 80.4166 52.1006C80.5466 52.8376 80.617 53.1535 80.6251 52.9105C80.6414 53.248 80.5818 54.2145 80.4627 53.7582Z" fill="black"/>
</svg>
