<svg width="24" height="24" viewBox="0 0 24 24" fill="none" xmlns="http://www.w3.org/2000/svg">
<path d="M12 24C18.6274 24 24 18.6274 24 12C24 5.37258 18.6274 0 12 0C5.37258 0 0 5.37258 0 12C0 18.6274 5.37258 24 12 24Z" fill="#F0F0F0"/>
<path d="M2.48081 4.69418C1.5382 5.92057 0.827434 7.33409 0.413574 8.86967H6.65629L2.48081 4.69418Z" fill="#0052B4"/>
<path d="M23.5867 8.8697C23.1729 7.33417 22.4621 5.92065 21.5195 4.69426L17.3441 8.8697H23.5867Z" fill="#0052B4"/>
<path d="M0.413574 15.1306C0.82748 16.6661 1.53825 18.0796 2.48081 19.3059L6.65615 15.1306H0.413574Z" fill="#0052B4"/>
<path d="M19.3062 2.4807C18.0798 1.53809 16.6663 0.827328 15.1307 0.413422V6.65609L19.3062 2.4807Z" fill="#0052B4"/>
<path d="M4.69458 21.5193C5.92097 22.4619 7.33449 23.1727 8.87002 23.5866V17.344L4.69458 21.5193Z" fill="#0052B4"/>
<path d="M8.86997 0.413422C7.33444 0.827328 5.92092 1.53809 4.69458 2.48066L8.86997 6.65605V0.413422Z" fill="#0052B4"/>
<path d="M15.1307 23.5866C16.6663 23.1727 18.0798 22.4619 19.3061 21.5194L15.1307 17.344V23.5866Z" fill="#0052B4"/>
<path d="M17.3441 15.1306L21.5195 19.306C22.4621 18.0796 23.1729 16.6661 23.5867 15.1306H17.3441Z" fill="#0052B4"/>
<path d="M23.8984 10.4348H13.5653H13.5653V0.101578C13.0529 0.034875 12.5305 0 12 0C11.4694 0 10.9471 0.034875 10.4348 0.101578V10.4347V10.4347H0.101578C0.034875 10.9471 0 11.4695 0 12C0 12.5306 0.034875 13.0529 0.101578 13.5652H10.4347H10.4347V23.8984C10.9471 23.9651 11.4694 24 12 24C12.5305 24 13.0529 23.9652 13.5652 23.8984V13.5653V13.5653H23.8984C23.9651 13.0529 24 12.5306 24 12C24 11.4695 23.9651 10.9471 23.8984 10.4348Z" fill="#D80027"/>
<path d="M15.1302 15.1305L20.4851 20.4853C20.7313 20.2391 20.9663 19.9818 21.1904 19.7149L16.606 15.1305H15.1302V15.1305Z" fill="#D80027"/>
<path d="M8.8695 15.1305H8.86941L3.51465 20.4853C3.76084 20.7315 4.01823 20.9665 4.28504 21.1906L8.8695 16.6061V15.1305Z" fill="#D80027"/>
<path d="M8.86939 8.86967V8.86958L3.51458 3.51471C3.2683 3.7609 3.03336 4.01829 2.8092 4.2851L7.39372 8.86962H8.86939V8.86967Z" fill="#D80027"/>
<path d="M15.1302 8.86968L20.4851 3.51478C20.2389 3.2685 19.9815 3.03356 19.7147 2.80945L15.1302 7.39396V8.86968Z" fill="#D80027"/>
</svg>
