<svg width="32" height="32" viewBox="0 0 32 32" fill="none" xmlns="http://www.w3.org/2000/svg">
<path fill-rule="evenodd" clip-rule="evenodd" d="M19.6087 17.7239C20.13 18.2452 20.13 19.0879 19.6087 19.6092C19.3487 19.8692 19.0073 19.9999 18.666 19.9999C18.3247 19.9999 17.9833 19.8692 17.7233 19.6092L15.9993 17.8852L14.2753 19.6092C14.0153 19.8692 13.674 19.9999 13.3327 19.9999C12.9913 19.9999 12.65 19.8692 12.39 19.6092C11.8687 19.0879 11.8687 18.2452 12.39 17.7239L14.114 15.9999L12.39 14.2759C11.8687 13.7545 11.8687 12.9119 12.39 12.3905C12.9113 11.8692 13.754 11.8692 14.2753 12.3905L15.9993 14.1145L17.7233 12.3905C18.2447 11.8692 19.0873 11.8692 19.6087 12.3905C20.13 12.9119 20.13 13.7545 19.6087 14.2759L17.8847 15.9999L19.6087 17.7239ZM15.9993 2.66653C8.64735 2.66653 2.66602 8.64787 2.66602 15.9999C2.66602 23.3519 8.64735 29.3332 15.9993 29.3332C23.3513 29.3332 29.3327 23.3519 29.3327 15.9999C29.3327 8.64787 23.3513 2.66653 15.9993 2.66653Z" fill="#FF776F"/>
</svg>
