<svg width="32" height="32" viewBox="0 0 32 32" fill="none" xmlns="http://www.w3.org/2000/svg">
<path fill-rule="evenodd" clip-rule="evenodd" d="M17.3327 17.3333C17.3327 18.0693 16.7353 18.6667 15.9993 18.6667C15.2633 18.6667 14.666 18.0693 14.666 17.3333V10.6667C14.666 9.93067 15.2633 9.33333 15.9993 9.33333C16.7353 9.33333 17.3327 9.93067 17.3327 10.6667V17.3333ZM15.9993 22.6667C15.2633 22.6667 14.666 22.0693 14.666 21.3333C14.666 20.5973 15.2633 20 15.9993 20C16.7353 20 17.3327 20.5973 17.3327 21.3333C17.3327 22.0693 16.7353 22.6667 15.9993 22.6667ZM15.9993 2.66667C8.63535 2.66667 2.66602 8.636 2.66602 16C2.66602 23.364 8.63535 29.3333 15.9993 29.3333C23.3633 29.3333 29.3327 23.364 29.3327 16C29.3327 8.636 23.3633 2.66667 15.9993 2.66667Z" fill="#B8B2EA"/>
</svg>
