<svg width="32" height="32" viewBox="0 0 32 32" fill="none" xmlns="http://www.w3.org/2000/svg">
<path fill-rule="evenodd" clip-rule="evenodd" d="M21.728 12.8073L15.6373 20.8073C15.3866 21.1366 14.9986 21.3313 14.5853 21.334H14.576C14.1666 21.334 13.78 21.1446 13.5266 20.822L10.284 16.6793C9.83064 16.1006 9.93197 15.262 10.512 14.8086C11.0906 14.354 11.9306 14.4553 12.384 15.0366L14.5613 17.818L19.6066 11.1926C20.052 10.6073 20.888 10.4926 21.476 10.9393C22.0613 11.386 22.1746 12.222 21.728 12.8073ZM16.0013 2.66731C8.6373 2.66731 2.66797 8.63665 2.66797 16.0006C2.66797 23.3633 8.6373 29.334 16.0013 29.334C23.3653 29.334 29.3346 23.3633 29.3346 16.0006C29.3346 8.63665 23.3653 2.66731 16.0013 2.66731Z" fill="#8ED08A"/>
</svg>
